
<svg width="197px" height="166px" viewBox="0 0 197 166" version="1.1" xmlns="http://www.w3.org/2000/svg" xmlns:xlink="http://www.w3.org/1999/xlink">
    <!-- Generator: Sketch 48.2 (47327) - http://www.bohemiancoding.com/sketch -->
    <desc>Created with Sketch.</desc>
    <defs>
        <path d="M17.3275389,2.49173559 L12.9884279,5.05114188 L13.0116849,5.05114188 L10.9550926,6.26295631 L5.70895444,9.3586838 C5.70895444,9.3586838 2.9845509,10.9472808 1.51935336,13.4897149 C-0.0920316489,16.2833375 0.000996775335,21.1543561 0.000996775335,21.1543561 L0.000996775335,24.8475047 L0.000996775335,26.2731687 L0.000996775335,28.0348821 L0.000996775335,29.8203565 L0.000996775335,33.1536947 C0.000996775335,33.1536947 -0.0920316489,38.0281078 1.51935341,40.8217304 C2.98455095,43.3641645 5.7089545,44.9527615 5.7089545,44.9527615 L10.2407673,47.6241842 L10.2607019,47.6547342 L15.417134,50.6961507 L15.4237789,50.6961507 L17.3275389,51.8163153 C17.3275389,51.8163153 21.4108218,54.3383828 24.5870777,54.3078328 C27.474281,54.2772828 30.1787499,52.6649247 30.1787499,52.6649247 L31.9728693,51.6092545 L31.9928039,51.6092545 L43.2492421,44.9663392 C43.2492421,44.9663392 45.9736456,43.3777422 47.4421656,40.8353081 C49.0535506,38.0416855 48.9571998,33.1672725 48.9571998,33.1672725 L48.9571997,26.7076568 L48.9837793,26.74839 L48.9837793,19.4503482 C48.9837793,19.4503482 48.9970691,16.2459987 47.5783858,13.676409 C46.0135149,10.8522366 41.8338812,8.49989096 41.8338812,8.49989096 L37.4947702,5.94048467 L37.5113824,5.97442903 L36.3518496,5.292147 L36.3651394,5.292147 L30.1787498,1.64312606 C30.1787498,1.64312606 27.4742809,0.0273735252 24.5870776,0.00021801772 C21.4108218,-0.0269374367 17.3275389,2.49173559 17.3275389,2.49173559 Z" id="path-1"></path>
        <path d="M9.41714071,1.3680117 L7.05892818,2.77317594 L7.0715679,2.77317594 L5.95385465,3.43848582 L3.10269263,5.13810091 C3.10269263,5.13810091 1.62203853,6.01027183 0.825735523,7.40611799 C-0.0500172005,8.93987155 0.000541725725,11.6141563 0.000541725725,11.6141563 L0.000541725725,13.6417673 L0.000541725725,14.4244848 L0.000541725725,15.3917 L0.000541725725,16.3719604 L0.000541725725,18.2020285 C0.000541725725,18.2020285 -0.0500172005,20.8781768 0.825735551,22.4119304 C1.62203856,23.8077766 3.10269266,24.6799475 3.10269266,24.6799475 L5.56563438,26.146611 L5.57646843,26.1633835 L8.37887717,27.8331808 L8.38248851,27.8331808 L9.41714071,28.4481731 C9.41714071,28.4481731 11.6363162,29.8328376 13.3625422,29.8160651 C14.9316744,29.7992925 16.4014945,28.9140763 16.4014945,28.9140763 L17.3765594,28.3344927 L17.3873934,28.3344927 L23.5050229,24.6874019 C23.5050229,24.6874019 24.985677,23.815231 25.7837857,22.4193848 C26.6595384,20.8856313 26.6071738,18.2094829 26.6071738,18.2094829 L26.6071738,14.6630273 L26.6216192,14.6853906 L26.6216192,10.6786225 C26.6216192,10.6786225 26.6288419,8.91937181 25.8578183,7.50861671 C25.0073451,5.95809066 22.735805,4.6666068 22.735805,4.6666068 L20.3775925,3.26144257 L20.3866209,3.28007868 L19.75644,2.90549247 L19.7636627,2.90549247 L16.4014945,0.902108427 C16.4014945,0.902108427 14.9316744,0.0150286021 13.3625422,0.000119696003 C11.6363162,-0.014789181 9.41714071,1.3680117 9.41714071,1.3680117 Z" id="path-2"></path>
    </defs>
    <g id="Page-1" stroke="none" stroke-width="1" fill="none" fill-rule="evenodd">
        <g id="New-Design" transform="translate(-179.000000, -2280.000000)">
            <g id="Collaborate-offline" transform="translate(121.000000, 2130.000000)">
                <g id="graphic" transform="translate(58.000000, 150.000000)">
                    <path d="M39.9324324,49.5162162 L20.7648649,88.9162162" id="Line-35" stroke="#A775D3" stroke-width="2" stroke-linecap="square"></path>
                    <path d="M68.6837838,22.8945946 L101.694595,15.4405405" id="Line-36" stroke="#A775D3" stroke-width="2" stroke-linecap="square"></path>
                    <path d="M120.862162,18.6351351 L144.289189,31.4135135" id="Line-37" stroke="#A775D3" stroke-width="2" stroke-linecap="square"></path>
                    <path d="M166.651351,62.2945946 L182.624324,133.640541" id="Line-38" stroke="#A775D3" stroke-width="2" stroke-linecap="square"></path>
                    <path d="M159.197297,62.2945946 L147.483784,104.889189" id="Line-39" stroke="#A775D3" stroke-width="2" stroke-linecap="square"></path>
                    <path d="M72.9432432,141.094595 L135.77027,120.862162" id="Line-40" stroke="#A775D3" stroke-width="2" stroke-linecap="square"></path>
                    <path d="M59.1,132.575676 L51.6459459,54.8405405" id="Line-41" stroke="#A775D3" stroke-width="2" stroke-linecap="square"></path>
                    <path d="M20.7648649,111.278378 L47.3864865,136.835135" id="Line-42" stroke="#A775D3" stroke-width="2" stroke-linecap="square"></path>
                    <path d="M25.0243243,93.1756757 L107.018919,21.8297297" id="Line-43" stroke="#A775D3" stroke-width="2" stroke-linecap="square"></path>
                    <path d="M26.0891892,105.954054 L170.910811,149.613514" id="Line-44" stroke="#A775D3" stroke-width="2" stroke-linecap="square"></path>
                    <path d="M174.105405,138.964865 L154.937838,122.991892" id="Line-45" stroke="#A775D3" stroke-width="2" stroke-linecap="square"></path>
                    <path d="M143.224324,42.0621622 L68.6837838,33.5432432" id="Line-47" stroke="#A775D3" stroke-width="2" stroke-linecap="square"></path>
                    <path d="M72.9432432,150.678378 L170.910811,150.678378" id="Line-48" stroke="#A775D3" stroke-width="2" stroke-linecap="square"></path>
                    <g id="code-cell" transform="translate(24.491892, 0.000000)" fill-rule="nonzero">
                        <g id="hexagon">
                            <g id="Shape">
                                <use fill="#E9DEF3" fill-rule="evenodd" xlink:href="#path-1"></use>
                                <path stroke="#A775D3" stroke-width="2" d="M32.7014923,4.292147 L35.8570885,6.15347407 L36.3651394,5.292147 L36.3651394,4.292147 L32.7014923,4.292147 Z M39.8586741,8.49582216 L38.3929747,5.50090698 L37.4947702,5.94048467 L36.9867198,6.80181206 L39.8586741,8.49582216 Z M47.9837832,23.385983 L47.9837793,26.74839 L48.9837793,26.74839 L49.8212546,26.2019149 L47.9837832,23.385983 Z M31.7197352,50.6092545 L31.4845633,50.7480394 L31.9928039,51.6092545 L31.9928039,50.6092545 L31.7197352,50.6092545 Z M15.6900781,49.6961507 L15.417134,49.6961507 L15.417134,50.6961507 L15.925174,49.8348173 L15.6900781,49.6961507 Z M10.9702992,46.9122852 L10.7687419,46.7934007 L10.2607019,47.6547342 L11.0981776,47.1082597 L10.9702992,46.9122852 Z M16.6520953,4.05114188 L12.9884279,4.05114188 L12.9884279,5.05114188 L13.4964782,5.91246928 L16.6520953,4.05114188 Z"></path>
                            </g>
                        </g>
                        <g id="code-(1)" transform="translate(10.648649, 19.167568)" fill="#A775D3">
                            <path d="M8.23682663,15.972973 C7.86477849,15.972973 7.49279092,15.835323 7.20898535,15.5601993 L0.42575377,8.9830686 C-0.141917923,8.43264497 -0.141917923,7.54026928 0.42575377,6.98990437 L7.20898535,0.412773676 C7.77665705,-0.137591225 8.69693565,-0.137591225 9.26460735,0.412773676 C9.83215791,0.963138577 9.83215791,1.85551427 9.26460735,2.4059379 L3.50921704,7.98645712 L9.26460735,13.5669763 C9.83215791,14.1174 9.83215791,15.0097169 9.26460735,15.5601406 C8.98074122,15.835323 8.60887477,15.972973 8.23682663,15.972973 Z" id="Shape"></path>
                            <path d="M19.4496599,15.972973 C19.821708,15.972973 20.1936956,15.835323 20.4775011,15.5601993 L27.2607327,8.9830686 C27.8284044,8.43264497 27.8284044,7.54026928 27.2607327,6.98990437 L20.4775011,0.412773676 C19.9098294,-0.137591225 18.9895508,-0.137591225 18.4218791,0.412773676 C17.8543286,0.963138577 17.8543286,1.85551427 18.4218791,2.4059379 L24.1772694,7.98645712 L18.4218791,13.5669763 C17.8543286,14.1174 17.8543286,15.0097169 18.4218791,15.5601406 C18.7057453,15.835323 19.0776117,15.972973 19.4496599,15.972973 Z" id="Shape"></path>
                        </g>
                    </g>
                    <g id="code-cell" transform="translate(170.378378, 134.172973)" fill-rule="nonzero">
                        <g id="hexagon" stroke="#A775D3" stroke-width="2">
                            <path d="M16.1318594,1.90549247 L19.251784,3.76455017 L19.7636627,2.90549247 L19.7636627,1.90549247 L16.1318594,1.90549247 Z M22.6292977,5.77647424 L22.7386852,5.84149537 L21.2775451,2.82545478 L20.3775925,3.26144257 L19.8657143,4.12050059 L22.2239268,5.52566483 C22.3149518,5.57762273 22.4521787,5.66080835 22.6292977,5.77647424 Z M25.6216263,11.2942573 L25.6216192,14.6853906 L26.6216192,14.6853906 L27.4616174,14.1428014 L25.6216263,11.2942573 Z M17.1119323,27.3344927 L16.8753245,27.4755483 L17.3873934,28.3344927 L17.3873934,27.3344927 L17.1119323,27.3344927 Z M8.65421349,26.8331808 L8.37887717,26.8331808 L8.37887717,27.8331808 L8.89074506,26.9741166 L8.65421349,26.8331808 Z M6.2894456,25.424149 L6.08833632,25.3043193 L5.57646843,26.1633835 L6.41646707,25.620795 L6.2894456,25.424149 Z M10.3353011,1.99421438 L10.7066433,1.77317594 L7.05892818,1.77317594 L7.05892818,2.77317594 L7.57080639,3.63223396 L9.92901893,2.22706973 L9.94598855,2.21672836 C10.0000989,2.18301143 10.1116526,2.11718869 10.2697248,2.03007992 C10.2914183,2.0181253 10.3132791,2.00616821 10.3353011,1.99421438 Z" id="Shape"></path>
                        </g>
                        <g id="code-(1)" transform="translate(6.389189, 10.648649)" fill="#A775D3">
                            <path d="M4.69334851,8.41374708 C4.48135527,8.41374708 4.26939653,8.34124011 4.10768396,8.19631897 L0.242594741,4.73182214 C-0.0808649136,4.44188706 -0.0808649136,3.97182908 0.242594741,3.68192494 L4.10768396,0.217428109 C4.43114362,-0.0724760363 4.95551889,-0.0724760363 5.27897855,0.217428109 C5.60236918,0.507332254 5.60236918,0.977390235 5.27897855,1.26732531 L1.99955387,4.20685807 L5.27897855,7.14639083 C5.60236918,7.43632591 5.60236918,7.90635296 5.27897855,8.19628804 C5.11723146,8.34124011 4.90534175,8.41374708 4.69334851,8.41374708 Z" id="Shape"></path>
                            <path d="M10.2147596,8.41374708 C10.4267528,8.41374708 10.6387116,8.34124011 10.8004241,8.19631897 L14.6655134,4.73182214 C14.988973,4.44188706 14.988973,3.97182908 14.6655134,3.68192494 L10.8004241,0.217428109 C10.4769645,-0.0724760363 9.95258922,-0.0724760363 9.62912956,0.217428109 C9.30573893,0.507332254 9.30573893,0.977390235 9.62912956,1.26732531 L12.9085542,4.20685807 L9.62912956,7.14639083 C9.30573893,7.43632591 9.30573893,7.90635296 9.62912956,8.19628804 C9.79087664,8.34124011 10.0027664,8.41374708 10.2147596,8.41374708 Z" id="Shape"></path>
                        </g>
                    </g>
                    <g id="code-cell-1" transform="translate(142.691892, 21.297297)" fill-rule="nonzero">
                        <g id="hexagon-copy-2" stroke="#29B371" stroke-width="2">
                            <path d="M24.8028907,3.15070353 L27.950803,5.01154612 L28.4596743,4.15070353 L28.4596743,3.15070353 L24.8028907,3.15070353 Z M31.7056924,7.21708272 L30.2423149,4.22039742 L29.3437332,4.65920367 L28.8348624,5.52004658 L31.7056924,7.21708272 Z M37.3351367,17.6105883 L37.3351316,20.9791294 L38.3351316,20.9791294 L39.1731505,20.4334883 L37.3351367,17.6105883 Z M24.7642659,39.4778467 L24.5287854,39.6171163 L25.0378466,40.4778467 L25.0378466,39.4778467 L24.7642659,39.4778467 Z M12.3390392,38.7616868 L12.0655831,38.7616868 L12.0655831,39.7616868 L12.5744436,38.9008378 L12.3390392,38.7616868 Z M8.74043837,36.6345011 L8.53897502,36.5154131 L8.03011453,37.3762621 L8.8681339,36.8306216 L8.74043837,36.6345011 Z M13.8216649,2.96167991 L10.1648566,2.96167991 L10.1648566,3.96167991 L10.6737274,4.82252282 L13.8216649,2.96167991 Z" id="Shape"></path>
                        </g>
                        <g id="code-braces" transform="translate(9.583784, 11.713514)" fill="#A775D3">
                            <path d="M5.32432432,0 C4.14810707,-7.09342495e-16 3.19459459,0.953512475 3.19459459,2.12972972 L3.19459459,6.38918919 C3.19459459,7.56540644 2.24108212,8.51891891 1.06486487,8.51891891 L0,8.51891891 L0,10.6486487 L1.06486487,10.6486487 C1.62970431,10.6486487 2.1714094,10.8730303 2.5708112,11.2724321 C2.970213,11.6718338 3.19459459,12.2135389 3.19459459,12.7783784 L3.19459459,17.0378378 C3.19459459,18.2140551 4.14810707,19.1675676 5.32432432,19.1675676 L7.45405406,19.1675676 L7.45405406,17.0378378 L5.32432432,17.0378378 L5.32432432,11.7135135 C5.32432432,10.5372963 4.37081184,9.58378378 3.19459459,9.58378378 C4.37081184,9.58378378 5.32432432,8.63027131 5.32432432,7.45405406 L5.32432432,2.12972972 L7.45405406,2.12972972 L7.45405406,0 L5.32432432,0 Z M13.8432433,0 C15.0194605,-7.09342495e-16 15.972973,0.953512475 15.972973,2.12972972 L15.972973,6.38918919 C15.972973,6.95402863 16.1973546,7.49573372 16.5967564,7.89513552 C16.9961582,8.29453732 17.5378633,8.51891891 18.1027027,8.51891891 L19.1675676,8.51891891 L19.1675676,10.6486487 L18.1027027,10.6486487 C17.5378633,10.6486487 16.9961582,10.8730303 16.5967564,11.2724321 C16.1973546,11.6718338 15.972973,12.2135389 15.972973,12.7783784 L15.972973,17.0378378 C15.972973,18.2140551 15.0194605,19.1675676 13.8432433,19.1675676 L11.7135135,19.1675676 L11.7135135,17.0378378 L13.8432433,17.0378378 L13.8432433,11.7135135 C13.8432433,10.5372963 14.7967557,9.58378378 15.972973,9.58378378 C14.7967557,9.58378378 13.8432433,8.63027131 13.8432433,7.45405406 L13.8432433,2.12972972 L11.7135135,2.12972972 L11.7135135,0 L13.8432433,0 Z" id="Shape"></path>
                        </g>
                    </g>
                    <g id="hexagon-copy-3" transform="translate(102.227027, 2.129730)" fill-rule="nonzero" stroke="#A775D3" stroke-width="2">
                        <path d="M11.8057856,1.45603769 C11.8678074,1.48717459 11.9176515,1.5144328 11.9534298,1.53574191 L14.5135011,3.04113449 L15.0203837,2.17911935 L15.0203837,1.17911935 L11.3337036,1.17911935 L11.8057856,1.45603769 Z M17.076285,4.54765709 L17.8576843,5.00601771 L16.3846355,2.00540386 L15.4869703,2.44608192 L14.9800883,3.30809737 L16.7723298,4.36197055 C16.8418522,4.40118165 16.9439454,4.46227408 17.076285,4.54765709 Z M19.221452,7.77591794 C19.2295502,7.87773694 19.2325378,7.95676908 19.2324337,8.00654176 L19.2324392,8.00480663 L19.2324306,11.014043 L20.2324306,11.014043 L21.069129,10.4663791 L19.221452,7.64357356 L19.221452,7.77591794 Z M12.9420797,20.2508695 L12.7073468,20.3889659 L13.214419,21.2508695 L13.214419,20.2508695 L12.9420797,20.2508695 Z M6.64016247,19.8748856 L6.36794665,19.8748856 L6.36794665,20.8748856 L6.87481835,20.0128641 L6.64016247,19.8748856 Z M4.94667688,18.8791101 L4.74498771,18.7605161 L4.238116,19.6225376 L5.07481491,19.0748744 L4.94667688,18.8791101 Z M7.99355456,1.70112283 L9.05114808,1.07988195 L5.36478542,1.07988195 L5.36478542,2.07988195 L5.87166741,2.9418974 L7.66390894,1.88802423 L7.6808347,1.87784528 C7.75845399,1.83011595 7.86478857,1.76924514 7.99355456,1.70112283 Z" id="Shape"></path>
                    </g>
                    <g id="hexagon-copy-3" transform="translate(135.237838, 104.356757)" fill-rule="nonzero" stroke="#A775D3" stroke-width="2">
                        <path d="M11.8057856,1.45603769 C11.8678074,1.48717459 11.9176515,1.5144328 11.9534298,1.53574191 L14.5135011,3.04113449 L15.0203837,2.17911935 L15.0203837,1.17911935 L11.3337036,1.17911935 L11.8057856,1.45603769 Z M17.076285,4.54765709 L17.8576843,5.00601771 L16.3846355,2.00540386 L15.4869703,2.44608192 L14.9800883,3.30809737 L16.7723298,4.36197055 C16.8418522,4.40118165 16.9439454,4.46227408 17.076285,4.54765709 Z M19.221452,7.77591794 C19.2295502,7.87773694 19.2325378,7.95676908 19.2324337,8.00654176 L19.2324392,8.00480663 L19.2324306,11.014043 L20.2324306,11.014043 L21.069129,10.4663791 L19.221452,7.64357356 L19.221452,7.77591794 Z M12.9420797,20.2508695 L12.7073468,20.3889659 L13.214419,21.2508695 L13.214419,20.2508695 L12.9420797,20.2508695 Z M6.64016247,19.8748856 L6.36794665,19.8748856 L6.36794665,20.8748856 L6.87481835,20.0128641 L6.64016247,19.8748856 Z M4.94667688,18.8791101 L4.74498771,18.7605161 L4.238116,19.6225376 L5.07481491,19.0748744 L4.94667688,18.8791101 Z M7.99355456,1.70112283 L9.05114808,1.07988195 L5.36478542,1.07988195 L5.36478542,2.07988195 L5.87166741,2.9418974 L7.66390894,1.88802423 L7.6808347,1.87784528 C7.75845399,1.83011595 7.86478857,1.76924514 7.99355456,1.70112283 Z M-0.999588288,13.644426 C-0.999543495,13.6412924 -0.999555857,13.6441152 -0.999588288,13.6515214 L-0.999588288,13.644426 Z" id="Shape"></path>
                    </g>
                    <g id="hexagon-copy-3" transform="translate(43.659459, 132.043243)" fill-rule="nonzero" stroke="#A775D3" stroke-width="2">
                        <path d="M18.4672391,2.21679523 L21.6277796,4.07843363 L22.1353022,3.21679523 L22.1353022,2.21679523 L18.4672391,2.21679523 Z M25.188674,6.16583385 L23.7208647,3.17080796 L22.8229036,3.61088284 L22.3153814,4.47252156 L24.9565794,6.02823911 C25.0162645,6.06190198 25.094188,6.1077235 25.188674,6.16583385 Z M28.81622,12.9003657 L28.8162135,16.2588253 L29.8162135,16.2588253 L30.653338,15.7118129 L28.81622,12.9003657 Z M19.2011418,30.3703312 L18.9661683,30.5088045 L19.4738807,31.3703312 L19.4738807,30.3703312 L19.2011418,30.3703312 Z M9.65695719,29.8153073 L9.38434243,29.8153073 L9.38434243,30.8153073 L9.89185427,29.9536625 L9.65695719,29.8153073 Z M6.95477369,28.2237116 L6.75315648,28.1049584 L6.24564464,28.9666031 L7.08276957,28.4195914 L6.95477369,28.2237116 Z M11.511893,2.11716139 L11.5915306,2.07030193 L7.90599956,2.07030193 L7.90599956,3.07030193 L8.4135217,3.93194065 L11.0547197,2.3762231 L11.0716513,2.36602334 C11.1340289,2.32760114 11.2608382,2.25363575 11.4399083,2.15608849 C11.4637274,2.14311318 11.4877244,2.13013554 11.511893,2.11716139 Z" id="Shape"></path>
                    </g>
                    <g id="hexagon-copy-3" transform="translate(0.000000, 86.254054)" fill-rule="nonzero">
                        <g id="Shape">
                            <use fill="#E8D8F5" fill-rule="evenodd" xlink:href="#path-2"></use>
                            <path stroke="#A775D3" stroke-width="2" d="M16.1318594,1.90549247 L19.251784,3.76455017 L19.7636627,2.90549247 L19.7636627,1.90549247 L16.1318594,1.90549247 Z M22.6292977,5.77647424 L22.7386852,5.84149537 L21.2775451,2.82545478 L20.3775925,3.26144257 L19.8657143,4.12050059 L22.2239268,5.52566483 C22.3149518,5.57762273 22.4521787,5.66080835 22.6292977,5.77647424 Z M25.6216263,11.2942573 L25.6216192,14.6853906 L26.6216192,14.6853906 L27.4616174,14.1428014 L25.6216263,11.2942573 Z M17.1119323,27.3344927 L16.8753245,27.4755483 L17.3873934,28.3344927 L17.3873934,27.3344927 L17.1119323,27.3344927 Z M8.65421349,26.8331808 L8.37887717,26.8331808 L8.37887717,27.8331808 L8.89074506,26.9741166 L8.65421349,26.8331808 Z M6.2894456,25.424149 L6.08833632,25.3043193 L5.57646843,26.1633835 L6.41646707,25.620795 L6.2894456,25.424149 Z M10.3353011,1.99421438 L10.7066433,1.77317594 L7.05892818,1.77317594 L7.05892818,2.77317594 L7.57080639,3.63223396 L9.92901893,2.22706973 L9.94598855,2.21672836 C10.0000989,2.18301143 10.1116526,2.11718869 10.2697248,2.03007992 C10.2914183,2.0181253 10.3132791,2.00616821 10.3353011,1.99421438 Z"></path>
                        </g>
                        <g id="code-brackets" transform="translate(7.454054, 8.518919)" fill="#A775D3">
                            <path d="M8.05304054,0 L8.05304054,1.46418918 L10.2493243,1.46418918 L10.2493243,10.2493243 L8.05304054,10.2493243 L8.05304054,11.7135135 L11.7135135,11.7135135 L11.7135135,0 L8.05304054,0 Z M0,0 L0,11.7135135 L3.66047297,11.7135135 L3.66047297,10.2493243 L1.46418918,10.2493243 L1.46418918,1.46418918 L3.66047297,1.46418918 L3.66047297,0 L0,0 Z" id="Shape"></path>
                        </g>
                    </g>
                    <g id="wifi" transform="translate(76.670270, 63.891892)" fill="#15B371" fill-rule="nonzero">
                        <path d="M10.9136202,22.7648991 C16.1574993,17.6787547 22.4804697,15.1356825 29.8825316,15.1356825 C37.2845935,15.1356825 43.5651582,17.6787547 48.7242257,22.7648991 L43.3946329,28.1445775 C39.671948,24.4745125 35.1462602,22.63948 29.8175696,22.63948 C24.488879,22.63948 19.9631913,24.4745125 16.2405063,28.1445775 L10.9136202,22.7648991 Z M21.6973164,33.5242559 C23.8970028,31.355662 26.6037539,30.271365 29.8175696,30.271365 C33.0313853,30.271365 35.7381364,31.355662 37.9378228,33.5242559 L29.8175696,41.5297297 L21.6973164,33.5242559 Z M0,12.1336298 C8.28987624,4.04454327 18.2498179,0 29.8798249,0 C41.5098319,0 51.4273677,4.04454327 59.6324324,12.1336298 L54.1756223,17.5133082 C47.4087447,10.9256928 39.2884915,7.63188501 29.8148628,7.63188501 C20.3412341,7.63188501 12.220981,10.9256928 5.45410335,17.5133082 L0,12.1336298 Z" id="Shape"></path>
                    </g>
                </g>
            </g>
        </g>
    </g>
</svg>