
<svg width="243px" height="162px" viewBox="0 0 243 162" version="1.1" xmlns="http://www.w3.org/2000/svg" xmlns:xlink="http://www.w3.org/1999/xlink">
    <!-- Generator: Sketch 48.2 (47327) - http://www.bohemiancoding.com/sketch -->
    <desc>Created with Sketch.</desc>
    <defs>
        <path d="M18.7847837,2.64399706 L14.0807537,5.35979994 L14.1059667,5.35979994 L11.876415,6.64566422 L6.18907709,9.93056105 C6.18907709,9.93056105 3.23555141,11.6162318 1.64713087,14.3140254 C-0.0997715038,17.2783567 0.00108060407,22.4470267 0.00108060407,22.4470267 L0.00108060407,26.365851 L0.00108060407,27.8786325 L0.00108060407,29.7479981 L0.00108060407,31.6425768 L0.00108060407,35.179604 C0.00108060407,35.179604 -0.0997715038,40.3518758 1.64713092,43.3162071 C3.23555147,46.0140007 6.18907715,47.6996714 6.18907715,47.6996714 L11.102015,50.5343358 L11.1236262,50.5667525 L16.7137138,53.7940196 L16.7209175,53.7940196 L18.7847837,54.9826336 C18.7847837,54.9826336 23.2114703,57.658816 26.6548491,57.6263993 C29.784866,57.5939825 32.7167805,55.8830987 32.7167805,55.8830987 L34.6617852,54.7629201 L34.6833964,54.7629201 L46.8865002,47.7140789 C46.8865002,47.7140789 49.8400258,46.0284081 51.4320482,43.3306145 C53.1789506,40.3662832 53.0744967,35.1940114 53.0744967,35.1940114 L53.0744966,28.3396706 L53.1033115,28.382893 L53.1033115,20.6388926 C53.1033115,20.6388926 53.117719,17.2387362 51.5797245,14.5121277 C49.8832482,11.5153797 45.3521075,9.01929032 45.3521075,9.01929032 L40.6480776,6.30348744 L40.6660869,6.33950602 L39.4090375,5.61553206 L39.423445,5.61553206 L32.7167805,1.74353189 C32.7167805,1.74353189 29.7848659,0.029046228 26.6548491,0.000231340039 C23.2114703,-0.0285834917 18.7847837,2.64399706 18.7847837,2.64399706 Z" id="path-1"></path>
        <path d="M10.6122093,1.4682069 L7.95473125,2.97628744 L7.968975,2.97628744 L6.70941996,3.69032561 L3.49643535,5.51442302 C3.49643535,5.51442302 1.82788099,6.45047303 0.930524295,7.94855303 C-0.056364561,9.59464097 0.000610472645,12.4647943 0.000610472645,12.4647943 L0.000610472645,14.6409105 L0.000610472645,15.4809554 L0.000610472645,16.5190108 L0.000610472645,17.571067 L0.000610472645,19.535172 C0.000610472645,19.535172 -0.056364561,22.4073254 0.930524327,24.0534133 C1.82788102,25.5514934 3.49643538,26.4875433 3.49643538,26.4875433 L6.27193316,28.0616274 L6.28414208,28.0796284 L9.44218646,29.8717241 L9.44625609,29.8717241 L10.6122093,30.5317594 C10.6122093,30.5317594 13.1130061,32.0178387 15.0582963,31.9998378 C16.826557,31.9818368 18.4829024,31.0317861 18.4829024,31.0317861 L19.5817065,30.4097528 L19.5939154,30.4097528 L26.4878938,26.4955438 C26.4878938,26.4955438 28.1564482,25.5594938 29.0558397,24.0614138 C30.0427285,22.4153258 29.9837187,19.5431724 29.9837187,19.5431724 L29.9837187,15.7369691 L29.9999972,15.7609703 L29.9999972,11.4607406 C29.9999972,11.4607406 30.0081365,9.5726398 29.1392674,8.05855891 C28.180866,6.39447003 25.6210594,5.00839599 25.6210594,5.00839599 L22.9635814,3.50031544 L22.9737555,3.5203165 L22.2636025,3.11829504 L22.2717417,3.11829504 L18.4829024,0.968180182 C18.4829024,0.968180182 16.826557,0.0161293191 15.0582963,0.000128462715 C13.1130061,-0.0158723625 10.6122093,1.4682069 10.6122093,1.4682069 Z" id="path-2"></path>
    </defs>
    <g id="Page-1" stroke="none" stroke-width="1" fill="none" fill-rule="evenodd">
        <g id="New-Design" transform="translate(-1137.000000, -1546.000000)">
            <g id="Cloud-storage" transform="translate(461.000000, 1382.000000)">
                <g id="cloud" transform="translate(677.000000, 165.000000)">
                    <path d="M224,105.782479 C224,116.732619 220.113281,126.081559 212.339843,133.829299 C204.566406,141.577039 195.186458,145.450909 184.2,145.450909 L71.4333333,145.450909 C58.6503471,145.450909 47.7157117,140.922785 38.629427,131.866538 C29.5431423,122.810291 25,111.911803 25,99.1710744 C25,90.0803926 27.4529514,81.7644848 32.3588542,74.223351 C37.2647571,66.6822172 43.7253473,61.0521927 51.7406251,57.3332775 C51.6024306,55.4049511 51.5333334,53.9242718 51.5333334,52.8912397 C51.5333334,38.2910538 56.7156251,25.8258007 67.0802084,15.4954804 C77.4447918,5.16516014 89.951389,-2.5690469e-15 104.6,0 C115.517361,0 125.415538,3.03022725 134.294531,9.09068176 C143.173524,15.1511363 149.651389,23.0710484 153.728125,32.8504182 C158.564931,28.5805526 164.3,26.4456198 170.933333,26.4456198 C178.257639,26.4456198 184.510938,29.0281998 189.693229,34.19336 C194.875521,39.3585201 197.466666,45.5911466 197.466667,52.8912395 C197.466667,58.0563997 196.050174,62.808347 193.217188,67.1470815 C202.130729,69.2131455 209.489583,73.8445724 215.29375,81.0413623 C221.097917,88.2381521 224,96.4851911 224,105.782479 L224,105.782479 Z" id="Shape" stroke="#14B18E" stroke-width="2" fill="#DFF7F2" fill-rule="nonzero"></path>
                    <path d="M0.5,88.5 L67.5671305,88.5" id="Line-27" stroke="#14B18E" stroke-width="3" stroke-linecap="square"></path>
                    <path d="M155.5,121.5 L239.648678,121.5" id="Line-29" stroke="#14B18E" stroke-width="3" stroke-linecap="square"></path>
                    <path d="M203.366044,91.5 L239.648678,91.5" id="Line-29" stroke="#14B18E" stroke-width="3" stroke-linecap="square" stroke-dasharray="7"></path>
                    <path d="M158.5,31.5 C154.476316,33.5368027 151.233918,36.0586677 148.772806,39.065595 C146.311695,42.0725222 144.444718,45.7931702 143.171875,50.2275391" id="Line-17" stroke="#14B18E" stroke-width="2" stroke-linecap="square" transform="translate(150.835938, 40.863770) rotate(-10.000000) translate(-150.835938, -40.863770) "></path>
                    <g id="hexagon" transform="translate(18.000000, 23.000000)" fill-rule="nonzero">
                        <g id="Shape">
                            <use fill="#FFFFFF" fill-rule="evenodd" xlink:href="#path-1"></use>
                            <path stroke="#14B18E" stroke-width="2" d="M35.6913302,4.61553206 L38.9234541,6.48156274 L39.423445,5.61553206 L39.423445,4.61553206 L35.6913302,4.61553206 Z M43.0314683,8.83419633 L41.5425045,5.85627328 L40.6480776,6.30348744 L40.1480873,7.16951843 L43.0314683,8.83419633 Z M52.1033154,25.0801231 L52.1033115,28.382893 L53.1033115,28.382893 L53.9353618,27.8281928 L52.1033154,25.0801231 Z M34.4153365,53.7629201 L34.1832167,53.8969984 L34.6833964,54.7629201 L34.6833964,53.7629201 L34.4153365,53.7629201 Z M16.9816507,52.7940196 L16.7137138,52.7940196 L16.7137138,53.7940196 L17.2136939,52.9279827 L16.9816507,52.7940196 Z M11.8260262,49.8175766 L11.6236063,49.7007156 L11.1236262,50.5667525 L11.9556769,50.012053 L11.8260262,49.8175766 Z M17.8128879,4.35979994 L14.0807537,4.35979994 L14.0807537,5.35979994 L14.580744,6.22583093 L17.8128879,4.35979994 Z"></path>
                        </g>
                    </g>
                    <g id="hexagon-copy-4" transform="translate(48.000000, 129.000000)" fill-rule="nonzero">
                        <g id="Shape">
                            <use fill="#FFFFFF" fill-rule="evenodd" xlink:href="#path-2"></use>
                            <path stroke="#14B18E" stroke-width="2" d="M18.4834833,2.11829504 L21.7781896,3.98801125 L22.2717417,3.11829504 L22.2717417,2.11829504 L18.4834833,2.11829504 Z M25.3637145,6.01307944 L23.8548928,3.04692384 L22.9635814,3.50031544 L22.4700298,4.37003196 L25.1275078,5.8781125 C25.1880903,5.9110305 25.267416,5.9559835 25.3637145,6.01307944 Z M29.0000043,12.5050327 L28.9999972,15.7609703 L29.9999972,15.7609703 L30.8276012,15.1996579 L29.0000043,12.5050327 Z M19.3298291,29.4097528 L19.1001754,29.5401433 L19.5939154,30.4097528 L19.5939154,29.4097528 L19.3298291,29.4097528 Z M9.70615154,28.8717241 L9.44218646,28.8717241 L9.44218646,29.8717241 L9.93572785,29.0020018 L9.70615154,28.8717241 Z M6.98071296,27.3251192 L6.77768348,27.2099061 L6.28414208,28.0796284 L7.11174654,27.5183167 L6.98071296,27.3251192 Z M11.5660397,2.08663137 L11.7606851,1.97628744 L7.95473125,1.97628744 L7.95473125,2.97628744 L8.44828285,3.84600396 L11.1057609,2.33792341 L11.1225526,2.32817768 C11.1855291,2.29080472 11.3133598,2.21896949 11.4938178,2.12426008 C11.517716,2.1117176 11.541792,2.09917285 11.5660397,2.08663137 Z"></path>
                        </g>
                    </g>
                    <g id="lock" transform="translate(31.000000, 35.000000)" fill="#14B18E" fill-rule="nonzero">
                        <path d="M22.8,12.0833333 L19.2,12.0833333 L19.2,7.25 C19.2,3.23229167 15.99,0 12,0 C8.01,0 4.8,3.23229167 4.8,7.25 L4.8,12.0833333 L1.2,12.0833333 C0.54,12.0833333 0,12.6270833 0,13.2916667 L0,27.7916667 C0,28.45625 0.54,29 1.2,29 L22.8,29 C23.46,29 24,28.45625 24,27.7916667 L24,13.2916667 C24,12.6270833 23.46,12.0833333 22.8,12.0833333 Z M12,22.9583333 C10.68,22.9583333 9.6,21.8708333 9.6,20.5416667 C9.6,19.2125 10.68,18.125 12,18.125 C13.32,18.125 14.4,19.2125 14.4,20.5416667 C14.4,21.8708333 13.32,22.9583333 12,22.9583333 Z M16.8,12.0833333 L7.2,12.0833333 L7.2,7.25 C7.2,4.59166667 9.36,2.41666667 12,2.41666667 C14.64,2.41666667 16.8,4.59166667 16.8,7.25 L16.8,12.0833333 Z" id="Shape"></path>
                    </g>
                    <g id="sync" transform="translate(85.000000, 63.000000)" fill="#14B18E" fill-rule="nonzero">
                        <path d="M58.5121592,19.6095969 C57.9374704,19.0349081 57.0032328,19.0349081 56.428544,19.6095969 L53.0423009,22.99584 C52.8919977,16.9247688 50.4547278,11.2368234 46.1430884,6.92813112 C41.6899871,2.47502985 35.7692191,0.0230243902 29.4712195,0.0230243902 C20.7064788,0.0230243902 12.7138841,4.84156878 8.61443746,12.5954466 C8.23425873,13.3145444 8.50834107,14.2075223 9.22743883,14.5877011 C9.94653659,14.9678798 10.8395145,14.6937975 11.2196933,13.9746997 C14.8063407,7.18747785 21.7998611,2.97014634 29.4712195,2.97014634 C40.6378646,2.97014634 49.7621541,11.8910845 50.0922318,22.9781573 L46.7236714,19.6095969 C46.1489826,19.0349081 45.214745,19.0349081 44.6400562,19.6095969 C44.0653674,20.1842857 44.0653674,21.1185233 44.6400562,21.6932121 L50.5343001,27.587456 C50.823118,27.876274 51.2003497,28.0177358 51.5775813,28.0177358 C51.9548129,28.0177358 52.3320445,27.8733268 52.6208624,27.587456 L58.5151063,21.6932121 C59.0897951,21.1185233 59.0897951,20.1842857 58.5151063,19.6095969 L58.5121592,19.6095969 Z" id="Shape"></path>
                        <path d="M49.7150002,32.6122989 C48.9959024,32.2321202 48.1029245,32.5062025 47.7227458,33.2253003 C44.1360983,40.0125221 37.142578,44.2298537 29.4712195,44.2298537 C18.3045744,44.2298537 9.18028488,35.3089155 8.85020722,24.2218427 L12.2187676,27.5904031 C12.5075856,27.8792211 12.8848172,28.0206829 13.2620488,28.0206829 C13.6392804,28.0206829 14.016512,27.876274 14.30533,27.5904031 C14.8800187,27.0157143 14.8800187,26.0814767 14.30533,25.5067879 L8.41108605,19.612544 C7.83639727,19.0378552 6.90215961,19.0378552 6.32747083,19.612544 L0.433226927,25.5067879 C-0.141461854,26.0814767 -0.141461854,27.0157143 0.433226927,27.5904031 C1.00791571,28.1650919 1.94215337,28.1650919 2.51684215,27.5904031 L5.90308527,24.20416 C6.05338849,30.2752312 8.49065834,35.9631766 12.8022978,40.2718689 C17.255399,44.7249701 23.176167,47.1769756 29.4741666,47.1769756 C38.2389073,47.1769756 46.231502,42.3584312 50.3309487,34.6045534 C50.7111274,33.8854556 50.4370451,32.9924777 49.7179473,32.6122989 L49.7150002,32.6122989 Z" id="Shape"></path>
                    </g>
                </g>
            </g>
        </g>
    </g>
</svg>