
<svg width="22px" height="33px" viewBox="0 0 22 33" version="1.1" xmlns="http://www.w3.org/2000/svg" xmlns:xlink="http://www.w3.org/1999/xlink">
    <!-- Generator: Sketch 48.2 (47327) - http://www.bohemiancoding.com/sketch -->
    <desc>Created with Sketch.</desc>
    <defs></defs>
    <g id="Page-1" stroke="none" stroke-width="1" fill="none" fill-rule="evenodd">
        <g id="Artboard" transform="translate(-211.000000, -1016.000000)" fill="#FFFFFF" fill-rule="nonzero">
            <g id="IDE" transform="translate(211.000000, 1016.000000)">
                <path d="M1.98565693,5.7578018 C1.94283345,5.70659903 1.92480252,5.63910448 1.93381799,5.57160993 L2.75873335,0.197647035 C2.75873335,0.195319637 2.75873335,0.195319637 2.76098722,0.192992239 C2.76098722,0.186010044 2.76324108,0.179027848 2.76549495,0.172045653 C2.76774882,0.165063458 2.77000269,0.155753864 2.77225655,0.148771669 C2.77451042,0.144116872 2.77676429,0.137134677 2.77901815,0.13247988 C2.78352589,0.125497685 2.78577976,0.11851549 2.79028749,0.111533295 C2.79479522,0.106878498 2.79704909,0.0998963029 2.80155683,0.0952415062 C2.80606456,0.088259311 2.81057229,0.0836045142 2.81508003,0.076622319 C2.81958776,0.0719675222 2.8240955,0.0673127254 2.82860323,0.0626579286 C2.83536483,0.0580031318 2.83987257,0.0510209367 2.84663417,0.0463661399 C2.8511419,0.0417113431 2.85564964,0.0393839447 2.86241124,0.0347291479 C2.86917284,0.0300743511 2.87593444,0.0277469527 2.88269604,0.0230921559 C2.88720378,0.0230921559 2.89171151,0.0207647575 2.89847311,0.0184373592 C2.90748858,0.0161099608 2.91425018,0.011455164 2.92326565,0.00912776558 C2.92777338,0.00912776558 2.93228112,0.00680036718 2.93904272,0.00680036718 C2.95256592,0.00447296879 2.96834299,0.00214557039 2.98186619,0.00214557039 L5.2019253,0.00214557039 C5.21770237,0.00214557039 5.23122558,0.00447296879 5.24474878,0.00680036718 C5.24925651,0.00680036718 5.25376425,0.00912776558 5.26052585,0.011455164 C5.26728745,0.011455164 5.27630292,0.0137825624 5.28306452,0.0184373592 C5.28982612,0.0207647575 5.29433386,0.0230921559 5.30109546,0.0254195543 C5.30785706,0.0300743511 5.31461866,0.0324017495 5.32138026,0.0370565463 C5.325888,0.0393839447 5.33039573,0.0440387415 5.33715733,0.0486935383 C5.34391893,0.0533483351 5.34842667,0.0580031318 5.35518827,0.064985327 C5.35744214,0.0673127254 5.36194987,0.0719675222 5.3664576,0.076622319 C5.37096534,0.0836045142 5.37547307,0.088259311 5.37998081,0.0952415062 C5.38448854,0.0998963029 5.38899627,0.106878498 5.39125014,0.111533295 C5.39575788,0.11851549 5.39801174,0.125497685 5.40251948,0.13247988 C5.40477334,0.139462076 5.40928108,0.144116872 5.41153495,0.151099068 C5.41378881,0.158081263 5.41604268,0.165063458 5.41829655,0.174373052 C5.41829655,0.179027848 5.42055041,0.186010044 5.42280428,0.192992239 C5.42280428,0.195319637 5.42280428,0.195319637 5.42505815,0.197647035 L6.24546578,5.54135375 C6.24997351,5.56230033 6.25222738,5.58557432 6.25222738,5.6065209 C6.25222738,5.73452781 6.15080336,5.83926074 6.02684067,5.83926074 C6.02684067,5.83926074 6.02684067,5.83926074 6.0245868,5.83926074 L5.42505815,5.83926074 L5.42505815,14.1922936 C5.42505815,14.3203005 5.32363413,14.4250334 5.19967144,14.4250334 L2.98186619,14.4250334 C2.8579035,14.4250334 2.75647948,14.3203005 2.75647948,14.1922936 L2.75647948,5.83926074 L2.15695083,5.83926074 C2.09158868,5.83926074 2.0284804,5.80900456 1.98565693,5.7578018 Z M8.18153763,16.0262835 L8.18153763,16.3986673 C8.18153763,16.8734565 7.90205811,17.2830786 7.5053775,17.4646157 C7.49185429,17.4832349 7.47607722,17.5041815 7.45804629,17.5204733 C7.21688251,17.7276117 6.97571872,18.2954969 6.97571872,19.0937946 C6.97571872,19.8920922 7.21913637,20.4599775 7.45804629,20.6694433 C7.47156949,20.6810803 7.48283883,20.6950447 7.49410816,20.7090091 C7.89755037,20.8858914 8.18153763,21.3001683 8.18153763,21.7796123 L8.18153763,31.8363008 C8.18153763,32.4763354 7.6766714,33 7.05460407,33 L1.12693356,33 C0.507120101,33 1.00091807e-15,32.4786628 1.00091807e-15,31.8363008 L1.00091807e-15,21.7796123 C1.00091807e-15,21.2978409 0.283987257,20.8858914 0.68742947,20.7090091 C0.698698806,20.6950447 0.709968142,20.6810803 0.723491344,20.6694433 C0.964655126,20.4623049 1.20581891,19.8944196 1.20581891,19.0937946 C1.20581891,18.2954969 0.962401259,17.7276117 0.723491344,17.5181459 C0.705460407,17.5041815 0.689683338,17.4832349 0.676160135,17.4622883 C0.279479522,17.2830786 0,16.8734565 0,16.3963399 L0,16.0239561 C0,15.3839216 0.504866234,14.8625843 1.12693356,14.8625843 L7.05460407,14.8625843 C7.6766714,14.8649117 8.18153763,15.386249 8.18153763,16.0262835 Z M3.20950677,22.3474976 C3.20950677,21.9634768 2.90748858,21.649278 2.53334664,21.649278 C2.1592047,21.649278 1.8571865,21.9611494 1.8571865,22.3474976 L1.8571865,30.8145729 C1.8571865,31.1985936 2.1592047,31.5127924 2.53334664,31.5127924 C2.90748858,31.5127924 3.20950677,31.200921 3.20950677,30.8145729 L3.20950677,22.3474976 Z M6.32435113,22.3474976 C6.32435113,21.9634768 6.02233293,21.649278 5.64819099,21.649278 C5.27404905,21.649278 4.97203086,21.9611494 4.97203086,22.3474976 L4.97203086,30.8145729 C4.97203086,31.1985936 5.27404905,31.5127924 5.64819099,31.5127924 C6.02233293,31.5127924 6.32435113,31.200921 6.32435113,30.8145729 L6.32435113,22.3474976 Z M18.9888305,9.9587559 L18.9888305,28.1590113 C19.3855111,28.6687116 19.6221671,29.3157283 19.6221671,30.0186027 C19.6221671,31.6617459 18.3261935,33 16.7349633,33 C15.1437332,33 13.8477596,31.6617459 13.8477596,30.0186027 C13.8477596,29.3157283 14.0844156,28.6687116 14.4810962,28.1590113 L14.4810962,9.9587559 C12.7005412,9.0836541 11.4676759,7.2100984 11.4676759,5.04329049 C11.4676759,2.83691681 12.7433647,0.863282976 14.7200061,0.0184373592 C14.7876221,-0.01181882 14.8665075,-0.00250922639 14.9296158,0.0393839447 C14.9904702,0.0836045142 15.0287859,0.155753864 15.0287859,0.232558011 L15.0287859,4.98743293 L16.7327095,6.00450603 L18.4388869,4.98976033 L18.4388869,0.232558011 C18.4388869,0.155753864 18.4772026,0.0812771158 18.538057,0.0393839447 C18.6011653,-0.00483662479 18.6800507,-0.01181882 18.7499205,0.0184373592 C20.7243081,0.863282976 21.9999969,2.83691681 21.9999969,5.04329049 C22.0022508,7.21242579 20.7671316,9.0859815 18.9888305,9.9587559 Z M18.0151599,30.0186027 C18.0151599,29.290127 17.4404237,28.6966404 16.7349633,28.6966404 C16.0295029,28.6966404 15.4547668,29.290127 15.4547668,30.0186027 C15.4547668,30.7470784 16.0295029,31.3405649 16.7349633,31.3405649 C17.4404237,31.3405649 18.0151599,30.7494058 18.0151599,30.0186027 Z" id="Shape"></path>
            </g>
        </g>
    </g>
</svg>