<svg viewBox="0 0 154.42 44.14" xmlns="http://www.w3.org/2000/svg" xmlns:xlink="http://www.w3.org/1999/xlink"><linearGradient id="a" gradientUnits="userSpaceOnUse" x1="13.27" x2="28.62" y1="10.78" y2="10.78"><stop offset="0" stop-color="#6fffe9"/><stop offset="1" stop-color="#57e6d1"/></linearGradient><linearGradient id="b" gradientUnits="userSpaceOnUse" x1="10.61" x2="17.29" y1="17.89" y2="29.47"><stop offset="0" stop-color="#3a506b"/><stop offset="1" stop-color="#243952"/></linearGradient><linearGradient id="c" gradientUnits="userSpaceOnUse" x1="24.88" x2="20.11" y1="22.15" y2="30.41"><stop offset="0" stop-color="#20bdba"/><stop offset="1" stop-color="#33dedb"/></linearGradient><linearGradient id="d" gradientUnits="userSpaceOnUse" x1="9.54" x2="28.62" y1="32.33" y2="32.33"><stop offset="0" stop-color="#1c2541"/><stop offset="1" stop-color="#0f0f2d"/></linearGradient><path d="m20.63.41 16.37 9.46a2.33 2.33 0 0 1 1.16 2v9.67l-17.16-9.87a3.94 3.94 0 0 0 -3.93 0l-7.53 4.33v-11l8-4.62a3.12 3.12 0 0 1 3.09.03z" fill="url(#a)" fill-rule="evenodd"/><path d="m9.54 5-8.38 4.87a2.31 2.31 0 0 0 -1.16 2v9.67l19.08 11 9.54-5.51-19.08-11.03z" fill="url(#b)" fill-rule="evenodd"/><path d="m9.54 16 8-4.61a3.12 3.12 0 0 1 3.1 0l17.52 10.16v9.68a2.33 2.33 0 0 1 -1.16 2l-8.38 4.84v-11z" fill="url(#c)" fill-rule="evenodd"/><path d="m20.63 42.69 8-4.62v-11l-8 4.61a3.12 3.12 0 0 1 -3.1 0l-17.53-10.13v9.68a2.31 2.31 0 0 0 1.16 2l16.37 9.46a3.12 3.12 0 0 0 3.1 0z" fill="url(#d)" fill-rule="evenodd"/><g fill="#1b2541"><path d="m49.45 6.6a16.11 16.11 0 0 1 2.74-.24 16 16 0 0 1 2.71.24v20.26a11.22 11.22 0 0 0 .1 1.93 2.91 2.91 0 0 0 .42 1.13 1.51 1.51 0 0 0 .76.56 3.47 3.47 0 0 0 1.15.16h.68a5.54 5.54 0 0 0 .71-.12 11.68 11.68 0 0 1 .43 3.09v.56a2.43 2.43 0 0 1 -.08.56 7 7 0 0 1 -1.48.27c-.59 0-1.09 0-1.59 0a6.78 6.78 0 0 1 -4.76-1.64q-1.8-1.65-1.8-5.35z"/><path d="m66.47 26.51a4.2 4.2 0 0 0 1.62 3.36 6.58 6.58 0 0 0 3.86 1 15.34 15.34 0 0 0 5.29-1 9.62 9.62 0 0 1 .76 1.93 9.46 9.46 0 0 1 .35 2.31 18.85 18.85 0 0 1 -6.79 1.16 13.28 13.28 0 0 1 -4.77-.77 8.44 8.44 0 0 1 -3.24-2.15 8.53 8.53 0 0 1 -1.85-3.26 13.56 13.56 0 0 1 -.6-4.13 13.17 13.17 0 0 1 .62-4.12 9.59 9.59 0 0 1 1.83-3.36 8.63 8.63 0 0 1 3-2.26 9.94 9.94 0 0 1 4.19-.83 9 9 0 0 1 3.7.73 8.19 8.19 0 0 1 2.76 2 8.52 8.52 0 0 1 1.72 3 12.13 12.13 0 0 1 .58 3.76c0 .49 0 1-.06 1.45s-.09.86-.14 1.14zm7.83-3.82a4.84 4.84 0 0 0 -1-3 3.24 3.24 0 0 0 -2.64-1.14 3.78 3.78 0 0 0 -2.93 1.08 5.09 5.09 0 0 0 -1.2 3.05z"/><path d="m83.68 14.82a8.25 8.25 0 0 1 1.06-.16h1.18a11.19 11.19 0 0 1 2.2.23 2.06 2.06 0 0 1 .21.56c.07.25.13.51.2.8s.11.55.15.82.07.5.1.68a7.69 7.69 0 0 1 .85-1.22 5.45 5.45 0 0 1 1.21-1.06 6.73 6.73 0 0 1 1.6-.75 6.42 6.42 0 0 1 2-.29 7.88 7.88 0 0 1 3.11.62 6.81 6.81 0 0 1 2.45 1.83 8.92 8.92 0 0 1 1.72 3.12 14.84 14.84 0 0 1 .6 4.47 13 13 0 0 1 -.73 4.5 9.26 9.26 0 0 1 -2.12 3.37 9.5 9.5 0 0 1 -3.4 2.15 13 13 0 0 1 -4.55.75c-.44 0-.87 0-1.3-.06s-.78-.08-1.06-.13v8.95c-.49.08-1 .13-1.41.16h-1.33-1.33c-.45 0-.92-.08-1.41-.16zm5.48 15.74a8.3 8.3 0 0 0 2.39.31 4.51 4.51 0 0 0 3.67-1.54 7.23 7.23 0 0 0 1.27-4.67 11.85 11.85 0 0 0 -.19-2.22 5 5 0 0 0 -.66-1.76 3.51 3.51 0 0 0 -1.17-1.16 3.42 3.42 0 0 0 -1.76-.42 3.34 3.34 0 0 0 -1.64.37 2.94 2.94 0 0 0 -1.1 1 4.49 4.49 0 0 0 -.62 1.53 8.83 8.83 0 0 0 -.19 1.82z"/><path d="m110.46 26.12a7.6 7.6 0 0 1 -3.37-1.83 5 5 0 0 1 -1.22-3.65 5.53 5.53 0 0 1 2.1-4.59 9 9 0 0 1 5.73-1.66 16.43 16.43 0 0 1 3 .27 19.39 19.39 0 0 1 3 .81 10.91 10.91 0 0 1 -.39 2.09 10.51 10.51 0 0 1 -.73 1.89 14.48 14.48 0 0 0 -2-.68 9.46 9.46 0 0 0 -2.35-.29 4.28 4.28 0 0 0 -2 .41 1.36 1.36 0 0 0 -.73 1.29 1.34 1.34 0 0 0 .52 1.2 5.91 5.91 0 0 0 1.49.65l2.2.66a10.46 10.46 0 0 1 1.94.75 5.39 5.39 0 0 1 1.49 1.1 4.82 4.82 0 0 1 1 1.62 7.05 7.05 0 0 1 .34 2.36 6 6 0 0 1 -2.33 4.8 8.78 8.78 0 0 1 -2.76 1.43 12.18 12.18 0 0 1 -3.67.52c-.61 0-1.18 0-1.7-.06a13.9 13.9 0 0 1 -1.48-.19q-.72-.14-1.41-.33c-.46-.13-1-.3-1.5-.5a11.23 11.23 0 0 1 .36-2.11 14.17 14.17 0 0 1 .76-2.06 15.33 15.33 0 0 0 2.41.75 10.83 10.83 0 0 0 2.37.25 8.56 8.56 0 0 0 1.18-.09 4.42 4.42 0 0 0 1.17-.35 2.81 2.81 0 0 0 .91-.66 1.49 1.49 0 0 0 .37-1.06 1.55 1.55 0 0 0 -.56-1.33 5.43 5.43 0 0 0 -1.56-.71z"/><path d="m124.89 19h-2.5l-.2-.77 7.22-9.23h.89v5.82h4.7q.1.59.15 1.05v1s0 .71 0 1-.15.74-.15 1.13h-4.7v7.84a7.83 7.83 0 0 0 .19 1.93 2.81 2.81 0 0 0 .56 1.15 1.77 1.77 0 0 0 .91.58 4.73 4.73 0 0 0 1.27.16 7.11 7.11 0 0 0 1.14-.1l1-.17a7.71 7.71 0 0 1 .39 1.52 9.44 9.44 0 0 1 .11 1.41v.71s0 .38-.06.56a15.42 15.42 0 0 1 -3.67.43 7.85 7.85 0 0 1 -5.36-1.64q-1.86-1.65-1.86-5.35z"/><path d="m149.09 21.68a3.15 3.15 0 0 0 -.31-1.5 2.26 2.26 0 0 0 -.85-.91 3.53 3.53 0 0 0 -1.33-.44 11.74 11.74 0 0 0 -1.75-.12 13.67 13.67 0 0 0 -4.44.81 10.22 10.22 0 0 1 -.81-1.89 7.33 7.33 0 0 1 -.27-2.12 20 20 0 0 1 3.39-.85 20.35 20.35 0 0 1 3.17-.27 9.35 9.35 0 0 1 6.27 1.93c1.5 1.29 2.26 3.35 2.26 6.18v11.57a29.12 29.12 0 0 1 -3.28.81 22.14 22.14 0 0 1 -4.36.39 17.48 17.48 0 0 1 -3.61-.35 7.65 7.65 0 0 1 -2.82-1.16 5.42 5.42 0 0 1 -1.81-2.08 6.87 6.87 0 0 1 -.64-3.13 5.67 5.67 0 0 1 .79-3.1 6.06 6.06 0 0 1 2.05-2 9 9 0 0 1 2.79-1.08 14.76 14.76 0 0 1 3.09-.33c.75 0 1.57 0 2.47.12zm0 4c-.31-.05-.64-.1-1-.14s-.68-.05-1-.05a5.71 5.71 0 0 0 -3 .67 2.37 2.37 0 0 0 -1.1 2.18 2.42 2.42 0 0 0 .43 1.55 2.52 2.52 0 0 0 1 .79 4.46 4.46 0 0 0 1.27.31c.45 0 .85.05 1.18.05a7.55 7.55 0 0 0 1.16-.09l1-.18z"/></g></svg>