<svg width="622px" height="567px" viewBox="0 0 622 567" version="1.1" xmlns="http://www.w3.org/2000/svg" xmlns:xlink="http://www.w3.org/1999/xlink">
    <g id="Page-1" stroke="none" stroke-width="1" fill="none" fill-rule="evenodd">
        <g id="man" transform="translate(0.000000, 2.000000)">
            <g id="Icon" transform="translate(1005.000000, 85.000000)" fill-rule="nonzero">
                <g id="merge-cell" transform="translate(0.000000, 127.000000)">
                    <g id="hexagon" fill="#F4C373">
                        <path d="M18.7982172,2.643997 L14.0941872,5.35979989 L14.1194002,5.35979989 L11.8898485,6.64566416 L6.20251058,9.930561 C6.20251058,9.930561 3.2489849,11.6162318 1.66056436,14.3140253 C-0.0863380147,17.2783566 0.0145140933,22.4470267 0.0145140933,22.4470267 L0.0145140933,26.365851 L0.0145140933,27.8786324 L0.0145140933,29.7479981 L0.0145140933,31.6425768 L0.0145140933,35.1796039 C0.0145140933,35.1796039 -0.0863380147,40.3518757 1.66056441,43.316207 C3.24898496,46.0140007 6.20251064,47.6996714 6.20251064,47.6996714 L11.1154485,50.5343357 L11.1370597,50.5667525 L16.7271473,53.7940196 L16.734351,53.7940196 L18.7982172,54.9826336 C18.7982172,54.9826336 23.2249038,57.658816 26.6682826,57.6263992 C29.7982995,57.5939825 32.730214,55.8830987 32.730214,55.8830987 L34.6752187,54.76292 L34.6968299,54.76292 L46.8999336,47.7140788 C46.8999336,47.7140788 49.8534593,46.0284081 51.4454817,43.3306145 C53.1923841,40.3662832 53.0879302,35.1940114 53.0879302,35.1940114 L53.0879301,28.3396706 L53.116745,28.3828929 L53.116745,20.6388926 C53.116745,20.6388926 53.1311525,17.2387362 51.593158,14.5121277 C49.8966817,11.5153797 45.365541,9.01929027 45.365541,9.01929027 L40.6615111,6.30348738 L40.6795204,6.33950596 L39.422471,5.615532 L39.4368784,5.615532 L32.730214,1.74353184 C32.730214,1.74353184 29.7982994,0.0290461736 26.6682825,0.000231285619 C23.2249038,-0.0285835461 18.7982172,2.643997 18.7982172,2.643997 Z" id="Shape"></path>
                    </g>
                    <g id="merge" transform="translate(17.000000, 17.000000)" fill="#FFFFFF">
                        <path d="M7,3.55501586 C7,1.59472056 5.43049805,0 3.50051493,0 C1.57015733,0 0,1.59475237 0,3.55501586 C0,5.04101846 0.907054304,6.31518495 2.18485708,6.84553882 C2.18420173,6.85998364 2.18420173,17.1561475 2.18420173,17.1561475 C0.867233161,17.6875195 0.00396339224,18.9606678 0.00396339224,20.4449841 C0.00396339224,22.4052794 1.5727788,24 3.50313636,24 C5.43311945,24 6.99900131,22.4052476 6.99900131,20.4449841 C6.99900131,18.9606678 6.1350762,17.6874876 4.81810762,17.1561475 L4.81810765,6.88785516 C6.09494301,6.31486679 7,5.04101846 7,3.55501586 Z M5.01565293,20.445016 C5.01565293,21.2945876 4.33641548,21.9860616 3.50148238,21.9860616 C2.66620601,21.9860616 1.98665646,21.2945876 1.98665646,20.445016 C1.98665646,19.5954444 2.66620598,18.9039703 3.50148238,18.9039703 C4.33644668,18.9039704 5.01565293,19.5954444 5.01565293,20.445016 Z M3.50148238,5.0960615 C2.66620601,5.0960615 1.98665646,4.40458745 1.98665646,3.55501586 C1.98665646,2.70544426 2.66620598,2.01397022 3.50148238,2.01397022 C4.33644668,2.01397022 5.01565293,2.70544426 5.01565293,3.55501586 C5.01565293,4.40458745 4.33644668,5.0960615 3.50148238,5.0960615 Z" id="Shape"></path>
                        <path d="M17.5784211,17.1538149 L17.5784211,6.04791648 C17.5784211,4.00537887 16.0451809,2.34225834 13.8868011,2.34225834 L12.7511396,2.34225834 L12.7511396,0 L9,3.79210194 L12.7511731,7.45062339 L12.7511731,5.02847774 L13.8680777,5.02847774 C14.4780109,5.02847774 14.7514928,5.48647721 14.7514928,6.04791648 L14.7514928,17.1538149 C13.6914281,17.6853681 12.5192912,18.9589503 12.5192912,20.4437725 C12.5192912,22.4047359 14.2564454,24 16.3282087,24 C18.399637,24 20,22.4047041 20,20.4437725 C20,18.9589503 18.9918517,17.6853362 17.5784211,17.1538149 Z M16.3798236,21.9853434 C15.4836806,21.9853434 14.7547083,21.2936336 14.7547083,20.4437725 C14.7547083,19.5939113 15.4837141,18.9022016 16.3798236,18.9022016 C17.2763015,18.9022016 18.0053074,19.5939113 18.0053074,20.4437725 C18.0052739,21.2936336 17.2763015,21.9853434 16.3798236,21.9853434 Z" id="Shape"></path>
                    </g>
                </g>
                <g id="commit-cell" transform="translate(420.000000, 125.000000)">
                    <g id="hexagon" fill="#A775D3">
                        <path d="M18.7982172,2.643997 L14.0941872,5.35979989 L14.1194002,5.35979989 L11.8898485,6.64566416 L6.20251058,9.930561 C6.20251058,9.930561 3.2489849,11.6162318 1.66056436,14.3140253 C-0.0863380147,17.2783566 0.0145140933,22.4470267 0.0145140933,22.4470267 L0.0145140933,26.365851 L0.0145140933,27.8786324 L0.0145140933,29.7479981 L0.0145140933,31.6425768 L0.0145140933,35.1796039 C0.0145140933,35.1796039 -0.0863380147,40.3518757 1.66056441,43.316207 C3.24898496,46.0140007 6.20251064,47.6996714 6.20251064,47.6996714 L11.1154485,50.5343357 L11.1370597,50.5667525 L16.7271473,53.7940196 L16.734351,53.7940196 L18.7982172,54.9826336 C18.7982172,54.9826336 23.2249038,57.658816 26.6682826,57.6263992 C29.7982995,57.5939825 32.730214,55.8830987 32.730214,55.8830987 L34.6752187,54.76292 L34.6968299,54.76292 L46.8999336,47.7140788 C46.8999336,47.7140788 49.8534593,46.0284081 51.4454817,43.3306145 C53.1923841,40.3662832 53.0879302,35.1940114 53.0879302,35.1940114 L53.0879301,28.3396706 L53.116745,28.3828929 L53.116745,20.6388926 C53.116745,20.6388926 53.1311525,17.2387362 51.593158,14.5121277 C49.8966817,11.5153797 45.365541,9.01929027 45.365541,9.01929027 L40.6615111,6.30348738 L40.6795204,6.33950596 L39.422471,5.615532 L39.4368784,5.615532 L32.730214,1.74353184 C32.730214,1.74353184 29.7982994,0.0290461736 26.6682825,0.000231285619 C23.2249038,-0.0285835461 18.7982172,2.643997 18.7982172,2.643997 Z" id="Shape"></path>
                    </g>
                    <g id="source-commit" transform="translate(19.000000, 14.000000)" fill="#FFFFFF">
                        <path d="M15.7134026,14.1199999 C15.7141636,17.8482181 13.0907402,21.0619118 9.43784716,21.8075554 L9.43784716,28.2399998 L6.30006938,28.2399998 L6.30006938,21.8075554 C2.64404996,21.065169 0.0166496126,17.8506319 0.0166496126,14.1199999 C0.0166496126,10.3893678 2.64404996,7.17483073 6.30006938,6.43244438 L6.30006938,0 L9.43784716,0 L9.43784716,6.43244438 C13.0907402,7.17808797 15.7141636,10.3917816 15.7134026,14.1199999 Z M7.86895827,9.41333326 C5.26953807,9.41333326 3.16229164,11.5205797 3.16229164,14.1199999 C3.16229164,16.7194201 5.26953807,18.8266665 7.86895827,18.8266665 C10.4683785,18.8266665 12.5756249,16.7194201 12.5756249,14.1199999 C12.5756249,11.5205797 10.4683785,9.41333326 7.86895827,9.41333326 Z" id="Shape"></path>
                    </g>
                </g>
                <g id="push-cell" transform="translate(415.000000, 312.000000)">
                    <g id="repo-push-copy" transform="translate(17.000000, 19.000000)" fill="#FFFFFF">
                        <path d="M10.9375,7.8125 L6.25,14.0625 L14.1273438,12.065625 L10.9375,7.8125 Z M6.25,7.8125 L7.8125,7.8125 L7.8125,6.25 L6.25,6.25 L6.25,7.8125 Z M7.8125,3.125 L6.25,3.125 L6.25,4.6875 L7.8125,4.6875 L7.8125,3.125 Z M17.1875,0 C16.40625,0 2.34375,0 1.5625,0 C0.78125,0 0,0.78125 0,1.5625 C0,1.91212512 0,6.52101184 0,15.3891602 L4.6875,14.015625 L4.6875,1.5625 L17.2117187,1.5625 L17.1931965,12.3173576 L18.75,11.6557617 C18.75,5.20122872 18.75,1.83680815 18.75,1.5625 C18.75,0.78125 17.96875,0 17.1875,0 Z" id="Shape"></path>
                    </g>
                    <g id="hexagon" transform="translate(27.000000, 29.630001) scale(-1, 1) rotate(-180.000000) translate(-27.000000, -29.630001) translate(0.000000, 0.630001)" fill="#6CC2F2">
                        <path d="M18.7982172,2.643997 L14.0941872,5.35979989 L14.1194002,5.35979989 L11.8898485,6.64566416 L6.20251058,9.930561 C6.20251058,9.930561 3.2489849,11.6162318 1.66056436,14.3140253 C-0.0863380147,17.2783566 0.0145140933,22.4470267 0.0145140933,22.4470267 L0.0145140933,26.365851 L0.0145140933,27.8786324 L0.0145140933,29.7479981 L0.0145140933,31.6425768 L0.0145140933,35.1796039 C0.0145140933,35.1796039 -0.0863380147,40.3518757 1.66056441,43.316207 C3.24898496,46.0140007 6.20251064,47.6996714 6.20251064,47.6996714 L11.1154485,50.5343357 L11.1370597,50.5667525 L16.7271473,53.7940196 L16.734351,53.7940196 L18.7982172,54.9826336 C18.7982172,54.9826336 23.2249038,57.658816 26.6682826,57.6263992 C29.7982995,57.5939825 32.730214,55.8830987 32.730214,55.8830987 L34.6752187,54.76292 L34.6968299,54.76292 L46.8999336,47.7140788 C46.8999336,47.7140788 49.8534593,46.0284081 51.4454817,43.3306145 C53.1923841,40.3662832 53.0879302,35.1940114 53.0879302,35.1940114 L53.0879301,28.3396706 L53.116745,28.3828929 L53.116745,20.6388926 C53.116745,20.6388926 53.1311525,17.2387362 51.593158,14.5121277 C49.8966817,11.5153797 45.365541,9.01929027 45.365541,9.01929027 L40.6615111,6.30348738 L40.6795204,6.33950596 L39.422471,5.615532 L39.4368784,5.615532 L32.730214,1.74353184 C32.730214,1.74353184 29.7982994,0.0290461736 26.6682825,0.000231285619 C23.2249038,-0.0285835461 18.7982172,2.643997 18.7982172,2.643997 Z" id="Shape"></path>
                    </g>
                    <g id="repo-push" transform="translate(17.000000, 19.000000)" fill="#FFFFFF">
                        <path d="M11.0833333,7.8125 L6.33333333,14.0625 L9.5,14.0625 L9.5,25 L12.6666667,25 L12.6666667,14.0625 L15.8333333,14.0625 L11.0833333,7.8125 Z M6.33333333,7.8125 L7.91666667,7.8125 L7.91666667,6.25 L6.33333333,6.25 L6.33333333,7.8125 Z M7.91666667,3.125 L6.33333333,3.125 L6.33333333,4.6875 L7.91666667,4.6875 L7.91666667,3.125 Z M17.4166667,0 C16.625,0 2.375,0 1.58333333,0 C0.791666667,0 0,0.78125 0,1.5625 C0,2.34375 0,19.53125 0,20.3125 C0,21.09375 0.791666667,21.875 1.58333333,21.875 C2.375,21.875 4.75,21.875 4.75,21.875 L4.75,25 L7.91666667,21.875 L7.91666667,18.75 L4.75,18.75 L4.75,20.3125 C4.75,20.3125 2.795375,20.3125 2.375,20.3125 C1.954625,20.3125 1.58333333,19.9703125 1.58333333,19.53125 C1.58333333,19.0921875 1.58333333,17.1875 1.58333333,17.1875 L7.91666667,17.1875 L7.91666667,15.625 L4.75,15.625 L4.75,1.5625 L17.4412083,1.5625 L17.4166667,15.625 L14.25,15.625 L14.25,17.1875 L17.4166667,17.1875 C17.4166667,17.1875 17.4166667,19.1164063 17.4166667,19.53125 C17.4166667,19.9460937 17.045375,20.3125 16.625,20.3125 C16.204625,20.3125 14.25,20.3125 14.25,20.3125 L14.25,21.875 C14.25,21.875 16.625,21.875 17.4166667,21.875 C18.2083333,21.875 19,21.09375 19,20.3125 C19,19.53125 19,2.34375 19,1.5625 C19,0.78125 18.2083333,0 17.4166667,0 Z" id="Shape"></path>
                    </g>
                </g>
                <g id="pull-cell" transform="translate(11.000000, 312.000000)">
                    <g id="hexagon" fill="#64E4D1">
                        <path d="M18.7982172,2.643997 L14.0941872,5.35979989 L14.1194002,5.35979989 L11.8898485,6.64566416 L6.20251058,9.930561 C6.20251058,9.930561 3.2489849,11.6162318 1.66056436,14.3140253 C-0.0863380147,17.2783566 0.0145140933,22.4470267 0.0145140933,22.4470267 L0.0145140933,26.365851 L0.0145140933,27.8786324 L0.0145140933,29.7479981 L0.0145140933,31.6425768 L0.0145140933,35.1796039 C0.0145140933,35.1796039 -0.0863380147,40.3518757 1.66056441,43.316207 C3.24898496,46.0140007 6.20251064,47.6996714 6.20251064,47.6996714 L11.1154485,50.5343357 L11.1370597,50.5667525 L16.7271473,53.7940196 L16.734351,53.7940196 L18.7982172,54.9826336 C18.7982172,54.9826336 23.2249038,57.658816 26.6682826,57.6263992 C29.7982995,57.5939825 32.730214,55.8830987 32.730214,55.8830987 L34.6752187,54.76292 L34.6968299,54.76292 L46.8999336,47.7140788 C46.8999336,47.7140788 49.8534593,46.0284081 51.4454817,43.3306145 C53.1923841,40.3662832 53.0879302,35.1940114 53.0879302,35.1940114 L53.0879301,28.3396706 L53.116745,28.3828929 L53.116745,20.6388926 C53.116745,20.6388926 53.1311525,17.2387362 51.593158,14.5121277 C49.8966817,11.5153797 45.365541,9.01929027 45.365541,9.01929027 L40.6615111,6.30348738 L40.6795204,6.33950596 L39.422471,5.615532 L39.4368784,5.615532 L32.730214,1.74353184 C32.730214,1.74353184 29.7982994,0.0290461736 26.6682825,0.000231285619 C23.2249038,-0.0285835461 18.7982172,2.643997 18.7982172,2.643997 Z" id="Shape"></path>
                    </g>
                    <g id="repo-pull" transform="translate(15.000000, 17.000000)" fill="#FFFFFF">
                        <path d="M28,8.75 L22.75,3.5 L22.75,7 L12.25,7 L12.25,10.5 L22.75,10.5 L22.75,14 L28,8.75 Z M19.25,17.5 L5.25,17.5 L5.25,1.75 L19.25,1.75 L19.25,5.25 L21,5.25 C21,5.25 21,2.625 21,1.75 C21,0.875 20.125,0 19.25,0 C18.375,0 2.625,0 1.75,0 C0.875,0 0,0.875 0,1.75 C0,2.625 0,21.875 0,22.75 C0,23.625 0.875,24.5 1.75,24.5 C2.625,24.5 5.25,24.5 5.25,24.5 L5.25,28 L7.875,25.375 L10.5,28 L10.5,24.5 C10.5,24.5 18.375,24.5 19.25,24.5 C20.125,24.5 21,23.625 21,22.75 C21,21.875 21,12.25 21,12.25 L19.25,12.25 L19.25,17.5 Z M19.25,21.875 C19.25,22.285375 18.839625,22.75 18.375,22.75 C17.910375,22.75 10.5,22.75 10.5,22.75 L10.5,21 L5.25,21 L5.25,22.75 C5.25,22.75 3.089625,22.75 2.625,22.75 C2.160375,22.75 1.75,22.3125 1.75,21.875 C1.75,21.4375 1.75,19.25 1.75,19.25 L19.25,19.25 C19.25,19.25 19.25,21.464625 19.25,21.875 Z M8.75,7 L7,7 L7,8.75 L8.75,8.75 L8.75,7 Z M8.75,3.5 L7,3.5 L7,5.25 L8.75,5.25 L8.75,3.5 Z M8.75,10.5 L7,10.5 L7,12.25 L8.75,12.25 L8.75,10.5 Z M7,15.75 L8.75,15.75 L8.75,14 L7,14 L7,15.75 Z" id="Shape"></path>
                    </g>
                </g>
                <g id="conflict-cell" transform="translate(211.000000, 0.000000)">
                    <g id="hexagon" fill="#D573A6">
                        <path d="M18.7982172,2.643997 L14.0941872,5.35979989 L14.1194002,5.35979989 L11.8898485,6.64566416 L6.20251058,9.930561 C6.20251058,9.930561 3.2489849,11.6162318 1.66056436,14.3140253 C-0.0863380147,17.2783566 0.0145140933,22.4470267 0.0145140933,22.4470267 L0.0145140933,26.365851 L0.0145140933,27.8786324 L0.0145140933,29.7479981 L0.0145140933,31.6425768 L0.0145140933,35.1796039 C0.0145140933,35.1796039 -0.0863380147,40.3518757 1.66056441,43.316207 C3.24898496,46.0140007 6.20251064,47.6996714 6.20251064,47.6996714 L11.1154485,50.5343357 L11.1370597,50.5667525 L16.7271473,53.7940196 L16.734351,53.7940196 L18.7982172,54.9826336 C18.7982172,54.9826336 23.2249038,57.658816 26.6682826,57.6263992 C29.7982995,57.5939825 32.730214,55.8830987 32.730214,55.8830987 L34.6752187,54.76292 L34.6968299,54.76292 L46.8999336,47.7140788 C46.8999336,47.7140788 49.8534593,46.0284081 51.4454817,43.3306145 C53.1923841,40.3662832 53.0879302,35.1940114 53.0879302,35.1940114 L53.0879301,28.3396706 L53.116745,28.3828929 L53.116745,20.6388926 C53.116745,20.6388926 53.1311525,17.2387362 51.593158,14.5121277 C49.8966817,11.5153797 45.365541,9.01929027 45.365541,9.01929027 L40.6615111,6.30348738 L40.6795204,6.33950596 L39.422471,5.615532 L39.4368784,5.615532 L32.730214,1.74353184 C32.730214,1.74353184 29.7982994,0.0290461736 26.6682825,0.000231285619 C23.2249038,-0.0285835461 18.7982172,2.643997 18.7982172,2.643997 Z" id="Shape"></path>
                    </g>
                    <g id="excl-round" transform="translate(12.000000, 14.000000)" fill="#FFFFFF">
                        <path d="M15,2.14285714 C22.0982143,2.14285714 27.8571429,7.90178571 27.8571429,15 C27.8571429,22.0982143 22.0982143,27.8571429 15,27.8571429 C7.90178571,27.8571429 2.14285714,22.0982143 2.14285714,15 C2.14285714,7.90178571 7.90178571,2.14285714 15,2.14285714 Z M15,0 C6.72321429,0 0,6.72321429 0,15 C0,23.2767857 6.72321429,30 15,30 C23.2767857,30 30,23.2767857 30,15 C30,6.72321429 23.2767857,0 15,0 Z" id="Shape"></path>
                        <path d="M14,20.875 L16,20.875 L16,23 L14,23 L14,20.875 Z M14,6 L16,6 L16,18.75 L14,18.75 L14,6 Z" id="Shape"></path>
                    </g>
                </g>
            </g>
            <g id="Arrows" stroke-linecap="square" transform="translate(1013.000000, 103.000000)" stroke="#435977" stroke-width="3">
                <path d="M37.5,104.5 C53.3789062,75.9479167 75.3606771,52.8977865 103.445312,35.3496094 C131.529948,17.8014323 161.214844,7.8515625 192.5,5.5" id="Line-7" stroke-dasharray="7"></path>
                <path d="M266.5,105.5 C282.378906,76.9479167 304.360677,53.8977865 332.445312,36.3496094 C360.529948,18.8014323 390.214844,8.8515625 421.5,6.5" id="Line-7" stroke-dasharray="7" transform="translate(344.000000, 56.000000) scale(-1, 1) translate(-344.000000, -56.000000) "></path>
                <path d="M8.828125,175 C4.94270833,193.211735 3,211.706526 3,230.484375 C3,249.262224 6.05338542,268.120297 12.1601563,287.058594" id="Line-8" stroke-dasharray="7" transform="translate(7.580078, 231.029297) rotate(-1.000000) translate(-7.580078, -231.029297) "></path>
                <path d="M450.828125,174 C446.942708,192.211735 445,210.706526 445,229.484375 C445,248.262224 448.053385,267.120297 454.160156,286.058594" id="Line-8" stroke-dasharray="7" transform="translate(449.580078, 230.029297) scale(-1, 1) rotate(-1.000000) translate(-449.580078, -230.029297) "></path>
                <polyline id="Line-19" points="440 277 443.408203 287 454 282.732413"></polyline>
                <polyline id="Line-18" points="412 104.164784 422.914062 108 425 96"></polyline>
                <polyline id="Line-17" points="186 0 193 5.78320313 187.878899 14"></polyline>
                <polyline id="Line-20" points="0 179.138333 8.12109375 174 13 182"></polyline>
            </g>
            <g id="Text" transform="translate(1068.000000, 146.000000)" font-size="18">
                <g id="conflict" transform="translate(144.000000, 0.000000)" fill="#D87DAD" font-family="Roboto-Bold, Roboto" font-weight="bold">
                    <text>
                        <tspan x="0.541504" y="17">conflict</tspan>
                    </text>
                </g>
                <g id="merge" transform="translate(0.000000, 83.000000)" fill="#FFFFFF" font-family="Roboto-Regular, Roboto" font-weight="normal">
                    <text>
                        <tspan x="0" y="17">merge</tspan>
                    </text>
                </g>
                <g id="pull" transform="translate(10.000000, 269.000000)" fill="#FFFFFF" font-family="Roboto-Regular, Roboto" font-weight="normal">
                    <text>
                        <tspan x="0" y="17">pull</tspan>
                    </text>
                </g>
                <g id="push" transform="translate(302.000000, 271.000000)" fill="#FFFFFF" font-family="Roboto-Regular, Roboto" font-weight="normal">
                    <text>
                        <tspan x="0.783203" y="17">push</tspan>
                    </text>
                </g>
                <g id="commit" transform="translate(289.000000, 82.000000)" fill="#FFFFFF" font-family="Roboto-Regular, Roboto" font-weight="normal">
                    <text>
                        <tspan x="0.511719" y="17">commit</tspan>
                    </text>
                </g>
            </g>
            <g id="Man-+-Computer" transform="translate(0.000000, 241.000000)">
                <g id="Group" transform="translate(1176.000000, 0.000000)" fill-rule="nonzero">
                    <g>
                        <path d="M68.9345703,47.0595703 C78.854292,46.2601119 85.5857373,45.27769 89.1289063,44.1123047 C99.5218962,40.6939417 104.960138,35.6868087 108.8125,38.8417969 C111.505861,41.0475917 113.247266,46.2403768 116.797852,53.71875 C117.622596,55.4558564 123.372473,52.7808452 124.662109,55.6083984 C126.669031,60.0086121 129.211185,71.507961 132.288574,90.1064453 C136.659993,96.1738281 138.119629,102.808105 136.66748,110.009277 C135.215332,117.210449 129.51123,121.223307 119.555176,122.047852 C115.767554,136.213295 112.229142,145.479083 108.939941,149.845215 C105.650741,154.211347 98.9796795,159.193606 88.9267578,164.791992 L88.730957,175.937012 L67.6337891,189.287598 L49.6577148,176.834473 L49.8081055,165.181641 C39.5818685,159.927734 32.6710612,154.81901 29.0756836,149.855469 C25.480306,144.891927 22.2602539,136.253255 19.4155273,123.939453 C10.4448242,120.988607 4.72184245,116.2264 2.24658203,109.652832 C-0.228678385,103.079264 0.917317708,96.2231445 5.68457031,89.0844727 C7.46526108,69.9144222 9.8093366,57.5610694 12.7167969,52.0244141 C14.6244428,48.3916979 20.0905965,52.2173753 22.8720703,50.3320313 C25.9954298,48.2149495 27.4189413,38.8176897 32.2578125,38.7695312 C35.7685859,38.7345906 39.3927587,41.6330411 46.7402344,43.4013672 C50.5126588,44.3092812 57.9107707,45.5286823 68.9345703,47.0595703 Z" id="Polygon" fill="#435977"></path>
                        <path d="M52.3975904,208.55949 C52.3975904,208.55949 55.1807229,203.876837 58.8313253,199.73449 C63.0963855,194.871735 67.8313253,190.405204 67.8313253,190.405204 L39.6746988,170.59398 C39.6746988,170.59398 32.0481928,182.444694 47.626506,208.019184 C48.6746988,209.712143 50.626506,211.18898 52.3975904,208.55949 Z" id="Shape" stroke="#435977" stroke-width="2" fill-opacity="0.2" fill="#FFFFFF"></path>
                        <path d="M83.3373494,209.063776 C83.3373494,209.063776 80.2289157,204.20102 76.8313253,200.094694 C72.5662651,194.979796 67.8313253,190.405204 67.8313253,190.405204 L96.5301205,170.59398 C96.5301205,170.59398 103.46988,184.461837 87.1325301,208.775612 C86.3012048,210.072347 85.1807229,211.549184 83.3373494,209.063776 Z" id="Shape" stroke="#435977" stroke-width="2" fill-opacity="0.2" fill="#FFFFFF"></path>
                        <g transform="translate(0.915663, 0.642857)">
                            <path d="M105.012048,76.2980612 C102.915663,74.8932653 100.204819,74.0287755 97.8192771,73.7766327 C92.3975904,73.2003061 87.5180723,73.632551 81.5542169,74.1368367 C78.3012048,74.425 78.373494,79.5759184 81.5542169,79.7920408 C86.4337349,80.1162245 91.2771084,78.927551 96.1566265,79.1436735 C98.1807229,79.2157143 100.204819,79.4678571 102.192771,79.900102 C103.277108,80.1162245 104.361446,80.3323469 105.409639,80.692551 C106.385542,81.0167347 107.361446,81.8091837 108.192771,81.0887755 C109.168675,80.2242857 106.819277,77.7028571 106.240964,77.1985714 C105.843373,76.9104082 105.445783,76.5862245 105.012048,76.2980612 Z" id="Shape" fill="#FFFFFF"></path>
                            <path d="M29.7951807,77.2345918 C31.8915663,75.8297959 34.6024096,74.9653061 36.9879518,74.7131633 C42.4096386,74.1368367 47.2891566,74.5690816 53.253012,75.0733673 C56.5060241,75.3615306 56.4337349,80.512449 53.253012,80.7285714 C48.373494,81.0527551 43.5301205,79.8640816 38.6506024,80.0802041 C36.626506,80.1522449 34.6024096,80.4043878 32.6144578,80.8366327 C31.5301205,81.0527551 30.4457831,81.2688776 29.3975904,81.6290816 C28.4216867,81.9532653 27.4457831,82.7457143 26.6144578,82.0253061 C25.6385542,81.1608163 27.9879518,78.6393878 28.5662651,78.135102 C29,77.8109184 29.3614458,77.5227551 29.7951807,77.2345918 Z" id="Shape" fill="#FFFFFF"></path>
                            <path d="M74.5060241,115.524286 C72.4819277,112.642653 69.4457831,110.697551 68.5783133,107.239592 C68.3975904,106.555204 67.3855422,106.807347 67.313253,107.383673 C66.626506,111.850204 71.7590361,114.515714 73.313253,118.297857 C74.3614458,120.819286 72.7710843,122.872449 70.2048193,123.80898 C67.7831325,124.70949 64.6385542,124.565408 63.2289157,122.260102 C62.3253012,120.747245 60.5542169,121.395612 61.3493976,122.94449 C64.2048193,128.347551 72.5542169,127.663163 75.3373494,123.376735 C77.1084337,120.711224 75.9879518,117.613469 74.5060241,115.524286 Z" id="Shape" fill="#FFFFFF"></path>
                            <path d="M133.656603,53.4694475 C133.548169,49.7953659 132.037615,43.967488 131.567736,39.8971819 C130.013519,26.5336105 120.061876,0.62765067 71.1155873,0.817103795 C22.5075075,1.00524784 3.01500141,19.7575335 2.27710843,43.5880612 C1.53921546,67.418589 0.406955949,76.3923254 5.3226186,87.6667132 C5.87551626,88.9364048 6.09988883,69.7782846 12.5042592,55.3620257 C14.0705144,51.83638 21.5498476,54.5352066 23.0501577,51.4079241 C24.639165,48.095759 26.2882015,42.6049046 27.6144578,40.3462245 C28.8433735,38.2570408 31.4457831,37.5006122 33.5783133,38.6172449 C40.373494,42.2192857 49.7710843,44.5966327 63.4698795,45.4971429 C79.2650602,46.5057143 89.8192771,45.1729592 102.650602,38.4011224 C105.180723,37.0683673 108.289157,38.0409184 109.590361,40.6343878 C111.035247,43.5682294 112.974249,48.0220452 115.089997,53.0205993 C116.046659,55.2807576 122.298609,52.3149818 123.298205,54.7077288 C128.936198,68.2034843 129.960878,89.1512293 130.766955,87.8200335 C136.550087,78.0945233 133.94576,64.3476108 133.656603,53.4694475 Z" id="Shape-Copy" stroke="#435977" fill="#798EAC"></path>
                        </g>
                    </g>
                    <path d="M56.4494635,144.939367 C64.3126636,143.879609 72.2120996,143.99736 80.0028279,145.371121 C81.23485,145.606623 81.7783892,143.526356 80.546367,143.290854 C72.5382231,141.877842 64.4938433,141.68159 56.4494635,142.780599 C55.1812054,142.976851 55.1812054,145.135619 56.4494635,144.939367 Z" id="Shape" fill="#FFFFFF"></path>
                    <path d="M36.5250024,111.415493 C36.5250024,111.415493 36.4522222,111.379976 36.2702719,111.308942 C36.1247116,111.237907 35.8699812,111.095839 35.6152507,110.918254 C35.3241302,110.740668 34.9966196,110.492049 34.5963288,110.172395 C34.1960381,109.852741 33.7957474,109.462053 33.3590666,108.964813 C32.522095,107.970335 31.6487334,106.620685 31.1028825,104.844831 C30.848152,103.956903 30.6298116,102.997942 30.5934215,101.932429 C30.5570315,100.866916 30.6298116,99.7658861 30.9209321,98.593822 C31.2120527,97.457275 31.6851235,96.2852109 32.4129248,95.184181 C33.1407262,94.083151 34.0868679,93.0531553 35.21496,92.2007451 C36.343052,91.3483348 37.6894845,90.67351 39.1814772,90.282822 C39.9092785,90.1052365 40.6734699,89.9631681 41.4376613,89.8921339 C42.2018527,89.8566169 43.0024342,89.8566169 43.8030156,89.9631681 C45.3677885,90.1762707 46.9325614,90.67351 48.3517739,91.4548861 C49.0431852,91.8455741 49.7345965,92.3428134 50.3168375,92.8755699 C50.6079581,93.1597066 50.8990786,93.4083263 51.1901991,93.7279801 C51.3357594,93.8700485 51.4813197,94.0121169 51.5904899,94.1897023 L51.6996601,94.3317707 L51.7724402,94.438322 L51.9180005,94.6514246 C52.0271707,94.82901 52.1727309,95.0065955 52.2819011,95.184181 C52.3910713,95.3617664 52.5002415,95.5393519 52.6094117,95.7169374 C52.8277521,96.0721083 53.0097024,96.4627964 53.1552627,96.8534844 C53.300823,97.2441724 53.4463832,97.6348605 53.5555534,98.0610656 C53.6283336,98.2741681 53.6283336,98.4517536 53.7011137,98.6648562 C53.7375038,98.8779587 53.7738938,99.0910613 53.7738938,99.2686468 C53.883064,100.08554 53.846674,100.93795 53.7011137,101.754843 C53.5919435,102.571737 53.337213,103.38863 53.0097024,104.134489 C52.6821918,104.880348 52.2455111,105.59069 51.7360501,106.229997 C51.5904899,106.372066 51.4813197,106.549651 51.3357594,106.691719 C51.2629793,106.762754 51.1901991,106.833788 51.117419,106.904822 L50.8990786,107.117925 C50.7535183,107.259993 50.6079581,107.402061 50.4260077,107.54413 C50.3532276,107.615164 50.2804475,107.686198 50.1712773,107.721715 L50.0621071,107.828266 L49.9893269,107.899301 L49.9165468,107.934818 L49.6982064,108.076886 L49.4070859,108.254472 C49.2979157,108.325506 49.2251355,108.361023 49.1159653,108.432057 C49.0431852,108.503091 48.934015,108.538608 48.8248448,108.574125 C48.4609441,108.751711 48.0606534,108.929296 47.6603627,109.071365 C47.260072,109.213433 46.8597812,109.319984 46.4594905,109.391019 C46.0591998,109.462053 45.622519,109.49757 45.2222282,109.49757 C44.8219375,109.49757 44.3852567,109.49757 43.984966,109.426536 C43.5846752,109.391019 43.1843845,109.284467 42.7840938,109.177916 C42.383803,109.071365 42.0199024,108.929296 41.6560017,108.751711 C41.2921011,108.574125 40.9282004,108.39654 40.6006898,108.183437 C40.2731792,107.970335 39.9456686,107.721715 39.6545481,107.473096 L39.4362077,107.259993 C39.3634275,107.188959 39.2906474,107.117925 39.2178673,107.04689 C39.1450871,106.975856 39.072307,106.904822 39.0359169,106.833788 L38.9267467,106.727237 L38.8903567,106.656202 L38.8539666,106.620685 L38.8175765,106.585168 L38.7447964,106.478617 L38.7084063,106.4431 L38.6720163,106.407583 L38.6356262,106.372066 C38.5628461,106.301031 38.4900659,106.19448 38.4536759,106.123446 L38.3081156,105.874826 L38.1625553,105.626207 C37.980605,105.271036 37.7986547,104.915865 37.6894845,104.525177 C37.2164136,103.033459 37.3255838,101.399672 37.980605,100.014506 C38.3081156,99.339681 38.7447964,98.7003733 39.2906474,98.1676169 C39.3634275,98.0965827 39.4362077,98.0255485 39.5089878,97.9900314 L39.618158,97.8834801 L39.6545481,97.847963 L39.6909381,97.8124459 C39.6909381,97.8124459 39.6909381,97.8124459 39.7273282,97.7769288 L39.9092785,97.6348605 C39.9820587,97.5638263 40.0912289,97.5283092 40.164009,97.457275 C40.4915196,97.2441724 40.8190302,97.066587 41.1829309,96.9600357 C42.6385335,96.4272793 44.2396964,96.5693476 45.4769587,97.2086553 C46.0955898,97.5283092 46.6414408,97.9900314 47.0781216,98.4872707 C47.5148024,99.0200271 47.842313,99.6593348 47.9514832,100.298643 C48.0970435,100.93795 48.0606534,101.612775 47.8787031,102.216566 C47.6967527,102.820356 47.4056322,103.353113 47.0053415,103.814835 C46.9689514,103.885869 46.8961713,103.921386 46.8597812,103.99242 L46.714221,104.134489 L46.5322706,104.276557 C46.4594905,104.312074 46.4231004,104.383108 46.3503203,104.418625 L46.2775402,104.454143 L46.2411501,104.48966 L46.20476,104.525177 L46.0955898,104.596211 L45.9864196,104.667245 C45.8408594,104.738279 45.7316892,104.809313 45.5861289,104.844831 C45.0402779,105.057933 44.4580368,105.128967 43.9485759,105.09345 C43.4027249,105.022416 42.929654,104.844831 42.4929732,104.596211 C42.2746328,104.454143 42.0926825,104.312074 41.9471223,104.170006 C41.7651719,103.99242 41.6196117,103.814835 41.5104415,103.637249 C41.255711,103.246561 41.1465408,102.820356 41.1101507,102.429668 C41.0737607,102.03898 41.1465408,101.648292 41.2921011,101.328638 C41.4376613,101.008984 41.6560017,100.724848 41.8743421,100.511745 C41.9471223,100.440711 41.9835123,100.405194 42.0562925,100.369677 C42.0926825,100.33416 42.1290726,100.33416 42.1654626,100.298643 C42.2018527,100.263125 42.2018527,100.263125 42.2382428,100.227608 C42.383803,100.156574 42.4929732,100.08554 42.6385335,100.050023 C43.1479944,99.8724374 43.6574554,99.9434716 43.984966,100.08554 C44.3124766,100.227608 44.530817,100.405194 44.6399872,100.511745 C44.7127673,100.582779 44.7491574,100.618296 44.7491574,100.653813 C44.7855474,100.689331 44.7855474,100.724848 44.7855474,100.724848 C44.7855474,100.724848 44.7855474,100.724848 44.7491574,100.689331 C44.7127673,100.653813 44.6763772,100.618296 44.6035971,100.582779 C44.4580368,100.476228 44.2396964,100.33416 43.9121858,100.298643 C43.5846752,100.227608 43.1843845,100.263125 42.7840938,100.476228 C42.6749236,100.511745 42.6021434,100.582779 42.5293633,100.653813 C42.4929732,100.653813 42.4929732,100.689331 42.4565832,100.724848 L42.383803,100.795882 C42.347413,100.831399 42.3110229,100.866916 42.2746328,100.93795 C42.1290726,101.115536 41.9835123,101.364155 41.9471223,101.612775 C41.8743421,101.861395 41.8743421,102.145531 41.9107322,102.429668 C41.9471223,102.713805 42.0926825,102.962425 42.2746328,103.211044 C42.4565832,103.424147 42.7477037,103.637249 43.0388242,103.779318 C43.3299448,103.921386 43.6938454,103.99242 44.021356,103.99242 C44.3488666,103.99242 44.7127673,103.921386 45.0402779,103.743801 C45.113058,103.708284 45.1858382,103.672766 45.2586183,103.601732 L45.2950084,103.566215 L45.3313984,103.530698 L45.3677885,103.530698 L45.4041786,103.495181 L45.4769587,103.424147 C45.5133488,103.424147 45.4769587,103.424147 45.4769587,103.424147 L45.5133488,103.38863 L45.5497388,103.353113 L45.658909,103.246561 L45.7680792,103.14001 L45.8408594,103.033459 C46.0591998,102.713805 46.20476,102.358634 46.2775402,101.967946 C46.3503203,101.577258 46.3503203,101.18657 46.2411501,100.795882 C46.1319799,100.405194 45.9136395,100.050023 45.658909,99.7658861 C45.3677885,99.4462323 45.0038878,99.1620955 44.567207,98.98451 C44.1669163,98.8069246 43.6938454,98.7003733 43.2207746,98.6648562 C42.7477037,98.6293391 42.2746328,98.7358904 41.8379521,98.8779587 C41.6196117,98.9489929 41.4012713,99.0555442 41.1829309,99.1976126 C41.1465408,99.2331297 41.1101507,99.2686468 41.0373706,99.2686468 L40.8554203,99.4107152 C40.8918103,99.3751981 40.8554203,99.4107152 40.8554203,99.4107152 L41.0009805,99.4462323 L40.9282004,99.5172664 C40.8918103,99.5527835 40.8190302,99.5883006 40.7826401,99.6593348 C40.4187395,100.014506 40.0912289,100.440711 39.8728885,100.902433 C39.4362077,101.825878 39.3270375,102.962425 39.6545481,103.99242 C39.7273282,104.24104 39.8364984,104.48966 39.9820587,104.738279 L40.0912289,104.915865 L40.2003991,105.09345 L40.3095693,105.235519 L40.3095693,105.271036 L40.3459593,105.306553 L40.3823494,105.34207 L40.4551295,105.448621 L40.4915196,105.484138 C40.5279097,105.519655 40.4915196,105.484138 40.4915196,105.484138 L40.5279097,105.519655 L40.6006898,105.59069 C40.6370799,105.661724 40.70986,105.697241 40.7462501,105.732758 C40.7826401,105.768275 40.8554203,105.839309 40.8918103,105.874826 L41.0373706,106.016895 C41.255711,106.19448 41.5104415,106.372066 41.7651719,106.549651 C42.2746328,106.869305 42.8204838,107.082407 43.4027249,107.224476 C43.6938454,107.29551 43.984966,107.331027 44.2760865,107.366544 C44.567207,107.402061 44.8583276,107.402061 45.1858382,107.366544 C45.7680792,107.331027 46.3867104,107.188959 46.9325614,106.940339 C47.2236819,106.833788 47.4784123,106.691719 47.7331428,106.549651 C47.8059229,106.514134 47.842313,106.478617 47.9150931,106.4431 C47.9878733,106.407583 48.0242633,106.372066 48.0970435,106.336549 L48.2426037,106.229997 L48.4609441,106.052412 L48.4973342,106.016895 C48.4973342,106.016895 48.4609441,106.052412 48.4973342,106.016895 L48.5337243,105.981378 L48.6065044,105.910343 C48.6792845,105.874826 48.7156746,105.803792 48.7884547,105.768275 C48.8976249,105.661724 49.0067951,105.555172 49.1159653,105.448621 L49.2615256,105.271036 L49.4070859,105.09345 C49.5162561,104.986899 49.5890362,104.844831 49.6618163,104.738279 C49.9893269,104.24104 50.2804475,103.708284 50.4623978,103.14001 C50.8626885,102.03898 50.9354687,100.831399 50.7171283,99.6948519 C50.6079581,99.1265784 50.4260077,98.593822 50.2076673,98.0610656 C50.0984971,97.8124459 49.9529369,97.5638263 49.8073766,97.3152066 C49.7345965,97.2086553 49.6618163,97.066587 49.5890362,96.9600357 C49.5162561,96.8534844 49.4434759,96.7824502 49.3706958,96.6403818 L49.1887455,96.4272793 L49.1159653,96.320728 C49.1159653,96.320728 49.1523554,96.3562451 49.1159653,96.320728 L49.0795753,96.2852109 L49.0431852,96.2496938 C48.934015,96.1431425 48.8612349,96.0365912 48.7520647,95.9300399 C48.5337243,95.7169374 48.3153839,95.5393519 48.0970435,95.3262493 C47.6603627,94.9710784 47.1509018,94.6159075 46.6414408,94.3672878 C45.622519,93.8345314 44.4944269,93.4793604 43.3663348,93.3372921 C42.8204838,93.2662579 42.2382428,93.2307408 41.6923918,93.2662579 C41.1465408,93.301775 40.6006898,93.3728092 40.0548388,93.4793604 C38.9995269,93.7279801 37.980605,94.1186681 37.1072434,94.6869416 C36.9980732,94.7579758 36.888903,94.82901 36.7797328,94.9000442 L36.7069527,94.9355613 L36.5977825,95.0065955 L36.4886123,95.0776297 L36.4522222,95.0776297 C36.4522222,95.0776297 36.4522222,95.0776297 36.4522222,95.0776297 L36.4158322,95.1131468 C36.1974918,95.2552152 36.0155414,95.4328006 35.797201,95.6103861 C35.3969103,95.9300399 35.0693997,96.320728 34.7418891,96.711416 C34.4143785,97.102104 34.159648,97.4927921 33.9049176,97.9189972 C33.6501871,98.3452023 33.4682368,98.7714075 33.2862864,99.1976126 C33.1043361,99.6238177 32.9951659,100.08554 32.8859957,100.547262 C32.7768255,101.008984 32.7040454,101.43519 32.6676553,101.861395 C32.6312652,102.2876 32.5948752,102.749322 32.6312652,103.14001 C32.6312652,103.566215 32.6676553,103.99242 32.7404354,104.383108 C32.9587758,105.981378 33.5046268,107.331027 34.0868679,108.39654 C34.2324282,108.64516 34.3779884,108.893779 34.5235487,109.106882 C34.669109,109.319984 34.8146692,109.533087 34.9602295,109.710672 C35.25135,110.10136 35.5424706,110.385497 35.760811,110.634117 C35.9791514,110.882737 36.1974918,111.060322 36.306662,111.166873 C36.4522222,111.344459 36.5250024,111.415493 36.5250024,111.415493 Z" id="Shape" fill="#FFFFFF"></path>
                    <path d="M88.8433415,111.415493 C88.8433415,111.415493 88.7705613,111.379976 88.588611,111.308942 C88.4430507,111.237907 88.1883203,111.095839 87.9335898,110.918254 C87.6424693,110.740668 87.3149587,110.492049 86.9146679,110.172395 C86.5143772,109.852741 86.1140865,109.462053 85.6774057,108.964813 C84.8404341,107.970335 83.9670726,106.620685 83.4212216,104.844831 C83.1664911,103.956903 82.9481507,102.997942 82.9117606,101.932429 C82.8753706,100.866916 82.9481507,99.7658861 83.2392712,98.593822 C83.5303918,97.457275 84.0034626,96.2852109 84.7312639,95.184181 C85.4590653,94.083151 86.405207,93.0531553 87.5332991,92.2007451 C88.6613911,91.3483348 90.0078236,90.67351 91.4998163,90.282822 C92.2276176,90.1052365 92.991809,89.9631681 93.7560004,89.8921339 C94.5201918,89.8566169 95.3207733,89.8566169 96.1213547,89.9631681 C97.6861276,90.1762707 99.2509005,90.67351 100.670113,91.4548861 C101.361524,91.8455741 102.052936,92.3428134 102.635177,92.8755699 C102.926297,93.1597066 103.217418,93.4083263 103.508538,93.7279801 C103.654098,93.8700485 103.799659,94.0121169 103.908829,94.1897023 L104.017999,94.3317707 L104.090779,94.438322 L104.23634,94.6514246 C104.34551,94.82901 104.49107,95.0065955 104.60024,95.184181 C104.70941,95.3617664 104.818581,95.5393519 104.927751,95.7169374 C105.146091,96.0721083 105.328042,96.4627964 105.473602,96.8534844 C105.619162,97.2441724 105.764722,97.6348605 105.873893,98.0610656 C105.946673,98.2741681 105.946673,98.4517536 106.019453,98.6648562 C106.055843,98.8779587 106.092233,99.0910613 106.092233,99.2686468 C106.201403,100.08554 106.165013,100.93795 106.019453,101.754843 C105.910283,102.571737 105.655552,103.38863 105.328042,104.134489 C105.000531,104.880348 104.56385,105.59069 104.054389,106.229997 C103.908829,106.372066 103.799659,106.549651 103.654098,106.691719 C103.581318,106.762754 103.508538,106.833788 103.435758,106.904822 L103.217418,107.117925 C103.071857,107.259993 102.926297,107.402061 102.744347,107.54413 C102.671567,107.615164 102.598787,107.686198 102.489616,107.721715 L102.380446,107.828266 L102.307666,107.899301 L102.234886,107.934818 L102.016546,108.076886 L101.725425,108.254472 C101.616255,108.325506 101.543475,108.361023 101.434304,108.432057 C101.361524,108.503091 101.252354,108.538608 101.143184,108.574125 C100.779283,108.751711 100.378993,108.929296 99.9787018,109.071365 C99.5784111,109.213433 99.1781203,109.319984 98.7778296,109.391019 C98.3775389,109.462053 97.9408581,109.49757 97.5405673,109.49757 C97.1402766,109.49757 96.7035958,109.49757 96.3033051,109.426536 C95.9030143,109.391019 95.5027236,109.284467 95.1024329,109.177916 C94.7021421,109.071365 94.3382415,108.929296 93.9743408,108.751711 C93.6104402,108.574125 93.2465395,108.39654 92.9190289,108.183437 C92.5915183,107.970335 92.2640077,107.721715 91.9728872,107.473096 L91.7545468,107.259993 C91.6817666,107.188959 91.6089865,107.117925 91.5362064,107.04689 C91.4634262,106.975856 91.3906461,106.904822 91.354256,106.833788 L91.2450858,106.727237 L91.2086958,106.656202 L91.1723057,106.620685 L91.1359156,106.585168 L91.0631355,106.478617 L91.0267454,106.4431 L90.9903554,106.407583 L90.9539653,106.372066 C90.8811852,106.301031 90.808405,106.19448 90.772015,106.123446 L90.6264547,105.874826 L90.4808944,105.626207 C90.2989441,105.271036 90.1169938,104.915865 90.0078236,104.525177 C89.5347527,103.033459 89.6439229,101.399672 90.2989441,100.014506 C90.6264547,99.339681 91.0631355,98.7003733 91.6089865,98.1676169 C91.6817666,98.0965827 91.7545468,98.0255485 91.8273269,97.9900314 L91.9364971,97.8834801 L91.9728872,97.847963 L92.0092772,97.8124459 C92.0092772,97.8124459 92.0092772,97.8124459 92.0456673,97.7769288 L92.2276176,97.6348605 C92.3003978,97.5638263 92.409568,97.5283092 92.4823481,97.457275 C92.8098587,97.2441724 93.1373693,97.066587 93.50127,96.9600357 C94.9568726,96.4272793 96.5580355,96.5693476 97.7952978,97.2086553 C98.4139289,97.5283092 98.9597799,97.9900314 99.3964607,98.4872707 C99.8331415,99.0200271 100.160652,99.6593348 100.269822,100.298643 C100.415383,100.93795 100.378993,101.612775 100.197042,102.216566 C100.015092,102.820356 99.7239713,103.353113 99.3236806,103.814835 C99.2872905,103.885869 99.2145104,103.921386 99.1781203,103.99242 L99.0325601,104.134489 L98.8506097,104.276557 C98.7778296,104.312074 98.7414395,104.383108 98.6686594,104.418625 L98.5958793,104.454143 L98.5594892,104.48966 L98.5230991,104.525177 L98.4139289,104.596211 L98.3047587,104.667245 C98.1591985,104.738279 98.0500283,104.809313 97.904468,104.844831 C97.358617,105.057933 96.7763759,105.128967 96.266915,105.09345 C95.721064,105.022416 95.2479931,104.844831 94.8113123,104.596211 C94.5929719,104.454143 94.4110216,104.312074 94.2654614,104.170006 C94.083511,103.99242 93.9379508,103.814835 93.8287806,103.637249 C93.5740501,103.246561 93.4648799,102.820356 93.4284898,102.429668 C93.3920998,102.03898 93.4648799,101.648292 93.6104402,101.328638 C93.7560004,101.008984 93.9743408,100.724848 94.1926812,100.511745 C94.2654614,100.440711 94.3018514,100.405194 94.3746316,100.369677 C94.4110216,100.33416 94.4474117,100.33416 94.4838017,100.298643 C94.5201918,100.263125 94.5201918,100.263125 94.5565819,100.227608 C94.7021421,100.156574 94.8113123,100.08554 94.9568726,100.050023 C95.4663335,99.8724374 95.9757945,99.9434716 96.3033051,100.08554 C96.6308157,100.227608 96.8491561,100.405194 96.9583263,100.511745 C97.0311064,100.582779 97.0674965,100.618296 97.0674965,100.653813 C97.1038865,100.689331 97.1038865,100.724848 97.1038865,100.724848 C97.1038865,100.724848 97.1038865,100.724848 97.0674965,100.689331 C97.0311064,100.653813 96.9947163,100.618296 96.9219362,100.582779 C96.7763759,100.476228 96.5580355,100.33416 96.2305249,100.298643 C95.9030143,100.227608 95.5027236,100.263125 95.1024329,100.476228 C94.9932627,100.511745 94.9204825,100.582779 94.8477024,100.653813 C94.8113123,100.653813 94.8113123,100.689331 94.7749223,100.724848 L94.7021421,100.795882 C94.6657521,100.831399 94.629362,100.866916 94.5929719,100.93795 C94.4474117,101.115536 94.3018514,101.364155 94.2654614,101.612775 C94.1926812,101.861395 94.1926812,102.145531 94.2290713,102.429668 C94.2654614,102.713805 94.4110216,102.962425 94.5929719,103.211044 C94.7749223,103.424147 95.0660428,103.637249 95.3571633,103.779318 C95.6482839,103.921386 96.0121845,103.99242 96.3396951,103.99242 C96.6672057,103.99242 97.0311064,103.921386 97.358617,103.743801 C97.4313971,103.708284 97.5041773,103.672766 97.5769574,103.601732 L97.6133475,103.566215 L97.6497375,103.530698 L97.6861276,103.530698 L97.7225177,103.495181 L97.7952978,103.424147 C97.8316879,103.424147 97.7952978,103.424147 97.7952978,103.424147 L97.8316879,103.38863 L97.8680779,103.353113 L97.9772481,103.246561 L98.0864183,103.14001 L98.1591985,103.033459 C98.3775389,102.713805 98.5230991,102.358634 98.5958793,101.967946 C98.6686594,101.577258 98.6686594,101.18657 98.5594892,100.795882 C98.450319,100.405194 98.2319786,100.050023 97.9772481,99.7658861 C97.6861276,99.4462323 97.3222269,99.1620955 96.8855461,98.98451 C96.4852554,98.8069246 96.0121845,98.7003733 95.5391137,98.6648562 C95.0660428,98.6293391 94.5929719,98.7358904 94.1562912,98.8779587 C93.9379508,98.9489929 93.7196104,99.0555442 93.50127,99.1976126 C93.4648799,99.2331297 93.4284898,99.2686468 93.3557097,99.2686468 L93.1737594,99.4107152 C93.2101494,99.3751981 93.1737594,99.4107152 93.1737594,99.4107152 L93.1373693,99.4462323 L93.0645892,99.5172664 C93.0281991,99.5527835 92.955419,99.5883006 92.9190289,99.6593348 C92.5551282,100.014506 92.2276176,100.440711 92.0092772,100.902433 C91.5725964,101.825878 91.4634262,102.962425 91.7909368,103.99242 C91.863717,104.24104 91.9728872,104.48966 92.1184474,104.738279 L92.2276176,104.915865 L92.3367878,105.09345 L92.445958,105.235519 L92.445958,105.271036 L92.4823481,105.306553 L92.5187382,105.34207 L92.5915183,105.448621 L92.6279084,105.484138 C92.6642984,105.519655 92.6279084,105.484138 92.6279084,105.484138 L92.6642984,105.519655 L92.7370786,105.59069 C92.7734686,105.661724 92.8462488,105.697241 92.8826388,105.732758 C92.9190289,105.768275 92.991809,105.839309 93.0281991,105.874826 L93.1737594,106.016895 C93.3920998,106.19448 93.6468302,106.372066 93.9015607,106.549651 C94.4110216,106.869305 94.9568726,107.082407 95.5391137,107.224476 C95.8302342,107.29551 96.1213547,107.331027 96.4124753,107.366544 C96.7035958,107.402061 96.9947163,107.402061 97.3222269,107.366544 C97.904468,107.331027 98.5230991,107.188959 99.0689501,106.940339 C99.3600707,106.833788 99.6148011,106.691719 99.8695316,106.549651 C99.9423117,106.514134 99.9787018,106.478617 100.051482,106.4431 C100.124262,106.407583 100.160652,106.372066 100.233432,106.336549 L100.378993,106.229997 L100.597333,106.052412 L100.633723,106.016895 C100.633723,106.016895 100.597333,106.052412 100.633723,106.016895 L100.670113,105.981378 L100.742893,105.910343 C100.815673,105.874826 100.852063,105.803792 100.924844,105.768275 C101.034014,105.661724 101.143184,105.555172 101.252354,105.448621 L101.397914,105.271036 L101.543475,105.09345 C101.652645,104.986899 101.725425,104.844831 101.798205,104.738279 C102.125716,104.24104 102.416836,103.708284 102.598787,103.14001 C102.999077,102.03898 103.071857,100.831399 102.853517,99.6948519 C102.744347,99.1265784 102.562396,98.593822 102.344056,98.0610656 C102.234886,97.8124459 102.089326,97.5638263 101.943765,97.3152066 C101.870985,97.2086553 101.798205,97.066587 101.725425,96.9600357 C101.652645,96.8534844 101.579865,96.7824502 101.507085,96.6403818 L101.325134,96.4272793 L101.252354,96.320728 C101.252354,96.320728 101.288744,96.3562451 101.252354,96.320728 L101.215964,96.2852109 L101.179574,96.2496938 C101.070404,96.1431425 100.997624,96.0365912 100.888453,95.9300399 C100.670113,95.7169374 100.451773,95.5393519 100.233432,95.3262493 C99.7967514,94.9710784 99.2872905,94.6159075 98.7778296,94.3672878 C97.7589077,93.8345314 96.6308157,93.4793604 95.5027236,93.3372921 C94.9568726,93.2662579 94.3746316,93.2307408 93.8287806,93.2662579 C93.2829296,93.301775 92.7370786,93.3728092 92.1912276,93.4793604 C91.1359156,93.7279801 90.1169938,94.1186681 89.2436322,94.6869416 C89.134462,94.7579758 89.0252918,94.82901 88.9161216,94.9000442 L88.8433415,94.9355613 L88.7341713,95.0065955 L88.6250011,95.0776297 L88.588611,95.0776297 C88.588611,95.0776297 88.588611,95.0776297 88.588611,95.0776297 L88.5522209,95.1131468 C88.3338805,95.2552152 88.1519302,95.4328006 87.9335898,95.6103861 C87.5332991,95.9300399 87.2057885,96.320728 86.8782779,96.711416 C86.5507673,97.102104 86.2960368,97.4927921 86.0413063,97.9189972 C85.7865759,98.3452023 85.6046255,98.7714075 85.4226752,99.1976126 C85.2407249,99.6238177 85.1315547,100.08554 85.0223845,100.547262 C84.9132143,101.008984 84.8404341,101.43519 84.8040441,101.861395 C84.767654,102.2876 84.7312639,102.749322 84.767654,103.14001 C84.767654,103.566215 84.8040441,103.99242 84.8768242,104.383108 C85.0951646,105.981378 85.6410156,107.331027 86.2232567,108.39654 C86.3688169,108.64516 86.5143772,108.893779 86.6599375,109.106882 C86.8054977,109.319984 86.951058,109.533087 87.0966183,109.710672 C87.3877388,110.10136 87.6788593,110.385497 87.8971997,110.634117 C88.1155401,110.882737 88.3338805,111.060322 88.4430507,111.166873 C88.7705613,111.344459 88.8433415,111.415493 88.8433415,111.415493 Z" id="Shape" fill="#FFFFFF"></path>
                </g>
                <path d="M1274,183.149774 C1292.05009,182.038273 1304.87549,187.113273 1312.47618,198.374775 C1320.07688,209.636277 1321.03607,211.945868 1315.35378,205.303548" id="Line-3" stroke="#435977" stroke-width="2" stroke-linecap="square"></path>
                <g id="Shape" transform="translate(0.000000, 435.000000)">
                    <g id="path-6-link" fill="#FFFFFF">
                        <path d="M18.7847837,2.643997 L14.0807537,5.3598 L14.1059667,5.3598 L11.876415,6.645664 L6.18907709,9.930561 C6.18907709,9.930561 3.23555141,11.616232 1.64713087,14.314025 C-0.0997715038,17.278357 0.00108060407,22.447027 0.00108060407,22.447027 L0.00108060407,26.365851 L0.00108060407,27.878632 L0.00108060407,29.747998 L0.00108060407,31.642577 L0.00108060407,35.179604 C0.00108060407,35.179604 -0.0997715038,40.351876 1.64713092,43.316207 C3.23555147,46.014001 6.18907715,47.699671 6.18907715,47.699671 L11.102015,50.534336 L11.1236262,50.566753 L16.7137138,53.79402 L16.7209175,53.79402 L18.7847837,54.982634 C18.7847837,54.982634 23.2114703,57.658816 26.6548491,57.626399 C29.784866,57.593983 32.7167805,55.883099 32.7167805,55.883099 L34.6617852,54.76292 L34.6833964,54.76292 L46.8865002,47.714079 C46.8865002,47.714079 49.8400258,46.028408 51.4320482,43.330615 C53.1789506,40.366283 53.0744967,35.194011 53.0744967,35.194011 L53.0744966,28.339671 L53.1033115,28.382893 L53.1033115,20.638893 C53.1033115,20.638893 53.117719,17.238736 51.5797245,14.512128 C49.8832482,11.51538 45.3521075,9.01929 45.3521075,9.01929 L40.6480776,6.303487 L40.6660869,6.339506 L39.4090375,5.615532 L39.423445,5.615532 L32.7167805,1.743532 C32.7167805,1.743532 29.7848659,0.029046 26.6548491,0.000231 C23.2114703,-0.028583 18.7847837,2.643997 18.7847837,2.643997 Z" id="path-6"></path>
                    </g>
                    <path d="M35.6913302,4.615532 L38.9234541,6.481563 L39.423445,5.615532 L39.423445,4.615532 L35.6913302,4.615532 Z M43.0314683,8.834196 L41.5425045,5.856273 L40.6480776,6.303487 L40.1480873,7.169518 L43.0314683,8.834196 Z M52.1033115,25.080123 L52.1033115,28.382893 L53.1033115,28.382893 L53.9353618,27.828193 L52.1033115,25.080123 Z M34.4153365,53.76292 L34.1832167,53.896998 L34.6833964,54.76292 L34.6833964,53.76292 L34.4153365,53.76292 Z M16.9816507,52.79402 L16.7137138,52.79402 L16.7137138,53.79402 L17.2136939,52.927983 L16.9816507,52.79402 Z M11.8260262,49.817577 L11.6236063,49.700716 L11.1236262,50.566753 L11.9556769,50.012053 L11.8260262,49.817577 Z M17.8128879,4.3598 L14.0807537,4.3598 L14.0807537,5.3598 L14.580744,6.225831 L17.8128879,4.3598 Z" stroke="#FFFFFF" stroke-width="2"></path>
                </g>
                <path d="M1213,184.00636 C1195.8923,183.790486 1183.50218,189.06972 1175.82964,199.844061 C1168.15709,210.618402 1166.94916,212.819945 1172.20584,206.448688" id="Line-2" stroke="#435977" stroke-width="2" stroke-linecap="square"></path>
                <g id="laptop" transform="translate(1159.000000, 218.000000)">
                    <g id="Rectangle-4">
                        <g id="path-7-link" fill="#E6EDF4">
                            <rect id="path-7" x="0" y="0" width="166" height="106" rx="8"></rect>
                        </g>
                        <rect id="Rectangle-path" stroke="#435977" stroke-width="2" x="1" y="1" width="164" height="104" rx="8"></rect>
                    </g>
                    <ellipse id="Oval-4" stroke="#435977" stroke-width="2" fill="#FFFFFF" fill-rule="nonzero" cx="85.075" cy="51.7578125" rx="8.715" ry="8.6953125"></ellipse>
                </g>
            </g>
            <g id="Effects" transform="translate(931.000000, 0.000000)">
                <path d="M310.5,52.5 L310.5,68.5312195" id="Line-5" stroke="#435977" stroke-width="2" stroke-linecap="square"></path>
                <path d="M283,72 L291.256688,85.7414372" id="Line-5" stroke="#435977" stroke-width="2" stroke-linecap="square"></path>
                <path d="M330,72 L338.256688,85.7414372" id="Line-5" stroke="#435977" stroke-width="2" stroke-linecap="square" transform="translate(334.128344, 78.870719) scale(-1, 1) translate(-334.128344, -78.870719) "></path>
                <path d="M310.5,74.9724971 L310.5,79.5312195" id="Line-5" stroke="#435977" stroke-width="2" stroke-linecap="square"></path>
                <path d="M407.5,545.5 L427.5,529.5" id="Line-9" stroke="#435977" stroke-width="3" stroke-linecap="square"></path>
                <g id="Tap" transform="translate(439.472881, 522.634714) rotate(45.000000) translate(-439.472881, -522.634714) translate(426.972881, 514.134714)" fill="#435977" font-family="Roboto-Regular, Roboto" font-size="14" font-weight="normal">
                    <text>
                        <tspan x="0.921482" y="13.534621">Tap</tspan>
                    </text>
                </g>
                <g id="Tap" transform="translate(194.049143, 521.266604) rotate(-42.000000) translate(-194.049143, -521.266604) translate(181.549143, 512.766604)" fill="#FFFFFF" font-family="Roboto-Regular, Roboto" font-size="14" font-weight="normal">
                    <text>
                        <tspan x="0.568219" y="13.970563">Tap</tspan>
                    </text>
                </g>
                <path d="M203.5,530.5 L215.5,541.5" id="Line-11" stroke="#FFFFFF" stroke-width="3" stroke-linecap="square"></path>
                <g id="Tap" transform="translate(410.590303, 505.534548) rotate(24.000000) translate(-410.590303, -505.534548) translate(400.090303, 498.034548)" fill="#435977" font-family="Roboto-Regular, Roboto" font-size="12" font-weight="normal">
                    <text>
                        <tspan x="0.690446" y="11.729695">Tap</tspan>
                    </text>
                </g>
                <path d="M92.5,106.5 L125,137" id="Line-14" stroke="#435977" stroke-width="4" stroke-linecap="square"></path>
                <path d="M537.5,511.5 L570,542" id="Line-14" stroke="#435977" stroke-width="4" stroke-linecap="square"></path>
                <path d="M78,511.5 L110.5,542" id="Line-14" stroke="#435977" stroke-width="4" stroke-linecap="square" transform="translate(94.250000, 526.750000) scale(-1, 1) translate(-94.250000, -526.750000) "></path>
                <path d="M0.2295018,326 L47.5,326" id="Line-14" stroke="#435977" stroke-width="4" stroke-linecap="square" transform="translate(23.864751, 328.000000) scale(-1, 1) translate(-23.864751, -328.000000) "></path>
                <path d="M570.229502,326 L617.5,326" id="Line-14" stroke="#435977" stroke-width="4" stroke-linecap="square" transform="translate(593.864751, 328.000000) scale(-1, 1) translate(-593.864751, -328.000000) "></path>
                <path d="M309.229502,4 L309.229502,0" id="Line-14" stroke="#435977" stroke-width="4" stroke-linecap="square" transform="translate(309.729502, 2.000000) scale(-1, 1) translate(-309.729502, -2.000000) "></path>
                <path d="M184,258 L238,306" id="Line-14" stroke="#435977" stroke-width="2" stroke-linecap="square"></path>
                <path d="M372.5,393.5 L525.5,538.5" id="Line-15" stroke="#435977" stroke-width="2" stroke-linecap="square"></path>
                <path d="M372.5,396.5 L525.5,541.5" id="Line-15-Copy" stroke="#435977" stroke-width="2" stroke-linecap="square"></path>
                <path d="M232.92334,272.341797 C235.256673,272.341797 238.156576,273.288249 241.623047,275.181152 C239.207766,275.165049 237.572669,275.30158 236.717756,275.590747 C232.266737,277.096265 229.56313,277.439225 228.606934,276.619629 C226.759409,275.036037 229.42334,272.341797 232.92334,272.341797 Z" id="Triangle" stroke="#435977" stroke-width="2"></path>
                <path d="M404.920175,285 C407.253509,285 410.153411,285.946452 413.619882,287.839355 C411.204601,287.823252 409.569504,287.959784 408.714591,288.24895 C404.263572,289.754468 401.559965,290.097429 400.603769,289.277832 C398.756245,287.69424 401.420175,285 404.920175,285 Z" id="Triangle" stroke="#435977" stroke-width="2" transform="translate(406.809941, 287.355595) scale(-1, 1) translate(-406.809941, -287.355595) "></path>
                <path d="M212.061178,303.344046 C213.880577,303.344046 216.141753,304.082034 218.844708,305.558012 C216.961411,305.545455 215.686457,305.651915 215.019845,305.87739 C211.549196,307.051306 209.441079,307.318727 208.695493,306.679653 C207.2549,305.444859 209.332079,303.344046 212.061178,303.344046 Z" id="Triangle" stroke="#435977" stroke-width="2" transform="translate(213.534708, 305.180803) rotate(-29.000000) translate(-213.534708, -305.180803) "></path>
                <polyline id="Line-6" stroke="#435977" stroke-width="2" stroke-linecap="square" points="312.5 173.5 309.048828 201.507813 316.515625 198.427734 312.5 230.718878"></polyline>
                <polyline id="Line-12" stroke="#435977" stroke-width="2" stroke-linecap="square" points="238.5 204.5 248.9375 223.294922 253.402344 217.740234 262.5 233.5"></polyline>
                <polyline id="Line-13" stroke="#435977" stroke-width="2" stroke-linecap="square" points="377.5 241.5 395.269531 223.371094 397.023438 231.597656 413.472656 209.980469"></polyline>
                <path d="M496,109.5 L528.5,140" id="Line-14" stroke="#435977" stroke-width="4" stroke-linecap="square" transform="translate(512.250000, 124.750000) scale(-1, 1) translate(-512.250000, -124.750000) "></path>
                <path d="M159.5,170.5 L238,245" id="Line-14" stroke="#435977" stroke-width="2" stroke-linecap="square"></path>
                <g id="hexagon" transform="translate(205.000000, 493.000000)" stroke="#435977" stroke-width="2">
                    <path d="M4.59980424,0.646969259 L3.44875801,1.31150896 L3.45492747,1.31150896 L2.90937035,1.62615178 L1.51771491,2.42994515 C1.51771491,2.42994515 0.795005952,2.84241807 0.406329542,3.50255101 C-0.0211263633,4.22790403 0.00355150636,5.49264473 0.00355150636,5.49264473 L0.00355150636,6.45155613 L0.00355150636,6.82172413 L0.00355150636,7.27914603 L0.00355150636,7.74273739 L0.00355150636,8.60822545 C0.00355150636,8.60822545 -0.0211263633,9.87384748 0.406329556,10.5992005 C0.795005966,11.2593335 1.51771492,11.6718064 1.51771492,11.6718064 L2.7198796,12.3654307 L2.7251677,12.3733629 L4.09302662,13.1630546 L4.09478931,13.1630546 L4.59980424,13.4539009 C4.59980424,13.4539009 5.68298633,14.1087457 6.52555923,14.1008136 C7.29145446,14.0928814 8.00887531,13.674239 8.00887531,13.674239 L8.4848056,13.4001384 L8.49009371,13.4001384 L11.4761156,11.6753318 C11.4761156,11.6753318 12.1988246,11.2628589 12.5883823,10.6027259 C13.0158383,9.87737289 12.990279,8.61175086 12.990279,8.61175086 L12.990279,6.93453724 L12.9973298,6.94511347 L12.9973298,5.05020581 C12.9973298,5.05020581 13.0008553,4.21820916 12.6245178,3.55102539 C12.2094008,2.8177402 11.1006595,2.20696299 11.1006595,2.20696299 L9.94961328,1.54242329 L9.95402004,1.55123681 L9.64642805,1.37408498 L9.64995346,1.37408498 L8.0088753,0.426631158 C8.0088753,0.426631158 7.29145445,0.00710741404 6.52555921,5.65941207e-05 C5.68298633,-0.00699421202 4.59980424,0.646969259 4.59980424,0.646969259 Z" id="Shape"></path>
                </g>
                <g id="hexagon" transform="translate(159.000000, 484.000000)" stroke="#435977">
                    <path d="M7.20930857,1.0139999 L5.40526495,2.05553808 L5.4149344,2.05553808 L4.55987853,2.54868019 L2.37872625,3.80847172 C2.37872625,3.80847172 1.24601894,4.45494371 0.636843417,5.48957514 C-0.0331115118,6.62642652 0.00556630323,8.60866434 0.00556630323,8.60866434 L0.00556630323,10.1115735 L0.00556630323,10.6917407 L0.00556630323,11.4086616 L0.00556630323,12.1352519 L0.00556630323,13.491738 C0.00556630323,13.491738 -0.0331115118,15.4753571 0.636843439,16.6122085 C1.24601897,17.6468399 2.37872628,18.2933119 2.37872628,18.2933119 L4.26288821,19.3804347 L4.27117631,19.3928668 L6.4150321,20.6305568 L6.41779479,20.6305568 L7.20930857,21.0864024 C7.20930857,21.0864024 8.90698819,22.1127457 10.2275592,22.1003136 C11.4279527,22.0878814 12.5523719,21.43174 12.5523719,21.43174 L13.2983011,21.00214 L13.3065892,21.00214 L17.9866043,18.2988373 C17.9866043,18.2988373 19.1193116,17.6523653 19.7298685,16.6177339 C20.3998234,15.4808825 20.3597643,13.4972634 20.3597643,13.4972634 L20.3597642,10.8685536 L20.3708151,10.8851298 L20.3708151,7.91522642 C20.3708151,7.91522642 20.3763405,6.61123167 19.7865038,5.56554941 C19.1358878,4.4162659 17.398149,3.45899008 17.398149,3.45899008 L15.5941054,2.41745189 L15.6010122,2.43126539 L15.1189209,2.15361397 L15.1244463,2.15361397 L12.5523719,0.668662295 C12.5523719,0.668662295 11.4279526,0.0111395047 10.2275591,8.87004007e-05 C8.90698819,-0.0109620823 7.20930857,1.0139999 7.20930857,1.0139999 Z" id="Shape"></path>
                </g>
                <path d="M401.5,522.5 L406.5,514.5" id="Line-10" stroke="#435977" stroke-width="3" stroke-linecap="square"></path>
            </g>
        </g>
    </g>
</svg>