
<svg width="469px" height="196px" viewBox="0 0 469 196" version="1.1" xmlns="http://www.w3.org/2000/svg" xmlns:xlink="http://www.w3.org/1999/xlink">
    <!-- Generator: Sketch 48.2 (47327) - http://www.bohemiancoding.com/sketch -->
    <desc>Created with Sketch.</desc>
    <defs></defs>
    <g id="Page-1" stroke="none" stroke-width="1" fill="none" fill-rule="evenodd">
        <g id="Artboard" transform="translate(-859.000000, -1723.000000)">
            <polyline id="Line-18" stroke="#E4A7AE" stroke-width="3" stroke-linecap="square" points="863.150745 1855 863 1917 1136 1916.95454"></polyline>
            <polyline id="Line-23" stroke="#6E68A4" stroke-width="2" stroke-linecap="square" points="1277 1904.97073 1302.8667 1905 1303 1878"></polyline>
            <path d="M1257.39326,1769 L1326.61121,1769" id="Line-19" stroke="#6E68A4" stroke-width="2" stroke-linecap="square"></path>
            <path d="M882.578947,1739.60526 L867.421053,1725.39474" id="Line-20" stroke="#979797" stroke-width="3" stroke-linecap="square"></path>
            <path d="M896.5,1732.6 L896.5,1725.4" id="Line-21" stroke="#979797" stroke-width="3" stroke-linecap="square"></path>
            <path d="M872.6,1756.5 L861.4,1756.5" id="Line-22" stroke="#979797" stroke-width="3" stroke-linecap="square"></path>
            <g id="Conflict-Copy" transform="translate(866.000000, 1735.000000)">
                <polygon id="Fill-31" fill="#000000" points="62.9423868 4.02343697 64.49869 0.867595819 65.4197531 0.867595819 63.3274443 4.89318562 63.3274443 7.07665505 62.5244841 7.07665505 62.5244841 4.83787106 60.4650206 0.867595819 61.3860837 0.867595819"></polygon>
                <path d="M66.2830503,4.70899251 C66.2830503,5.20146045 66.3892792,5.60805842 66.600989,5.92878642 C66.8126988,6.24951442 67.1276452,6.40951145 67.5450801,6.40951145 C67.9572783,6.40951145 68.2699804,6.24951442 68.4831864,5.92878642 C68.6971405,5.60805842 68.8033695,5.20146045 68.8033695,4.70899251 L68.8033695,4.61431537 C68.8033695,4.12771888 68.6963924,3.72258878 68.4809422,3.39892505 C68.26624,3.07526132 67.9512936,2.91379643 67.5368511,2.91379643 C67.1246529,2.91379643 66.8126988,3.07526132 66.600989,3.39892505 C66.3892792,3.72258878 66.2830503,4.12771888 66.2830503,4.61431537 L66.2830503,4.70899251 Z M65.4197531,4.61651716 C65.4197531,3.92882349 65.6097682,3.36149455 65.9890505,2.91599822 C66.3690808,2.46976796 66.8852637,2.24738676 67.5368511,2.24738676 C68.1944232,2.24738676 68.7135985,2.46903403 69.095125,2.91379643 C69.4766515,3.35782489 69.6666667,3.92588776 69.6666667,4.61651716 L69.6666667,4.71119431 C69.6666667,5.40475943 69.4773996,5.9728223 69.0973693,6.41391504 C68.717339,6.85574172 68.200408,7.07665505 67.5450801,7.07665505 C66.8905003,7.07665505 66.3728212,6.85500778 65.9912947,6.41171325 C65.6105163,5.96915264 65.4197531,5.40182371 65.4197531,4.71119431 L65.4197531,4.61651716 Z" id="Fill-33" fill="#000000"></path>
                <path d="M73.8583205,5.70721841 C73.721885,5.92497901 73.54637,6.09278277 73.3317756,6.20998921 C73.1178667,6.32783613 72.8703632,6.38675958 72.5885794,6.38675958 C72.1148261,6.38675958 71.7452849,6.24521519 71.4799556,5.96212641 C71.215312,5.6796781 71.0823045,5.2396736 71.0823045,4.64147242 L71.0823045,2.24738676 L71.8734931,2.24738676 L71.8734931,4.64915809 C71.8734931,5.08147692 71.9420536,5.37929657 72.0784891,5.54197655 C72.2156101,5.70465653 72.4281478,5.78599651 72.7174732,5.78599651 C72.9985714,5.78599651 73.2309916,5.73283731 73.4147338,5.6265189 C73.5977904,5.52020049 73.7362827,5.36968948 73.8302106,5.17434542 L73.8302106,2.24738676 L74.6213992,2.24738676 L74.6213992,6.30734101 L73.9104265,6.30734101 L73.8583205,5.70721841 Z" id="Fill-35" fill="#000000"></path>
                <path d="M78.0542537,2.9762805 L77.6561896,2.95384314 C77.4517784,2.95384314 77.2789701,3 77.1384374,3.09295479 C76.9979046,3.18526851 76.8896473,3.31540521 76.8129931,3.48336489 L76.8129931,6.38675958 L76.037037,6.38675958 L76.037037,2.32239166 L76.7302872,2.32239166 L76.8055966,2.91602016 C76.9259572,2.70575002 77.0752312,2.54163674 77.2527463,2.42432139 C77.429589,2.30636497 77.6340003,2.24738676 77.8653078,2.24738676 C77.9231347,2.24738676 77.9782719,2.25187423 78.0307196,2.26084918 C78.0831672,2.26918305 78.1262011,2.27879907 78.1604938,2.28905615 L78.0542537,2.9762805 Z" id="Fill-37" fill="#000000"></path>
                <path d="M81.5971688,5.74770734 C81.5971688,5.56131711 81.5290638,5.40794876 81.3935559,5.28760231 C81.2580481,5.16725586 81.0003725,5.06231962 80.6219335,4.97352742 C80.0820085,4.85024569 79.6754849,4.68366859 79.4023629,4.47379612 C79.1292408,4.26318983 78.9930309,3.97626628 78.9930309,3.61302546 C78.9930309,3.23510825 79.1467937,2.91296134 79.4536171,2.64658475 C79.7611427,2.38094197 80.1613473,2.24738676 80.6549328,2.24738676 C81.1730924,2.24738676 81.5852328,2.38681253 81.8913542,2.66493024 C82.1967734,2.94304796 82.342813,3.2813389 82.3294728,3.67980307 L82.3210475,3.70548676 L81.5480208,3.70548676 C81.5480208,3.50148485 81.4658736,3.31876371 81.3029833,3.15732335 C81.1400931,2.99514917 80.9238422,2.91442898 80.6549328,2.91442898 C80.3670664,2.91442898 80.1529219,2.98047277 80.0132014,3.11182652 C79.8734808,3.24391409 79.8032695,3.40315299 79.8032695,3.58954323 C79.8032695,3.77299818 79.8650555,3.91756069 79.9886274,4.02323075 C80.1121993,4.12963462 80.3628538,4.22429738 80.7412928,4.30721902 C81.3036854,4.43343603 81.7221449,4.60441605 81.9959691,4.8208929 C82.2704953,5.03736975 82.4074074,5.3279624 82.4074074,5.69193704 C82.4074074,6.10434378 82.2480277,6.4382318 81.9285662,6.6936011 C81.6091047,6.9489704 81.1913473,7.07665505 80.6759962,7.07665505 C80.1079867,7.07665505 79.6607405,6.92548817 79.3342579,6.62462204 C79.0077753,6.32375591 78.8533104,5.97299003 78.869459,5.57159058 L78.8778843,5.54590689 L79.6516131,5.54590689 C79.6649532,5.84530538 79.7716744,6.06398369 79.9724788,6.20267564 C80.1725811,6.34063376 80.4070869,6.40961283 80.6759962,6.40961283 C80.9638627,6.40961283 81.189241,6.34870578 81.3521313,6.22689169 C81.5157236,6.1050776 81.5971688,5.9458387 81.5971688,5.74770734" id="Fill-39" fill="#000000"></path>
                <path d="M212.759199,4.16827377 L212.759199,6.41579164 L214.180528,6.41579164 C214.552578,6.41579164 214.84353,6.32117463 215.051964,6.13339626 C215.260397,5.94489006 215.364258,5.67777897 215.364258,5.3327908 C215.364258,4.97033488 215.278181,4.6850282 215.104605,4.47832643 C214.93103,4.27162466 214.662841,4.16827377 214.301462,4.16827377 L212.759199,4.16827377 Z M212.759199,3.50741036 L214.088761,3.50741036 C214.394652,3.50741036 214.642922,3.42152723 214.834994,3.24903314 C215.027065,3.07726688 215.12239,2.83781307 215.12239,2.5306717 C215.12239,2.19514523 215.019952,1.94404625 214.812941,1.77810257 C214.605931,1.61143107 214.307153,1.52845923 213.91803,1.52845923 L212.759199,1.52845923 L212.759199,3.50741036 Z M211.938272,7.07665505 L211.938272,0.867595819 L213.91803,0.867595819 C214.551866,0.867595819 215.047695,1.00733786 215.406229,1.28754977 C215.764762,1.56776168 215.944029,1.98771564 215.944029,2.54741163 C215.944029,2.8232566 215.857241,3.06998865 215.685088,3.28760777 C215.512935,3.50522689 215.286718,3.66680363 215.005724,3.77161016 C215.372794,3.85094288 215.661613,4.03435431 215.871468,4.32184446 C216.081324,4.60860677 216.185185,4.9426776 216.185185,5.32405692 C216.185185,5.8924868 216.005918,6.32699721 215.646674,6.62686035 C215.286718,6.92672348 214.797291,7.07665505 214.180528,7.07665505 L211.938272,7.07665505 Z" id="Fill-41" fill="#000000"></path>
                <path d="M218.359506,6.36253985 C218.638521,6.36253985 218.89017,6.28400919 219.11445,6.12694788 C219.338731,5.96915264 219.484914,5.78933946 219.552331,5.58604048 L219.552331,4.83155905 L218.687917,4.83155905 C218.377528,4.83155905 218.129885,4.91742902 217.943652,5.08916895 C217.757419,5.26090889 217.663301,5.46200608 217.663301,5.69319445 C217.663301,5.89942916 217.722041,6.06236192 217.839522,6.18272667 C217.956335,6.30235748 218.129885,6.36253985 218.359506,6.36253985 Z M219.638439,6.9863815 C219.612407,6.84546668 219.593049,6.72143228 219.578364,6.6142783 C219.564346,6.50639039 219.555001,6.39850248 219.552331,6.28914671 C219.408818,6.51299577 219.222585,6.70014827 218.99163,6.8506042 C218.761342,7.00106012 218.512364,7.07665505 218.24603,7.07665505 C217.805479,7.07665505 217.470393,6.95262065 217.239438,6.70455186 C217.009149,6.45648306 216.893004,6.11447105 216.893004,5.67851583 C216.893004,5.23448736 217.05721,4.8866039 217.384285,4.63559938 C217.711361,4.38532879 218.154583,4.25982653 218.715284,4.25982653 L219.552331,4.25982653 L219.552331,3.79965157 C219.552331,3.52736304 219.476904,3.31158722 219.325381,3.15232412 C219.174525,2.99306101 218.960257,2.91379643 218.683911,2.91379643 C218.436268,2.91379643 218.23535,2.98351991 218.08049,3.12223293 C217.925629,3.26094596 217.846864,3.4282823 217.846864,3.62350804 L217.111945,3.62350804 L217.103935,3.59708651 C217.088582,3.25874416 217.234098,2.94975906 217.540481,2.66866336 C217.846864,2.38756765 218.242025,2.24738676 218.727299,2.24738676 C219.207233,2.24738676 219.593049,2.38096227 219.884747,2.64884721 C220.177113,2.91746608 220.322628,3.30351397 220.322628,3.80845874 L220.322628,6.04841723 C220.322628,6.21501965 220.330638,6.37575061 220.346659,6.53061013 C220.362011,6.68473571 220.390714,6.8366595 220.432099,6.9863815 L219.638439,6.9863815 Z" id="Fill-43" fill="#000000"></path>
                <path d="M224.576593,5.74770734 C224.576593,5.56131711 224.50919,5.40794876 224.373682,5.28760231 C224.238174,5.16725586 223.979796,5.06231962 223.601357,4.97352742 C223.061432,4.85024569 222.655611,4.68366859 222.382489,4.47379612 C222.109367,4.26318983 221.972455,3.97626628 221.972455,3.61302546 C221.972455,3.23510825 222.126218,2.91296134 222.433041,2.64658475 C222.740567,2.38094197 223.140771,2.24738676 223.634357,2.24738676 C224.152516,2.24738676 224.565359,2.38681253 224.87148,2.66493024 C225.176899,2.94304796 225.322237,3.2813389 225.308897,3.67980307 L225.300471,3.70548676 L224.527445,3.70548676 C224.527445,3.50148485 224.446,3.31876371 224.283109,3.15732335 C224.120219,2.99514917 223.903266,2.91442898 223.634357,2.91442898 C223.34649,2.91442898 223.132346,2.98047277 222.992625,3.11182652 C222.852905,3.24391409 222.782693,3.40315299 222.782693,3.58954323 C222.782693,3.77299818 222.844479,3.91756069 222.968051,4.02323075 C223.091623,4.12963462 223.342278,4.22429738 223.720717,4.30721902 C224.283109,4.43343603 224.701569,4.60441605 224.975393,4.8208929 C225.249919,5.03736975 225.386831,5.3279624 225.386831,5.69193704 C225.386831,6.10434378 225.228154,6.4382318 224.908692,6.6936011 C224.589231,6.9489704 224.170771,7.07665505 223.65542,7.07665505 C223.087411,7.07665505 222.640164,6.92548817 222.313682,6.62462204 C221.987199,6.32375591 221.832734,5.97299003 221.848883,5.57159058 L221.857308,5.54590689 L222.631037,5.54590689 C222.644377,5.84530538 222.751098,6.06398369 222.951903,6.20267564 C223.152005,6.34063376 223.386511,6.40961283 223.65542,6.40961283 C223.943287,6.40961283 224.169367,6.34870578 224.332257,6.22689169 C224.49585,6.1050776 224.576593,5.9458387 224.576593,5.74770734" id="Fill-45" fill="#000000"></path>
                <path d="M228.611014,2.91379643 C228.353031,2.91379643 228.133046,3.03342724 227.951058,3.27195493 C227.768404,3.50974868 227.656412,3.80992661 227.615081,4.16955297 L227.62308,4.19083698 L229.571616,4.19083698 L229.571616,4.07927941 C229.571616,3.74827637 229.490954,3.47085032 229.329632,3.24846912 C229.16831,3.02535399 228.928992,2.91379643 228.611014,2.91379643 M228.728339,7.07665505 C228.139712,7.07665505 227.67241,6.86087923 227.324434,6.4293276 C226.977124,5.99777597 226.802469,5.43778634 226.802469,4.75009267 L226.802469,4.56073838 C226.802469,3.8987323 226.982457,3.34754986 227.340433,2.90719104 C227.698409,2.46756617 228.121713,2.24738676 228.611014,2.24738676 C229.180975,2.24738676 229.61228,2.43674105 229.903593,2.81471569 C230.195574,3.19342427 230.341564,3.69763511 230.341564,4.32881607 L230.341564,4.85724665 L227.599082,4.85724665 L227.58775,4.87926459 C227.595749,5.32476092 227.698409,5.69172659 227.896395,5.97869375 C228.094382,6.26639484 228.371697,6.41024539 228.728339,6.41024539 C228.988322,6.41024539 229.21764,6.36914523 229.414293,6.28767885 C229.610946,6.20547854 229.780268,6.09318704 229.923592,5.95007043 L230.224238,6.50125287 C230.072915,6.6656535 229.874262,6.80216473 229.626279,6.91225443 C229.378962,7.0216102 229.079649,7.07665505 228.728339,7.07665505" id="Fill-47" fill="#000000"></path>
                <polygon id="Fill-49" fill="#000000" points="357.45 0.867595819 359.505666 5.91286585 359.532127 5.91286585 361.587793 0.867595819 362.703704 0.867595819 362.703704 7.07665505 361.831237 7.07665505 361.831237 4.62025194 361.919693 2.09543346 361.897768 2.09179435 359.806569 7.07665505 359.226688 7.07665505 357.144561 2.10416734 357.12188 2.10853428 357.206556 4.62025194 357.206556 7.07665505 356.333333 7.07665505 356.333333 0.867595819"></polygon>
                <path d="M363.411523,6.38675958 L364.119342,6.38675958 L364.119342,2.08029032 L363.411523,2.08029032 L363.411523,6.38675958 Z M363.411523,0.977861357 L364.119342,0.977861357 L364.119342,0.177700348 L363.411523,0.177700348 L363.411523,0.977861357 Z" id="Fill-51" fill="#000000"></path>
                <path d="M366.952131,2.32239166 L367.008547,2.92691831 C367.153716,2.71151963 367.336725,2.54484208 367.555511,2.42560352 C367.774296,2.30700604 368.023354,2.24738676 368.302684,2.24738676 C368.772591,2.24738676 369.137233,2.37560026 369.395235,2.63202726 C369.653236,2.88909532 369.781893,3.28527504 369.781893,3.82120746 L369.781893,6.38675958 L368.987936,6.38675958 L368.987936,3.83595201 C368.987936,3.47823635 368.912943,3.22373256 368.760894,3.07372276 C368.608845,2.9230719 368.3763,2.848067 368.064634,2.848067 C367.836217,2.848067 367.634631,2.8993524 367.458502,3.00256427 C367.282373,3.10513507 367.141332,3.24488778 367.036755,3.42310455 L367.036755,6.38675958 L366.242798,6.38675958 L366.242798,2.32239166 L366.952131,2.32239166 Z" id="Fill-53" fill="#000000"></path>
                <path d="M372.298257,2.91379643 C372.040274,2.91379643 371.820289,3.03342724 371.638301,3.27195493 C371.455647,3.50974868 371.343654,3.80992661 371.302324,4.16955297 L371.310323,4.19083698 L373.258859,4.19083698 L373.258859,4.07927941 C373.258859,3.74827637 373.178197,3.47085032 373.016875,3.24846912 C372.855552,3.02535399 372.616235,2.91379643 372.298257,2.91379643 M372.415582,7.07665505 C371.826955,7.07665505 371.359653,6.86087923 371.011677,6.4293276 C370.664367,5.99777597 370.489712,5.43778634 370.489712,4.75009267 L370.489712,4.56073838 C370.489712,3.8987323 370.6697,3.34754986 371.027676,2.90719104 C371.385652,2.46756617 371.808956,2.24738676 372.298257,2.24738676 C372.868218,2.24738676 373.299522,2.43674105 373.590836,2.81471569 C373.882816,3.19342427 374.028807,3.69763511 374.028807,4.32881607 L374.028807,4.85724665 L371.286325,4.85724665 L371.274992,4.87926459 C371.282992,5.32476092 371.385652,5.69172659 371.583638,5.97869375 C371.781625,6.26639484 372.058939,6.41024539 372.415582,6.41024539 C372.675565,6.41024539 372.904882,6.36914523 373.101536,6.28767885 C373.298189,6.20547854 373.467511,6.09318704 373.610835,5.95007043 L373.911481,6.50125287 C373.760158,6.6656535 373.561505,6.80216473 373.313521,6.91225443 C373.066205,7.0216102 372.766892,7.07665505 372.415582,7.07665505" id="Fill-54" fill="#000000"></path>
                <g id="Group-59" transform="translate(181.502058, 13.975610)" fill="#020202">
                    <polyline id="Fill-57" points="0.624862551 0.344947735 0.624862551 35.5296167 0.624862551 145.912892"></polyline>
                </g>
                <g id="Group-84" transform="translate(328.020576, 49.160279)">
                    <path d="M0.644984335,0.344602787 L89.0991434,0.344602787" id="Fill-82" fill="#020202"></path>
                    <path d="M0.644984335,0.344602787 L89.0991434,0.344602787" id="Stroke-83"></path>
                </g>
                <path d="" id="Path-6" stroke="#979797"></path>
                <g id="Files" transform="translate(18.000000, 13.000000)">
                    <path d="M116.876543,140.328688 C116.876543,144.903832 112.983929,148.61324 108.184085,148.61324 L9.4859667,148.61324 C4.68685307,148.61324 0.794238683,144.903832 0.794238683,140.328688 L0.794238683,9.26016233 C0.794238683,4.68501817 4.68685307,0.975609756 9.4859667,0.975609756 C34.1202419,0.975609756 52.5959483,0.975609756 64.9130859,0.975609756 C74.5288634,0.975609756 83.9038634,0.975609756 93.0380859,0.975609756 L116.876543,26.1650391 L116.876543,140.328688 Z" id="Stroke-1" stroke="#129EE6" stroke-width="2" opacity="0.699999988"></path>
                    <g id="Group-14" opacity="0.699999988" transform="translate(25.000000, 37.000000)">
                        <path d="M2.64534985,1.34460279 L91.0995089,1.34460279" id="Fill-11" fill="#020202"></path>
                        <path d="M0.645349848,1.34460279 L74.0164609,1.34460279" id="Stroke-13" stroke="#A8B4BD" stroke-width="8"></path>
                    </g>
                    <g id="Group-14-Copy-3" opacity="0.699999988" transform="translate(25.000000, 118.000000)">
                        <path d="M0.645349848,1.34460279 L89.0995089,1.34460279" id="Fill-11" fill="#020202"></path>
                        <path d="M0.645349848,1.34460279 L74.0164609,1.34460279" id="Stroke-13" stroke="#A8B4BD" stroke-width="8"></path>
                    </g>
                    <g id="Group-14-Copy-2" opacity="0.699999988" transform="translate(25.000000, 101.000000)">
                        <path d="M0.645349848,1.34460279 L89.0995089,1.34460279" id="Fill-11" fill="#020202"></path>
                        <path d="M0.645349848,1.34460279 L74.0164609,1.34460279" id="Stroke-13" stroke="#A8B4BD" stroke-width="8"></path>
                    </g>
                    <g id="Group-14-Copy" opacity="0.699999988" transform="translate(25.000000, 54.000000)">
                        <path d="M0.645349848,1.34460279 L89.0995089,1.34460279" id="Fill-11" fill="#020202"></path>
                        <path d="M1,1 L74.3711111,1" id="Stroke-13" stroke="#A8B4BD" stroke-width="8"></path>
                        <path d="M1,17 L74.3711111,17" id="Stroke-13-Copy" stroke="#A8B4BD" stroke-width="8"></path>
                    </g>
                    <text id="37" opacity="0.346548507" font-family="Roboto-Regular, Roboto" font-size="8" font-weight="normal" fill="#4A4A4A">
                        <tspan x="12" y="41">37</tspan>
                    </text>
                    <text id="40" opacity="0.346548507" font-family="Roboto-Regular, Roboto" font-size="8" font-weight="normal" fill="#4A4A4A">
                        <tspan x="12" y="57">40</tspan>
                    </text>
                    <text id="44" opacity="0.346548507" font-family="Roboto-Regular, Roboto" font-size="8" font-weight="normal" fill="#4A4A4A">
                        <tspan x="12" y="73">44</tspan>
                    </text>
                    <text id="55" opacity="0.346548507" font-family="Roboto-Regular, Roboto" font-size="8" font-weight="normal" fill="#4A4A4A">
                        <tspan x="12" y="122">55</tspan>
                    </text>
                    <text id="50" opacity="0.346548507" font-family="Roboto-Regular, Roboto" font-size="8" font-weight="normal" fill="#4A4A4A">
                        <tspan x="12" y="105">50</tspan>
                    </text>
                    <path d="M91.9208984,1.62109375 L91.9208984,20.1347656 C91.5537109,24.3007812 93.0345052,26.2972005 96.3632813,26.1240234 C99.6920573,25.9508464 106.572266,25.9508464 117.003906,26.1240234" id="Path-7" stroke="#55B7E9" stroke-width="2"></path>
                </g>
                <g id="Files-Copy" transform="translate(166.000000, 13.000000)">
                    <path d="M116.876543,140.328688 C116.876543,144.903832 112.983929,148.61324 108.184085,148.61324 L9.4859667,148.61324 C4.68685307,148.61324 0.794238683,144.903832 0.794238683,140.328688 L0.794238683,9.26016233 C0.794238683,4.68501817 4.68685307,0.975609756 9.4859667,0.975609756 C34.1202419,0.975609756 52.5959483,0.975609756 64.9130859,0.975609756 C74.5288634,0.975609756 83.9038634,0.975609756 93.0380859,0.975609756 L116.876543,26.1650391 L116.876543,140.328688 Z" id="Stroke-1" stroke="#129EE6" stroke-width="2" opacity="0.699999988"></path>
                    <g id="Group-14" opacity="0.699999988" transform="translate(25.000000, 37.000000)">
                        <path d="M2.64534985,1.34460279 L91.0995089,1.34460279" id="Fill-11" fill="#020202"></path>
                        <path d="M0.645349848,1.34460279 L74.0164609,1.34460279" id="Stroke-13" stroke="#A8B4BD" stroke-width="8"></path>
                    </g>
                    <g id="Group-14-Copy-3" opacity="0.699999988" transform="translate(25.000000, 118.000000)">
                        <path d="M0.645349848,1.34460279 L89.0995089,1.34460279" id="Fill-11" fill="#020202"></path>
                        <path d="M0.645349848,1.34460279 L74.0164609,1.34460279" id="Stroke-13" stroke="#A8B4BD" stroke-width="8"></path>
                    </g>
                    <g id="Group-14-Copy-2" opacity="0.699999988" transform="translate(25.000000, 101.000000)">
                        <path d="M0.645349848,1.34460279 L89.0995089,1.34460279" id="Fill-11" fill="#020202"></path>
                        <path d="M0.645349848,1.34460279 L74.0164609,1.34460279" id="Stroke-13" stroke="#A8B4BD" stroke-width="8"></path>
                    </g>
                    <g id="Group-14-Copy" opacity="0.699999988" transform="translate(25.000000, 54.000000)">
                        <path d="M0.645349848,1.34460279 L89.0995089,1.34460279" id="Fill-11" fill="#020202"></path>
                        <path d="M1,1 L74.3711111,1" id="Stroke-13" stroke="#A8B4BD" stroke-width="8"></path>
                        <path d="M1,17 L74.3711111,17" id="Stroke-13-Copy" stroke="#A8B4BD" stroke-width="8"></path>
                    </g>
                    <text id="37" opacity="0.346548507" font-family="Roboto-Regular, Roboto" font-size="8" font-weight="normal" fill="#4A4A4A">
                        <tspan x="12" y="41">37</tspan>
                    </text>
                    <text id="40" opacity="0.346548507" font-family="Roboto-Regular, Roboto" font-size="8" font-weight="normal" fill="#4A4A4A">
                        <tspan x="12" y="57">40</tspan>
                    </text>
                    <text id="44" opacity="0.346548507" font-family="Roboto-Regular, Roboto" font-size="8" font-weight="normal" fill="#4A4A4A">
                        <tspan x="12" y="73">44</tspan>
                    </text>
                    <text id="55" opacity="0.346548507" font-family="Roboto-Regular, Roboto" font-size="8" font-weight="normal" fill="#4A4A4A">
                        <tspan x="12" y="122">55</tspan>
                    </text>
                    <text id="50" opacity="0.346548507" font-family="Roboto-Regular, Roboto" font-size="8" font-weight="normal" fill="#4A4A4A">
                        <tspan x="12" y="105">50</tspan>
                    </text>
                    <path d="M91.9208984,1.62109375 L91.9208984,20.1347656 C91.5537109,24.3007812 93.0345052,26.2972005 96.3632813,26.1240234 C99.6920573,25.9508464 106.572266,25.9508464 117.003906,26.1240234" id="Path-7" stroke="#55B7E9" stroke-width="2"></path>
                </g>
                <g id="Files-Copy-2" transform="translate(309.000000, 14.000000)">
                    <path d="M116.876543,140.328688 C116.876543,144.903832 112.983929,148.61324 108.184085,148.61324 L9.4859667,148.61324 C4.68685307,148.61324 0.794238683,144.903832 0.794238683,140.328688 L0.794238683,9.26016233 C0.794238683,4.68501817 4.68685307,0.975609756 9.4859667,0.975609756 C34.1202419,0.975609756 52.5959483,0.975609756 64.9130859,0.975609756 C74.5288634,0.975609756 83.9038634,0.975609756 93.0380859,0.975609756 L116.876543,26.1650391 L116.876543,140.328688 Z" id="Stroke-1" stroke="#129EE6" stroke-width="2" opacity="0.699999988"></path>
                    <g id="Group-14" opacity="0.699999988" transform="translate(25.000000, 37.000000)">
                        <path d="M2.64534985,1.34460279 L91.0995089,1.34460279" id="Fill-11" fill="#020202"></path>
                        <path d="M0.645349848,1.34460279 L74.0164609,1.34460279" id="Stroke-13" stroke="#A8B4BD" stroke-width="8"></path>
                    </g>
                    <g id="Group-14-Copy-3" opacity="0.699999988" transform="translate(25.000000, 118.000000)">
                        <path d="M0.645349848,1.34460279 L89.0995089,1.34460279" id="Fill-11" fill="#020202"></path>
                        <path d="M0.645349848,1.34460279 L74.0164609,1.34460279" id="Stroke-13" stroke="#A8B4BD" stroke-width="8"></path>
                    </g>
                    <g id="Group-14-Copy-2" opacity="0.699999988" transform="translate(25.000000, 101.000000)">
                        <path d="M0.645349848,1.34460279 L89.0995089,1.34460279" id="Fill-11" fill="#020202"></path>
                        <path d="M0.645349848,1.34460279 L74.0164609,1.34460279" id="Stroke-13" stroke="#A8B4BD" stroke-width="8"></path>
                    </g>
                    <g id="Group-14-Copy" opacity="0.699999988" transform="translate(25.000000, 54.000000)">
                        <path d="M0.645349848,1.34460279 L89.0995089,1.34460279" id="Fill-11" fill="#020202"></path>
                        <path d="M1,1 L74.3711111,1" id="Stroke-13" stroke="#A8B4BD" stroke-width="8"></path>
                        <path d="M1,17 L74.3711111,17" id="Stroke-13-Copy" stroke="#A8B4BD" stroke-width="8"></path>
                    </g>
                    <text id="37" opacity="0.346548507" font-family="Roboto-Regular, Roboto" font-size="8" font-weight="normal" fill="#4A4A4A">
                        <tspan x="12" y="41">37</tspan>
                    </text>
                    <text id="40" opacity="0.346548507" font-family="Roboto-Regular, Roboto" font-size="8" font-weight="normal" fill="#4A4A4A">
                        <tspan x="12" y="57">40</tspan>
                    </text>
                    <text id="44" opacity="0.346548507" font-family="Roboto-Regular, Roboto" font-size="8" font-weight="normal" fill="#4A4A4A">
                        <tspan x="12" y="73">44</tspan>
                    </text>
                    <text id="55" opacity="0.346548507" font-family="Roboto-Regular, Roboto" font-size="8" font-weight="normal" fill="#4A4A4A">
                        <tspan x="12" y="122">55</tspan>
                    </text>
                    <text id="50" opacity="0.346548507" font-family="Roboto-Regular, Roboto" font-size="8" font-weight="normal" fill="#4A4A4A">
                        <tspan x="12" y="105">50</tspan>
                    </text>
                    <path d="M91.9208984,1.62109375 L91.9208984,20.1347656 C91.5537109,24.3007812 93.0345052,26.2972005 96.3632813,26.1240234 C99.6920573,25.9508464 106.572266,25.9508464 117.003906,26.1240234" id="Path-7" stroke="#55B7E9" stroke-width="2"></path>
                </g>
                <g id="Group-68" transform="translate(0.000000, 89.000000)">
                    <path d="M201,37 L282,37" id="Fill-66" fill="#03366C"></path>
                    <polygon id="Stroke-55" fill="#DB3737" points="0 23 444 23 444 0 0 0"></polygon>
                </g>
                <g id="Notifications" transform="translate(102.000000, 61.000000)">
                    <path d="M240.63786,85.5812293 C240.63786,89.1186182 237.605425,91.9860627 233.864497,91.9860627 L8.16769507,91.9860627 C4.427497,91.9860627 1.39506173,89.1186182 1.39506173,85.5812293 L1.39506173,7.32400406 C1.39506173,3.78730516 4.427497,0.919860627 8.16769507,0.919860627 L233.864497,0.919860627 C237.605425,0.919860627 240.63786,3.78730516 240.63786,7.32400406 L240.63786,85.5812293 Z" id="Fill-97" fill="#F5F8FA"></path>
                    <path d="M240.63786,85.5812293 C240.63786,89.1186182 237.605425,91.9860627 233.864497,91.9860627 L8.16769507,91.9860627 C4.427497,91.9860627 1.39506173,89.1186182 1.39506173,85.5812293 L1.39506173,7.32400406 C1.39506173,3.78730516 4.427497,0.919860627 8.16769507,0.919860627 L233.864497,0.919860627 C237.605425,0.919860627 240.63786,3.78730516 240.63786,7.32400406 L240.63786,85.5812293 Z" id="Stroke-98" stroke="#129EE6" stroke-width="3" fill="#F5F8FA"></path>
                    <g id="Group-101" transform="translate(0.687243, 16.958188)">
                        <path d="M239.578439,0.337841812 L0.440298443,0.337841812" id="Fill-99" fill="#FFFFFF"></path>
                        <path d="M239.578439,0.337841812 L0.440298443,0.337841812" id="Stroke-100" stroke="#129EE6" stroke-width="3"></path>
                    </g>
                    <path d="M225.604938,75.4278632 C225.604938,78.8571166 222.732347,81.6376307 219.187728,81.6376307 L186.723201,81.6376307 C183.178582,81.6376307 180.304527,78.8571166 180.304527,75.4278632 C180.304527,71.999318 183.178582,69.2195122 186.723201,69.2195122 L219.187728,69.2195122 C222.732347,69.2195122 225.604938,71.999318 225.604938,75.4278632 Z" id="Stroke-103" fill="#129EE6"></path>
                    <g id="Group-106" transform="translate(12.720165, 27.135889)">
                        <path d="M0.360075381,0.45850453 L215.678152,0.45850453" id="Fill-104" fill="#FFFFFF"></path>
                        <path d="M0.360075381,0.45850453 L215.678152,0.45850453" id="Stroke-105" stroke="#CED9E0" stroke-width="8"></path>
                    </g>
                    <g id="Group-109" transform="translate(12.720165, 40.243902)">
                        <path d="M0.360075381,0.157986063 L215.678152,0.157986063" id="Fill-107" fill="#CED9E0"></path>
                        <path d="M0.360075381,0.157986063 L215.678152,0.157986063" id="Stroke-108" stroke="#CED9E0" stroke-width="8"></path>
                    </g>
                    <g id="Group-112" transform="translate(12.720165, 52.592334)">
                        <path d="M0.360104175,1.01566411 L119.217823,1.01566411" id="Fill-110" fill="#CED9E0"></path>
                        <path d="M0.360104175,1.01566411 L119.217823,1.01566411" id="Stroke-111" stroke="#CED9E0" stroke-width="8"></path>
                    </g>
                </g>
            </g>
        </g>
    </g>
</svg>