
<svg width="231px" height="196px" viewBox="0 0 231 196" version="1.1" xmlns="http://www.w3.org/2000/svg" xmlns:xlink="http://www.w3.org/1999/xlink">
    <!-- Generator: Sketch 48.2 (47327) - http://www.bohemiancoding.com/sketch -->
    <desc>Created with Sketch.</desc>
    <defs>
        <rect id="path-1" x="0" y="0" width="166" height="106" rx="8"></rect>
    </defs>
    <g id="Page-1" stroke="none" stroke-width="1" fill="none" fill-rule="evenodd">
        <g id="New-Design" transform="translate(-139.000000, -1279.000000)">
            <g id="You-just-start-coding" transform="translate(121.000000, 1252.000000)">
                <g id="just-start-coding" transform="translate(0.000000, 29.000000)">
                    <path d="M24.5,158.5 L246.536033,158.5" id="Line-23" stroke="#7A5DAF" stroke-width="3" stroke-linecap="square"></path>
                    <g id="laptop" transform="translate(76.000000, 44.000000)">
                        <g id="Rectangle-4">
                            <use fill="#D6C9ED" fill-rule="evenodd" xlink:href="#path-1"></use>
                            <rect stroke="#7A5DAF" stroke-width="2" x="1" y="1" width="164" height="104" rx="8"></rect>
                        </g>
                        <ellipse id="Oval-4" stroke="#7A5DAF" stroke-width="2" fill="#FFFFFF" cx="85.075" cy="51.7578125" rx="8.715" ry="8.6953125"></ellipse>
                    </g>
                    <g id="coffee-cup" transform="translate(21.000000, 89.000000)" fill="#7A5DAF" fill-rule="nonzero">
                        <path d="M21,45 C16.038,45 12,40.962 12,36 C12,31.038 16.038,27 21,27 C25.962,27 30,31.038 30,36 C30,40.962 25.962,45 21,45 Z M21,30 C17.691,30 15,32.691 15,36 C15,39.309 17.691,42 21,42 C24.309,42 27,39.309 27,36 C27,32.691 24.309,30 21,30 Z" id="Shape"></path>
                        <path d="M38.718,6.168 L38.187,4.047 C37.62,1.779 35.343,0 33.003,0 L9.003,0 C6.663,0 4.389,1.779 3.819,4.047 L3.288,6.168 C1.395,6.699 0,8.439 0,10.5 L0,13.5 C0,15.489 1.296,17.178 3.087,17.772 L5.79,55.614 C5.964,58.032 8.076,60 10.5,60 L31.5,60 C33.924,60 36.036,58.032 36.21,55.614 L38.913,17.772 C40.704,17.178 42,15.489 42,13.5 L42,10.5 C42,8.439 40.608,6.699 38.712,6.168 L38.718,6.168 Z M9.006,3 L33.006,3 C33.963,3 35.046,3.846 35.277,4.773 L35.583,6 L6.426,6 L6.732,4.773 C6.963,3.846 8.046,3 9.003,3 L9.006,3 Z M35.682,21 L6.333,21 L6.12,18 L35.898,18 L35.685,21 L35.682,21 Z M33.753,48 L8.262,48 L6.549,24 L35.469,24 L33.756,48 L33.753,48 Z M31.506,57 L10.506,57 C9.636,57 8.85,56.268 8.787,55.401 L8.472,51 L33.537,51 L33.222,55.401 C33.159,56.268 32.373,57 31.503,57 L31.506,57 Z M39.006,13.5 C39.006,14.328 38.334,15 37.506,15 L4.506,15 C3.678,15 3.006,14.328 3.006,13.5 L3.006,10.5 C3.006,9.675 3.678,9.003 4.503,9 C4.506,9 4.506,9 4.509,9 C4.512,9 4.515,9 4.518,9 L37.509,9 C38.337,9 39.009,9.672 39.009,10.5 L39.009,13.5 L39.006,13.5 Z" id="Shape"></path>
                    </g>
                    <text id="HTML" font-family="Roboto-Medium, Roboto" font-size="18" font-weight="400" fill="#7A5DAF">
                        <tspan x="136.022461" y="26">HTML</tspan>
                    </text>
                    <text id="PHP" font-family="Roboto-Medium, Roboto" font-size="18" font-weight="400" fill="#7A5DAF">
                        <tspan x="17.6010742" y="47">PHP</tspan>
                    </text>
                    <text id="JAVA" font-family="Roboto-Medium, Roboto" font-size="18" font-weight="400" fill="#7A5DAF">
                        <tspan x="56.4658203" y="189">JAVA</tspan>
                    </text>
                    <text id="PYTHON" font-family="Roboto-Medium, Roboto" font-size="18" font-weight="400" fill="#7A5DAF">
                        <tspan x="167.228516" y="193">PYTHON</tspan>
                    </text>
                    <path d="M72.5,22.5 L55.5,0.5" id="Line-25" stroke="#7A5DAF" stroke-width="3" stroke-linecap="square"></path>
                    <path d="M43.5,64.5 L19.5,64.5" id="Line-26" stroke="#7A5DAF" stroke-width="3" stroke-linecap="square"></path>
                </g>
            </g>
        </g>
    </g>
</svg>