
<svg width="54px" height="54px" viewBox="0 0 54 54" version="1.1" xmlns="http://www.w3.org/2000/svg" xmlns:xlink="http://www.w3.org/1999/xlink">
    <!-- Generator: Sketch 48.2 (47327) - http://www.bohemiancoding.com/sketch -->
    <desc>Created with Sketch.</desc>
    <defs></defs>
    <g id="Page-1" stroke="none" stroke-width="1" fill="none" fill-rule="evenodd">
        <g id="Artboard" transform="translate(-1229.000000, -1399.000000)">
            <g id="Sync" transform="translate(1229.000000, 1399.000000)" fill="#D9822B">
                <rect id="Rectangle-3" x="0" y="0" width="54" height="54" rx="6"></rect>
            </g>
            <g id="sync-(1)" transform="translate(270.000000, 1369.000000)" fill="#FFFFFF" fill-rule="nonzero">
                <path d="M999.89946,53.0762712 C999.697366,46.5084746 994.240825,41 987.773813,41 C981.508895,41 976.254447,46.0847458 975.850259,52.6525424 C973.020941,53.5 971,56.0423729 971,59.220339 C971,63.0338983 974.031412,66 977.467012,66 L996.46386,66 C1000.10155,66 1002.93087,62.8220339 1002.93087,59.220339 C1003.33506,56.6779661 1001.9204,54.3474576 999.89946,53.0762712 Z M985.752871,61.1271186 C985.752871,61.9745763 984.944495,62.3983051 984.136118,61.9745763 L979.487953,59.0084746 C979.083765,58.5847458 978.881671,57.9491525 979.285859,57.5254237 C979.487953,57.1016949 980.29633,56.8898305 980.700518,57.1016949 L983.73193,59.220339 L983.73193,50.5338983 C983.73193,49.8983051 984.136118,49.4745763 984.742401,49.4745763 C985.348683,49.4745763 985.752871,49.8983051 985.752871,50.5338983 L985.752871,61.1271186 Z M995.655483,54.1355932 C995.453389,54.559322 994.645013,54.7711864 994.240825,54.559322 L991.209413,52.440678 L991.209413,61.1271186 C991.209413,61.7627119 990.805224,62.1864407 990.198942,62.1864407 C989.59266,62.1864407 989.188471,61.5508475 989.188471,61.1271186 L989.188471,50.5338983 C989.188471,49.6864407 989.996848,49.2627119 990.805224,49.6864407 L995.453389,52.6525424 C995.857578,52.8644068 996.059672,53.5 995.655483,54.1355932 Z" id="Shape"></path>
            </g>
        </g>
    </g>
</svg>