
<svg width="391px" height="278px" viewBox="0 0 391 278" version="1.1" xmlns="http://www.w3.org/2000/svg" xmlns:xlink="http://www.w3.org/1999/xlink">
    <!-- Generator: Sketch 48.2 (47327) - http://www.bohemiancoding.com/sketch -->
    <desc>Created with Sketch.</desc>
    <defs>
        <path d="M58,179 L149.005494,179" id="path-1"></path>
        <path d="M58,195 L130.680255,195" id="path-2"></path>
        <path d="M58,215 L101.011626,215" id="path-3"></path>
        <path d="M25.65,13.6551724 L21.6,13.6551724 L21.6,8.19310345 C21.6,3.65275862 17.98875,0 13.5,0 C9.01125,0 5.4,3.65275862 5.4,8.19310345 L5.4,13.6551724 L1.35,13.6551724 C0.6075,13.6551724 0,14.2696552 0,15.0206897 L0,31.4068966 C0,32.157931 0.6075,32.7724138 1.35,32.7724138 L25.65,32.7724138 C26.3925,32.7724138 27,32.157931 27,31.4068966 L27,15.0206897 C27,14.2696552 26.3925,13.6551724 25.65,13.6551724 Z M13.5,25.9448276 C12.015,25.9448276 10.8,24.7158621 10.8,23.2137931 C10.8,21.7117241 12.015,20.4827586 13.5,20.4827586 C14.985,20.4827586 16.2,21.7117241 16.2,23.2137931 C16.2,24.7158621 14.985,25.9448276 13.5,25.9448276 Z M18.9,13.6551724 L8.1,13.6551724 L8.1,8.19310345 C8.1,5.18896552 10.53,2.73103448 13.5,2.73103448 C16.47,2.73103448 18.9,5.18896552 18.9,8.19310345 L18.9,13.6551724 Z" id="path-4"></path>
    </defs>
    <g id="Page-1" stroke="none" stroke-width="1" fill="none" fill-rule="evenodd">
        <g id="Artboard" transform="translate(-166.000000, -1251.000000)">
            <path d="M238.699488,1490.50622 C205.999136,1490.40696 185.869726,1490.42419 178.311257,1490.55792 C171.721296,1490.67451 167.095959,1491.63677 167.001013,1486.53662 C166.821068,1476.87054 190.657286,1485.98446 197.543499,1477.73507 C202.134309,1472.23549 198.097235,1466.32379 185.432278,1460" id="Line-6" stroke="#D9822B" stroke-width="2" stroke-linecap="square"></path>
            <g id="Sync-Code" transform="translate(199.000000, 1252.000000)">
                <path d="M76.240439,121.290956 L140.806711,121.290956 C147.851755,120.354366 151.287128,116.559341 151.112828,109.905882 C151.015999,106.209631 150.972961,92.9076703 150.983717,70" id="Line-10-Copy" stroke="#03366C" stroke-width="2" stroke-linecap="square" transform="translate(113.679790, 95.645478) rotate(180.000000) translate(-113.679790, -95.645478) "></path>
                <path d="M252,227.71875 L301.261789,227.71875 C308.306833,226.78216 311.742206,222.987135 311.567907,216.333676 C311.393607,209.680217 311.393607,171.902325 311.567907,103" id="Line-10" stroke="#03366C" stroke-width="2" stroke-linecap="square"></path>
                <g id="Page-1" transform="translate(46.000000, 0.000000)">
                    <path d="M250.415675,18.5262748 C246.679156,18.5262748 243.120487,19.278073 239.872843,20.627411 C233.865586,8.40623998 221.348712,0 206.873811,0 C187.191553,0 171.120223,15.5377285 170.128145,35.0819398 C169.874436,35.0717689 169.626627,35.0412562 169.372075,35.0412562 C158.673309,35.0412562 150,43.7610986 150,54.5210519 C150,65.2818528 158.673309,74 169.372075,74 L250.415675,74 C265.649175,74 278,61.5821918 278,46.2665277 C278,30.944083 265.649175,18.5262748 250.415675,18.5262748 Z" id="Stroke-5" stroke="#D9822B" stroke-width="2"></path>
                    <path d="M188,253.696497 C188,257.729857 184.732354,261 180.702076,261 L7.29792417,261 C3.26703739,261 0,257.729857 0,253.696497 L0,141.303503 C0,137.270143 3.26703739,134 7.29792417,134 L180.702076,134 C184.732354,134 188,137.270143 188,141.303503 L188,253.696497 Z" id="Stroke-1" stroke="#D9822B" stroke-width="2"></path>
                    <path d="M1,145 L186,145" id="Stroke-7" stroke="#D9822B" stroke-width="2"></path>
                    <path d="M23,140.5 C23,141.328891 22.3284775,142 21.4997335,142 C20.6715225,142 20,141.328891 20,140.5 C20,139.671109 20.6715225,139 21.4997335,139 C22.3284775,139 23,139.671109 23,140.5" id="Fill-9" fill="#D9822B"></path>
                    <path d="M13,140.5 C13,141.328891 12.3284775,142 11.5002665,142 C10.6715225,142 10,141.328891 10,140.5 C10,139.671109 10.6715225,139 11.5002665,139 C12.3284775,139 13,139.671109 13,140.5" id="Fill-11" fill="#D9822B"></path>
                    <path d="M18,140.5 C18,141.328891 17.3284775,142 16.5002665,142 C15.6715225,142 15,141.328891 15,140.5 C15,139.671109 15.6715225,139 16.5002665,139 C17.3284775,139 18,139.671109 18,140.5" id="Fill-13" fill="#D9822B"></path>
                    <path d="M265.499023,103 C262.462249,103 260,100.539268 260,97.5 C260,94.4607321 262.462249,92 265.499023,92 C268.537751,92 271,94.4607321 271,97.5 C271,100.539268 268.537751,103 265.499023,103 Z" id="Fill-9-Copy" fill="#D9822B"></path>
                    <path d="M30.4990229,125 C27.4622491,125 25,122.539268 25,119.5 C25,116.460732 27.4622491,114 30.4990229,114 C33.5377509,114 36,116.460732 36,119.5 C36,122.539268 33.5377509,125 30.4990229,125 Z" id="Fill-9-Copy-2" fill="#D9822B"></path>
                </g>
                <g id="Line-10" stroke-linecap="round">
                    <use stroke="#D9822B" stroke-width="6" xlink:href="#path-1"></use>
                    <use stroke="#979797" stroke-width="1" xlink:href="#path-1"></use>
                </g>
                <g id="Line-10" stroke-linecap="round">
                    <use stroke="#D9822B" stroke-width="6" xlink:href="#path-2"></use>
                    <use stroke="#979797" stroke-width="1" xlink:href="#path-2"></use>
                </g>
                <g id="Line-10" stroke-linecap="round">
                    <use stroke="#D9822B" stroke-width="6" xlink:href="#path-3"></use>
                    <use stroke="#979797" stroke-width="1" xlink:href="#path-3"></use>
                </g>
                <path d="M0,276 L79.6802547,276" id="Line-10" stroke="#D9822B" stroke-width="2" stroke-linecap="square" stroke-dasharray="7"></path>
                <path d="M253,245.040963 L345.241234,245.040963 C353.105233,244.626005 357.024782,247.363701 356.999882,253.254052 C356.974982,259.144403 353.921073,262.059413 347.838155,261.999083 L334.372394,261.999083" id="Line-16" stroke="#D9822B" stroke-width="2" stroke-linecap="square"></path>
                <g id="lock" transform="translate(262.000000, 51.000000)" fill-rule="nonzero">
                    <g id="Shape">
                        <use fill="#D9822B" fill-rule="evenodd" xlink:href="#path-4"></use>
                        <path stroke="#F5F8FA" stroke-width="3" d="M3.9,12.1551724 L3.9,8.19310345 C3.9,2.82814467 8.1789612,-1.5 13.5,-1.5 C18.8210388,-1.5 23.1,2.82814467 23.1,8.19310345 L23.1,12.1551724 L25.65,12.1551724 C27.2247888,12.1551724 28.5,13.4450412 28.5,15.0206897 L28.5,31.4068966 C28.5,32.982545 27.2247888,34.2724138 25.65,34.2724138 L1.35,34.2724138 C-0.224788795,34.2724138 -1.5,32.982545 -1.5,31.4068966 L-1.5,15.0206897 C-1.5,13.4450412 -0.224788795,12.1551724 1.35,12.1551724 L3.9,12.1551724 Z M13.5,24.4448276 C14.1527112,24.4448276 14.7,23.8912481 14.7,23.2137931 C14.7,22.5363381 14.1527112,21.9827586 13.5,21.9827586 C12.8472888,21.9827586 12.3,22.5363381 12.3,23.2137931 C12.3,23.8912481 12.8472888,24.4448276 13.5,24.4448276 Z M17.4,12.1551724 L17.4,8.19310345 C17.4,6.01357947 15.6377112,4.23103448 13.5,4.23103448 C11.3622888,4.23103448 9.6,6.01357947 9.6,8.19310345 L9.6,12.1551724 L17.4,12.1551724 Z"></path>
                    </g>
                </g>
                <polyline id="Path-4" stroke="#03366C" stroke-width="4" points="206 96.4124741 212.824202 88 220 95.8781185"></polyline>
                <polyline id="Path-4-Copy-2" stroke="#03366C" stroke-width="4" transform="translate(229.000000, 113.206237) rotate(180.000000) translate(-229.000000, -113.206237) " points="222 117.412474 228.824202 109 236 116.878119"></polyline>
                <polyline id="Path-4-Copy" stroke="#D9822B" stroke-width="2" transform="translate(249.802286, 228.106790) rotate(-89.000000) translate(-249.802286, -228.106790) " points="244.759561 231.821633 249.665811 224.391946 254.84501 231.13511"></polyline>
                <polyline id="Path-4-Copy-3" stroke="#D9822B" stroke-width="2" transform="translate(155.042725, 70.106790) rotate(91.000000) translate(-155.042725, -70.106790) " points="150 73.8216333 154.90625 66.3919458 160.085449 73.1351099"></polyline>
                <path d="M213,94 L213,120.410156" id="Path-5" stroke="#03366C" stroke-width="4"></path>
                <path d="M229,84 L229,110.410156" id="Path-5-Copy" stroke="#03366C" stroke-width="4"></path>
            </g>
        </g>
    </g>
</svg>