
<svg width="709px" height="515px" viewBox="0 0 709 515" version="1.1" xmlns="http://www.w3.org/2000/svg" xmlns:xlink="http://www.w3.org/1999/xlink">
    <!-- Generator: Sketch 48.2 (47327) - http://www.bohemiancoding.com/sketch -->
    <desc>Created with Sketch.</desc>
    <defs>
        <linearGradient x1="50%" y1="100%" x2="50%" y2="3.061617e-15%" id="linearGradient-1">
            <stop stop-color="#7B7B7B" offset="0%"></stop>
            <stop stop-color="#D7D7D7" offset="100%"></stop>
        </linearGradient>
        <path d="M0,1.96364118 C0,0.879152102 0.876620455,0 1.96565899,0 L655.034341,0 C656.119944,0 657,0.880308226 657,1.96364118 L657,461.036359 C657,462.120848 656.12338,463 655.034341,463 L1.96565899,463 C0.880055505,463 0,462.119692 0,461.036359 L0,1.96364118 Z" id="path-2"></path>
        <filter x="-7.0%" y="-6.7%" width="114.0%" height="119.9%" filterUnits="objectBoundingBox" id="filter-3">
            <feMorphology radius="1" operator="dilate" in="SourceAlpha" result="shadowSpreadOuter1"></feMorphology>
            <feOffset dx="0" dy="15" in="shadowSpreadOuter1" result="shadowOffsetOuter1"></feOffset>
            <feGaussianBlur stdDeviation="12.5" in="shadowOffsetOuter1" result="shadowBlurOuter1"></feGaussianBlur>
            <feComposite in="shadowBlurOuter1" in2="SourceAlpha" operator="out" result="shadowBlurOuter1"></feComposite>
            <feColorMatrix values="0 0 0 0 0   0 0 0 0 0   0 0 0 0 0  0 0 0 0.198596014 0" type="matrix" in="shadowBlurOuter1"></feColorMatrix>
        </filter>
        <path d="M0,7.0029154 C0,3.13531202 3.13591495,0 6.99936351,0 L651.000636,0 C654.866278,0 658,3.13863823 658,7.0029154 L658,37 L0,37 L0,7.0029154 Z" id="path-4"></path>
        <filter x="-0.2%" y="-2.7%" width="100.6%" height="108.1%" filterUnits="objectBoundingBox" id="filter-5">
            <feOffset dx="2" dy="1" in="SourceAlpha" result="shadowOffsetOuter1"></feOffset>
            <feColorMatrix values="0 0 0 0 0.737254902   0 0 0 0 0.737254902   0 0 0 0 0.737254902  0 0 0 1 0" type="matrix" in="shadowOffsetOuter1"></feColorMatrix>
        </filter>
        <filter x="-0.1%" y="-1.4%" width="100.5%" height="105.4%" filterUnits="objectBoundingBox" id="filter-6">
            <feOffset dx="0" dy="1" in="SourceAlpha" result="shadowOffsetInner1"></feOffset>
            <feComposite in="shadowOffsetInner1" in2="SourceAlpha" operator="arithmetic" k2="-1" k3="1" result="shadowInnerInner1"></feComposite>
            <feColorMatrix values="0 0 0 0 1   0 0 0 0 1   0 0 0 0 1  0 0 0 0.5 0" type="matrix" in="shadowInnerInner1"></feColorMatrix>
        </filter>
    </defs>
    <g id="Page-1" stroke="none" stroke-width="1" fill="none" fill-rule="evenodd">
        <g id="Artboard" transform="translate(-113.000000, -2440.000000)">
            <g id="Group-2" transform="translate(138.000000, 2451.000000)">
                <g id="Background-Copy" transform="translate(1.000000, 0.000000)">
                    <g id="Background-base">
                        <use fill="black" fill-opacity="1" filter="url(#filter-3)" xlink:href="#path-2"></use>
                        <use fill="#FFFFFF" fill-rule="evenodd" xlink:href="#path-2"></use>
                        <path stroke="url(#linearGradient-1)" stroke-width="1" d="M-0.5,1.96364118 C-0.5,0.601843374 0.601644214,-0.5 1.96565899,-0.5 L655.034341,-0.5 C656.395618,-0.5 657.5,0.603697088 657.5,1.96364118 L657.5,461.036359 C657.5,462.398157 656.398356,463.5 655.034341,463.5 L1.96565899,463.5 C0.604382093,463.5 -0.5,462.396303 -0.5,461.036359 L-0.5,1.96364118 Z"></path>
                    </g>
                </g>
                <g id="Header-Copy">
                    <g id="header_base">
                        <use fill="black" fill-opacity="1" filter="url(#filter-5)" xlink:href="#path-4"></use>
                        <use fill="#EEEEEE" fill-rule="evenodd" xlink:href="#path-4"></use>
                        <use fill="black" fill-opacity="1" filter="url(#filter-6)" xlink:href="#path-4"></use>
                    </g>
                    <g id="traffic-light" transform="translate(23.830422, 13.661538)">
                        <ellipse id="close" stroke="#E14640" fill="#FF6159" cx="5.46697912" cy="5.69230769" rx="5.46697912" ry="5.69230769"></ellipse>
                        <ellipse id="minimize" stroke="#DFA123" fill="#FFBD2E" cx="23.6902429" cy="5.69230769" rx="5.46697912" ry="5.69230769"></ellipse>
                        <ellipse id="expand" stroke="#1DAD2C" fill="#28CA42" cx="41.3527908" cy="5.69230769" rx="5.46697912" ry="5.69230769"></ellipse>
                    </g>
                </g>
            </g>
        </g>
    </g>
</svg>