
<svg width="115px" height="186px" viewBox="0 0 115 186" version="1.1" xmlns="http://www.w3.org/2000/svg" xmlns:xlink="http://www.w3.org/1999/xlink">
    <!-- Generator: Sketch 48.2 (47327) - http://www.bohemiancoding.com/sketch -->
    <desc>Created with Sketch.</desc>
    <defs>
        <filter x="-9.2%" y="-7.3%" width="118.4%" height="118.4%" filterUnits="objectBoundingBox" id="filter-1">
            <feOffset dx="0" dy="2" in="SourceAlpha" result="shadowOffsetOuter1"></feOffset>
            <feGaussianBlur stdDeviation="2.5" in="shadowOffsetOuter1" result="shadowBlurOuter1"></feGaussianBlur>
            <feColorMatrix values="0 0 0 0 0   0 0 0 0 0   0 0 0 0 0  0 0 0 0.230157382 0" type="matrix" in="shadowBlurOuter1" result="shadowMatrixOuter1"></feColorMatrix>
            <feMerge>
                <feMergeNode in="shadowMatrixOuter1"></feMergeNode>
                <feMergeNode in="SourceGraphic"></feMergeNode>
            </feMerge>
        </filter>
    </defs>
    <g id="Icosn-upadate" stroke="none" stroke-width="1" fill="none" fill-rule="evenodd">
        <g id="New-Design" transform="translate(-681.000000, -928.000000)">
            <g id="Group-3" transform="translate(687.000000, 930.000000)">
                <rect id="Rectangle-5" fill="#333399" x="38" y="5" width="31" height="80"></rect>
                <path d="M53,0.934969593 L53,49.0219281" id="Line-22" stroke="#FFFFFF" stroke-width="4" stroke-linecap="square" stroke-dasharray="7"></path>
                <g id="seal" filter="url(#filter-1)" transform="translate(0.000000, 73.000000)">
                    <circle id="Oval-5" stroke="#4A90E2" fill="#FFFFFF" cx="51.5" cy="51.5" r="51.5"></circle>
                    <g id="icon-bg-Skx1wlOIqZ" transform="translate(19.000000, 19.000000)" fill="#129EE6">
                        <path d="M67.9216058,39.6956783 L67.6012023,40.6236199 L65.0431589,39.99364 L65.1838174,39.0224265 C66.5836219,29.3814771 61.8296843,20.0605258 53.3541466,15.8257574 C44.9433543,11.6215732 34.721152,13.3886421 27.9188918,20.2225283 C26.8405545,21.3053939 25.8677774,22.5008465 25.0214335,23.7823087 C26.0013897,25.429445 26.1159904,27.449601 25.2917158,29.2218786 C25.0040173,29.8406398 24.6166082,30.3958288 24.140922,30.875292 C22.4225752,32.6004246 19.7902142,33.0676007 17.5886032,32.0349518 C14.6910119,30.6776303 13.434126,27.2059963 14.7863352,24.2946265 C15.0699123,23.6800054 15.4562578,23.1248164 15.9340712,22.6453532 C16.9638828,21.6107011 18.3374966,21.0094355 19.780509,20.9427915 C21.222325,18.6575284 22.547413,16.9907595 22.5597771,16.9764691 C22.8380362,16.6731652 23.0659083,16.4355705 23.2984335,16.2019824 C24.8474052,14.6460643 26.5652201,13.2743188 28.4130578,12.1167959 C28.0183366,10.2175073 28.2692086,8.24462984 29.144668,6.4764925 C29.5723602,5.61599632 30.1250231,4.84351302 30.7882983,4.17653833 C33.37333,1.57995806 37.2685595,0.914051815 40.4808377,2.51818337 C42.5917785,3.57233459 44.1519177,5.50741594 44.7840832,7.79588435 C49.195548,7.94346285 58.1761533,9.23414034 63.4991064,16.8391743 C68.6649154,24.2226402 70.3190486,32.7661666 67.9216058,39.6956783 Z M12.3891584,7.97591677 C7.93568219,12.4484134 5.6029849,18.5781966 5.98853272,24.7922531 C6.66855932,35.7964006 15.8415398,44.7499415 27.0156463,45.4629927 C27.2776859,44.996885 27.6020779,44.5642997 27.9756604,44.1894103 C28.9358075,43.2244739 30.2105083,42.6276157 31.5652436,42.507416 C33.1065043,42.3733266 34.6085454,42.8506529 35.7981599,43.8515156 C36.9840518,44.8513099 37.7111419,46.2545744 37.8455518,47.8046161 C37.994586,49.5214682 37.3807673,51.208404 36.1650951,52.4305677 C35.2040174,53.3956376 33.9267905,53.99303 32.5720552,54.1118941 C30.3852014,54.3034123 28.3371448,53.2698286 27.183825,51.4413243 C24.4984179,51.3295386 22.4145984,51.0140812 22.3935927,51.0110094 C19.8561562,50.4230994 17.4765284,49.5306835 15.2596284,48.3444462 C13.8187432,49.6351237 11.9812754,50.4057372 10.0325306,50.5283409 C7.75407587,50.6705772 5.55445905,49.9301471 3.83917007,48.4459482 C2.11643604,46.9554721 1.09154356,44.8955166 0.95287929,42.6445772 C0.807567644,40.2865265 1.68063405,37.9630667 3.34912549,36.2606385 C1.26995914,32.3500086 -2.10637623,23.8927588 1.78845449,15.4588813 C3.34500412,12.0907526 5.46963853,9.0032234 7.9323585,6.52938036 C11.2866246,3.15911479 15.210172,0.964936347 19.2802275,0.184306181 L20.2403745,0 L20.9791639,2.5383502 L20.0696699,2.90095258 C17.1712809,4.06074597 14.5866481,5.76731436 12.3891584,7.97591677 Z M11.4954851,60.2183052 C19.1209564,66.267421 29.54258,66.7988372 37.4286284,61.5427721 C38.7095778,60.6902892 39.8384352,59.7765045 40.7816979,58.8283962 C47.432132,52.1468964 49.0116815,41.5837482 44.7310371,32.9096049 C42.836269,32.9301724 40.9986683,31.9999604 39.8974639,30.4171977 C38.278163,28.0948062 38.5475147,24.9562589 40.5380051,22.9565369 C40.7887441,22.7057202 41.0495872,22.4833508 41.3138869,22.298911 C42.5804779,21.4075636 44.1190796,21.0655287 45.6449184,21.3361116 C47.1712889,21.6064273 48.4998336,22.4567733 49.3857959,23.7300886 C50.6433465,25.5360221 50.7760282,27.8359762 49.7775922,29.7523599 C50.9063167,31.9199608 51.6447073,33.7413867 51.7905507,34.1091977 C52.5604498,36.6336582 52.9826912,39.1497047 53.06924,41.6729631 C54.9007251,42.2782353 56.4761533,43.4841052 57.5652595,45.1301731 C59.8207142,48.5477172 59.4077792,53.0865908 56.5854362,55.9231698 C56.1986918,56.3112812 55.7695372,56.662665 55.3094058,56.9710439 C53.3069502,58.3057946 50.9205421,58.7033885 48.6395614,58.1082665 C47.3800166,60.1722286 45.9861947,61.9772272 44.4860148,63.4831957 C40.7049872,67.2824405 36.3304818,69.4298747 31.4836138,69.8661995 C22.534517,70.6683321 14.3364408,67.8296162 9.55538189,62.2722506 L8.92467883,61.5398339 L10.7173433,59.6007459 L11.4954851,60.2183052 Z" id="Shape"></path>
                    </g>
                </g>
                <circle id="Oval-6" fill="#FFFFFF" cx="53" cy="53" r="8"></circle>
            </g>
        </g>
    </g>
</svg>