
<svg width="100px" height="190px" viewBox="0 0 100 190" version="1.1" xmlns="http://www.w3.org/2000/svg" xmlns:xlink="http://www.w3.org/1999/xlink">
    <!-- Generator: Sketch 48.2 (47327) - http://www.bohemiancoding.com/sketch -->
    <desc>Created with Sketch.</desc>
    <defs>
        <filter x="-9.2%" y="-3.3%" width="118.4%" height="107.7%" filterUnits="objectBoundingBox" id="filter-1">
            <feOffset dx="0" dy="2" in="SourceAlpha" result="shadowOffsetOuter1"></feOffset>
            <feGaussianBlur stdDeviation="2.5" in="shadowOffsetOuter1" result="shadowBlurOuter1"></feGaussianBlur>
            <feColorMatrix values="0 0 0 0 0   0 0 0 0 0   0 0 0 0 0  0 0 0 0.230157382 0" type="matrix" in="shadowBlurOuter1" result="shadowMatrixOuter1"></feColorMatrix>
            <feMerge>
                <feMergeNode in="shadowMatrixOuter1"></feMergeNode>
                <feMergeNode in="SourceGraphic"></feMergeNode>
            </feMerge>
        </filter>
    </defs>
    <g id="Page-1" stroke="none" stroke-width="1" fill="none" fill-rule="evenodd">
        <g id="Version-1" transform="translate(-688.000000, -978.000000)">
            <g id="Section-II" transform="translate(-7.000000, 905.000000)">
                <g id="Heart" filter="url(#filter-1)" transform="translate(694.000000, 0.000000)">
                    <path d="M37.9315502,164.35368 L30.1857629,168.825597 L30.2272793,168.825597 L26.5560372,170.942937 L17.1911075,176.35194 C17.1911075,176.35194 12.3277495,179.127612 9.71221176,183.569875 C6.83571345,188.451025 7.00177935,196.961902 7.00177935,196.961902 L7.00177935,203.414748 L7.00177935,205.905736 L7.00177935,208.983886 L7.00177935,212.103552 L7.00177935,217.92772 C7.00177935,217.92772 6.83571345,226.444527 9.71221186,231.325678 C12.3277496,235.767941 17.1911076,238.543613 17.1911076,238.543613 L25.2808885,243.211251 L25.316474,243.264629 L34.5212687,248.578738 L34.5331305,248.578738 L37.9315502,250.535943 C37.9315502,250.535943 45.2206564,254.942619 50.8906202,254.889241 C56.0445935,254.835863 60.872366,252.018674 60.872366,252.018674 L64.0750652,250.174156 L64.1106507,250.174156 L84.2046227,238.567337 C84.2046227,238.567337 89.0679807,235.791664 91.6894494,231.349402 C94.5659477,226.468251 94.3939509,217.951444 94.3939509,217.951444 L94.3939508,206.664894 L94.4413982,206.736066 L94.4413982,193.984578 C94.4413982,193.984578 94.4651219,188.385785 91.9326172,183.896075 C89.1391518,178.961546 81.6780489,174.851416 81.6780489,174.851416 L73.9322616,170.379499 L73.9619162,170.438808 L71.8920236,169.246692 L71.9157473,169.246692 L60.8723659,162.870948 C60.8723659,162.870948 56.0445934,160.047828 50.8906201,160.000381 C45.2206564,159.952934 37.9315502,164.35368 37.9315502,164.35368 Z" id="Shape" stroke="#4A90E2" stroke-width="2" fill="#FFFFFF" fill-rule="nonzero"></path>
                    <g id="icon-bg-Skx1wlOIqZ" transform="translate(23.000000, 179.000000)" fill="#129EE6">
                        <path d="M57.0935237,34.0248671 L56.824199,34.8202456 L54.6739597,34.2802628 L54.7921944,33.4477942 C55.9688416,25.1841232 51.9727781,17.1947364 44.8484131,13.5649349 C37.7784717,9.96134843 29.1858959,11.4759789 23.468054,17.3335957 C22.5616255,18.2617662 21.7439288,19.2864399 21.0325093,20.384836 C21.8562406,21.7966672 21.9525717,23.5282295 21.2597031,25.0473245 C21.0178696,25.5776913 20.6922214,26.0535676 20.2923692,26.464536 C18.8479618,27.9432211 16.6352525,28.3436577 14.784623,27.4585301 C12.3489665,26.2951117 11.2924537,23.3194254 12.4290934,20.8239655 C12.6674625,20.2971475 12.9922167,19.8212712 13.393857,19.4103028 C14.2594957,18.5234581 15.4141276,18.0080876 16.6270946,17.9509641 C17.8390558,15.9921672 18.9528978,14.5635081 18.9632909,14.5512592 C19.1971899,14.2912845 19.3887345,14.0876318 19.5841905,13.8874135 C20.8862246,12.5537694 22.330185,11.3779876 23.8834399,10.385825 C23.5516452,8.75786341 23.7625231,7.06682558 24.4984166,5.55127928 C24.857926,4.81371113 25.3224832,4.15158259 25.8800189,3.57989 C28.052944,1.35424977 31.327195,0.783472984 34.0273708,2.15844289 C35.8017848,3.06200108 37.1132062,4.72064223 37.6445917,6.68218659 C41.3527795,6.80868245 48.9016941,7.91497744 53.3760604,14.433578 C57.7183347,20.762263 59.1087655,28.0852856 57.0935237,34.0248671 Z M10.4140752,6.83650009 C6.67057343,10.6700687 4.70975542,15.9241685 5.0338391,21.2505027 C5.60545566,30.6826291 13.3160769,38.3570927 22.7088042,38.9682794 C22.9290693,38.5687586 23.2017466,38.1979712 23.5157725,37.8766374 C24.3228527,37.0495491 25.3943403,36.5379563 26.5331033,36.434928 C27.8286558,36.3199942 29.0912411,36.7291311 30.0912069,37.5870134 C31.0880436,38.4439799 31.6992207,39.646778 31.812203,40.9753852 C31.9374781,42.4469728 31.4215145,43.8929177 30.3996451,44.9404866 C29.5917828,45.7676893 28.5181718,46.27974 27.3794088,46.3816235 C25.5411838,46.545782 23.8196289,45.6598531 22.8501717,44.0925637 C20.592873,43.9967473 18.8412566,43.7263553 18.8235996,43.7237224 C16.690682,43.2197995 14.6904152,42.4548716 12.826934,41.4380968 C11.6157551,42.5443917 10.071217,43.2049176 8.43314163,43.3100065 C6.51791884,43.4319233 4.66896558,42.797269 3.22712847,41.5250984 C1.77903319,40.2475475 0.917529368,38.4818714 0.800970997,36.5524948 C0.678824976,34.5313085 1.41270688,32.5397714 2.81520694,31.0805473 C1.06750188,27.7285788 -1.77057712,20.4795076 1.50333856,13.2504697 C2.81174259,10.3635022 4.59766717,7.71704862 6.66777961,5.59661173 C9.48730761,2.70781268 12.7853619,0.827088298 16.2065681,0.157976727 L17.0136482,0 L17.6346595,2.17572875 L16.8701573,2.48653078 C14.4338303,3.4806394 12.2612404,4.94341231 10.4140752,6.83650009 Z M9.66287156,51.6156901 C16.072688,56.8006466 24.8328933,57.2561461 31.4617456,52.7509475 C32.5384857,52.0202479 33.4873803,51.2370039 34.2802678,50.4243396 C39.8704878,44.6973398 41.1982251,35.6432128 37.6000022,28.2082327 C36.0072986,28.225862 34.4626487,27.4285375 33.5369987,26.0718837 C32.1758472,24.0812625 32.4022588,21.3910791 34.0754246,19.6770316 C34.2861907,19.4620459 34.5054501,19.2714435 34.727615,19.1133523 C35.7922858,18.3493402 37.0856032,18.0561675 38.3681923,18.2880956 C39.6512284,18.5197948 40.767976,19.2486628 41.512698,20.3400759 C42.5697695,21.8880189 42.681299,23.8594082 41.8420341,25.5020227 C42.790817,27.3599664 43.4114931,28.9211886 43.5340861,29.2364552 C44.1812477,31.4002784 44.5361752,33.5568897 44.6089264,35.7196827 C46.1484356,36.2384874 47.4727086,37.2720902 48.3881891,38.6830055 C50.2840786,41.6123291 49.9369738,45.5027921 47.5645696,47.9341455 C47.2394801,48.2668125 46.8787414,48.5679985 46.4919643,48.8323234 C44.8087408,49.9763954 42.8027745,50.3171901 40.8854284,49.8070856 C39.8266806,51.576196 38.6550622,53.1233376 37.3940414,54.4141677 C34.2157863,57.6706633 30.5386659,59.5113211 26.464487,59.8853139 C18.9420578,60.5728561 12.0509213,58.139671 8.03206014,53.3762148 L7.50190394,52.7484291 L9.0087813,51.0863536 L9.66287156,51.6156901 Z" id="Shape"></path>
                    </g>
                </g>
                <g id="Icons" transform="translate(141.000000, 50.000000)">
                    <g id="History" transform="translate(0.000000, 4.000000)">
                        <rect id="Rectangle-2" fill="#FFFFFF" x="594" y="19" width="21" height="86"></rect>
                        <path d="M603.5,22.9349696 L603.5,71.0219281" id="Line-22" stroke="#4A90E2" stroke-width="4" stroke-linecap="square" stroke-dasharray="7"></path>
                        <circle id="Oval-6" fill="#4A90E2" cx="603" cy="79" r="8"></circle>
                    </g>
                </g>
            </g>
        </g>
    </g>
</svg>