
<svg width="750px" height="463px" viewBox="0 0 750 463" version="1.1" xmlns="http://www.w3.org/2000/svg" xmlns:xlink="http://www.w3.org/1999/xlink">
    <!-- Generator: Sketch 48.2 (47327) - http://www.bohemiancoding.com/sketch -->
    <desc>Created with Sketch.</desc>
    <defs>
        <linearGradient x1="0%" y1="0%" x2="98.775506%" y2="0%" id="linearGradient-1">
            <stop stop-color="#129EE6" offset="0%"></stop>
            <stop stop-color="#3366CC" offset="100%"></stop>
        </linearGradient>
    </defs>
    <g id="Page-1" stroke="none" stroke-width="1" fill="none" fill-rule="evenodd">
        <g id="Artboard" transform="translate(-655.000000, -165.000000)">
            <circle id="Oval-5" fill="#F5F8FA" cx="1049.5" cy="396.5" r="231.5"></circle>
            <g id="Cover-" transform="translate(656.000000, 200.000000)">
                <path d="M642,297 C642,297 640.648961,312.089057 635,315" id="Stroke-29" stroke="url(#linearGradient-1)" stroke-width="2"></path>
                <path d="M614,285 L566.407447,288.640112 L560,298.567688 C560,298.567688 560.620096,304.579675 560.82658,305.350672 C561.033386,306.123046 571.902171,354.510944 571.902171,354.510944 L576.93263,375.984882 L585.613978,379 L588.438933,378.19078 L588.78318,377.087831 C588.78318,377.087831 583.891775,356.865601 583.271679,351.864279 C582.651583,346.863645 577.9375,323.053223 578.736328,314.648926" id="Stroke-31" stroke="url(#linearGradient-1)" stroke-width="2"></path>
                <path d="M578,376 L579,380" id="Stroke-41" stroke="url(#linearGradient-1)" stroke-width="2"></path>
                <path d="M604.229704,371 C604.229704,371 605.96287,376.157762 604.229704,377.777714 C602.496537,379.396751 599.308965,381.988674 599.308965,381.988674 L598,383" id="Stroke-43" stroke="url(#linearGradient-1)" stroke-width="2"></path>
                <path d="M609,368.325788 L612.370387,364 C612.370387,364 615.931877,365.685777 615.996185,367.140257 C616.060796,368.595096 615.283341,372.358241 615.283341,372.358241 L612.590611,380" id="Stroke-45" stroke="url(#linearGradient-1)" stroke-width="2"></path>
                <path d="M611,381 C611,381 605.109976,385.986225 601.455078,386.461426" id="Stroke-47" stroke="url(#linearGradient-1)" stroke-width="2"></path>
                <path d="M597,197.382837 C597,197.382837 601.696846,196.521454 602.908752,197.382837 C604.121723,198.24422 606.848157,200.793204 607,201" id="Stroke-61" stroke="url(#linearGradient-1)" stroke-width="2"></path>
                <path d="M530.508927,231.564849 C530.508927,231.564849 529,229.967039 529,232.146087 C530.29327,234.542802 548.614701,273.618743 548.614701,273.618743 L589.353365,274 L589.353365,271.730144 L590,271.584579 L590,270.930899 L589.425027,270.930899 L589.425027,270.132334 L550.626266,270.204776 L550.554942,271.004021 L548.973344,271.148906 L548.973344,270.350341" id="Stroke-67" stroke="url(#linearGradient-1)" stroke-width="2"></path>
                <path d="M567,268 C567,268 566.109125,268.857215 566,269" id="Stroke-75" stroke="url(#linearGradient-1)" stroke-width="0.5"></path>
                <polygon id="Stroke-78" stroke="url(#linearGradient-1)" points="165 274 603 274 601.734739 276.708695 600.198883 280 168.471678 280 166.736008 276.999514"></polygon>
                <path d="M600,277 L168,277" id="Stroke-79" stroke="url(#linearGradient-1)"></path>
                <polyline id="Stroke-80" stroke="url(#linearGradient-1)" stroke-width="2" points="534.072669 281 534.072669 386 539 386 539 281 232.927331 281 228 281 228 332.005926"></polyline>
                <path d="M231,281 L231,340" id="Stroke-81" stroke="url(#linearGradient-1)"></path>
                <polyline id="Stroke-82" stroke="url(#linearGradient-1)" points="233 362.102997 233 388 228 388 228 354"></polyline>
                <path d="M269.230328,229.047918 C269.230328,229.047918 269.545194,228.940103 269.86006,229.047918 C270.174926,229.155733 269.86006,230.882793 269.86006,231.530356 C269.86006,232.17792 258,274 258,274" id="Stroke-83" stroke="url(#linearGradient-1)"></path>
                <path d="M218,271 C218,271 218.187512,272.169749 218.437463,272.584875 C218.687415,273 219,273 219,273" id="Stroke-84" stroke="url(#linearGradient-1)"></path>
                <polyline id="Stroke-89" stroke="url(#linearGradient-1)" stroke-width="2" points="311 274 311 272.204609 312.407859 272.204609 311 240 362 240 361.242156 271.769517 362 271.769517 362 273.510224"></polyline>
                <path d="M312,241 L351.701172,268.677246" id="Stroke-90" stroke="url(#linearGradient-1)"></path>
                <path d="M314,271 L360,271" id="Stroke-91" stroke="url(#linearGradient-1)" stroke-width="2"></path>
                <g id="Coup" transform="translate(372.000000, 251.000000)" stroke="url(#linearGradient-1)">
                    <polyline id="Stroke-92" points="1.92542444 22.6791992 1.92542444 17.7747164 1.34839343 17.3928687 1.15336046 10.1247974 1.01129508 4.82852512 0 4.82852512 0 1.7649919 0.955170478 1.7649919 1.01129508 0 14.0448295 0 14.0448295 1.86936791 15 1.86936791 15 4.77666126 14.1574295 4.77666126 13.8199804 17.236953 13.0900098 17.4965964 13.0900098 22.6791992"></polyline>
                    <path d="M13.673584,9 L1,9" id="Stroke-93"></path>
                    <path d="M1.5,17.5 L13.5,17.5" id="Stroke-94"></path>
                    <path d="M1.31176758,5 L14,5" id="Stroke-95"></path>
                    <path d="M1.31860352,2 L14,2" id="Stroke-97"></path>
                </g>
                <path d="M362,227.094105 C362,227.094105 365.750782,226.078787 365.923566,230.718157 C366.095542,235.358545 365.923566,273 365.923566,273" id="Stroke-98" stroke="url(#linearGradient-1)" stroke-width="2"></path>
                <path d="M364.994952,280 C364.994952,280 365.183976,284.801769 363.248595,284.938907 C361.313565,285.076366 358,284.938907 358,284.938907" id="Stroke-99" stroke="url(#linearGradient-1)" stroke-width="2"></path>
                <path d="M308.164306,280 C308.164306,280 307.369302,284.697508 309.27679,284.907119 C311.184279,285.116101 311.590576,284.907119 312.99585,284.907119" id="Stroke-100" stroke="url(#linearGradient-1)" stroke-width="2"></path>
                <polygon id="Stroke-102" stroke="url(#linearGradient-1)" stroke-width="2" points="314 291 357 291 357 287 314 287"></polygon>
                <path d="M314,292 C314,292 311.368028,302.105118 312.142693,310.93315 C312.696222,314.177334 312.622511,314.49644 312.622511,314.49644 L313.692484,341.248505 L314,373" id="Stroke-103" stroke="url(#linearGradient-1)" stroke-width="2"></path>
                <path d="M357,291 C357,291 360.158303,295.404309 360.778909,301.657865 C361.400161,307.910401 360.520323,317.427213 360.468283,319.058501 C360.416565,320.68979 359.48501,348.584653 359.536727,349.835025 C359.588444,351.086075 358.449697,372.782382 358.76,373" id="Stroke-104" stroke="url(#linearGradient-1)" stroke-width="2"></path>
                <polyline id="Stroke-105" stroke="url(#linearGradient-1)" stroke-width="2" points="323 372 324.835414 371.297713 331.03125 316.996094"></polyline>
                <polyline id="Stroke-106" stroke="url(#linearGradient-1)" stroke-width="2" points="342.995117 317.479004 349.955078 373 353.465332 373"></polyline>
                <path d="M311.203836,315 L306.09348,315 C306.09348,315 303.991846,316.083028 305.615782,321.841977 L312,322" id="Stroke-107" stroke="url(#linearGradient-1)" stroke-width="2"></path>
                <path d="M332,320 L342,320" id="Stroke-108" stroke="url(#linearGradient-1)" stroke-width="2"></path>
                <path d="M362,321 L367.311334,321 C367.311334,321 368.860833,318.056282 367.311334,314 L362.121929,314.003815" id="Stroke-109" stroke="url(#linearGradient-1)" stroke-width="2"></path>
                <path d="M332,318 L342,318" id="Stroke-110" stroke="url(#linearGradient-1)"></path>
                <path d="M325,312 L324,367" id="Stroke-111" stroke="url(#linearGradient-1)"></path>
                <path d="M334,306 L327,312" id="Stroke-112" stroke="url(#linearGradient-1)"></path>
                <polyline id="Stroke-113" stroke="url(#linearGradient-1)" points="340 306 341.813317 314.095869 349.011012 317.875042 350 363"></polyline>
                <path d="M314.721436,294.794189 C314.721436,294.794189 316.507513,293.150311 317.85345,293.04615 C319.199063,292.942313 324.892713,293.04615 324.892713,293.04615 L331,297.099991 C331,297.099991 330.068347,300.841998 330.172079,301.153832 C330.275489,301.465666 328.205041,305 328.205041,305" id="Stroke-114" stroke="url(#linearGradient-1)"></path>
                <path d="M346.717921,314 C346.717921,314 339.674987,303.889309 340.0117,303.889309 C340.348412,303.889309 347.195135,296 347.195135,296 L354.49034,296 L361,302.333577" id="Stroke-115" stroke="url(#linearGradient-1)"></path>
                <path d="M313.981515,373 L325.580856,373 L325.711546,380.282959 C325.711546,380.282959 326.887412,381.169355 326.983408,381.630785 C327.164958,382.507714 325.796763,385 325.796763,385 L318.963199,384.775596 L311.722748,384.775596 C311.722748,384.775596 310.825102,382.324334 311.030566,381.518583 C311.191907,380.886045 313.184918,379.413745 313.184918,379.413745 L313.981515,373 Z" id="Stroke-116" stroke="url(#linearGradient-1)" stroke-width="2"></path>
                <path d="M350.880654,373.615595 L362.260373,373 L362.725958,381.003393 C362.725958,381.003393 364.056855,381.051655 364.32064,381.406895 C364.877793,382.156115 365,385 365,385 L356.803658,385 L349.205675,385 C349.205675,385 348.742907,382.651874 349.205675,382.055321 C349.412053,381.789056 350.684841,380.896033 350.684841,380.896033 L350.880654,373.615595 Z" id="Stroke-117" stroke="url(#linearGradient-1)" stroke-width="2"></path>
                <path d="M314,281 L314,286" id="Stroke-120" stroke="url(#linearGradient-1)" stroke-width="2"></path>
                <path d="M357,281 L357,286" id="Stroke-121" stroke="url(#linearGradient-1)" stroke-width="2"></path>
                <polyline id="Stroke-122" stroke="url(#linearGradient-1)" stroke-width="2" points="316 220 308.149842 222.341974 296 265.479229 296 266"></polyline>
                <path d="M325.958662,210 L320.113426,210 L316,214.690367 L316,220.659895 L334.138672,229.095703 C334.138672,229.095703 327.840167,222.974963 323.757153,218.331516 C322.495044,216.895622 321.717842,215.782845 321.845235,215.329948 C322.386574,213.411206 325.309529,211.598951 325.309529,211.598951" id="Stroke-123" stroke="url(#linearGradient-1)" stroke-width="2"></path>
                <path d="M326,216 L324,217" id="Stroke-124" stroke="url(#linearGradient-1)"></path>
                <path d="M351.373225,212 C351.373225,212 356.101341,216.923506 355.993991,217.610881 C355.886641,218.297898 358.695892,220.675247 347.412354,226.171387" id="Stroke-125" stroke="url(#linearGradient-1)" stroke-width="2"></path>
                <path d="M350.442547,214 C350.442547,214 353.136136,217.652316 351.438646,219.7394 C349.74152,221.826158 347.968245,224.078463 348.084961,225.330322" id="Stroke-126" stroke="url(#linearGradient-1)" stroke-width="2"></path>
                <path d="M355.352051,220.769043 C355.352051,220.769043 361.879252,222.436419 361.993799,222.965583 C362.10942,223.49404 361.04397,236.026755 360.203125,238.557617" id="Stroke-127" stroke="url(#linearGradient-1)" stroke-width="2"></path>
                <polyline id="Stroke-128" stroke="url(#linearGradient-1)" stroke-width="2" points="339 239 339.849517 227.455829 348.345412 227 349 238.384885"></polyline>
                <path d="M310.244422,223 C310.244422,223 309.694472,231.150723 310.244422,234.546858 C310.794372,237.943346 311,239 311,239" id="Stroke-129" stroke="url(#linearGradient-1)" stroke-width="2"></path>
                <path d="M310.960205,254.182617 C310.960205,254.182617 307.405181,263.192627 308.098643,267.162198 C307.405181,268.485388 307,269 307,269" id="Stroke-130" stroke="url(#linearGradient-1)" stroke-width="2"></path>
                <path d="M325.895562,207.174047 C325.895562,207.174047 324.490078,213.91558 325.052469,214.41307 C325.614859,214.90923 333.897875,223 333.897875,223 C333.897875,223 344.356497,218.776822 345.409624,217.482086 C346.462421,216.187017 347.619414,212.212418 347.619414,212.212418 C347.619414,212.212418 349.550474,211.077197 350.322898,210.083215 C351.095322,209.09023 352.008426,206.605773 351.867746,206.392753 C351.727067,206.180065 350.463249,205.469888 350.182876,205.612123 C349.902174,205.754358 349.480792,206.25085 349.480792,206.25085 L349.817043,205.044845 C349.817043,205.044845 353.201246,195.81819 352.990555,194.25693 C352.780193,192.696003 349.831834,189.502365 348.006941,187.656968 C346.182048,185.811238 343.585059,184.03729 341.408796,183.256328 C339.232532,182.47603 332.213333,183.539801 331.6516,185.598218 L331.090196,187.656968 L327.860806,188.578835 L326.386626,202.999388 C326.386626,202.999388 326.597974,200.644538 325.82555,200.431185 C325.053126,200.218498 324,200.431185 324,201.21248 L324,205.044845 C324,205.044845 324.281688,206.534988 324.562062,206.534988 L325.614859,206.534988 L325.895562,207.174047 Z" id="Stroke-131" stroke="url(#linearGradient-1)" stroke-width="2"></path>
                <path d="M327,204.737852 L327.641186,204.737852 L328.139664,202.962207 L328.994245,201.754049 L328.994245,199.552289 L331.592665,197.065786 L331.592665,196 C331.592665,196 336.542433,198.911952 338.82076,199.267547 C341.099087,199.623142 348.861003,199.906886 348.861003,199.906886 L348.861003,201.541158 C348.861003,201.541158 349.929313,202.464574 349.715584,203.601546" id="Stroke-132" stroke="url(#linearGradient-1)"></path>
                <path d="M328.991333,208.481567 L328.342529,213.422974 C328.342529,213.422974 330.485611,221.591057 334.546214,222.766511 C338.606482,223.941965 345.845922,220.556914 346.77124,219.719849 C347.696559,218.882434 351.908447,211.180298 351.908447,211.180298" id="Stroke-133" stroke="url(#linearGradient-1)"></path>
                <path d="M335,221 C335,221 337.487525,207.296673 338.294451,206.531354 C339.101063,205.766036 340.983786,205 340.983786,205 L347,205" id="Stroke-134" stroke="url(#linearGradient-1)"></path>
                <path d="M296,267.955468 C296,267.955468 296.001062,266.424154 296.756788,266.379085 L297.512867,266.333675 L298.34544,265.895961 L298.798733,264 L300.689463,264 L301.521327,265.021217 C301.521327,265.021217 303.865704,264.510438 303.941489,264.728953 C304.017274,264.947469 304.470922,267.135011 304.470922,267.135011 L305,270.562287 L305,271 L302.806839,271 L302.202329,266.379085" id="Stroke-135" stroke="url(#linearGradient-1)"></path>
                <polyline id="Stroke-136" stroke="url(#linearGradient-1)" stroke-width="0.5" points="296 269 296.343307 269.586212 296.343307 269.758637 297.371942 269.758637 297.646524 269.586212 297.920784 270 299.429535 270 299.429535 269.499839 300.664026 269.499839 301.075416 269.310139 302 269.310139"></polyline>
                <path d="M300,265 L300,269" id="Stroke-137" stroke="url(#linearGradient-1)" stroke-width="0.5"></path>
                <path d="M301,266 L301,267" id="Stroke-138" stroke="url(#linearGradient-1)" stroke-width="0.5"></path>
                <path d="M297,270 C297,270 295.800628,271.69339 296.028889,272.455257 C296.257417,273.217124 296.500128,274 296.500128,274" id="Stroke-140" stroke="url(#linearGradient-1)"></path>
                <polyline id="Stroke-141" stroke="url(#linearGradient-1)" points="306 270.128786 307.428954 269 308 269 308 271.096047 306.728392 273 306 273 306 270.571846"></polyline>
                <path d="M307.708158,271 C307.708158,271 308.734256,271.836996 306.938413,271.918211 L305.142569,272 L296,272" id="Stroke-142" stroke="url(#linearGradient-1)"></path>
                <path d="M340,228 L340,223" id="Stroke-143" stroke="url(#linearGradient-1)"></path>
                <polyline id="Stroke-145" stroke="url(#linearGradient-1)" stroke-width="2" points="332 323 335.259568 323 335.722474 323 342 323"></polyline>
                <polyline id="Stroke-146" stroke="url(#linearGradient-1)" stroke-width="2" points="335.187027 325.338942 335.187027 326.084362 333.458547 326.084362 333 339 335.288927 339 342 339 342 326.219749 339.762976 326.219749 339.762976 325"></polyline>
                <path d="M335,356 L335,340" id="Stroke-147" stroke="url(#linearGradient-1)" stroke-width="2"></path>
                <path d="M340,340 L340,356" id="Stroke-148" stroke="url(#linearGradient-1)" stroke-width="2"></path>
                <polygon id="Stroke-149" stroke="url(#linearGradient-1)" stroke-width="2" points="333 356 342 356 342 364.59888 342 365 333 365"></polygon>
                <path d="M327,377.588379 L334.764954,375.928363 L334.764954,366.071738 L334.764954,365.588379" id="Stroke-150" stroke="url(#linearGradient-1)" stroke-width="2"></path>
                <polyline id="Stroke-151" stroke="url(#linearGradient-1)" stroke-width="2" points="339 366 339.822314 366.257982 339.822314 375.956717 349 377"></polyline>
                <polyline id="Stroke-152" stroke="url(#linearGradient-1)" stroke-width="2" points="327.41333 380.426758 335.447998 378.695801 336.220171 379.399745 336.220171 383 339.335938 383 339.335938 378.991943 349.128418 380.098633"></polyline>
                <path d="M431.724854,281.845703 C431.724854,281.845703 425.455622,318.632797 425.592789,322.264596 C425.730277,325.896395 428.878074,338.828129 428.741227,340.136135 C428.60438,341.44278 424.908235,365.187341 425.592789,367.511475 C420.480957,368.172852 416.782959,367.511475 416.782959,367.511475 L416.147797,319.359089 L416.147797,316.597139 L412.928955,281.845703" id="Stroke-153" stroke="url(#linearGradient-1)" stroke-width="2"></path>
                <polygon id="Stroke-154" stroke="url(#linearGradient-1)" stroke-width="2" points="416 372 428 372 428 368 416 368"></polygon>
                <path d="M426.271729,373 C426.271729,373 426.271729,383.303387 426.616643,388.868925 C424.317065,389.150319 422.951385,388.868925 422.951385,388.868925 L422.951385,383.303387 C422.951385,383.303717 422.733187,387.408634 418.28833,389.262451 C415.509576,390.421387 410.907288,390.895755 405,391 C406.202121,387.248516 415.052789,381.64801 415.052789,381.64801 C415.052789,381.64801 417.008087,382.075874 417.321406,373" id="Stroke-155" stroke="url(#linearGradient-1)" stroke-width="2"></path>
                <path d="M391.887207,281.955078 L389,313.801568 C389,313.801568 400.538034,337.802476 405.891065,364 C412.200896,362.159911 413,362.881753 413,362.881753 C413,362.881753 410.447649,340.924037 411.298543,335.403094 C408.533386,329.665532 400.025771,314.401751 400.025771,314.401751 C400.025771,314.401751 408.733054,288.937615 409.690186,281.955078" id="Stroke-156" stroke="url(#linearGradient-1)" stroke-width="2"></path>
                <polyline id="Stroke-157" stroke="url(#linearGradient-1)" stroke-width="2" points="393 274 394.604453 250.804485 433.111651 247 436 255.533193 433.539728 274"></polyline>
                <polyline id="Stroke-158" stroke="url(#linearGradient-1)" points="412 272 412.749902 266 413 272"></polyline>
                <polygon id="Stroke-159" stroke="url(#linearGradient-1)" stroke-width="2" points="401.420298 225 424 221.9189 424 219.088867 401 222.5"></polygon>
                <polyline id="Stroke-160" stroke="url(#linearGradient-1)" stroke-width="2" points="401.486328 225.988281 391 248 407.817871 246.094238"></polyline>
                <path d="M423.979004,222.431152 L426.86084,229.745117" id="Stroke-161" stroke="url(#linearGradient-1)" stroke-width="2"></path>
                <path d="M430.905858,238 L434,242.84642 C434,242.84642 408.538086,246.277832 406.161621,246.277832" id="Stroke-162" stroke="url(#linearGradient-1)" stroke-width="2"></path>
                <polyline id="Stroke-163" stroke="url(#linearGradient-1)" stroke-width="2" points="412 177 400.58084 190 392.173849 177 385 178.585326"></polyline>
                <path d="M385.364746,177.823242 C385.364746,177.823242 388.831164,187.800134 388.943721,189.94623 C389.056279,192.092662 388.267675,203.568213 388.943721,204.805418 C389.619768,206.043963 397.957439,207.22455 398.01407,208.83429 C398.070348,210.44403 401,223 401,223" id="Stroke-164" stroke="url(#linearGradient-1)" stroke-width="2"></path>
                <path d="M425,190 L424,221" id="Stroke-165" stroke="url(#linearGradient-1)" stroke-width="2"></path>
                <path d="M405.280493,161.552181 C405.280493,161.552181 408.314679,164.273789 410.048258,166.015917 C411.781838,167.757706 411.890419,176.14072 411.890419,178.753572 C411.890419,181.366425 410.373326,184.523734 410.048258,190.511748 C409.723191,196.499421 411.240284,196.934783 411.240284,196.934783 C411.240284,196.934783 411.348189,197.588336 412.106905,194.757633 C412.865283,191.926929 416.657847,186.156767 418.933656,178.753572 C419.800276,170.261802 411.890419,165.253609 411.890419,165.253609 C411.890419,165.253609 411.673595,164.818247 411.240284,157.741658 C411.998662,147.943462 411.131703,146.745792 409.072718,139.01565 C407.014072,131.286189 396.720501,132.01859 396.720501,132.01859 L392.385707,133.137073 C392.385707,133.137073 390.543885,132.374764 388.593481,132.048158 C386.643078,131.721551 383.500648,134.007797 379.708084,140.866874 C375.91552,155.782019 388.593481,166.777886 388.593481,166.777886 L387.943347,165.253609 C387.293212,163.729332 387.076388,161.660937 387.076388,161.660937" id="Stroke-166" stroke="url(#linearGradient-1)" stroke-width="2"></path>
                <path d="M418,172 L423,173" id="Stroke-167" stroke="url(#linearGradient-1)" stroke-width="2"></path>
                <path d="M385.166992,178.415527 C385.166992,178.415527 384.469948,178.155126 382.880125,187.569475 C381.290301,196.983486 377.050551,219.399569 377.050551,219.399569 L375.142763,220.789258 L362,224" id="Stroke-168" stroke="url(#linearGradient-1)" stroke-width="2"></path>
                <path d="M388.59375,204.632324 C388.59375,204.632324 386.14456,216.912724 385.93048,217.495592 C385.716066,218.078125 385.394612,221.517952 384.215836,222.162899 C383.037394,222.807846 378.274774,226.201092 374.416992,226.845703 C370.559545,227.490985 367.803559,228.259558 366.196289,228.582031" id="Stroke-169" stroke="url(#linearGradient-1)" stroke-width="2"></path>
                <path d="M422,173 L422.601,183" id="Stroke-170" stroke="url(#linearGradient-1)" stroke-width="2"></path>
                <path d="M422.509323,172.691406 C422.509323,172.691406 445.889634,202.339733 445.999157,202.773037 C446.109022,203.206341 435.446666,228.995198 434.25424,232.030017 C433.062156,235.063822 431.528841,238.206205 430.376802,237.989384 C429.224762,237.772901 427.799601,237.047346 427.799601,237.047346 L425.716278,235.443005 L423.41391,234.576397 L422.509323,235.551246 L421.166304,236.364072 L420.179574,236.364072 L420.892155,235.388884 C420.892155,235.388884 419.521755,235.280643 418.809174,235.334763 C418.096252,235.388884 417.384013,234.738759 417.384013,234.738759 L417,233.547089 L418.644548,231.975897 L420.837394,231.108274 L423.41391,230.782873 L425.222742,230.33198 L424.455401,229.644985 L425.332607,228.995198 C425.332607,228.995198 427.689736,230.836994 428.018646,231.108274 C428.347556,231.378878 428.402317,232.084138 429.334285,231.487457 C430.266595,230.891453 430.375775,230.33198 430.375775,230.33198 C431.417608,229.609469 437.447505,205.6986 437.337982,205.265296 C437.228118,204.831992 424.948936,188.79501 424.948936,188.79501" id="Stroke-171" stroke="url(#linearGradient-1)" stroke-width="2"></path>
                <polygon id="Stroke-172" stroke="url(#linearGradient-1)" stroke-width="2" points="403.138916 364.662795 413.840391 363 413.840391 368.28418 405.783854 369.625281 405.496494 369.719698 404.645501 370 404 364.662795"></polygon>
                <path d="M405.654497,370.511475 C405.654497,370.511475 406.641098,376.683496 405.654497,378.997081 C404.667558,381.311009 401.4375,383.893311 401.4375,383.893311 L396.836069,387.500629 C396.836069,387.500629 394.895887,388.837122 395.004387,389.043133 C396.131498,391.186818 403.951879,389.426044 407.245605,384.601807 C409.486688,381.319729 412.689762,379.420452 412.689762,379.420452 L413.769364,378.484976 L413.769364,380.30262" id="Stroke-173" stroke="url(#linearGradient-1)" stroke-width="2"></path>
                <path d="M498.901855,218.968018 L498,225.084861 C498,225.084861 494.202729,236.494781 494.062479,238.559476 C493.921901,240.623831 494.062479,239.863011 494.062479,239.863011" id="Stroke-176" stroke="url(#linearGradient-1)" stroke-width="2"></path>
                <polyline id="Stroke-177" stroke="url(#linearGradient-1)" stroke-width="2" points="460 274 460 271.878205 460.855446 271.878205 460 240 511 240 509.503387 272.096261 510.465638 272.096261 510.465638 274"></polyline>
                <path d="M461,273 L510,273" id="Stroke-178" stroke="url(#linearGradient-1)"></path>
                <path d="M485.252808,255.052869 C485.252808,255.052869 488,254.842234 488,257.368538 C488,259.894842 485.60387,259.999995 485.60387,259.999995 C485.60387,259.999995 481.567745,260.019711 482.03814,257.523968 C482.622758,254.421293 485.252808,255.052869 485.252808,255.052869 Z" id="Stroke-179" stroke="url(#linearGradient-1)"></path>
                <polygon id="Stroke-180" stroke="url(#linearGradient-1)" stroke-width="2" points="472.566772 360 484.046899 362.602426 487.448529 363.831876 490 367.952496 489.290871 372 487.165143 372 472 366.000677"></polygon>
                <polyline id="Stroke-181" stroke="url(#linearGradient-1)" stroke-width="2" points="485 373.772461 482.220267 383.947167 482.076523 390 463 389.823407 463.246076 385.609323 469.065992 379.131169 473.021686 368"></polyline>
                <path d="M483,321 L488,321" id="Stroke-188" stroke="url(#linearGradient-1)" stroke-width="2"></path>
                <polyline id="Stroke-182" stroke="url(#linearGradient-1)" stroke-width="2" points="488 372.806304 488.737838 377 491.71717 375.986758 506 371.129022 502.753996 364 489.475676 368.893082"></polyline>
                <path d="M481,314 L490,314" id="Stroke-187" stroke="url(#linearGradient-1)" stroke-width="2"></path>
                <polyline id="Stroke-183" stroke="url(#linearGradient-1)" stroke-width="2" points="493 375.16196 495.794637 384.735629 495.02174 389 513 389 513 384.303457 507.836951 378.98938 504.646607 371"></polyline>
                <path d="M489.843232,368 C489.843232,368 455.905636,308.402794 455.177566,304.635517 C454.449156,300.867901 456.197205,296.23141 456.197205,296.23141 L457.944913,292.028508 L462.169081,290 L474.404063,294.201884 L498,363.757064 L495.628232,366.873278" id="Stroke-184" stroke="url(#linearGradient-1)" stroke-width="2"></path>
                <polyline id="Stroke-185" stroke="url(#linearGradient-1)" stroke-width="2" points="456 304 465.393728 308.570317 479 348"></polyline>
                <path d="M507,321 L514.839606,321 C514.839606,321 519.700492,316.916894 514.839606,314 L510.606109,314.146118" id="Stroke-186" stroke="url(#linearGradient-1)" stroke-width="2"></path>
                <path d="M463,321 L456.390788,321 C456.390788,321 451.011515,317.943633 456.390788,314.013629 L460.106513,314" id="Stroke-189" stroke="url(#linearGradient-1)" stroke-width="2"></path>
                <polyline id="Stroke-190" stroke="url(#linearGradient-1)" stroke-width="2" points="487.418457 322.466797 494.428725 299.483746 495.714068 292.675745 496.571298 289.489951 506.428609 285 512.126531 287.317372 515.856803 294.269489 516.681925 296.151803 517 298.179928 494.428725 349.791504"></polyline>
                <polyline id="Stroke-192" stroke="url(#linearGradient-1)" stroke-width="2" points="483 358.934234 480.120003 356 478.770971 360.547307 478 362"></polyline>
                <polyline id="Stroke-193" stroke="url(#linearGradient-1)" stroke-width="2" points="463 281 463.724564 287.882553 463.724564 290.051758"></polyline>
                <path d="M475.102539,294.130371 C478.853027,295.4375 489.999535,295.479004 495.255371,293.229004" id="Stroke-194" stroke="url(#linearGradient-1)" stroke-width="2"></path>
                <path d="M457.965763,281 L457.069615,281 C457.069615,281 456.912981,283.314172 457.069615,284.857194 C457.225881,286.400578 456.512411,286.554808 457.965763,286.862907 C459.419482,287.171367 464,286.862907 464,286.862907" id="Stroke-195" stroke="url(#linearGradient-1)" stroke-width="2"></path>
                <path d="M509,281 L509,285" id="Stroke-196" stroke="url(#linearGradient-1)" stroke-width="2"></path>
                <path d="M514.803357,281 C514.803357,281 515.548826,285.766765 514.136843,285.92813 C512.725227,286.089837 513.098633,285.92813 511.921875,285.92813" id="Stroke-197" stroke="url(#linearGradient-1)" stroke-width="2"></path>
                <path d="M514,250 L514,258" id="Stroke-199" stroke="url(#linearGradient-1)" stroke-width="2"></path>
                <polyline id="Stroke-200" stroke="url(#linearGradient-1)" stroke-width="2" points="512.825021 245 519 255.988206 512 261"></polyline>
                <polyline id="Stroke-201" stroke="url(#linearGradient-1)" stroke-width="2" points="511.412354 272.876709 529.922263 261.851929 531 256.091537 514.523281 225.017952 511.892919 222.562692 502.21176 218.662684 498.850589 218.662684 496.658506 215.629118 494.174578 212 488 221.117944 492.859397 228.629485 496.165039 221.117944"></polyline>
                <polyline id="Stroke-202" stroke="url(#linearGradient-1)" stroke-width="2" points="457.165468 274 457.165468 273.030662 457.165468 272.51875 457.165468 271.791242 448.639857 270.3184 445 266.296422 457.165468 221.906337 473.243492 217.021642 473.972963 213 483 221.906337 477.030607 226.431483 473.243492 217.740405"></polyline>
                <polyline id="Stroke-203" stroke="url(#linearGradient-1)" stroke-width="2" points="458 254 457 260.189577 458 264"></polyline>
                <path d="M486,223 L486,240" id="Stroke-205" stroke="url(#linearGradient-1)" stroke-width="2"></path>
                <path d="M468,220 C468,220 472.501731,224.866997 472.637394,225.927161 C472.773371,226.987909 474.760466,236.926106 475.380233,237.462469 L476,238" id="Stroke-207" stroke="url(#linearGradient-1)" stroke-width="2"></path>
                <path d="M512,223 L511.588379,238" id="Stroke-210" stroke="url(#linearGradient-1)" stroke-width="2"></path>
                <path d="M476.018966,214 L476.018966,213.594284 L477,207.50578 C477,207.50578 475.30192,205.014808 475.075392,204.516821 C474.848863,204.018489 474.113088,201.41693 474.113088,201.41693 L473.60384,200.475904 C473.60384,200.475904 472.546825,199.811691 472.282837,199.645811 C472.018848,199.479585 471,197.542239 471,197.542239 L471,194 L471.415243,194 L472.282837,194" id="Stroke-211" stroke="url(#linearGradient-1)" stroke-width="2"></path>
                <path d="M472,192.79613 L472.565812,195.772275 L472.84,196.19022 L473.660855,195.876924 L473.660855,194.493338 L473.660855,192.587158 L473.660855,190.812034 L475.139487,188.984422 L475.468034,188.514316 L475.468034,187 C475.468034,187 476.563419,187.626591 477.275214,187.783402 C477.987009,187.939887 482.148718,188.253182 482.969915,188.253182 C483.791453,188.253182 491.019487,188.462155 491.019487,188.462155 L493.538462,187.522268 L494.578803,187.365457 L495.017094,188.514316 C495.017094,188.514316 496.577436,192.117378 496.577436,192.117378 L496.577436,193.736017 L497.316581,195.406818 L497.918974,194.989199 L498.685812,193.527371 L499.452308,193.527371 L500,193.84034 C500,193.84034 499.726154,195.876924 499.671453,196.973296 C499.616752,198.069993 497.207179,199.00988 497.207179,199.00988 L497.207179,199.688632 C497.207179,199.688632 496.659487,201.620893 496.33094,202.961446 C496.002735,204.301021 493.155214,206.58146 493.155214,206.58146 L493.155214,207.938965 L493.811966,210" id="Stroke-212" stroke="url(#linearGradient-1)" stroke-width="2"></path>
                <polyline id="Stroke-213" stroke="url(#linearGradient-1)" stroke-width="2" points="471.83747 193.610921 471 189.169168 471 183.827339 471.83747 181.410054 473.493996 179.49792 477.208052 177.249136 482.068855 175 487.749056 175 492.282169 176.293244 493.975181 177.080635 495.340502 178.429695 496.81494 180.116459 498.235502 182.197093 499 183.658838 499 188.044425 499 189.787355 498.726527 193.105067 498.508293 194.173293 498.126044 194.735664 498.299267 195"></polyline>
                <polyline id="Stroke-214" stroke="url(#linearGradient-1)" stroke-width="2" points="242 281 244.974466 309.846278 246 313.280366 244.00016 356"></polyline>
                <path d="M268,281 C268,281 267.251849,313.404421 266.654238,315.583858 C266.056278,317.763976 257.233557,374 257.233557,374 L252,374" id="Stroke-215" stroke="url(#linearGradient-1)" stroke-width="2"></path>
                <path d="M269.236328,299.289551 C269.236328,299.289551 270.366265,314.295674 269.774872,320.181363 C269.183133,326.0647 268,372.134093 268,372.134093 L268,372.995307 L282.049744,374 C282.049744,374 286.782275,318.603087 286.929777,315.01408 C287.077626,311.425745 289,281 289,281" id="Stroke-216" stroke="url(#linearGradient-1)" stroke-width="2"></path>
                <path d="M273,383.164754 C273,383.164754 290.762045,386.340875 292.903349,380.306057 C294.226475,376.576228 281.527351,375 281.527351,375" id="Stroke-217" stroke="url(#linearGradient-1)" stroke-width="2"></path>
                <path d="M257,373 L257,374.399563 C257,374.399563 273.982497,377.937505 272.955204,382.143229 C272.641136,383.431551 269.409834,382.884726 269.409834,382.884726" id="Stroke-218" stroke="url(#linearGradient-1)"></path>
                <polyline id="Stroke-219" stroke="url(#linearGradient-1)" stroke-width="2" points="242.463761 270.959627 240 230.442002 240 227.093864 290 220 287.391012 274"></polyline>
                <path d="M241,212 L240,227" id="Stroke-220" stroke="url(#linearGradient-1)" stroke-width="2"></path>
                <path d="M285,208 L290,220" id="Stroke-221" stroke="url(#linearGradient-1)" stroke-width="2"></path>
                <path d="M238,155 L247.989649,195.921165 C247.989649,195.921165 249.63195,198.230406 250.042365,199.03492 C250.4531,199.839094 251,201 251,201" id="Stroke-222" stroke="url(#linearGradient-1)" stroke-width="2"></path>
                <path d="M249,153.754674 C249,153.754674 259.075684,177.964306 259.507383,187.387762 L259.939419,189.997167 L279.37095,151 C279.37095,151 287,152.304703 287,153.319547 C287,154.33473 285.704565,159.69813 285.704565,159.69813 L265.121161,200" id="Stroke-223" stroke="url(#linearGradient-1)" stroke-width="2"></path>
                <path d="M299,155 L293,167" id="Stroke-224" stroke="url(#linearGradient-1)" stroke-width="2"></path>
                <path d="M295.822551,154.187715 L292.026306,170.415651 L286.477238,186.932948 L286.477238,189.830624 L286.477238,191.569162 L286.477238,193.742589 L284.578431,195.589001 L250.263507,203.595434 C250.263507,203.595434 246.904869,207.79642 251.139405,210.984135 C251.619064,211.345751 295.019473,205.405549 295.019473,205.405549 L304,157.954491 L296.260843,152.449177 L287.937411,151 L286.039288,152.449177" id="Stroke-225" stroke="url(#linearGradient-1)" stroke-width="2"></path>
                <polyline id="Stroke-226" stroke="url(#linearGradient-1)" stroke-width="2" points="266 136 262.125651 144.068607 260.11658 144.21299 242.609777 143.060621 238.448849 143.060621 234 146.950879 240.744499 203"></polyline>
                <path d="M247.967709,203 C247.967709,203 243.063512,203.958703 240.844135,204.840574 C238.624433,205.720947 239.733959,206.041764 237.653273,205.561663 C235.572262,205.081562 232.381724,204.840574 232.381724,204.840574 L230.023007,203.960577 L226,207.322408 C226,207.322408 226.693779,212.779293 231.133183,212.932205 C235.572262,213.084743 238.485743,212.932205 238.485743,212.932205 L241.398898,212.28495 L250,211.003556" id="Stroke-227" stroke="url(#linearGradient-1)" stroke-width="2"></path>
                <path d="M279.136768,147.842308 L278,140.157774 L278.568223,135.000575 L282.031123,133 L284.201728,133 L287.509101,136.263093 C287.509101,136.263093 288.232851,139.84198 287.922764,140.42099 L287.612678,141 L286.682096,139.315876 L284.718323,136.999836 L282.999457,136.894681 C282.999457,136.894681 283.167891,138.052701 283.891319,140.42099 C284.615069,142.789608 284.718323,143.947299 284.821578,144.894681 C284.924832,145.842062 284.821578,146.684288 284.718323,147.842308 L284.615069,149" id="Stroke-228" stroke="url(#linearGradient-1)"></path>
                <polyline id="Stroke-229" stroke="url(#linearGradient-1)" stroke-width="2" points="277.617292 145 275.276674 145 264 133.031088 266.943373 122.613472 267.510926 104.88152 277.617292 102 293.68114 106.543869 293.042518 110.97703 294.744845 109.203627 299 113.082556 288.787363 138.461313"></polyline>
                <path d="M286,141 L285,142" id="Stroke-230" stroke="url(#linearGradient-1)"></path>
                <path d="M277.283714,140 L267,132.558523 L268.373688,125.992614 L268.484946,123.256591 L268.039567,122.271705 C268.039567,122.271705 269.264795,120.41125 270.823798,118.003864 C272.383148,115.596136 272.141857,114.173636 272.141857,114.173636 L273.49677,111.76625 L274.944862,111 L276.455885,111 L276.455885,112.641819 L291.205563,113.626364 C291.205563,113.626364 292.876171,117.018978 292.987429,117.675568 C293.099035,118.332159 292.430792,123.256591 292.430792,123.256591" id="Stroke-231" stroke="url(#linearGradient-1)"></path>
                <path d="M289,131 C289,131 288.193942,133.754491 288.059739,134.570837 C287.925326,135.387183 288.059739,136 288.059739,136" id="Stroke-232" stroke="url(#linearGradient-1)" stroke-width="0.5"></path>
                <path d="M271.9857,119 C271.9857,119 280.856996,122.510217 281.623538,123.233146 C282.390421,123.955752 283.526215,123.852615 283.526215,123.852615 C283.526215,123.852615 290.713993,124.368946 291.261718,124.678681 C291.809101,124.988416 294,125.607562 294,125.607562 L294,126.278922 L292.80745,128.085761 L291.371468,129.944168 C291.371468,129.944168 288.961752,131.183106 287.757236,130.976831 C286.552036,130.770234 284.55431,130.150765 284.55431,130.150765 L282.992508,127.879164 L282.225967,125.000341 L281.076155,125.000341 C281.076155,125.000341 280.199863,126.640226 278.995005,127.053097 C277.790489,127.466292 276.914198,127.776026 275.599932,127.362832 C274.285665,126.950282 273.080807,127.053097 272.423674,126.278922 C271.766541,125.504425 271.218816,124.265487 271.218816,123.233146 L271.218816,120.135801 L271,119.206597" id="Stroke-233" stroke="url(#linearGradient-1)" stroke-width="0.5"></path>
                <path d="M272.71997,120 L280.506659,123.203503 L281,123.500185 L281,124.568019 C281,124.568019 280.279655,125.517329 279.439441,126.110323 C278.599975,126.703688 276.859985,127 276.859985,127 L274.6997,126.703688 L272.71997,125.234351 L272,124.508757 L272,122.550876 L272,120.593365 L272.240115,120 L272.71997,120 Z" id="Stroke-234" stroke="url(#linearGradient-1)" stroke-width="0.5"></path>
                <path d="M284.119512,125 C284.119512,125 291.179756,125.569027 291.531341,126.137699 C291.882927,126.706726 292,127.560267 292,127.560267 L291.12122,129.608338 C291.12122,129.608338 290.652195,130.632019 289.773415,130.802869 C288.894634,130.973719 288.836098,131.144215 286.960732,130.802869 C285.085366,130.461524 284.735976,130.347861 284.119512,129.608338 C283.503415,128.868816 283.063293,128.015276 283.01939,127.787594 C282.97622,127.560267 283.01939,126.536231 283.01939,126.536231 L283,125.739522 L283.01939,125 L284.119512,125 Z" id="Stroke-235" stroke="url(#linearGradient-1)" stroke-width="0.5"></path>
                <path d="M271,134.001892 C271,134.001892 272.521987,130.820643 273.586998,131.007959 C274.652009,131.194885 276.376991,132.37213 277.188337,132.501031 C278,132.629543 278,132.941476 278,132.941476 L277.695666,134.001892 L277.543341,134.625369 L277.289676,135 L275.565328,134.001892 L273.992671,133.316886 L273.333333,132.99989 C273.333333,132.99989 273.028999,132.630711 272.724665,133.316886 C272.420331,134.001892 271.557999,134.56306 271.557999,134.56306 L271.557999,135" id="Stroke-236" stroke="url(#linearGradient-1)" stroke-width="0.5"></path>
                <polyline id="Stroke-237" stroke="url(#linearGradient-1)" stroke-width="0.5" points="280.159352 134 279.231653 134 279 133.323167 279.405393 133 283 133.323167"></polyline>
                <path d="M127.280188,314.040087 L134.727592,314.040087 C134.727592,314.040087 139.597293,315.751784 147.618116,315.180773 C155.638939,314.610096 165.521529,314.182339 165.521529,314.182339 C165.521529,314.182339 178.841615,313.897167 179.414363,314.040087 C179.987782,314.182339 184.570774,316.463711 185,320.743954 C168.099567,321.171711 125.864413,320.934291 125.864413,320.934291 C125.864413,320.934291 123.001342,321.582438 123.000001,318.461581 C122.997654,313.451044 127.280188,314.040087 127.280188,314.040087 Z" id="Stroke-238" stroke="url(#linearGradient-1)" stroke-width="2"></path>
                <path d="M126,318 C131.294635,318.2145 183,318 183,318" id="Stroke-239" stroke="url(#linearGradient-1)" stroke-width="2"></path>
                <polyline id="Stroke-240" stroke="url(#linearGradient-1)" stroke-width="2" points="136 320 136 324 168 324 168 320"></polyline>
                <polyline id="Stroke-241" stroke="url(#linearGradient-1)" stroke-width="2" points="150.711394 324.496055 150.711394 325.717415 149 325.717415 149 340 156 340 156 325.793594 154.833455 325.793594 154.755515 324"></polyline>
                <path d="M151,340 L151,356" id="Stroke-242" stroke="url(#linearGradient-1)" stroke-width="2"></path>
                <path d="M154,340 L154,356" id="Stroke-243" stroke="url(#linearGradient-1)" stroke-width="2"></path>
                <polygon id="Stroke-244" stroke="url(#linearGradient-1)" stroke-width="2" points="150 363 155 363 155 356 150 356"></polygon>
                <polyline id="Stroke-245" stroke="url(#linearGradient-1)" points="156 371 156 377.562628 158 378"></polyline>
                <polyline id="Stroke-246" stroke="url(#linearGradient-1)" points="161 380.755245 156.153843 380 156.088713 384 151.64537 384 151.32503 380.02496 145 381.138677"></polyline>
                <polyline id="Stroke-247" stroke="url(#linearGradient-1)" points="168 379 178 380.094655 178 381 177.308137 380.955263 170.643962 380.522722"></polyline>
                <path d="M177.268218,382 C177.268218,382 178.515647,384.569547 177.753167,385.583626 C176.991012,386.59802 174.841852,387.206531 173.802166,386.935519 C172.762155,386.66514 172,385.921441 172,385.921441" id="Stroke-248" stroke="url(#linearGradient-1)"></path>
                <polyline id="Stroke-249" stroke="url(#linearGradient-1)" points="173 381 172.596925 381 172 382"></polyline>
                <path d="M158.0579,364 L165.178317,371.666913 C165.178317,371.666913 165.320685,379.629345 167.242825,381.104522 C169.165297,382.579008 176.055658,383.883985 174.862031,385.821082 C174.184198,386.921337 172.156033,386.773578 170.732349,386.921337 C169.308333,387.068061 168.738192,387.002812 166.81572,386.781518 C164.893247,386.560569 160.763565,384.564438 159.481917,382.244824 C158.200602,379.924864 156.847602,373.657867 155.494603,371.666913 C154.141937,369.676305 153.571797,367.906646 154.355656,367.022161 C155.138515,366.137332 158.0579,364 158.0579,364" id="Stroke-250" stroke="url(#linearGradient-1)" stroke-width="2"></path>
                <path d="M182,320 C182,320 176.809345,333.612732 175.388851,337.192437 C173.968356,340.7718 167.115684,355.456664 166.010203,356.990628 C164.905067,358.524934 161,362.177848 161,362.177848 L161,363.200034 L163.284454,367.145441 L163.454899,368" id="Stroke-251" stroke="url(#linearGradient-1)" stroke-width="2"></path>
                <path d="M165,371 L166.158849,371 L166.671681,370.139127 C166.671681,370.139127 172.096577,360.893647 173.562645,358.93745 C175.029056,356.982585 199,320 199,320" id="Stroke-252" stroke="url(#linearGradient-1)" stroke-width="2"></path>
                <path d="M182.522573,316 L185,310 C185,310 168.424025,311.334969 165.215286,312.396845 C162.007202,313.457318 162,313.000175 162,313.000175" id="Stroke-253" stroke="url(#linearGradient-1)" stroke-width="2"></path>
                <path d="M187.295206,309.550258 L192.224317,308.54844 L196.283764,312.419925 L200.561136,319.862484 L233.327283,360.745931 L243.548713,377 C243.548713,377 254.132672,372.990714 252.90014,370.699071 C251.667608,368.407764 243.186183,355.018332 243.186183,355.018332 C243.186183,355.018332 227.672774,330.386607 224.918161,324.730423 C222.163208,319.074574 212.594195,304.539154 212.594195,304.539154 L206.505194,294.586684 L205.635191,293.114132 C205.635191,293.114132 175.913885,289.646324 164.822452,287.856261 C153.731359,286.065863 152.354222,286.137948 151.991353,285.564954 C151.629163,284.99263 149.381684,281.268668 149.381684,281.268668 L148.874211,281.268668 C148.874211,281.268668 146.81818,274.25158 147.013023,272.460846 C147.206847,270.671118 148.149491,262.651876 148.149491,262.651876 L149.454326,259.42983 L149.59927,259 C149.59927,259 165.329586,272.532931 166.054645,272.675761 C166.779704,272.818926 167.867292,271.029198 167.867292,271.029198" id="Stroke-254" stroke="url(#linearGradient-1)" stroke-width="2"></path>
                <path d="M127.207028,224 C127.207028,224 115.400995,241.07486 117.183234,259.120587 C118.965126,277.166989 122.103342,286.461412 122.103342,286.461412 L122.640517,291 L149,282.46392" id="Stroke-255" stroke="url(#linearGradient-1)" stroke-width="2"></path>
                <path d="M124,295 L151,286" id="Stroke-256" stroke="url(#linearGradient-1)" stroke-width="2"></path>
                <path d="M123,291 L124,295" id="Stroke-257" stroke="url(#linearGradient-1)" stroke-width="2"></path>
                <path d="M124,295 C124,295 128.399067,312.009344 134,313" id="Stroke-258" stroke="url(#linearGradient-1)" stroke-width="2"></path>
                <path d="M134,242 C134,242 154.658628,260.208832 157.089275,261.997974 C159.520603,263.787445 167.118291,268.978749 167.918406,269.576773 C168.71818,270.174468 170.863169,271.313341 172.499489,270.918711 C174.135129,270.524082 205.219425,264.524459 206.09172,264.840229 C206.964356,265.155999 211,264.629606 211,264.629606 L210.018072,257.682675 L188.423139,258.840278 L183.078712,258.840278 L175.553205,259.36667 L171.954049,258.840278 L152.529541,240.197998" id="Stroke-260" stroke="url(#linearGradient-1)" stroke-width="2"></path>
                <path d="M181.96875,238.972168 L186,245.444336" id="Stroke-261" stroke="url(#linearGradient-1)" stroke-width="2"></path>
                <path d="M169.883057,256.835938 L191,242.423388 L186.681802,236 L183.661937,237.968416 L180.610352,238.964355 C176.08138,241.996257 173.816895,243.512207 173.816895,243.512207 C173.816895,243.512207 169.529867,244.850749 160.955811,247.527832 L169.883057,256.835938 Z" id="Stroke-262" stroke="url(#linearGradient-1)" stroke-width="2"></path>
                <path d="M129,221 C129,221 136.933456,225.595581 138,227" id="Stroke-263" stroke="url(#linearGradient-1)" stroke-width="2"></path>
                <path d="M135,214 C135,214 146.16108,227.193269 149.171222,227.086984 C152.181709,226.980699 150.639677,227.61874 150.639677,227.61874 L153,241" id="Stroke-264" stroke="url(#linearGradient-1)" stroke-width="2"></path>
                <path d="M136.158203,214.243652 C134.02832,217.867676 126.690918,224.644171 126.690918,225.221191 L136.158203,214.243652 Z" id="Stroke-265" stroke="url(#linearGradient-1)" stroke-width="2"></path>
                <path d="M136,216.36881 L139.981183,211.030032 L140.792197,211.030032 L145.437314,209 L145.437314,213.210749 L152,218.398842 C152,218.398842 149.050451,225.616966 149.345648,227.044959 C149.640154,228.474008 149.714039,229 149.714039,229" id="Stroke-266" stroke="url(#linearGradient-1)" stroke-width="2"></path>
                <path d="M141.179298,208.917393 C141.179298,208.917393 142.063858,203.839904 141.695608,203.041664 C141.326667,202.244103 140,199.777369 140,199.777369 L140,189.477009 C140,189.477009 150.466313,180.69976 150.761051,177 C152.824564,178.523451 157.836839,178.813195 157.836839,178.813195 C157.836839,178.813195 172.35632,181.134886 177,195.498121 C174.567547,197.964174 169.702986,199.705018 166.091235,200.720992 C162.480174,201.735946 160.121233,202.171072 159.752637,202.316454 C159.384732,202.461835 158.94228,202.316454 158.94228,202.316454 L161.153507,198.617033 C161.153507,198.617033 158.573339,199.197541 157.762982,199.922751 C156.952279,200.647621 153.41473,204.203019 153.193159,205.00024 C152.971933,205.798481 153.635611,205.798481 153.635611,205.798481 C153.635611,205.798481 154.003862,207.104199 153.709123,207.829409 C153.41473,208.555298 152.677195,211.747241 153.561754,212.690184 C154.446314,213.632787 155.404386,214.068253 155.404386,214.068253 L155.625612,214.068253 L159.237018,212.181688 C159.237018,212.181688 162.111233,211.819592 163.659127,212.834547 L165.20702,213.85052 L164.396317,214.503379 L161.890007,217.985406 C161.890007,217.985406 161.890697,219.291124 160.711054,220.270412 C159.531756,221.2497 158.500173,220.959956 158.500173,220.959956 C158.500173,220.959956 154.961933,218.493563 154.225088,218.348521 C153.487897,218.202799 152.614036,217.187166 152.614036,217.187166" id="Stroke-267" stroke="url(#linearGradient-1)" stroke-width="2"></path>
                <path d="M164,203 C164,203 168.733096,203.437226 169,204" id="Stroke-268" stroke="url(#linearGradient-1)"></path>
                <path d="M172,199 C172,199 170.844059,202.711955 170.458845,203.545229 C170.073331,204.378148 168.724633,206.272437 168.339419,207.484569 C167.953905,208.696346 167.022897,210.666194 167.022897,210.666194 L167.022897,213.468961 L165,214" id="Stroke-269" stroke="url(#linearGradient-1)" stroke-width="2"></path>
                <polyline id="Stroke-270" stroke="url(#linearGradient-1)" points="162 214.857191 158.712316 214 157.753368 215.214716 157 216.785619 160.287684 218"></polyline>
                <path d="M187.177246,235.230957 C187.177246,235.230957 188.402156,233.824977 188.602241,232.838341 C188.802639,231.850715 188.936445,230.017118 189.069939,229.735128 C189.203121,229.452477 190.505235,227.33722 190.505235,227.33722 C190.505235,227.33722 191.807036,225.645608 191.94053,226.067603 C192.074337,226.490919 191.94053,227.760205 191.94053,227.760205 L191.339651,229.664465 L187.177246,235.230957 Z" id="Stroke-271" stroke="url(#linearGradient-1)"></path>
                <path d="M191.441895,241.5 C191.441895,241.5 191.931351,241.348062 192.598476,241.348062 C193.265601,241.348062 195.666438,241.348062 196,241" id="Stroke-272" stroke="url(#linearGradient-1)"></path>
                <polygon id="Stroke-273" stroke="url(#linearGradient-1)" points="188.157227 223.575439 200.182644 219 202 221.464214 190.638336 226 188.64502 226.96167"></polygon>
                <path d="M188.435791,223.272461 C187.702353,221.594067 187.369589,220.7399 187.4375,220.709961 C187.505411,220.680022 191.302611,219.185311 198.829102,216.22583 L199.710938,219" id="Stroke-274" stroke="url(#linearGradient-1)"></path>
                <path d="M201,222 L202,226" id="Stroke-276" stroke="url(#linearGradient-1)"></path>
                <polygon id="Stroke-277" stroke="url(#linearGradient-1)" points="191.612061 230.152832 202.123107 226 204.266602 233.010254 194.690918 236.677002"></polygon>
                <polygon id="Stroke-278" stroke="url(#linearGradient-1)" points="204.020996 233.109375 206 239.3023 197.595677 243 194.737793 237.097168"></polygon>
                <path d="M211,261 C211,261 225.95697,263.756168 227.971418,265.350093 C229.985552,266.944018 232,268.804479 232,268.804479 L232,270 L231.328413,270 L228.910886,268.006739" id="Stroke-279" stroke="url(#linearGradient-1)"></path>
                <path d="M209,265 L210.668766,265.340932 C210.668766,265.340932 211.520273,266.41786 212.08883,266.705669 C212.656723,266.992469 214.645012,267.1357 216.881671,267.710309 C219.118329,268.285253 221.106618,269.002757 221.319744,269.290566 C221.532538,269.577365 223.307701,270.295878 223.591647,269.865174 C223.875926,269.433797 223.627224,268.715621 222.260358,268.141013 C220.893492,267.567077 220.751187,266.992469 220.751187,266.992469 L221.95879,266.633044 L225.154017,268.213637 L226.502928,269.505749 L227,270" id="Stroke-280" stroke="url(#linearGradient-1)"></path>
                <path d="M228,268 L229,269" id="Stroke-281" stroke="url(#linearGradient-1)" stroke-width="0.5"></path>
                <polyline id="Stroke-282" stroke="url(#linearGradient-1)" stroke-width="4" stroke-linecap="round" stroke-linejoin="round" points="218 270 258.478076 270 271 227"></polyline>
                <path d="M248.726276,376.764783 L245,380.685798 C245,380.685798 247.532882,385.556586 249.181326,385.732058 C256.353321,386.496255 260.506934,385.38145 270.809193,385.395596 C273.130631,380.54569 253.50293,374 253.50293,374" id="Stroke-283" stroke="url(#linearGradient-1)" stroke-width="2"></path>
                <path d="M395.366978,180.345703 C395.366978,180.345703 395.258383,174.528294 395.366978,173.43531 C395.475572,172.342667 395.361887,168.517903 395.361887,168.517903 C395.361887,168.517903 390.361859,163.855663 388.839844,161.815357 C387.317828,159.775733 386.10986,157.00019 385.674805,156.672363 C385.240089,156.344536 384.060964,152.367058 383.95237,151.875488 C383.843776,151.383577 385.131494,146.846191 385.674805,146.846191 C386.218454,146.846191 387.612673,143.69317 387.721268,144.62207 C387.830201,145.550971 402.786672,141.120033 402.841309,141.502441 C402.895606,141.885191 405.157765,151.825683 405.483887,151.224609 C405.810009,150.623536 404.125102,161.378368 405.483887,161.815357" id="Stroke-285" stroke="url(#linearGradient-1)" stroke-width="2"></path>
                <path d="M405.128427,162 C405.128427,162 404.56213,164.166994 405.807843,166.223314 C407.053203,168.279288 408.975858,171.337227 410.280605,173.780733 L412,177" id="Stroke-286" stroke="url(#linearGradient-1)" stroke-width="2"></path>
                <path d="M115.206446,284 C115.206446,284 114.219189,311.903724 117.445532,313.806598 C120.671875,315.709473 120.992188,315.302246 122.829102,316.075684" id="Stroke-304" stroke="url(#linearGradient-1)" stroke-width="2"></path>
                <path d="M110.705155,284 L109,285.311477 L109.852738,310.055792 C109.852738,310.055792 111.725998,318.012919 114.666065,318.887237 C117.606132,319.761209 122.456543,320.548096 124.546875,321.064453" id="Stroke-305" stroke="url(#linearGradient-1)" stroke-width="2"></path>
                <path d="M105.855396,270 C105.855396,270 102.852271,270.660191 102.33777,271.883651 C101.822929,273.10711 101.565848,278.475123 104.096583,279.322821 C106.627657,280.170147 108,279.982267 108,279.982267" id="Stroke-306" stroke="url(#linearGradient-1)" stroke-width="2"></path>
                <path d="M107.410195,273.055598 C107.410195,273.055598 105.719992,272.486213 106.040412,274.991713 C106.259759,276.701602 106.259759,276.701602 107.105464,276.823737 C108.323182,277 107.944229,277 107.944229,277" id="Stroke-307" stroke="url(#linearGradient-1)"></path>
                <path d="M105.274175,260 L102.03791,260 C102.03791,260 101.952612,261.690773 102.03791,262.02953 C102.123208,262.368622 105.955884,269.047693 108,283" id="Stroke-308" stroke="url(#linearGradient-1)" stroke-width="2"></path>
                <path d="M104.282468,246.39286 C104.282468,246.39286 106.636499,244.521406 107.773637,245.117052 C108.911096,245.712362 114.945067,264.510406 115.542901,271.14501 C116.140734,277.779614 116.163889,282.712805 115.542901,283.478491 C114.922234,284.244178 112.809717,284.840161 112.24147,284.924676 C111.672901,285.009191 109.885189,285.264757 109.560384,283.90376 C109.235901,282.543101 102.980355,251.326724 103.062039,250.135768 C103.143079,248.944812 102.454236,247.501321 104.282468,246.39286 Z" id="Stroke-309" stroke="url(#linearGradient-1)" stroke-width="2"></path>
                <path d="M109,290 L115,291" id="Stroke-310" stroke="url(#linearGradient-1)"></path>
                <path d="M109,293 L114,294" id="Stroke-311" stroke="url(#linearGradient-1)"></path>
                <path d="M109,298 L114,298" id="Stroke-312" stroke="url(#linearGradient-1)"></path>
                <path d="M111,302 L116,302" id="Stroke-313" stroke="url(#linearGradient-1)"></path>
                <path d="M111,306 L116,306" id="Stroke-314" stroke="url(#linearGradient-1)"></path>
                <path d="M111,310 L116,309" id="Stroke-315" stroke="url(#linearGradient-1)"></path>
                <path d="M112,313 L116,312" id="Stroke-316" stroke="url(#linearGradient-1)"></path>
                <path d="M119,314 L115,318" id="Stroke-317" stroke="url(#linearGradient-1)"></path>
                <polyline id="Stroke-318" stroke="url(#linearGradient-1)" stroke-width="2" points="150.353414 379.796101 128.744873 384.15918 129 381.627495 149.567604 377.592879 149.567604 363 156 363 156 365.444633"></polyline>
                <path d="M133.586225,383.460415 C133.586225,383.460415 130.75373,384.011848 131.017318,386.574389 C131.896306,389.223311 134.446128,389.13693 135.237613,388.878137 C136.028738,388.620402 138.778051,386.44746 137.787434,384.488534 C136.796097,382.52855 136.352102,383.067995 136.352102,383.067995" id="Stroke-319" stroke="url(#linearGradient-1)" stroke-width="2"></path>
                <text id="HTML" font-family="Roboto-Bold, Roboto" font-size="10" font-weight="bold" fill="#627EE2">
                    <tspan x="555.08046" y="249.905263">HTML</tspan>
                </text>
                <text id="CSS" font-family="Roboto-Bold, Roboto" font-size="10" font-weight="bold" fill="#627EE2">
                    <tspan x="330.612664" y="156.421053">CSS</tspan>
                </text>
                <text id="JS" font-family="Roboto-Bold, Roboto" font-size="10" font-weight="bold" fill="#627EE2">
                    <tspan x="194.16491" y="186.421053">JS</tspan>
                </text>
                <text id="PHP" font-family="Roboto-Bold, Roboto" font-size="10" font-weight="bold" fill="#627EE2">
                    <tspan x="215.01709" y="241">PHP</tspan>
                </text>
                <text id="JAVA" font-family="Roboto-Bold, Roboto" font-size="10" font-weight="bold" fill="#627EE2">
                    <tspan x="547.433128" y="190.789474">JAVA</tspan>
                </text>
                <text id="PYTHON" font-family="Roboto-Bold, Roboto" font-size="10" font-weight="bold" fill="#627EE2">
                    <tspan x="467.700846" y="149.252632">PYTHON</tspan>
                </text>
                <path d="M598.863989,386 C598.863989,386 601.005913,386.777104 600.999988,388.611613 C600.997395,389.602578 600.286383,390.799802 599.891624,391.082746 C599.496864,391.364698 596.967587,392 596.967587,392 C596.967587,392 595.078961,391.093323 594.595324,390.517519 C593.763959,389.53019 593.979114,388.405024 594.199454,387.764764 C594.594213,386.618114 596.082525,386.151719 596.082525,386.151719" id="Stroke-1" stroke="url(#linearGradient-1)" stroke-width="2"></path>
                <path d="M640.121854,386 C640.121854,386 638,387.548813 638,388.253658 C638,388.957185 638.228244,390.575889 638.646277,390.928312 C639.063953,391.280734 640.280307,392.125362 641.954218,391.984261 C643.626704,391.844149 644.995458,390.083355 644.995458,389.731921 C644.995458,389.379499 645.092667,387.461449 644.387637,386.844957 C643.521662,386.089342 643.072295,386.223849 643.072295,386.223849" id="Stroke-3" stroke="url(#linearGradient-1)" stroke-width="2"></path>
                <path d="M650.960832,282 L651.251386,288.911315 C651.251386,288.911315 656.381106,300.26231 654.639057,306.661865 C652.897009,313.061079 652.479058,315.457805 650.089808,317.809586 C647.131263,320.721818 642.529785,321.671387 645,321" id="Stroke-290" stroke="url(#linearGradient-1)" stroke-width="2"></path>
                <path d="M645.545168,282 C645.545168,282 645.963345,290.633369 647.344066,293.204715 C648.724787,295.776061 650,302.770312 650,302.770312 C650,302.770312 649.369054,309.204615 648.724787,310.588873 C647.285528,313.681139 643,316 643,316" id="Stroke-289" stroke="url(#linearGradient-1)" stroke-width="2"></path>
                <path d="M571,311 C571,311 574.385879,314.046822 577.861057,314.708837 C581.336653,315.370853 583.942314,315.95459 589,315.95459" id="Stroke-33" stroke="url(#linearGradient-1)" stroke-width="2"></path>
                <polygon id="Stroke-5" stroke="url(#linearGradient-1)" stroke-width="2" points="594 386.167062 617.634902 384.121612 617.634902 387 620.292773 387 620.292773 384.121612 644 386.167062 644 384.954194 622.807339 381.999891 622.878991 366.999563 621.442913 366.999563 621.585882 358.211858 620.867675 358.211858 620.796022 342.075642 622.376415 342.075642 622.142282 327.377911 621.711358 327.377911 620.687703 327.302351 620.687703 326.014632 634.589636 325.863866 634.660952 322 603.482016 322 603.482016 326.014632 617.275294 326.014632 617.347955 327.453471 616.862198 327.453471 615.910868 327.453471 615.839216 341.848252 617.563249 341.848252 618.047324 358.211858 616.968163 358.180996 617.023669 367.075833 615.546214 367.189351 615.569089 381.792011 594 385.106379"></polygon>
                <path d="M634.472783,322 L642.318901,322 C642.318901,322 644.998659,321.306602 644.999998,318.992669 C645.002676,315.150194 642.086577,315 642.086577,315 L634.472783,315.150194 C634.472783,315.150194 633.07884,316.353002 632.006267,316.703768 C630.934029,317.054848 627.985123,317.756381 626.215579,317.756381 L620.049624,317.756381 C619.298757,317.756381 607.395675,317.35555 604.607455,317.004783 C601.819234,316.653703 595.332244,316.002548 595.332244,316.002548 L591.79349,315.601404 L588.898146,315.601404 C588.898146,315.601404 586.056364,314.549104 583.482725,319.561531 C583.16102,321.115104 583,321.766573 583,321.766573 L603.19577,322" id="Stroke-7" stroke="url(#linearGradient-1)" stroke-width="2"></path>
                <path d="M607.750805,198.832421 C611.883665,198.230664 613.010961,201.075177 613.493849,201.676934 C613.977072,202.27869 614.245156,205.232489 614.245156,205.560689 C614.835613,208.240931 625.248358,213 625.248358,213 C625.248358,213 624.121397,200.856605 624.121397,199.762377 C624.121397,198.668492 626,195.057952 626,195.057952 L617.734279,183.023842 L617.197439,181 L616.231329,181.6564 L615.265219,182.296748 C615.265219,182.296748 613.279381,182.47707 610.971172,182.312799 C608.663298,182.14887 602.973871,183.188113 598.57259,185.759069 C594.172315,188.330025 589.985837,195.386493 589.985837,195.386493 L588,195.386493 L588.912158,196.644308 L589.341429,197.082135 L589.717418,198.449578 L592.830551,198.777778" id="Stroke-13" stroke="url(#linearGradient-1)" stroke-width="2"></path>
                <path d="M593,199 C593,199 594.432429,206.31833 594.48747,206.683855 C594.54251,207.050033 595.809818,208.095369 595.974939,208.304566 C596.140405,208.513764 596.25083,214.106947 596.25083,214.106947 L599.004919,214.106947 L601.539191,218.758904 L602.035243,220.013764 L602.641377,220.379615 C602.641377,220.379615 604.514474,220.641031 605.947247,220.065982 C607.379676,219.490933 609.032612,219.02032 609.032612,219.02032 C609.032612,219.02032 611.23664,217.66135 611.787733,217.556915 C612.338482,217.452479 612.338482,219.125082 612.338482,219.125082 L613,221.529713 L613,222" id="Stroke-15" stroke="url(#linearGradient-1)" stroke-width="2"></path>
                <path d="M610.642943,225.634474 L611.29542,237.613663 C611.29542,237.613663 614.612124,233.914345 615.264601,231.099016 C615.917418,228.284033 616.134684,226.6832 616.134684,226.6832 L629.5967,217.840884 L630,217.57517 L626.520347,212 L607.706794,226.6832 L607,238 L609.44696,238 L610.153754,225.579332" id="Stroke-17" stroke="url(#linearGradient-1)" stroke-width="2"></path>
                <path d="M629.129194,218 C629.129194,218 636.514989,225.171257 639.230539,236.250585 C641.94575,247.32891 642,274.461869 642,274.461869 L642,290.518174 L642,291 C642,291 632.876511,288.484614 628.694856,287.521296 C624.5132,286.557977 613,283.453841 613,283.453841 C613,283.453841 615.443961,279.064278 614.520694,274.676052" id="Stroke-19" stroke="url(#linearGradient-1)" stroke-width="2"></path>
                <path d="M607,238 C607,238 607.404146,244.653781 608.730769,248.5585 C610.057752,252.461846 615.885096,264.010173 615.942728,264.505258 L616,265" id="Stroke-21" stroke="url(#linearGradient-1)" stroke-width="2"></path>
                <path d="M616.847746,231.441675 C616.847746,231.441675 619.130215,228.848379 623.097306,229.00699 C627.064398,229.165932 631.086117,229.906779 631.738251,232.711888 C632.390385,235.517658 631.683963,250.919155 631.140405,253.988285 C630.596847,257.058077 628.587175,272.512445 628.532547,273.094681 C628.478259,273.676917 628.750038,274.417764 628.532547,274.629576 C628.315396,274.841058 626.357976,275 625.107996,275 C624.342875,275 619.385029,274.702273 615.652054,274.471626 C615.594373,274.468321 615.53737,274.465017 615.47969,274.460721 C613.196203,274.319293 611.412844,274.206282 611.412844,274.206282 L610,264.20319 L616.054463,264.927515 L618.912723,264.732225 L616.847746,231.441675 Z" id="Stroke-23" stroke="url(#linearGradient-1)" stroke-width="2"></path>
                <path d="M616,266 L616,276" id="Stroke-25" stroke="url(#linearGradient-1)" stroke-width="2"></path>
                <polyline id="Stroke-27" stroke="url(#linearGradient-1)" stroke-width="2" points="612.275854 286 612 289.620765 642.282986 298 642.669044 298 643 293.655211 642.282986 293.189537"></polyline>
                <path d="M589.694174,321 C589.694174,321 602.374683,357.974038 609,361.836007 C607.504133,367.771625 607.219238,367.914959 607.219238,367.914959 C607.219238,367.914959 604.512399,371.204599 603.657379,370.989933 C603.229369,370.560937 583.424476,336.51854 582,336.374872" id="Stroke-37" stroke="url(#linearGradient-1)" stroke-width="2"></path>
                <path d="M572.86922,382.110067 C572.86922,382.110067 556.80015,386.879721 557.067907,389.336478 C557.159369,390.174076 556.734537,391.278093 557.300206,391.697875 C557.866539,392.117984 563.456962,391.977402 563.456962,391.977402 L582.458436,390.228146 C582.458436,390.228146 582.587344,388.690584 584.546146,385.399506 C589.004567,377.911264 581.786061,382.250322 581.786061,382.250322 L572.86922,382.110067 Z" id="Stroke-39" stroke="url(#linearGradient-1)" stroke-width="2"></path>
                <path d="M592.48718,386 C592.48718,386 590.732259,386.609459 591.035134,386.821316 C591.336876,387.033007 593,386.997808 593,386.997808" id="Stroke-49" stroke="url(#linearGradient-1)" stroke-width="2"></path>
                <path d="M532,231 L550,270" id="Stroke-53" stroke="url(#linearGradient-1)" stroke-width="3" stroke-linecap="round" stroke-linejoin="round"></path>
                <path d="M608.644759,210 C608.644759,210 611.592322,215.47552 610.892567,216.37523 C610.192812,217.275292 607.64719,219.149864 602,222" id="Stroke-63" stroke="url(#linearGradient-1)" stroke-width="2"></path>
                <path d="M595,206 C595,206 595.094766,204.277376 599,205.353974" id="Stroke-65" stroke="url(#linearGradient-1)" stroke-width="2"></path>
                <path d="M610,264.966971 L587.794078,264 L574.031771,264.290121 L571.084869,264.966971 C571.084869,264.966971 565.911552,266.675397 565.228417,266.901215 C564.545619,267.126127 562.424872,268.125703 561.95812,268.545337 C561.49103,268.963764 560.4845,270.060249 560.341479,270.317765 C560.197112,270.576188 560.053418,270.64019 560.018084,270.769401 C559.98174,270.898008 559.98174,270.930311 560.197112,270.994615 C560.412821,271.059824 561.635061,270.51128 561.635061,270.51128 C561.635061,270.51128 562.784275,269.480006 563.46741,269.222187 C564.150545,268.963764 564.940693,268.48043 564.940693,268.48043" id="Stroke-74" stroke="url(#linearGradient-1)"></path>
                <path d="M562,270 C562,270 563.327487,269.718422 564.312718,269.264019 C565.298303,268.809616 566.094299,268.582178 566.852305,268.405335 C567.611021,268.228964 568.027836,267.976466 568.44465,268.001763 C568.862175,268.026823 569.127033,268.228964 568.937798,268.405335 C568.748208,268.582178 567.230775,268.885271 567.04154,268.98646 C566.852305,269.086939 566.208266,269.213661 566.208266,269.440862 C566.208266,269.668064 566.246255,269.819374 566.246255,269.819374" id="Stroke-76" stroke="url(#linearGradient-1)"></path>
                <path d="M569,271.147304 C569,271.147304 571.049792,270.229499 571.452963,270.263667 C571.855447,270.29752 573.356708,270.262718 573.356708,270.262718 C573.356708,270.262718 576.541617,270.129208 577.126831,269.791002 C577.713074,269.453113 579.104629,268.806758 579.61682,268.471083 C580.129011,268.135092 580.055988,268 580.970663,268 C581.886025,268 588.621987,268.169261 591.293676,269.013351 C593.966394,269.858074 601.286885,270.804353 602.641757,271.311187 C603.996286,271.818021 611,273 611,273" id="Stroke-77" stroke="url(#linearGradient-1)"></path>
                <path d="M654.395528,238.054762 C654.395528,238.054762 655.960008,238.41492 657.265214,239.155016 C658.173736,239.669673 658.955447,240.368842 658.998895,241.259345 C659.045522,242.191798 657.610325,249.396652 655.897486,257.404699 C653.623708,268.04435 650.860698,280.101439 650.43293,280.750814 C649.68407,281.888243 648.864563,283.344562 647.239326,282.926766 C645.614442,282.508628 644.008633,281.267858 644.008633,281.267858 C644.008633,281.267858 643.871577,272.789834 644.689671,267.414416 C645.508118,262.038997 650.219575,240.535278 652.146829,239.087827 C654.074083,237.641058 654.395528,238.054762 654.395528,238.054762 Z" id="Stroke-291" stroke="url(#linearGradient-1)" stroke-width="2"></path>
                <path d="M656,239 C656,239 648.769574,278.090444 648.365463,279.113012 C647.961352,280.134556 646,282 646,282" id="Stroke-292" stroke="url(#linearGradient-1)" stroke-width="2"></path>
                <path d="M655.511974,256 L658.181837,256.729149 C658.181837,256.729149 659.46078,256.965425 658.820604,258.987892 C658.335367,260.521964 656.19018,266.30177 655.183083,269.000344 C654.862643,269.859342 654.657702,270.40629 654.657702,270.40629 L653.875969,273.618058 L653.056559,276.983786 L651.455415,282 C651.455415,282 650.066959,281.931804 649,281.179923" id="Stroke-293" stroke="url(#linearGradient-1)" stroke-width="2"></path>
                <path d="M655.904205,268 C655.904205,268 657.449781,268.246676 656.869794,270.162932 C656.548743,271.223404 656.946768,272.327614 655,271.909198" id="Stroke-294" stroke="url(#linearGradient-1)" stroke-width="2"></path>
                <path d="M657.122955,266 C657.122955,266 659.895437,266.622677 659.991921,269.067413 C660.088725,271.511807 659.283625,273.435073 659.283625,273.435073 C659.283625,273.435073 657.486209,276.842471 654,275.802618" id="Stroke-295" stroke="url(#linearGradient-1)" stroke-width="2"></path>
                <path d="M646,288 L652,288" id="Stroke-296" stroke="url(#linearGradient-1)"></path>
                <path d="M647.5,293 L653,293" id="Stroke-297" stroke="url(#linearGradient-1)"></path>
                <path d="M649,301 L655,301" id="Stroke-299" stroke="url(#linearGradient-1)"></path>
                <path d="M649,309 C649,309 654.586052,309.499588 653.949446,310" id="Stroke-301" stroke="url(#linearGradient-1)"></path>
                <path d="M646,314 L650,319" id="Stroke-303" stroke="url(#linearGradient-1)"></path>
                <path d="M557,390 L584,389" id="Stroke-320" stroke="url(#linearGradient-1)" stroke-width="2"></path>
                <path d="M566,384 L568,385" id="Stroke-321" stroke="url(#linearGradient-1)"></path>
                <path d="M568,383 L572,384" id="Stroke-322" stroke="url(#linearGradient-1)" stroke-width="2"></path>
                <path d="M571,382 L575,383" id="Stroke-323" stroke="url(#linearGradient-1)" stroke-width="2"></path>
                <path d="M615,365 C615,365 612.208401,375.330573 611,377" id="Stroke-324" stroke="url(#linearGradient-1)" stroke-width="2"></path>
                <path d="M606,373 L607,373" id="Stroke-326" stroke="url(#linearGradient-1)" stroke-width="2"></path>
                <path d="M606,375 L607,375" id="Stroke-327" stroke="url(#linearGradient-1)" stroke-width="2"></path>
                <path d="M606,376 L607,376" id="Stroke-328" stroke="url(#linearGradient-1)" stroke-width="2"></path>
                <path d="M156,369 C156,369 157.641403,371.442574 158.176832,372.996782 C158.712596,374.551683 159.730279,378.496127 160.10518,379.438218 C160.480415,380.380656 162.033861,383.933775 165.62234,384.877946 C169.211488,385.821077 170.449898,386.133721 172,385.94967" id="Stroke-329" stroke="url(#linearGradient-1)"></path>
                <path d="M268,374 L268,377" id="Stroke-331" stroke="url(#linearGradient-1)" stroke-width="2"></path>
                <path d="M353,381 L360,381" id="Stroke-335" stroke="url(#linearGradient-1)" stroke-width="2"></path>
                <path d="M315,381 L324,381" id="Stroke-336" stroke="url(#linearGradient-1)" stroke-width="2"></path>
                <path d="M467,385 L480,385" id="Stroke-338" stroke="url(#linearGradient-1)" stroke-width="2"></path>
                <path d="M498,385.459 L510,385" id="Stroke-339" stroke="url(#linearGradient-1)" stroke-width="2"></path>
                <path d="M361.27387,64.5224097 C364.424025,64.5224097 367.429095,65.1515818 370.169099,66.2833268 C375.237682,56.0453676 385.799463,49 398.01248,49 C414.61929,49 428.179334,62.0180415 429.016652,78.3913842 C429.230662,78.3828876 429.439566,78.359522 429.655278,78.359522 C438.681976,78.359522 446,85.6665844 446,94.679761 C446,103.692938 438.681976,111 429.655278,111 L361.27387,111 C348.420101,111 338,100.595933 338,87.7614173 C338,74.926902 348.420101,64.5224097 361.27387,64.5224097 Z" id="Stroke-340" stroke="#03366C" stroke-width="2"></path>
                <path d="M59.6223491,115.766424 C57.4036208,115.766424 55.2909658,116.201297 53.3623294,116.987669 C49.7958263,109.885977 42.363578,105 33.7692678,105 C22.0829038,105 12.5403728,114.029937 11.9513779,125.384973 C11.8012486,125.379303 11.6538304,125.362962 11.5020066,125.362962 C5.15014715,125.362962 0,130.429358 0,136.681648 C0,142.93227 5.15014715,148 11.5020066,148 L59.6223491,148 C68.6673861,148 76,140.784255 76,131.883045 C76,122.98217 68.6673861,115.766424 59.6223491,115.766424 Z" id="Stroke-341" stroke="#03366C" stroke-width="2"></path>
                <path d="M691.515997,148.514967 C693.61629,148.514967 695.619474,148.941231 697.446314,149.707548 C700.825191,142.772377 707.866177,138 716.008392,138 C727.079687,138 736.119474,146.818806 736.677506,157.90988 C736.820471,157.904406 736.959726,157.888669 737.103364,157.888669 C743.121347,157.888669 748,162.838599 748,168.944163 C748,175.049728 743.121347,180 737.103364,180 L691.515997,180 C682.946913,180 676,172.951934 676,164.257655 C676,155.563033 682.946913,148.514967 691.515997,148.514967 Z" id="Stroke-342" stroke="#03366C" stroke-width="2"></path>
                <path d="M128.50017,175.590792 C125.342249,175.590792 122.782506,173.0873 122.782506,169.999926 C122.782506,166.91222 125.342249,164.409061 128.50017,164.409061 C131.658091,164.409061 134.218173,166.91222 134.218173,169.999926 C134.218173,173.0873 131.658091,175.590792 128.50017,175.590792 M140,166.980268 C140,166.980268 138.843702,162.834005 137.301746,161.954364 C137.301746,161.954364 133.061536,164.432628 131.647906,158.482272 C131.647906,158.482272 128.179014,157.39716 125.48076,158.482272 C125.48076,158.482272 125.737753,165.59807 119.955586,161.828891 C119.955586,161.828891 117.385659,165.346791 117,167.105741 C117,167.105741 122.139854,170.62331 117,173.261569 C117,173.261569 118.285303,177.281694 120.340905,178.412614 C120.340905,178.412614 125.484155,176.402385 125.482457,181.55343 C125.482457,181.55343 128.050348,182.558212 131.647906,181.55343 C131.647906,181.55343 131.005594,177.155889 137.044753,178.286808 C137.044753,178.286808 139.486015,176.527858 140,173.387042 C140,173.387042 135.75979,171.753897 140,166.980268" id="Fill-347" fill="#03366C"></path>
                <path d="M646.839481,144.781267 L646.839481,138.53002 L651.173398,142.863955 C649.990431,143.908153 648.494546,144.604739 646.839481,144.781267 Z M640.82669,142.863955 L645.160607,138.53002 L645.160607,144.781267 C643.505542,144.604739 642.009657,143.908153 640.82669,142.863955 Z M645.160607,129.218626 L645.160607,134.476693 L641.377018,130.693429 C642.461008,129.897185 643.752475,129.368623 645.160607,129.218626 Z M650.62307,130.693429 L646.839481,134.476693 L646.839481,129.218626 C648.247273,129.368623 649.539081,129.897185 650.62307,130.693429 Z M648.02653,135.663746 L651.863859,131.826741 C652.802273,132.889307 653.4543,134.20629 653.705655,135.663746 L648.02653,135.663746 Z M643.973559,135.663746 L638.294434,135.663746 C638.545789,134.20629 639.197815,132.889307 640.13623,131.826741 L643.973559,135.663746 Z M639.693382,141.623161 C638.804967,140.413319 638.259061,138.941577 638.189674,137.342627 L643.973559,137.342627 L639.693382,141.623161 Z M648.02653,137.342627 L653.810414,137.342627 C653.741028,138.941577 653.195122,140.412979 652.306706,141.623161 L648.02653,137.342627 Z M661.322151,140.150059 C661.169093,140.121148 660.492918,139.937818 659.449744,139.645646 C659.539538,139.18579 659.604843,138.717092 659.647699,138.24193 C660.744613,138.226624 661.416707,138.204176 661.479971,138.172204 C661.924179,137.950439 662.331993,135.656263 661.591193,135.730411 C661.435754,135.746057 660.734749,135.759663 659.648039,135.771227 C659.622189,135.478715 659.577972,135.193006 659.533756,134.905937 C660.601419,134.623629 661.250384,134.438598 661.304464,134.392341 C661.681667,134.069557 661.522487,131.74511 660.821482,131.996126 C660.674547,132.048846 659.996671,132.231836 658.941592,132.507001 C658.826629,132.175374 658.706903,131.847149 658.567451,131.528107 C659.521851,130.987301 660.097689,130.64581 660.138164,130.587308 C660.420811,130.179152 659.675929,127.971709 659.061998,128.39279 C658.933429,128.480884 658.32664,128.828497 657.383464,129.359099 C657.119184,128.965909 656.833476,128.588705 656.531102,128.225786 C657.29435,127.440427 657.752843,126.949959 657.775292,126.882954 C657.932091,126.411874 656.598447,124.501365 656.127369,125.077545 C656.028732,125.197951 655.538947,125.706105 654.784202,126.477859 C654.560738,126.291468 654.325028,126.121063 654.09,125.948277 C654.644749,124.995573 654.973313,124.405448 654.978755,124.334021 C655.01719,123.839472 653.260767,122.308207 652.942746,122.981665 C652.876081,123.122818 652.525409,123.732331 651.97338,124.673811 C651.659782,124.521772 651.342102,124.378238 651.015919,124.249669 C651.309109,123.189484 651.475772,122.538475 651.462848,122.468409 C651.374074,121.979982 649.286365,120.945647 649.149974,121.677607 C649.121403,121.830665 648.938074,122.506503 648.645904,123.550362 C648.18605,123.460227 647.717693,123.395262 647.242534,123.352746 C647.226888,122.255147 647.204099,121.583051 647.172467,121.519786 C646.950363,121.075917 644.656537,120.668101 644.730685,121.408564 C644.746331,121.564343 644.759936,122.26331 644.7715,123.351726 C644.42593,123.382338 644.087842,123.434037 643.750435,123.489819 C643.520508,122.612624 643.368811,122.054811 643.324594,121.935425 C642.975282,120.992925 640.955939,121.610601 641.11716,122.256848 C641.139268,122.347322 641.297088,122.99697 641.550484,124.04253 C641.153894,124.178922 640.765127,124.330279 640.385544,124.501025 C639.941676,123.713284 639.654948,123.215674 639.58182,123.111254 C639.004282,122.28882 637.208404,123.399684 637.528465,123.983687 C637.573362,124.065318 637.889001,124.650342 638.397833,125.592841 C637.947163,125.893856 637.519962,126.224462 637.109086,126.575136 C636.462842,125.944195 636.046525,125.545223 635.947548,125.465973 C635.162531,124.838093 633.749978,126.407792 634.220715,126.878872 C634.2867,126.944517 634.754377,127.418658 635.508442,128.18225 C635.277835,128.456735 635.063214,128.744484 634.854375,129.036316 C634.0731,128.579522 633.57175,128.292792 633.456447,128.239732 C632.542862,127.820352 631.552068,129.685284 632.122803,130.028135 C632.202733,130.076093 632.774489,130.424726 633.694197,130.98526 C633.510867,131.359063 633.344545,131.741028 633.195568,132.132518 C632.322799,131.889325 631.766689,131.739668 631.640841,131.717559 C630.651067,131.544433 630.166384,133.599838 630.805826,133.786569 C630.894939,133.812419 631.532,134.002892 632.557487,134.309009 C632.453068,134.833829 632.387423,135.371234 632.344567,135.915442 C631.439825,135.926326 630.862627,135.938911 630.736099,135.952856 C629.737142,136.063739 629.848024,138.172204 630.513996,138.172204 C630.607191,138.172204 631.273843,138.176965 632.349329,138.183768 C632.380621,138.544306 632.43198,138.898041 632.490142,139.249735 C631.613291,139.479663 631.05616,139.631361 630.936775,139.675577 C629.994279,140.024891 630.611953,142.044242 631.258197,141.88302 C631.348331,141.860912 631.998316,141.703091 633.042851,141.449695 C633.178902,141.846286 633.330599,142.235055 633.501004,142.614299 C632.713606,143.058509 632.215658,143.345238 632.111579,143.418366 C631.288808,143.995567 632.399668,145.791452 632.984008,145.47173 C633.065299,145.426833 633.65066,145.110852 634.592816,144.602358 C634.89383,145.05269 635.224435,145.480233 635.575447,145.89111 C634.944509,146.537357 634.545538,146.953336 634.465948,147.052654 C633.838411,147.837333 635.408104,149.250233 635.878842,148.779153 C635.944487,148.713848 636.418626,148.245489 637.182214,147.491421 C637.457038,147.722369 637.744786,147.936991 638.037297,148.146171 C637.580504,148.927109 637.294456,149.42812 637.241056,149.543424 C636.821678,150.457013 638.686262,151.447811 639.029452,150.877074 C639.07741,150.797143 639.426041,150.225725 639.986573,149.306354 C640.359694,149.489344 640.741318,149.655667 641.132806,149.804304 C640.889274,150.677077 640.739618,151.23353 640.717509,151.359038 C640.544384,152.349156 642.60012,152.83316 642.786511,152.194056 C642.81236,152.104942 643.002832,151.467879 643.309288,150.442728 C643.833766,150.547148 644.371509,150.612793 644.915375,150.655309 C644.926259,151.560394 644.938503,152.137595 644.952789,152.264123 C645.063671,153.263084 647.172467,153.151862 647.172467,152.485548 C647.172467,152.392692 647.176889,151.725017 647.183691,150.650207 C647.491167,150.623677 647.792861,150.58014 648.094215,150.533542 C648.376182,151.60053 648.561212,152.249157 648.607809,152.303238 C648.930251,152.680782 651.254689,152.521601 651.004014,151.820254 C650.951294,151.672977 650.768645,150.995779 650.493481,149.941376 C650.824426,149.826413 651.15299,149.706347 651.472031,149.567574 C652.012835,150.521638 652.353984,151.097818 652.412486,151.138293 C652.82064,151.420941 655.028074,150.676057 654.606995,150.061782 C654.519242,149.933553 654.17129,149.326762 653.64103,148.383582 C654.033879,148.118961 654.411421,147.833592 654.774338,147.530876 C655.559695,148.294128 656.04982,148.752623 656.117165,148.775411 C656.587903,148.931871 658.498405,147.598562 657.922227,147.126802 C657.801822,147.028845 657.29367,146.538717 656.521918,145.783969 C656.708989,145.560844 656.879393,145.324114 657.051838,145.089424 C658.004878,145.643836 658.595001,145.972061 658.665748,145.977503 C659.160635,146.015598 660.691893,144.259847 660.018439,143.941486 C659.877285,143.87482 659.267775,143.524147 658.3263,142.972116 C658.478677,142.659196 658.621871,142.341855 658.75044,142.015671 C659.81062,142.309203 660.461626,142.475526 660.531693,142.462942 C661.019777,142.373827 662.054108,140.286451 661.322151,140.150059 Z" id="Fill-349" fill="#03366C"></path>
                <path d="M315.86712,44.8003718 C322.530989,44.8003718 327.933379,50.2027798 327.933379,56.8670035 C327.933379,63.5308943 322.530989,68.9336353 315.86712,68.9336353 C309.202919,68.9336353 303.800529,63.5308943 303.800529,56.8670035 C303.800529,50.2027798 309.202919,44.8003718 315.86712,44.8003718 Z M296.561506,59.2438501 C296.67667,59.4162638 298.422769,59.6852026 300.816915,59.9737793 C301.240626,62.0364201 302.083387,63.9439551 303.243348,65.6145044 C301.732902,67.458466 300.624532,68.8344474 300.531335,69.0215064 C300.230444,69.6232902 302.336681,72.0310913 303.841468,72.3316504 C304.049496,72.3732561 305.532648,71.2815243 307.493099,69.739786 C309.153991,70.8221981 311.034559,71.5890731 313.056586,71.963191 C313.298896,74.4096021 313.494609,76.2362558 313.562176,76.4386255 C313.774863,77.0770224 316.966837,77.2897104 318.243626,76.4386255 C318.423029,76.3191342 318.704948,74.4428866 319.006504,71.9086044 C321.100093,71.4739087 323.030588,70.605516 324.717441,69.4135978 C326.818019,71.0125855 328.417667,72.1792074 328.655983,72.2271371 C329.408543,72.377583 331.966449,68.9166602 331.966449,68.9166602 C331.966449,68.9166602 330.627751,67.3103499 328.801436,65.138536 C329.861877,63.484296 330.611441,61.6160368 330.973576,59.6093139 C333.573753,59.2564982 335.514566,58.9526106 335.716269,58.8178084 C336.354664,58.3924324 335.716269,54.1366755 335.716269,54.1366755 C335.716269,54.1366755 333.681261,53.9516137 330.904677,53.7116324 C330.480301,51.6809447 329.653184,49.8003702 328.513859,48.1507901 C330.061583,46.1151097 331.180272,44.5776984 331.22687,44.3440412 C331.377648,43.5914785 327.916737,41.0338971 327.916737,41.0338971 C327.916737,41.0338971 326.4003,42.2977098 324.322355,44.0444807 C322.6142,42.9154702 320.666064,42.1269603 318.572143,41.7545067 C318.234972,39.2931175 317.947728,37.4781134 317.817919,37.2837319 C317.392544,36.6453351 313.136468,37.2837319 313.136468,37.2837319 C313.136468,37.2837319 312.96339,39.1866071 312.735391,41.8234056 C310.740991,42.2364663 308.888048,43.0349616 307.258444,44.1396743 C305.479726,42.6834772 304.161331,41.6223672 303.978933,41.5311677 C303.377151,41.2299429 300.969358,43.3368521 300.668467,44.8416446 C300.628526,45.042683 301.649358,46.4376366 303.110876,48.3022346 C301.958237,50.0147224 301.152755,51.9758455 300.766656,54.0837532 C298.457717,54.3134163 296.756219,54.4971467 296.561506,54.5620515 C295.923111,54.7750724 295.710091,57.9670564 296.561506,59.2438501 Z" id="Stroke-350" stroke="#03366C" stroke-width="2" stroke-linecap="round" stroke-linejoin="round"></path>
                <path d="M316.000175,49 C320.97051,49 325,52.8058862 325,57.5 C325,62.1944444 320.97051,66 316.000175,66 C311.02949,66 307,62.1944444 307,57.5 C307,52.8058862 311.02949,49 316.000175,49 Z" id="Stroke-351" stroke="#03366C" stroke-linecap="round" stroke-linejoin="round"></path>
                <path d="M620.999882,94.5444247 C626.055824,94.5444247 630.154245,98.5540854 630.154245,103.500116 C630.154245,108.445811 626.055824,112.455472 620.999882,112.455472 C615.944282,112.455472 611.845518,108.445811 611.845518,103.500116 C611.845518,98.5540854 615.944282,94.5444247 620.999882,94.5444247 Z M598.251397,105.466392 C598.381283,105.720851 599.731887,105.888144 601.881682,105.991738 C601.991006,106.800375 602.154476,107.590573 602.364898,108.363673 C600.638002,109.079109 599.56636,109.523994 599.460464,109.566907 C598.791502,109.840476 599.966298,113.204098 600.785023,113.89439 C601.00504,114.080122 602.317604,113.724751 604.340256,113.00965 C604.737795,113.675133 605.175773,114.311784 605.651106,114.921614 C604.329632,116.227436 603.511592,117.036073 603.430371,117.115529 C602.91734,117.617072 605.310456,120.292079 606.335833,120.626329 C606.611368,120.715842 607.688151,119.898823 609.282762,118.484714 C609.936988,118.974858 610.621029,119.426113 611.337285,119.832778 C610.634395,121.531184 610.19813,122.586235 610.154606,122.689494 C609.879413,123.345589 613.140947,124.911234 614.2191,124.833455 C614.509372,124.811999 615.180733,123.652349 616.09473,121.746754 C616.847655,121.940197 617.616688,122.091397 618.402855,122.195326 C618.411766,124.031523 618.417934,125.169046 618.417934,125.281357 C618.417934,125.990423 622.043421,126.226779 623.009853,125.754068 C623.269966,125.627006 623.441319,124.305092 623.546873,122.202702 C624.546546,122.073293 625.523944,121.877504 626.469127,121.604941 C627.130207,123.030114 627.54728,123.928935 627.613423,124.083152 C628.07916,125.174075 632.186835,123.751584 631.943856,122.569472 C631.906844,122.391116 631.493198,121.357857 630.81978,119.738906 C631.612117,119.27927 632.373267,118.776051 633.087124,118.214498 C634.253695,119.288658 634.988457,119.965204 635.109432,120.083885 C635.963798,120.919678 639.211281,118.077043 638.527582,117.074292 C638.424085,116.922421 637.639973,116.120154 636.38704,114.871661 C636.964157,114.125381 637.502206,113.348929 637.962802,112.522188 C639.455287,113.070666 640.396701,113.416315 640.554688,113.479678 C641.672253,113.928921 643.548226,110.082195 642.522164,109.414365 C642.366918,109.313118 641.327148,108.868569 639.680788,108.18934 C639.906631,107.327397 640.088265,106.448692 640.187993,105.543501 C641.786374,105.49623 642.792901,105.466392 642.963912,105.466392 C644.172293,105.466392 644.413901,101.210653 643.205519,100.973963 C643.022857,100.93809 641.889186,100.913616 640.100603,100.896854 C639.968318,99.9581372 639.775375,99.0388655 639.507379,98.1497668 C640.964222,97.5030581 641.883017,97.0947164 642.040662,97.0303473 C643.155827,96.5747345 641.701383,92.5563572 640.493344,92.7940536 C640.310682,92.8302613 639.254804,93.2349151 637.599877,93.893693 C637.130027,93.1185813 636.615625,92.373978 636.041592,91.6756399 C637.139965,90.5344288 637.830861,89.8159754 637.952179,89.6972948 C638.806545,88.8615018 635.901083,85.6846168 634.875706,86.3534524 C634.720803,86.4543644 633.900708,87.2217652 632.624128,88.4471255 C631.861264,87.8825546 631.067557,87.356538 630.222787,86.9059541 C630.783454,85.4459146 631.136784,84.5249666 631.201898,84.3704136 C631.660438,83.2771441 627.728229,81.4419533 627.045559,82.4453742 C626.942404,82.5975804 626.487976,83.6140763 625.793654,85.2253162 C624.912214,85.0047178 624.013981,84.8266969 623.089018,84.7291375 C623.040696,83.1655039 623.009853,82.1808573 623.009853,82.0135646 C623.009853,80.8314523 618.659885,80.5950969 618.417934,81.7772092 C618.381265,81.9559006 618.355904,83.0666034 618.338769,84.8142925 C617.551916,84.9209039 616.781856,85.0734453 616.028245,85.2699053 C615.296568,83.5805507 614.842139,82.5322055 614.79793,82.4286114 C614.518625,81.7741919 611.080598,82.9237844 610.374623,83.7247108 C610.184764,83.9399451 610.548033,85.2239752 611.279025,87.2023203 C610.598753,87.5912172 609.947954,88.0200095 609.324572,88.4850094 C607.989732,87.1919274 607.162782,86.3916715 607.081904,86.3122159 C606.569216,85.810673 603.834764,88.1514298 603.493086,89.1545155 C603.400898,89.4240612 604.236416,90.4774353 605.682292,92.037381 C605.181256,92.6770493 604.719974,93.3468906 604.304271,94.0472402 C602.568123,93.3596303 601.489969,92.9328496 601.384073,92.8902721 C600.713398,92.6210616 599.11296,95.8120273 599.192468,96.8664072 C599.214401,97.1496984 600.399821,97.8071352 602.347763,98.7009275 C602.150021,99.43782 601.995461,100.190134 601.889222,100.959211 C600.012221,100.967928 598.849419,100.973963 598.734613,100.973963 C598.00979,100.973963 597.768182,104.520635 598.251397,105.466392 Z" id="Stroke-352" stroke="#03366C" stroke-width="2" stroke-linecap="round" stroke-linejoin="round"></path>
                <path d="M103.999987,130.646762 C110.822201,130.646762 116.353001,136.177571 116.353001,143.000133 C116.353001,149.82236 110.822201,155.353169 103.999987,155.353169 C97.1777729,155.353169 91.6469735,149.82236 91.6469735,143.000133 C91.6469735,136.177571 97.1777729,130.646762 103.999987,130.646762 Z M85.2080222,144.660383 C85.3150808,144.875172 86.4309733,145.016463 88.2066686,145.104056 C88.2969468,145.786681 88.4318608,146.45454 88.6060407,147.106961 C87.1793763,147.711725 86.2940457,148.086934 86.2064523,148.12318 C85.6540436,148.354078 86.6246184,151.194659 87.300866,151.777609 C87.4827649,151.934337 88.5667747,151.633969 90.2374251,151.030547 C90.5659842,151.592353 90.9281038,152.130332 91.3207638,152.645154 C90.229035,153.747624 89.553123,154.430585 89.4860016,154.497371 C89.0624659,154.921243 91.0391897,157.180216 91.8859255,157.462126 C92.1138025,157.537973 93.0031604,156.847965 94.320417,155.653874 C94.8610795,156.067677 95.4262412,156.448592 96.017916,156.791918 C95.4369807,158.226304 95.0768746,159.117006 95.0409647,159.204599 C94.8134233,159.758687 97.50801,161.08098 98.3987103,161.01453 C98.6379979,160.997078 99.1927559,160.017776 99.9478711,158.408539 C100.56975,158.571644 101.205054,158.69951 101.854453,158.787104 C101.862172,160.337946 101.867206,161.298118 101.867206,161.392759 C101.867206,161.991819 104.861825,162.191505 105.660569,161.792468 C105.875358,161.684738 106.016648,160.568508 106.104242,158.793145 C106.929499,158.684072 107.736968,158.519289 108.517925,158.288391 C109.063958,159.491879 109.408626,160.251023 109.462994,160.381575 C109.848271,161.302817 113.240919,160.101342 113.040226,159.103246 C113.010022,158.952223 112.668374,158.079979 112.112274,156.71305 C112.766371,156.325088 113.394963,155.899874 113.984624,155.425325 C114.948486,156.332807 115.555599,156.904011 115.65561,157.004022 C116.361391,157.71014 119.043896,155.30954 118.479405,154.462803 C118.393825,154.334601 117.745769,153.65701 116.711093,152.602867 C117.18799,151.972596 117.632334,151.31682 118.012576,150.618756 C119.245595,151.08223 120.023196,151.373873 120.153747,151.42757 C121.077337,151.806806 122.626833,148.558127 121.779426,147.993971 C121.650889,147.909062 120.792071,147.533182 119.431857,146.959965 C119.618455,146.232032 119.768471,145.490005 119.850694,144.725491 C121.171307,144.685889 122.002941,144.660383 122.143895,144.660383 C123.142325,144.660383 123.342011,141.066699 122.343581,140.867013 C122.192558,140.836808 121.256215,140.816001 119.778875,140.801905 C119.669131,140.008865 119.510054,139.233276 119.288553,138.482187 C120.492039,137.936154 121.250846,137.59115 121.381397,137.536781 C122.302637,137.15184 121.101165,133.758849 120.103071,133.959542 C119.952048,133.990083 119.080141,134.331731 117.712544,134.887832 C117.324918,134.233734 116.90004,133.604805 116.425156,133.015479 C117.332972,132.051614 117.904175,131.444501 118.004186,131.344154 C118.709631,130.638707 116.310043,127.955862 115.462636,128.520689 C115.334434,128.606269 114.65718,129.253991 113.602368,130.289005 C112.972434,129.812106 112.316658,129.367762 111.618596,128.987519 C112.082069,127.754498 112.373711,126.97656 112.427408,126.846344 C112.806644,125.922753 109.558306,124.373254 108.994151,125.220662 C108.908907,125.3492 108.533699,126.207683 107.960147,127.5679 C107.23188,127.381638 106.489854,127.231286 105.726013,127.149062 C105.68574,125.828783 105.660569,124.997148 105.660569,124.855857 C105.660569,123.857761 102.066557,123.658074 101.867206,124.656171 C101.837002,124.807529 101.815858,125.745216 101.801763,127.221218 C101.151693,127.31116 100.515382,127.440034 99.8928316,127.605824 C99.2887394,126.179157 98.9135311,125.29416 98.8766143,125.206902 C98.6460525,124.654157 95.8054769,125.624398 95.2228635,126.300982 C95.0657996,126.482546 95.365832,127.566893 95.969253,129.237547 C95.4077829,129.565771 94.8701408,129.927891 94.3549845,130.320552 C93.2528519,129.228821 92.5692209,128.553243 92.5024352,128.486122 C92.0788994,128.062585 89.8202659,130.038977 89.537685,130.88605 C89.4621735,131.113927 90.1518454,132.003287 91.3462699,133.320881 C90.9321311,133.860538 90.5515531,134.426372 90.2078917,135.017712 C88.7738441,134.437112 87.8831437,134.077005 87.7955504,134.040759 C87.2414636,133.813553 85.919173,136.508145 85.9852875,137.398175 C86.0030746,137.637799 86.9827108,138.192558 88.5916096,138.947675 C88.4285047,139.569891 88.3006385,140.20486 88.2130452,140.854596 C86.6622063,140.861643 85.7020354,140.867013 85.6070587,140.867013 C85.0080006,140.867013 84.8083146,143.861973 85.2080222,144.660383 Z" id="Stroke-353" stroke="#03366C" stroke-width="2" stroke-linecap="round" stroke-linejoin="round"></path>
                <path d="M105,138.709902 C107.921378,138.709902 110.289806,141.078382 110.289806,143.999824 C110.289806,146.921266 107.921378,149.290098 105,149.290098 C102.078622,149.290098 99.710546,146.921266 99.710546,143.999824 C99.710546,141.078382 102.078622,138.709902 105,138.709902 Z M105,152 C109.41832,152 113,148.417889 113,143.999824 C113,139.581759 109.41832,136 105,136 C100.58168,136 97,139.581759 97,143.999824 C97,148.417889 100.58168,152 105,152 Z" id="Stroke-354" stroke="#03366C" stroke-linecap="round" stroke-linejoin="round"></path>
                <path d="M160.5,141.41516 C165.580323,141.41516 169.698135,145.482533 169.698135,150.499868 C169.698135,155.517202 165.580323,159.584915 160.5,159.584915 C155.420021,159.584915 151.301865,155.517202 151.301865,150.499868 C151.301865,145.482533 155.420021,141.41516 160.5,141.41516 Z M142,155.407604 C142,155.407604 143.86058,162.144808 146.341123,163.574004 C146.341123,163.574004 153.1621,159.546794 155.435874,169.216251 C155.435874,169.216251 161.016923,170.979687 165.357702,169.216251 C165.357702,169.216251 164.944163,157.653339 174.246028,163.777884 C174.246028,163.777884 178.380037,158.061778 179,155.203385 C179,155.203385 170.731638,149.487279 179,145.200029 C179,145.200029 176.932996,138.667045 173.62572,136.82941 C173.62572,136.82941 165.352188,140.096242 165.354945,131.725963 C165.354945,131.725963 161.223693,130.092547 155.435874,131.725963 C155.435874,131.725963 156.469376,138.870925 146.754317,137.033629 C146.754317,137.033629 142.827077,139.892023 142,144.99581 C142,144.99581 148.821321,147.649643 142,155.407604 Z" id="Stroke-355" stroke="#03366C" stroke-width="2" stroke-linecap="round" stroke-linejoin="round"></path>
                <path d="M679,119.744961 C682.844248,119.744961 685.961207,122.769236 685.961207,126.500309 C685.961207,130.230728 682.844248,133.255657 679,133.255657 C675.155752,133.255657 672.038793,130.230728 672.038793,126.500309 C672.038793,122.769236 675.155752,119.744961 679,119.744961 Z M665,130.149212 C665,130.149212 666.407691,135.159006 668.28495,136.221659 C668.28495,136.221659 673.446822,133.227503 675.167896,140.417276 C675.167896,140.417276 679.390969,141.728406 682.675919,140.417276 C682.675919,140.417276 682.363211,131.819471 689.402342,136.373561 C689.402342,136.373561 692.530432,132.122946 693,129.997638 C693,129.997638 686.743145,125.747023 693,122.559062 C693,122.559062 691.435449,117.701497 688.932774,116.335041 C688.932774,116.335041 682.671871,118.764151 682.673895,112.539802 C682.673895,112.539802 679.547492,111.325247 675.167896,112.539802 C675.167896,112.539802 675.949834,117.853071 668.597658,116.486942 C668.597658,116.486942 665.625753,118.61225 665,122.407488 C665,122.407488 670.161872,124.380567 665,130.149212 Z" id="Stroke-356" stroke="#03366C" stroke-width="2" stroke-linecap="round" stroke-linejoin="round"></path>
                <path d="M73.5,97.5 L75,99" id="Line-11" stroke="#979797" stroke-linecap="square"></path>
                <path d="M321,30.9505208 L321,9.56921061 C321.13298,2.91933531 326.907755,-0.26467091 338.324326,0.0171919356 C349.740896,0.299054782 440.083499,0.439986205 609.352134,0.439986205 C617.015716,-0.102860758 621.03959,2.94021404 621.423754,9.56921061 C621.807918,16.1982072 622,34.675137 622,65" id="Path-3" stroke="#03366C" stroke-width="2"></path>
                <path d="M159.700545,122 L159.700545,83.9705637 C156.917622,69.8852968 162.426089,62.5355528 176.225944,61.9213317 C190.025799,61.3071106 228.283818,61 291,61" id="Path-2" stroke="#03366C" stroke-width="2"></path>
            </g>
        </g>
    </g>
</svg>