
<svg width="56px" height="60px" viewBox="0 0 56 60" version="1.1" xmlns="http://www.w3.org/2000/svg" xmlns:xlink="http://www.w3.org/1999/xlink">
    <!-- Generator: Sketch 48.2 (47327) - http://www.bohemiancoding.com/sketch -->
    <desc>Created with Sketch.</desc>
    <defs></defs>
    <g id="Page-1" stroke="none" stroke-width="1" fill="none" fill-rule="evenodd">
        <g id="Version-1" transform="translate(-147.000000, -3030.000000)">
            <g id="Section-IV" transform="translate(0.000000, 2622.000000)">
                <g id="Features" transform="translate(147.000000, 115.000000)">
                    <g id="Icons" transform="translate(0.000000, 109.000000)">
                        <g id="Customissable-Workflow" transform="translate(1.000000, 185.000000)">
                            <path d="M18.7847837,2.64399706 L14.0807537,5.35979994 L14.1059667,5.35979994 L11.876415,6.64566422 L6.18907709,9.93056105 C6.18907709,9.93056105 3.23555141,11.6162318 1.64713087,14.3140254 C-0.0997715038,17.2783567 0.00108060407,22.4470267 0.00108060407,22.4470267 L0.00108060407,26.365851 L0.00108060407,27.8786325 L0.00108060407,29.7479981 L0.00108060407,31.6425768 L0.00108060407,35.179604 C0.00108060407,35.179604 -0.0997715038,40.3518758 1.64713092,43.3162071 C3.23555147,46.0140007 6.18907715,47.6996714 6.18907715,47.6996714 L11.102015,50.5343358 L11.1236262,50.5667525 L16.7137138,53.7940196 L16.7209175,53.7940196 L18.7847837,54.9826336 C18.7847837,54.9826336 23.2114703,57.658816 26.6548491,57.6263993 C29.784866,57.5939825 32.7167805,55.8830987 32.7167805,55.8830987 L34.6617852,54.7629201 L34.6833964,54.7629201 L46.8865002,47.7140789 C46.8865002,47.7140789 49.8400258,46.0284081 51.4320482,43.3306145 C53.1789506,40.3662832 53.0744967,35.1940114 53.0744967,35.1940114 L53.0744966,28.3396706 L53.1033115,28.382893 L53.1033115,20.6388926 C53.1033115,20.6388926 53.117719,17.2387362 51.5797245,14.5121277 C49.8832482,11.5153797 45.3521075,9.01929032 45.3521075,9.01929032 L40.6480776,6.30348744 L40.6660869,6.33950602 L39.4090375,5.61553206 L39.423445,5.61553206 L32.7167805,1.74353189 C32.7167805,1.74353189 29.7848659,0.029046228 26.6548491,0.000231340039 C23.2114703,-0.0285834917 18.7847837,2.64399706 18.7847837,2.64399706 Z" id="Shape" stroke="#4A90E2" stroke-width="2" fill="#FFFFFF" fill-rule="nonzero"></path>
                            <g id="settings.svg" transform="translate(13.000000, 15.000000)">
                                <ellipse id="Oval" stroke="#4A90E2" stroke-width="1.5" cx="8.11588235" cy="4.2" rx="3.35117647" ry="3.54117647"></ellipse>
                                <ellipse id="Oval" stroke="#4A90E2" stroke-width="1.5" cx="8.11588235" cy="23.9647059" rx="3.35117647" ry="3.54117647"></ellipse>
                                <ellipse id="Oval" stroke="#4A90E2" stroke-width="1.5" cx="19.2970588" cy="14.0823529" rx="3.41470588" ry="3.54117647"></ellipse>
                                <rect id="Rectangle-path" fill="#5194E4" fill-rule="nonzero" x="0" y="3.29411765" width="4.76470588" height="1.64705882"></rect>
                                <rect id="Rectangle-path" fill="#5194E4" fill-rule="nonzero" x="14.2941176" y="3.29411765" width="12.7058824" height="1.64705882"></rect>
                                <rect id="Rectangle-path" fill="#5194E4" fill-rule="nonzero" x="0" y="13.1764706" width="12.7058824" height="1.64705882"></rect>
                                <rect id="Rectangle-path" fill="#5194E4" fill-rule="nonzero" x="22.2352941" y="13.1764706" width="4.76470588" height="1.64705882"></rect>
                                <rect id="Rectangle-path" fill="#5194E4" fill-rule="nonzero" x="0" y="23.0588235" width="4.76470588" height="1.64705882"></rect>
                                <rect id="Rectangle-path" fill="#5194E4" fill-rule="nonzero" x="14.2941176" y="23.0588235" width="12.7058824" height="1.64705882"></rect>
                            </g>
                        </g>
                    </g>
                </g>
            </g>
        </g>
    </g>
</svg>