
<svg width="56px" height="60px" viewBox="0 0 56 60" version="1.1" xmlns="http://www.w3.org/2000/svg" xmlns:xlink="http://www.w3.org/1999/xlink">
    <!-- Generator: Sketch 48.2 (47327) - http://www.bohemiancoding.com/sketch -->
    <desc>Created with Sketch.</desc>
    <defs></defs>
    <g id="Page-1" stroke="none" stroke-width="1" fill="none" fill-rule="evenodd">
        <g id="Version-1" transform="translate(-586.000000, -2846.000000)" fill-rule="nonzero">
            <g id="Section-IV" transform="translate(0.000000, 2622.000000)">
                <g id="Features" transform="translate(147.000000, 115.000000)">
                    <g id="Icons" transform="translate(0.000000, 109.000000)">
                        <g id="Early-Conflict-Detection'" transform="translate(440.000000, 1.000000)">
                            <g id="Conflict">
                                <path d="M18.7847837,2.64399706 L14.0807537,5.35979994 L14.1059667,5.35979994 L11.876415,6.64566422 L6.18907709,9.93056105 C6.18907709,9.93056105 3.23555141,11.6162318 1.64713087,14.3140254 C-0.0997715038,17.2783567 0.00108060407,22.4470267 0.00108060407,22.4470267 L0.00108060407,26.365851 L0.00108060407,27.8786325 L0.00108060407,29.7479981 L0.00108060407,31.6425768 L0.00108060407,35.179604 C0.00108060407,35.179604 -0.0997715038,40.3518758 1.64713092,43.3162071 C3.23555147,46.0140007 6.18907715,47.6996714 6.18907715,47.6996714 L11.102015,50.5343358 L11.1236262,50.5667525 L16.7137138,53.7940196 L16.7209175,53.7940196 L18.7847837,54.9826336 C18.7847837,54.9826336 23.2114703,57.658816 26.6548491,57.6263993 C29.784866,57.5939825 32.7167805,55.8830987 32.7167805,55.8830987 L34.6617852,54.7629201 L34.6833964,54.7629201 L46.8865002,47.7140789 C46.8865002,47.7140789 49.8400258,46.0284081 51.4320482,43.3306145 C53.1789506,40.3662832 53.0744967,35.1940114 53.0744967,35.1940114 L53.0744966,28.3396706 L53.1033115,28.382893 L53.1033115,20.6388926 C53.1033115,20.6388926 53.117719,17.2387362 51.5797245,14.5121277 C49.8832482,11.5153797 45.3521075,9.01929032 45.3521075,9.01929032 L40.6480776,6.30348744 L40.6660869,6.33950602 L39.4090375,5.61553206 L39.423445,5.61553206 L32.7167805,1.74353189 C32.7167805,1.74353189 29.7848659,0.029046228 26.6548491,0.000231340039 C23.2114703,-0.0285834917 18.7847837,2.64399706 18.7847837,2.64399706 Z" id="Shape" stroke="#AB7BD5" stroke-width="2" fill="#FFFFFF"></path>
                                <path d="M26.8779296,15 L16.5899542,32.2307692 L24.3634699,32.2307692 L20.8176557,43 L25.6761031,43 L35.7254173,25.7692308 L27.9092841,25.7692308 L31.4550983,15 L29.9549462,15 L26.8779296,15 Z M13.54277,15.0462741 L12,16.5691105 L16.9095889,21.4152644 L18.4523589,19.8924279 L17.0885842,18.5462741 L13.54277,15.0462741 Z M38.4572282,15.0462741 L33.5476393,19.8924279 L35.0904111,21.4152644 L40,16.5691105 L38.4572282,15.0462741 Z M28.1223738,17.1538462 L28.454794,17.1538462 L24.9089798,27.9230769 L31.9494656,27.9230769 L24.4146115,40.8461538 L23.81796,40.8461538 L27.3637743,30.0769231 L20.4085233,30.0769231 L28.1223738,17.1538462 Z M16.9095889,36.5847348 L12,41.4308886 L13.54277,42.9537268 L18.4523589,38.1075729 L16.9095889,36.5847348 Z M35.0904111,36.5847348 L33.5476393,38.1075729 L34.911414,39.4537268 L38.4572282,42.9537268 L40,41.4308886 L36.4541858,37.9308886 L35.0904111,36.5847348 Z" id="Shape" fill="#AB7BD5"></path>
                            </g>
                        </g>
                    </g>
                </g>
            </g>
        </g>
    </g>
</svg>