
<svg width="56px" height="60px" viewBox="0 0 56 60" version="1.1" xmlns="http://www.w3.org/2000/svg" xmlns:xlink="http://www.w3.org/1999/xlink">
    <!-- Generator: Sketch 48.2 (47327) - http://www.bohemiancoding.com/sketch -->
    <desc>Created with Sketch.</desc>
    <defs></defs>
    <g id="Page-1" stroke="none" stroke-width="1" fill="none" fill-rule="evenodd">
        <g id="Version-1" transform="translate(-1009.000000, -2846.000000)" fill-rule="nonzero">
            <g id="Section-IV" transform="translate(0.000000, 2622.000000)">
                <g id="Features" transform="translate(147.000000, 115.000000)">
                    <g id="Icons" transform="translate(0.000000, 109.000000)">
                        <g id="Extendable" transform="translate(863.000000, 1.000000)">
                            <path d="M18.7847837,2.64399706 L14.0807537,5.35979994 L14.1059667,5.35979994 L11.876415,6.64566422 L6.18907709,9.93056105 C6.18907709,9.93056105 3.23555141,11.6162318 1.64713087,14.3140254 C-0.0997715038,17.2783567 0.00108060407,22.4470267 0.00108060407,22.4470267 L0.00108060407,26.365851 L0.00108060407,27.8786325 L0.00108060407,29.7479981 L0.00108060407,31.6425768 L0.00108060407,35.179604 C0.00108060407,35.179604 -0.0997715038,40.3518758 1.64713092,43.3162071 C3.23555147,46.0140007 6.18907715,47.6996714 6.18907715,47.6996714 L11.102015,50.5343358 L11.1236262,50.5667525 L16.7137138,53.7940196 L16.7209175,53.7940196 L18.7847837,54.9826336 C18.7847837,54.9826336 23.2114703,57.658816 26.6548491,57.6263993 C29.784866,57.5939825 32.7167805,55.8830987 32.7167805,55.8830987 L34.6617852,54.7629201 L34.6833964,54.7629201 L46.8865002,47.7140789 C46.8865002,47.7140789 49.8400258,46.0284081 51.4320482,43.3306145 C53.1789506,40.3662832 53.0744967,35.1940114 53.0744967,35.1940114 L53.0744966,28.3396706 L53.1033115,28.382893 L53.1033115,20.6388926 C53.1033115,20.6388926 53.117719,17.2387362 51.5797245,14.5121277 C49.8832482,11.5153797 45.3521075,9.01929032 45.3521075,9.01929032 L40.6480776,6.30348744 L40.6660869,6.33950602 L39.4090375,5.61553206 L39.423445,5.61553206 L32.7167805,1.74353189 C32.7167805,1.74353189 29.7848659,0.029046228 26.6548491,0.000231340039 C23.2114703,-0.0285834917 18.7847837,2.64399706 18.7847837,2.64399706 Z" id="Shape" stroke="#DD5667" stroke-width="2" fill="#FFFFFF"></path>
                            <g id="expand" transform="translate(15.000000, 17.000000)" fill="#DD5667">
                                <polygon id="Shape" points="16.2675654 9.75602608 17.8867316 8.13685984 19.5058979 6.5176936 21.1250641 4.89852736 21.1961316 4.82819254 23.7750751 7.40713605 24 0 16.5921313 0.224924903 19.1718075 2.80386842 19.10074 2.87493589 17.4815737 4.49410213 15.8624075 6.11253572 14.2439739 7.73170196 14 7.97640853 16.0228588 10"></polygon>
                                <polygon id="Shape" points="8.13699634 6.11253572 6.51794872 4.49410213 4.8989011 2.87493589 4.82857143 2.80386842 7.40732601 0.224924903 0 0 0.224908425 7.40713605 2.8043956 4.82819254 2.87545788 4.89852736 4.49377289 6.5176936 6.11282051 8.13685984 7.73113553 9.75602608 7.97655678 10 10 7.97640853 9.75604396 7.73170196"></polygon>
                                <polygon id="Shape" points="21.1961316 18.1725401 21.1250641 18.1022053 19.5058979 16.4830391 17.8867316 14.8638728 16.2675654 13.2439739 16.0228588 13 14 15.0243241 14.2439739 15.268298 15.8624075 16.8874643 17.4815737 18.5066305 19.10074 20.1257968 19.1718075 20.1961316 16.5921313 22.7758078 24 23 23.7750751 15.5935966"></polygon>
                                <polygon id="Shape" points="7.73113553 13.2439739 6.11282051 14.8638728 4.49377289 16.4830391 2.87545788 18.1022053 2.8043956 18.1732728 0.224908425 15.5935966 0 23 7.40732601 22.7758078 4.82783883 20.1961316 4.8989011 20.1257968 6.51794872 18.5066305 8.13699634 16.8874643 9.75604396 15.268298 10 15.0243241 7.97655678 13"></polygon>
                            </g>
                        </g>
                    </g>
                </g>
            </g>
        </g>
    </g>
</svg>