
<svg width="243px" height="164px" viewBox="0 0 243 164" version="1.1" xmlns="http://www.w3.org/2000/svg" xmlns:xlink="http://www.w3.org/1999/xlink">
    <!-- Generator: Sketch 48.2 (47327) - http://www.bohemiancoding.com/sketch -->
    <desc>Created with Sketch.</desc>
    <defs>
        <path d="M18.7847837,2.64399706 L14.0807537,5.35979994 L14.1059667,5.35979994 L11.876415,6.64566422 L6.18907709,9.93056105 C6.18907709,9.93056105 3.23555141,11.6162318 1.64713087,14.3140254 C-0.0997715038,17.2783567 0.00108060407,22.4470267 0.00108060407,22.4470267 L0.00108060407,26.365851 L0.00108060407,27.8786325 L0.00108060407,29.7479981 L0.00108060407,31.6425768 L0.00108060407,35.179604 C0.00108060407,35.179604 -0.0997715038,40.3518758 1.64713092,43.3162071 C3.23555147,46.0140007 6.18907715,47.6996714 6.18907715,47.6996714 L11.102015,50.5343358 L11.1236262,50.5667525 L16.7137138,53.7940196 L16.7209175,53.7940196 L18.7847837,54.9826336 C18.7847837,54.9826336 23.2114703,57.658816 26.6548491,57.6263993 C29.784866,57.5939825 32.7167805,55.8830987 32.7167805,55.8830987 L34.6617852,54.7629201 L34.6833964,54.7629201 L46.8865002,47.7140789 C46.8865002,47.7140789 49.8400258,46.0284081 51.4320482,43.3306145 C53.1789506,40.3662832 53.0744967,35.1940114 53.0744967,35.1940114 L53.0744966,28.3396706 L53.1033115,28.382893 L53.1033115,20.6388926 C53.1033115,20.6388926 53.117719,17.2387362 51.5797245,14.5121277 C49.8832482,11.5153797 45.3521075,9.01929032 45.3521075,9.01929032 L40.6480776,6.30348744 L40.6660869,6.33950602 L39.4090375,5.61553206 L39.423445,5.61553206 L32.7167805,1.74353189 C32.7167805,1.74353189 29.7848659,0.029046228 26.6548491,0.000231340039 C23.2114703,-0.0285834917 18.7847837,2.64399706 18.7847837,2.64399706 Z" id="path-1"></path>
        <path d="M10.6122093,1.4682069 L7.95473125,2.97628744 L7.968975,2.97628744 L6.70941996,3.69032561 L3.49643535,5.51442302 C3.49643535,5.51442302 1.82788099,6.45047303 0.930524295,7.94855303 C-0.056364561,9.59464097 0.000610472645,12.4647943 0.000610472645,12.4647943 L0.000610472645,14.6409105 L0.000610472645,15.4809554 L0.000610472645,16.5190108 L0.000610472645,17.571067 L0.000610472645,19.535172 C0.000610472645,19.535172 -0.056364561,22.4073254 0.930524327,24.0534133 C1.82788102,25.5514934 3.49643538,26.4875433 3.49643538,26.4875433 L6.27193316,28.0616274 L6.28414208,28.0796284 L9.44218646,29.8717241 L9.44625609,29.8717241 L10.6122093,30.5317594 C10.6122093,30.5317594 13.1130061,32.0178387 15.0582963,31.9998378 C16.826557,31.9818368 18.4829024,31.0317861 18.4829024,31.0317861 L19.5817065,30.4097528 L19.5939154,30.4097528 L26.4878938,26.4955438 C26.4878938,26.4955438 28.1564482,25.5594938 29.0558397,24.0614138 C30.0427285,22.4153258 29.9837187,19.5431724 29.9837187,19.5431724 L29.9837187,15.7369691 L29.9999972,15.7609703 L29.9999972,11.4607406 C29.9999972,11.4607406 30.0081365,9.5726398 29.1392674,8.05855891 C28.180866,6.39447003 25.6210594,5.00839599 25.6210594,5.00839599 L22.9635814,3.50031544 L22.9737555,3.5203165 L22.2636025,3.11829504 L22.2717417,3.11829504 L18.4829024,0.968180182 C18.4829024,0.968180182 16.826557,0.0161293191 15.0582963,0.000128462715 C13.1130061,-0.0158723625 10.6122093,1.4682069 10.6122093,1.4682069 Z" id="path-2"></path>
    </defs>
    <g id="Page-1" stroke="none" stroke-width="1" fill="none" fill-rule="evenodd">
        <g id="New-Design" transform="translate(-1137.000000, -1546.000000)">
            <g id="Cloud-storage" transform="translate(461.000000, 1382.000000)">
                <g id="cloud" transform="translate(677.000000, 165.000000)">
                    <path d="M224,105.782479 C224,116.732619 220.113281,126.081559 212.339843,133.829299 C204.566406,141.577039 195.186458,145.450909 184.2,145.450909 L71.4333333,145.450909 C58.6503471,145.450909 47.7157117,140.922785 38.629427,131.866538 C29.5431423,122.810291 25,111.911803 25,99.1710744 C25,90.0803926 27.4529514,81.7644848 32.3588542,74.223351 C37.2647571,66.6822172 43.7253473,61.0521927 51.7406251,57.3332775 C51.6024306,55.4049511 51.5333334,53.9242718 51.5333334,52.8912397 C51.5333334,38.2910538 56.7156251,25.8258007 67.0802084,15.4954804 C77.4447918,5.16516014 89.951389,-2.5690469e-15 104.6,0 C115.517361,0 125.415538,3.03022725 134.294531,9.09068176 C143.173524,15.1511363 149.651389,23.0710484 153.728125,32.8504182 C158.564931,28.5805526 164.3,26.4456198 170.933333,26.4456198 C178.257639,26.4456198 184.510938,29.0281998 189.693229,34.19336 C194.875521,39.3585201 197.466666,45.5911466 197.466667,52.8912395 C197.466667,58.0563997 196.050174,62.808347 193.217188,67.1470815 C202.130729,69.2131455 209.489583,73.8445724 215.29375,81.0413623 C221.097917,88.2381521 224,96.4851911 224,105.782479 L224,105.782479 Z" id="Shape" stroke="#14B18E" stroke-width="2" fill="#DFF7F2" fill-rule="nonzero"></path>
                    <path d="M0.5,88.5 L67.5671305,88.5" id="Line-27" stroke="#14B18E" stroke-width="3" stroke-linecap="square"></path>
                    <path d="M155.5,121.5 L239.648678,121.5" id="Line-29" stroke="#14B18E" stroke-width="3" stroke-linecap="square"></path>
                    <path d="M203.366044,91.5 L239.648678,91.5" id="Line-29" stroke="#14B18E" stroke-width="3" stroke-linecap="square" stroke-dasharray="7"></path>
                    <path d="M158.5,31.5 C154.476316,33.5368027 151.233918,36.0586677 148.772806,39.065595 C146.311695,42.0725222 144.444718,45.7931702 143.171875,50.2275391" id="Line-17" stroke="#14B18E" stroke-width="2" stroke-linecap="square" transform="translate(150.835938, 40.863770) rotate(-10.000000) translate(-150.835938, -40.863770) "></path>
                    <g id="hexagon" transform="translate(18.000000, 23.000000)" fill-rule="nonzero">
                        <g id="Shape">
                            <use fill="#FFFFFF" fill-rule="evenodd" xlink:href="#path-1"></use>
                            <path stroke="#14B18E" stroke-width="2" d="M18.276668,1.78265709 C18.4293909,1.69077425 18.6941358,1.53967322 19.0517286,1.34874099 C19.6547,1.0267919 20.3126776,0.705217538 21.0060033,0.404551516 C22.2044448,-0.115161919 23.3824222,-0.517907302 24.5029027,-0.75785098 C25.2652309,-0.921098648 25.9869961,-1.00539239 26.6640546,-0.999726288 C28.1574865,-0.985977777 29.6887783,-0.635435815 31.187952,-0.0623883965 C32.0994278,0.286016061 32.8048496,0.636605284 33.2167713,0.877501213 L38.2780892,3.7995832 L38.2646868,3.77277855 L41.1480679,5.43745645 L45.8346142,8.14339801 C45.896765,8.17763531 46.0059427,8.23981627 46.155522,8.32819819 C46.4006945,8.4730633 46.6728288,8.64055727 46.9653351,8.82898915 C47.8008298,9.36721288 48.6365423,9.96797006 49.4205143,10.6193286 C50.7460747,11.7206627 51.7905376,12.8546522 52.4507156,14.0208289 C52.7207032,14.4994721 52.9556685,15.0105164 53.1583459,15.5493501 C53.5749146,16.6568308 53.8395764,17.8313644 53.9856667,19.0054907 C54.074379,19.7184696 54.1040286,20.2862632 54.103313,20.6395284 C54.1033083,20.6411756 54.1033094,20.6404146 54.1033115,20.6388926 L54.1033115,31.6856686 L54.0743982,31.6422985 L54.0742928,35.1738205 C54.0745299,35.1859177 54.0745299,35.1859177 54.0750375,35.226649 C54.0798447,35.6845885 54.0644281,36.3209975 54.011731,37.0747084 C53.930073,38.2426394 53.7761763,39.4018952 53.5308667,40.4940174 C53.2402797,41.7877156 52.8366768,42.9167333 52.2932722,43.8388402 C51.7830374,44.7034687 51.1253257,45.5149262 50.3558594,46.2731352 C49.7092606,46.9102742 49.0197099,47.4753711 48.3296876,47.9645586 C47.912185,48.2605447 47.5821583,48.4684502 47.3866798,48.5800005 L34.9514568,55.7629201 L34.9291578,55.7629201 L33.2207835,56.7468007 C32.8033169,56.9904083 32.0966442,57.3409318 31.1837024,57.6892792 C29.6860919,58.2607162 28.1566686,58.610899 26.6642629,58.626355 C25.9877952,58.6327234 25.265796,58.548883 24.5032488,58.3858706 C23.381524,58.1460755 22.2022748,57.7427444 21.0026237,57.2219558 C20.3099523,56.9212555 19.6526582,56.5996451 19.050357,56.2776586 C18.6862466,56.0830075 18.4185134,55.9297438 18.285716,55.8491966 L16.453545,54.7940196 L16.445777,54.7940196 L10.4212261,51.3159284 L10.399689,51.2836227 L5.69339454,48.5681752 C5.49369936,48.4542028 5.16416942,48.2466041 4.74730817,47.9510546 C4.05835829,47.4625975 3.36988102,46.8983265 2.7242853,46.2620918 C1.95373471,45.5027142 1.29545406,44.689855 0.785600642,43.8239133 C0.242577281,42.902453 -0.161277595,41.7735668 -0.45237482,40.4799969 C-0.698664586,39.3855413 -0.853282066,38.2237583 -0.935477425,37.0535659 C-0.988410612,36.2999708 -1.00401331,35.6649084 -0.999408463,35.2100229 C-0.998946722,35.1716045 -0.998946722,35.1716045 -0.998919396,35.179604 L-0.998919396,26.365851 L-0.998729087,22.4665352 C-0.998946573,22.4550413 -0.998946573,22.4550413 -0.999408393,22.4166427 C-1.00401579,21.9618174 -0.988397121,21.3268237 -0.935413396,20.5733001 C-0.853137995,19.4031964 -0.698372233,18.2414971 -0.451846274,17.1471142 C-0.160779268,15.8550037 0.242922032,14.7271944 0.785403762,13.8066533 C1.29545401,12.9403775 1.95373466,12.1275184 2.72428524,11.3681407 C3.36988096,10.731906 4.05835823,10.167635 4.7473081,9.67917795 C5.16416936,9.38362839 5.49369929,9.17602969 5.68892742,9.06462208 L10.3719477,6.35979994 L10.3486195,6.35979994 L18.276668,1.78265709 Z M54.103313,20.6395284 C54.1033126,20.6397402 54.1033121,20.639952 54.1033117,20.6401637 C54.1033095,20.6410501 54.1033084,20.6414933 54.1033083,20.6413345 Z"></path>
                        </g>
                    </g>
                    <g id="hexagon-copy-4" transform="translate(48.000000, 129.000000)" fill-rule="nonzero">
                        <g id="Shape">
                            <use fill="#FFFFFF" fill-rule="evenodd" xlink:href="#path-2"></use>
                            <path stroke="#14B18E" stroke-width="2" d="M10.1108002,0.602949391 C10.2036065,0.548184662 10.358212,0.461546284 10.5643885,0.353339064 C10.9147391,0.169465207 11.2967206,-0.014036212 11.6997002,-0.18580996 C12.4005581,-0.484557104 13.0915476,-0.716772865 13.7549023,-0.856402474 C14.213841,-0.953004535 14.6515445,-1.00325107 15.0673448,-0.999830598 C15.9671511,-0.99168832 16.8791202,-0.786482881 17.7692174,-0.452054814 C18.3080574,-0.249601419 18.7269431,-0.0449701855 18.9764545,0.0984639701 L20.571679,1.0037322 L20.5641083,0.988849058 L23.457133,2.63059893 L26.097213,4.12903385 C26.2372328,4.20485123 26.4684964,4.33916667 26.7614625,4.5246749 C27.2472535,4.83228122 27.7332869,5.17570861 28.1909618,5.54947766 C28.9776593,6.19194938 29.6018915,6.85812521 30.006601,7.56083161 C30.1711481,7.84756946 30.3137196,8.15236894 30.4362734,8.47262927 C30.8630826,9.58797631 31.0015875,10.6813322 30.9999981,11.4615858 C30.9999937,11.463113 30.9999949,11.4623222 30.9999972,11.4607406 L30.9999972,19.0169183 L30.9835372,18.9926496 L30.9835077,19.5226312 C30.9836831,19.53153 30.9836831,19.53153 30.9839983,19.5564458 C30.9868386,19.8224002 30.97783,20.1879367 30.9471156,20.619741 C30.8994493,21.2898679 30.8094913,21.9559328 30.6652064,22.5873324 C30.4912865,23.3484164 30.2476891,24.0182174 29.9131953,24.5761382 C29.6034044,25.0921445 29.2077214,25.571993 28.7470697,26.0181613 C28.0897033,26.6548593 27.4368871,27.1097738 26.9816339,27.3651533 L19.8580027,31.4097528 L19.8451104,31.4097528 L18.9804492,31.8992232 C18.7257655,32.0453053 18.3062074,32.2498638 17.7665827,32.4522534 C16.8775683,32.7856836 15.9668835,32.9906401 15.0675495,32.999795 C14.6523302,33.0036372 14.2143971,32.953651 13.7552432,32.8571706 C13.0910652,32.7176093 12.3992651,32.485034 11.69764,32.1856433 C11.2950145,32.0138388 10.9134051,31.830305 10.5634204,31.6463974 C10.3506947,31.5346157 10.1929256,31.4458418 10.1195762,31.4019965 L9.18284932,30.8717241 L9.17822138,30.8717241 L5.58757121,28.8341375 L5.57543614,28.8162454 L3.00717182,27.3596793 C2.54807584,27.102129 1.89622016,26.647856 1.23981888,26.0120087 C0.778465672,25.565102 0.382388125,25.084361 0.0728558603,24.5676164 C-0.261248158,24.0103454 -0.504977343,23.3406781 -0.679189943,22.5797247 C-0.824042565,21.9470145 -0.91441623,21.2795395 -0.962393813,20.6081492 C-0.993245442,20.1764167 -1.0023632,19.8116366 -0.999641735,19.5473863 C-0.999489633,19.5349219 -0.999418023,19.5290536 -0.999389527,19.5279713 L-0.999389527,14.6409105 L-0.999192557,12.4846413 C-0.99935416,12.4761466 -0.99935416,12.4761466 -0.999641662,12.4526025 C-1.00236477,12.1883741 -0.993237343,11.82362 -0.962355225,11.3919139 C-0.914329314,10.7205521 -0.823865866,10.0531022 -0.678868795,9.42040989 C-0.504670059,8.66029659 -0.261028791,7.99125506 0.072654838,7.43468535 C0.382388097,6.91760534 0.778465642,6.43686438 1.23981885,5.98995764 C1.89622012,5.35411042 2.5480758,4.89983741 3.00272511,4.64479655 L4.18024431,3.97628744 L4.16644139,3.97628744 L10.1108002,0.602949391 Z"></path>
                        </g>
                    </g>
                    <g id="lock" transform="translate(31.000000, 35.000000)" fill="#14B18E" fill-rule="nonzero">
                        <path d="M22.8,12.0833333 L19.2,12.0833333 L19.2,7.25 C19.2,3.23229167 15.99,0 12,0 C8.01,0 4.8,3.23229167 4.8,7.25 L4.8,12.0833333 L1.2,12.0833333 C0.54,12.0833333 0,12.6270833 0,13.2916667 L0,27.7916667 C0,28.45625 0.54,29 1.2,29 L22.8,29 C23.46,29 24,28.45625 24,27.7916667 L24,13.2916667 C24,12.6270833 23.46,12.0833333 22.8,12.0833333 Z M12,22.9583333 C10.68,22.9583333 9.6,21.8708333 9.6,20.5416667 C9.6,19.2125 10.68,18.125 12,18.125 C13.32,18.125 14.4,19.2125 14.4,20.5416667 C14.4,21.8708333 13.32,22.9583333 12,22.9583333 Z M16.8,12.0833333 L7.2,12.0833333 L7.2,7.25 C7.2,4.59166667 9.36,2.41666667 12,2.41666667 C14.64,2.41666667 16.8,4.59166667 16.8,7.25 L16.8,12.0833333 Z" id="Shape"></path>
                    </g>
                    <g id="sync" transform="translate(85.000000, 63.000000)" fill="#14B18E" fill-rule="nonzero">
                        <path d="M58.5121592,19.6095969 C57.9374704,19.0349081 57.0032328,19.0349081 56.428544,19.6095969 L53.0423009,22.99584 C52.8919977,16.9247688 50.4547278,11.2368234 46.1430884,6.92813112 C41.6899871,2.47502985 35.7692191,0.0230243902 29.4712195,0.0230243902 C20.7064788,0.0230243902 12.7138841,4.84156878 8.61443746,12.5954466 C8.23425873,13.3145444 8.50834107,14.2075223 9.22743883,14.5877011 C9.94653659,14.9678798 10.8395145,14.6937975 11.2196933,13.9746997 C14.8063407,7.18747785 21.7998611,2.97014634 29.4712195,2.97014634 C40.6378646,2.97014634 49.7621541,11.8910845 50.0922318,22.9781573 L46.7236714,19.6095969 C46.1489826,19.0349081 45.214745,19.0349081 44.6400562,19.6095969 C44.0653674,20.1842857 44.0653674,21.1185233 44.6400562,21.6932121 L50.5343001,27.587456 C50.823118,27.876274 51.2003497,28.0177358 51.5775813,28.0177358 C51.9548129,28.0177358 52.3320445,27.8733268 52.6208624,27.587456 L58.5151063,21.6932121 C59.0897951,21.1185233 59.0897951,20.1842857 58.5151063,19.6095969 L58.5121592,19.6095969 Z" id="Shape"></path>
                        <path d="M49.7150002,32.6122989 C48.9959024,32.2321202 48.1029245,32.5062025 47.7227458,33.2253003 C44.1360983,40.0125221 37.142578,44.2298537 29.4712195,44.2298537 C18.3045744,44.2298537 9.18028488,35.3089155 8.85020722,24.2218427 L12.2187676,27.5904031 C12.5075856,27.8792211 12.8848172,28.0206829 13.2620488,28.0206829 C13.6392804,28.0206829 14.016512,27.876274 14.30533,27.5904031 C14.8800187,27.0157143 14.8800187,26.0814767 14.30533,25.5067879 L8.41108605,19.612544 C7.83639727,19.0378552 6.90215961,19.0378552 6.32747083,19.612544 L0.433226927,25.5067879 C-0.141461854,26.0814767 -0.141461854,27.0157143 0.433226927,27.5904031 C1.00791571,28.1650919 1.94215337,28.1650919 2.51684215,27.5904031 L5.90308527,24.20416 C6.05338849,30.2752312 8.49065834,35.9631766 12.8022978,40.2718689 C17.255399,44.7249701 23.176167,47.1769756 29.4741666,47.1769756 C38.2389073,47.1769756 46.231502,42.3584312 50.3309487,34.6045534 C50.7111274,33.8854556 50.4370451,32.9924777 49.7179473,32.6122989 L49.7150002,32.6122989 Z" id="Shape"></path>
                    </g>
                </g>
            </g>
        </g>
    </g>
</svg>