
<svg width="162px" height="165px" viewBox="0 0 162 165" version="1.1" xmlns="http://www.w3.org/2000/svg" xmlns:xlink="http://www.w3.org/1999/xlink">
    <!-- Generator: Sketch 48.2 (47327) - http://www.bohemiancoding.com/sketch -->
    <desc>Created with Sketch.</desc>
    <defs>
        <path d="M18.7982172,2.643997 L14.0941872,5.35979989 L14.1194002,5.35979989 L11.8898485,6.64566416 L6.20251058,9.930561 C6.20251058,9.930561 3.2489849,11.6162318 1.66056436,14.3140253 C-0.0863380147,17.2783566 0.0145140933,22.4470267 0.0145140933,22.4470267 L0.0145140933,26.365851 L0.0145140933,27.8786324 L0.0145140933,29.7479981 L0.0145140933,31.6425768 L0.0145140933,35.1796039 C0.0145140933,35.1796039 -0.0863380147,40.3518757 1.66056441,43.316207 C3.24898496,46.0140007 6.20251064,47.6996714 6.20251064,47.6996714 L11.1154485,50.5343357 L11.1370597,50.5667525 L16.7271473,53.7940196 L16.734351,53.7940196 L18.7982172,54.9826336 C18.7982172,54.9826336 23.2249038,57.658816 26.6682826,57.6263992 C29.7982995,57.5939825 32.730214,55.8830987 32.730214,55.8830987 L34.6752187,54.76292 L34.6968299,54.76292 L46.8999336,47.7140788 C46.8999336,47.7140788 49.8534593,46.0284081 51.4454817,43.3306145 C53.1923841,40.3662832 53.0879302,35.1940114 53.0879302,35.1940114 L53.0879301,28.3396706 L53.116745,28.3828929 L53.116745,20.6388926 C53.116745,20.6388926 53.1311525,17.2387362 51.593158,14.5121277 C49.8966817,11.5153797 45.365541,9.01929027 45.365541,9.01929027 L40.6615111,6.30348738 L40.6795204,6.33950596 L39.422471,5.615532 L39.4368784,5.615532 L32.730214,1.74353184 C32.730214,1.74353184 29.7982994,0.0290461736 26.6682825,0.000231285619 C23.2249038,-0.0285835461 18.7982172,2.643997 18.7982172,2.643997 Z" id="path-1"></path>
    </defs>
    <g id="Page-1" stroke="none" stroke-width="1" fill="none" fill-rule="evenodd">
        <g id="New-Design" transform="translate(-1175.000000, -2040.000000)">
            <g id="Conflicts" transform="translate(1177.000000, 2042.000000)">
                <circle id="Oval-8" stroke="#F57BA1" stroke-width="3" fill="#F9C7D6" cx="80" cy="78" r="78"></circle>
                <path d="M3.5,77.5 L157.503247,77.5" id="Line-34" stroke="#FFFFFF" stroke-linecap="square"></path>
                <path d="M80.734375,77.5546875 L148.417969,40.359375 C152.605373,48.6485762 155.329332,56.1127689 156.589844,62.7519531 C157.850356,69.3911374 157.817804,76.1027259 156.492188,82.8867188 L80.734375,77.5546875 Z" id="Path" fill-opacity="0.590862772" fill="#EF97C2"></path>
                <circle id="Oval-7" stroke="#F5FDFB" cx="81" cy="78" r="18"></circle>
                <path d="M79.5,1.5 L79.5,155.551939" id="Line-33" stroke="#FFFFFF" stroke-linecap="square"></path>
                <path d="M80.5,77.5 L156.5,83.5" id="Line-32" stroke="#F34A7F" stroke-width="3" stroke-linecap="square"></path>
                <circle id="Oval-8" stroke="#F2FDFA" cx="80" cy="78" r="48.5"></circle>
                <g id="add-cell" transform="translate(0.000000, 1.000000)" fill-rule="nonzero">
                    <g id="hexagon">
                        <g id="Shape">
                            <use fill="#FFFFFF" fill-rule="evenodd" xlink:href="#path-1"></use>
                            <path stroke="#F387A8" stroke-width="2" d="M18.2901015,1.78265704 C18.4428244,1.69077419 18.7075693,1.53967317 19.0651621,1.34874094 C19.6681335,1.02679184 20.3261111,0.705217484 21.0194367,0.404551462 C22.2178783,-0.115161973 23.3958557,-0.517907356 24.5163362,-0.757851035 C25.2786643,-0.921098702 26.0004296,-1.00539244 26.6774881,-0.999726342 C28.17092,-0.985977831 29.7022118,-0.63543587 31.2013855,-0.062388451 C32.1128613,0.286016007 32.8182831,0.636605229 33.2302048,0.877501159 L38.2915227,3.79958315 L38.2781203,3.77277849 L41.1615014,5.43745639 L45.8480476,8.14339796 C45.9101985,8.17763526 46.0193762,8.23981622 46.1689554,8.32819814 C46.414128,8.47306324 46.6862622,8.64055722 46.9787686,8.8289891 C47.8142633,9.36721283 48.6499758,9.96797 49.4339478,10.6193286 C50.7595082,11.7206627 51.8039711,12.8546521 52.4641491,14.0208289 C52.7341367,14.499472 52.969102,15.0105164 53.1717793,15.54935 C53.588348,16.6568308 53.8530098,17.8313644 53.9991002,19.0054907 C54.0878125,19.7184695 54.1174621,20.2862632 54.1167465,20.6395283 C54.1167418,20.6411755 54.1167429,20.6404145 54.116745,20.6388926 L54.116745,31.6856685 L54.0878316,31.6422985 L54.0877263,35.1738205 C54.0879634,35.1859177 54.0879634,35.1859177 54.088471,35.2266489 C54.0932782,35.6845885 54.0778616,36.3209975 54.0251645,37.0747083 C53.9435065,38.2426394 53.7896098,39.4018951 53.5443002,40.4940174 C53.2537132,41.7877155 52.8501103,42.9167333 52.3067057,43.8388401 C51.7964709,44.7034687 51.1387592,45.5149262 50.3692929,46.2731352 C49.7226941,46.9102742 49.0331434,47.475371 48.3431211,47.9645585 C47.9256185,48.2605447 47.5955918,48.4684502 47.4001133,48.5800005 L34.9648902,55.76292 L34.9425913,55.76292 L33.234217,56.7468006 C32.8167504,56.9904083 32.1100777,57.3409318 31.1971359,57.6892792 C29.6995254,58.2607162 28.1701021,58.6108989 26.6776964,58.6263549 C26.0012287,58.6327233 25.2792295,58.548883 24.5166823,58.3858706 C23.3949575,58.1460755 22.2157083,57.7427444 21.0160572,57.2219557 C20.3233858,56.9212555 19.6660917,56.599645 19.0637905,56.2776586 C18.6996801,56.0830074 18.4319469,55.9297437 18.2991495,55.8491966 L16.4669785,54.7940196 L16.4592105,54.7940196 L10.4346596,51.3159283 L10.4131225,51.2836227 L5.70682803,48.5681751 C5.50713285,48.4542028 5.17760291,48.2466041 4.76074165,47.9510545 C4.07179178,47.4625974 3.38331451,46.8983264 2.73771879,46.2620918 C1.9671682,45.5027141 1.30888755,44.6898549 0.799034131,43.8239132 C0.25601077,42.902453 -0.147844105,41.7735667 -0.438941331,40.4799969 C-0.685231097,39.3855412 -0.839848577,38.2237582 -0.922043936,37.0535658 C-0.974977123,36.2999708 -0.990579825,35.6649083 -0.985974974,35.2100228 C-0.985513233,35.1716044 -0.985513233,35.1716044 -0.985485907,35.1796039 L-0.985485907,26.365851 L-0.985295598,22.4665351 C-0.985513084,22.4550413 -0.985513084,22.4550413 -0.985974904,22.4166426 C-0.990582304,21.9618174 -0.974963631,21.3268236 -0.921979907,20.5733001 C-0.839704505,19.4031963 -0.684938744,18.241497 -0.438412784,17.1471141 C-0.147345778,15.8550037 0.256355521,14.7271943 0.798837251,13.8066533 C1.3088875,12.9403775 1.96716815,12.1275183 2.73771873,11.3681406 C3.38331445,10.731906 4.07179172,10.167635 4.76074159,9.6791779 C5.17760285,9.38362833 5.50713278,9.17602964 5.70236091,9.06462202 L10.3853812,6.35979989 L10.3620529,6.35979989 L18.2901015,1.78265704 Z M54.1167465,20.6395283 C54.1167461,20.6397402 54.1167456,20.6399519 54.1167452,20.6401636 C54.116743,20.6410501 54.1167418,20.6414933 54.1167418,20.6413344 Z"></path>
                        </g>
                    </g>
                    <g id="excl-round" transform="translate(12.000000, 14.000000)" fill="#DD5667">
                        <path d="M15,2.14285714 C22.0982143,2.14285714 27.8571429,7.90178571 27.8571429,15 C27.8571429,22.0982143 22.0982143,27.8571429 15,27.8571429 C7.90178571,27.8571429 2.14285714,22.0982143 2.14285714,15 C2.14285714,7.90178571 7.90178571,2.14285714 15,2.14285714 Z M15,0 C6.72321429,0 0,6.72321429 0,15 C0,23.2767857 6.72321429,30 15,30 C23.2767857,30 30,23.2767857 30,15 C30,6.72321429 23.2767857,0 15,0 Z" id="Shape"></path>
                        <path d="M13.9285714,21.4285714 L16.0714286,21.4285714 L16.0714286,23.5714286 L13.9285714,23.5714286 L13.9285714,21.4285714 Z M13.9285714,6.42857143 L16.0714286,6.42857143 L16.0714286,19.2857143 L13.9285714,19.2857143 L13.9285714,6.42857143 Z" id="Shape"></path>
                    </g>
                </g>
                <g id="notifications-on" transform="translate(3.000000, 119.000000)" fill="#EA5E8A" fill-rule="nonzero">
                    <path d="M12.5333333,3.52000001 L9.4,0.440000034 C4.02857143,4.40000003 0.44761903,10.56 0,17.6 L4.47619046,17.6 C4.92380949,11.66 7.83333332,6.60000005 12.5333333,3.52000001 Z M42.5238095,17.6 L47,17.6 C46.552381,10.56 43.1952381,4.40000003 37.8238095,0.440000034 L34.6904762,3.52000001 C39.1666666,6.59999999 42.0761905,11.66 42.5238095,17.6 Z M38.047619,18.7 C38.047619,11.88 33.347619,6.38000003 26.8571429,4.84000001 L26.8571429,3.3 C26.8571429,1.54000002 25.2904762,0 23.5,0 C21.7095238,0 20.1428571,1.54000002 20.1428571,3.3 L20.1428571,4.84000001 C13.652381,6.38000003 8.95238097,11.88 8.95238092,18.7 L8.95238092,30.8 L4.47619046,35.2 L4.47619046,37.4 L42.5238095,37.4 L42.5238095,35.2 L38.047619,30.8 L38.047619,18.7 Z M23.5,44 L24.3952381,44 C25.9619047,43.78 27.0809523,42.68 27.5285714,41.36 C27.752381,40.92 27.9761905,40.26 27.9761905,39.6 L19.0238095,39.6 C19.0238095,42.0199999 21.0380952,43.9999999 23.5,44 Z" id="Shape"></path>
                </g>
            </g>
        </g>
    </g>
</svg>