
<svg width="200px" height="167px" viewBox="0 0 200 167" version="1.1" xmlns="http://www.w3.org/2000/svg" xmlns:xlink="http://www.w3.org/1999/xlink">
    <!-- Generator: Sketch 48.2 (47327) - http://www.bohemiancoding.com/sketch -->
    <desc>Created with Sketch.</desc>
    <defs>
        <path d="M17.3275389,2.49173559 L12.9884279,5.05114188 L13.0116849,5.05114188 L10.9550926,6.26295631 L5.70895444,9.3586838 C5.70895444,9.3586838 2.9845509,10.9472808 1.51935336,13.4897149 C-0.0920316489,16.2833375 0.000996775335,21.1543561 0.000996775335,21.1543561 L0.000996775335,24.8475047 L0.000996775335,26.2731687 L0.000996775335,28.0348821 L0.000996775335,29.8203565 L0.000996775335,33.1536947 C0.000996775335,33.1536947 -0.0920316489,38.0281078 1.51935341,40.8217304 C2.98455095,43.3641645 5.7089545,44.9527615 5.7089545,44.9527615 L10.2407673,47.6241842 L10.2607019,47.6547342 L15.417134,50.6961507 L15.4237789,50.6961507 L17.3275389,51.8163153 C17.3275389,51.8163153 21.4108218,54.3383828 24.5870777,54.3078328 C27.474281,54.2772828 30.1787499,52.6649247 30.1787499,52.6649247 L31.9728693,51.6092545 L31.9928039,51.6092545 L43.2492421,44.9663392 C43.2492421,44.9663392 45.9736456,43.3777422 47.4421656,40.8353081 C49.0535506,38.0416855 48.9571998,33.1672725 48.9571998,33.1672725 L48.9571997,26.7076568 L48.9837793,26.74839 L48.9837793,19.4503482 C48.9837793,19.4503482 48.9970691,16.2459987 47.5783858,13.676409 C46.0135149,10.8522366 41.8338812,8.49989096 41.8338812,8.49989096 L37.4947702,5.94048467 L37.5113824,5.97442903 L36.3518496,5.292147 L36.3651394,5.292147 L30.1787498,1.64312606 C30.1787498,1.64312606 27.4742809,0.0273735252 24.5870776,0.00021801772 C21.4108218,-0.0269374367 17.3275389,2.49173559 17.3275389,2.49173559 Z" id="path-1"></path>
        <path d="M9.41714071,1.3680117 L7.05892818,2.77317594 L7.0715679,2.77317594 L5.95385465,3.43848582 L3.10269263,5.13810091 C3.10269263,5.13810091 1.62203853,6.01027183 0.825735523,7.40611799 C-0.0500172005,8.93987155 0.000541725725,11.6141563 0.000541725725,11.6141563 L0.000541725725,13.6417673 L0.000541725725,14.4244848 L0.000541725725,15.3917 L0.000541725725,16.3719604 L0.000541725725,18.2020285 C0.000541725725,18.2020285 -0.0500172005,20.8781768 0.825735551,22.4119304 C1.62203856,23.8077766 3.10269266,24.6799475 3.10269266,24.6799475 L5.56563438,26.146611 L5.57646843,26.1633835 L8.37887717,27.8331808 L8.38248851,27.8331808 L9.41714071,28.4481731 C9.41714071,28.4481731 11.6363162,29.8328376 13.3625422,29.8160651 C14.9316744,29.7992925 16.4014945,28.9140763 16.4014945,28.9140763 L17.3765594,28.3344927 L17.3873934,28.3344927 L23.5050229,24.6874019 C23.5050229,24.6874019 24.985677,23.815231 25.7837857,22.4193848 C26.6595384,20.8856313 26.6071738,18.2094829 26.6071738,18.2094829 L26.6071738,14.6630273 L26.6216192,14.6853906 L26.6216192,10.6786225 C26.6216192,10.6786225 26.6288419,8.91937181 25.8578183,7.50861671 C25.0073451,5.95809066 22.735805,4.6666068 22.735805,4.6666068 L20.3775925,3.26144257 L20.3866209,3.28007868 L19.75644,2.90549247 L19.7636627,2.90549247 L16.4014945,0.902108427 C16.4014945,0.902108427 14.9316744,0.0150286021 13.3625422,0.000119696003 C11.6363162,-0.014789181 9.41714071,1.3680117 9.41714071,1.3680117 Z" id="path-2"></path>
    </defs>
    <g id="Page-1" stroke="none" stroke-width="1" fill="none" fill-rule="evenodd">
        <g id="New-Design" transform="translate(-177.000000, -2278.000000)">
            <g id="Collaborate-offline" transform="translate(121.000000, 2130.000000)">
                <g id="graphic" transform="translate(58.000000, 150.000000)">
                    <path d="M39.9324324,49.5162162 L20.7648649,88.9162162" id="Line-35" stroke="#A775D3" stroke-width="2" stroke-linecap="square"></path>
                    <path d="M68.6837838,22.8945946 L101.694595,15.4405405" id="Line-36" stroke="#A775D3" stroke-width="2" stroke-linecap="square"></path>
                    <path d="M120.862162,18.6351351 L144.289189,31.4135135" id="Line-37" stroke="#A775D3" stroke-width="2" stroke-linecap="square"></path>
                    <path d="M166.651351,62.2945946 L182.624324,133.640541" id="Line-38" stroke="#A775D3" stroke-width="2" stroke-linecap="square"></path>
                    <path d="M159.197297,62.2945946 L147.483784,104.889189" id="Line-39" stroke="#A775D3" stroke-width="2" stroke-linecap="square"></path>
                    <path d="M72.9432432,141.094595 L135.77027,120.862162" id="Line-40" stroke="#A775D3" stroke-width="2" stroke-linecap="square"></path>
                    <path d="M59.1,132.575676 L51.6459459,54.8405405" id="Line-41" stroke="#A775D3" stroke-width="2" stroke-linecap="square"></path>
                    <path d="M20.7648649,111.278378 L47.3864865,136.835135" id="Line-42" stroke="#A775D3" stroke-width="2" stroke-linecap="square"></path>
                    <path d="M25.0243243,93.1756757 L107.018919,21.8297297" id="Line-43" stroke="#A775D3" stroke-width="2" stroke-linecap="square"></path>
                    <path d="M26.0891892,105.954054 L170.910811,149.613514" id="Line-44" stroke="#A775D3" stroke-width="2" stroke-linecap="square"></path>
                    <path d="M174.105405,138.964865 L154.937838,122.991892" id="Line-45" stroke="#A775D3" stroke-width="2" stroke-linecap="square"></path>
                    <path d="M143.224324,42.0621622 L68.6837838,33.5432432" id="Line-47" stroke="#A775D3" stroke-width="2" stroke-linecap="square"></path>
                    <path d="M72.9432432,150.678378 L170.910811,150.678378" id="Line-48" stroke="#A775D3" stroke-width="2" stroke-linecap="square"></path>
                    <g id="code-cell" transform="translate(24.491892, 0.000000)" fill-rule="nonzero">
                        <g id="hexagon">
                            <g id="Shape">
                                <use fill="#E9DEF3" fill-rule="evenodd" xlink:href="#path-1"></use>
                                <path stroke="#A775D3" stroke-width="2" d="M16.8113535,1.63520667 C16.953497,1.5478592 17.1986826,1.4049086 17.5293521,1.2245259 C18.0874904,0.920057213 18.6964995,0.615965643 19.3383622,0.33158531 C20.4489538,-0.160467571 21.5411077,-0.5419616 22.5814939,-0.76958132 C23.2912565,-0.924865941 23.9640665,-1.00514497 24.5964827,-0.999737754 C25.9872325,-0.986657096 27.4104341,-0.653799265 28.8029423,-0.109989948 C29.6487014,0.220300156 30.3034956,0.552779633 30.6868007,0.78179899 L35.1432287,3.41040798 L35.1308662,3.38514719 L38.0028205,5.07915728 L42.3243486,7.62843141 C42.3823923,7.66109908 42.4838234,7.72011987 42.6225353,7.80385662 C42.8495644,7.94090812 43.1014725,8.09931292 43.3721874,8.27748585 C44.1453373,8.78633978 44.9186735,9.35430361 45.6443377,9.97028218 C46.8726151,11.0129028 47.8409749,12.0870481 48.4538224,13.1930761 C48.7041358,13.6464561 48.92186,14.1302628 49.1095975,14.6401932 C49.7701131,16.4342779 49.9862957,18.2087627 49.9837807,19.4509859 C49.9837762,19.4525866 49.9837772,19.4518405 49.9837793,19.4503482 L49.9837793,30.1108031 L49.9570978,30.0699136 L49.9570045,33.1475097 C49.9572263,33.1590821 49.9572263,33.1590821 49.9576967,33.1976486 C49.9621404,33.6301357 49.9478971,34.2308522 49.8992162,34.9422088 C49.8237735,36.0446258 49.6815799,37.1389352 49.4548413,38.1702528 C49.1859177,39.3934484 48.8122013,40.4615168 48.3080959,41.3354729 C47.8348298,42.1548337 47.2249152,42.9236269 46.511506,43.6418317 C45.9122032,44.2451631 45.2731632,44.7802139 44.6335892,45.2434617 C44.2462479,45.5240155 43.9396238,45.7213639 43.7574827,45.8275543 L32.2658732,52.6092545 L32.2452413,52.6092545 L30.6908328,53.5238607 C30.3020201,53.7556642 29.6460767,54.0880753 28.7989723,54.4183055 C27.4079496,54.9605735 25.9865241,55.293081 24.5966955,55.3077865 C23.9648827,55.3138635 23.2918331,55.2340137 22.5818465,55.0789484 C21.5402851,54.8514653 20.4469383,54.4694117 19.3352134,53.9763353 C18.6939516,53.6919205 18.0855708,53.3877927 17.5280489,53.0832864 C17.1908145,52.8990964 16.9425959,52.7539249 16.820416,52.678189 L15.1514065,51.6961507 L15.1441899,51.6961507 L9.55110457,48.3971832 L9.53124362,48.3667462 L5.20523452,45.8166285 C5.01883074,45.7079366 4.71266425,45.510877 4.32591397,45.230734 C3.68732869,44.7681741 3.04927828,44.2339009 2.45090046,43.6314211 C1.73648002,42.9121032 1.12603239,42.1419752 0.653124848,41.3213783 C0.149390174,40.4480647 -0.224558121,39.380125 -0.493952914,38.157055 C-0.721596864,37.1235365 -0.864455971,36.0268446 -0.940394938,34.9222957 C-0.989293954,34.2110487 -1.00370926,33.611602 -0.999452528,33.1819936 C-0.999024593,33.1456128 -0.999024593,33.1456128 -0.999003225,33.1536947 L-0.999003225,24.8475047 L-0.998820901,21.173451 C-0.999024451,21.1624527 -0.999024451,21.1624527 -0.99945246,21.1260904 C-1.00371155,20.6965379 -0.989281473,20.0971549 -0.940335692,19.3859743 C-0.864322644,18.2815071 -0.721326274,17.1848922 -0.493463512,16.1514402 C-0.224096229,14.929748 0.149710574,13.8628251 0.652933133,12.9903994 C1.12603234,12.1694701 1.73647997,11.3993421 2.45090041,10.6800242 C3.04927822,10.0775444 3.68732864,9.54327121 4.32591391,9.08071129 C4.71266419,8.80056832 5.01883068,8.60350867 5.20074397,8.4974509 L9.34635303,6.05114188 L9.32476043,6.05114188 L16.8113535,1.63520667 Z M49.9837807,19.4509859 C49.9837802,19.4511984 49.9837798,19.451411 49.9837794,19.4516235 C49.9837773,19.4524782 49.9837762,19.4529055 49.9837762,19.4527461 Z"></path>
                            </g>
                        </g>
                        <g id="code-(1)" transform="translate(10.648649, 19.167568)" fill="#A775D3">
                            <path d="M8.23682663,15.972973 C7.86477849,15.972973 7.49279092,15.835323 7.20898535,15.5601993 L0.42575377,8.9830686 C-0.141917923,8.43264497 -0.141917923,7.54026928 0.42575377,6.98990437 L7.20898535,0.412773676 C7.77665705,-0.137591225 8.69693565,-0.137591225 9.26460735,0.412773676 C9.83215791,0.963138577 9.83215791,1.85551427 9.26460735,2.4059379 L3.50921704,7.98645712 L9.26460735,13.5669763 C9.83215791,14.1174 9.83215791,15.0097169 9.26460735,15.5601406 C8.98074122,15.835323 8.60887477,15.972973 8.23682663,15.972973 Z" id="Shape"></path>
                            <path d="M19.4496599,15.972973 C19.821708,15.972973 20.1936956,15.835323 20.4775011,15.5601993 L27.2607327,8.9830686 C27.8284044,8.43264497 27.8284044,7.54026928 27.2607327,6.98990437 L20.4775011,0.412773676 C19.9098294,-0.137591225 18.9895508,-0.137591225 18.4218791,0.412773676 C17.8543286,0.963138577 17.8543286,1.85551427 18.4218791,2.4059379 L24.1772694,7.98645712 L18.4218791,13.5669763 C17.8543286,14.1174 17.8543286,15.0097169 18.4218791,15.5601406 C18.7057453,15.835323 19.0776117,15.972973 19.4496599,15.972973 Z" id="Shape"></path>
                        </g>
                    </g>
                    <g id="code-cell" transform="translate(171.378378, 136.172973)" fill-rule="nonzero">
                        <g id="hexagon" transform="translate(-0.000000, -0.000000)" stroke="#A775D3" stroke-width="2">
                            <path d="M8.41948495,0.330274286 C8.69330917,0.160327269 9.13065752,-0.0800866588 9.66782081,-0.320505998 C10.2209241,-0.568059655 10.7676473,-0.760979577 11.296606,-0.877887186 C11.667647,-0.959892659 12.0236262,-1.00280083 12.3651031,-0.999851227 C13.0932965,-0.992932392 13.8241119,-0.820266841 14.5352556,-0.539715774 C14.9636075,-0.370727974 15.297327,-0.199550268 15.498742,-0.0779718005 L16.080473,0.26865884 L16.0746564,0.256652534 L18.9414253,1.96484511 L20.9656444,3.17123821 C21.0585227,3.22404417 21.1994962,3.30935371 21.3757702,3.42391858 L21.5298113,3.51570559 L21.5150324,3.51570559 C21.887386,3.76452333 22.259452,4.04144947 22.6108978,4.34281524 C23.23287,4.87615809 23.7281225,5.43111426 24.0520699,6.02171587 C24.1829729,6.26123137 24.2960593,6.5150837 24.3930687,6.7812663 C24.7287484,7.70233204 24.8371443,8.60065414 24.8359058,9.24686967 C24.835902,9.2482981 24.8359031,9.24754205 24.8359052,9.24602995 L24.8359052,16.1064137 L24.8222406,16.0852591 C24.8104241,16.7225745 24.742012,17.4885111 24.5751073,18.2554154 C24.438185,18.8845548 24.245716,19.440233 23.9785853,19.9080732 C23.731793,20.3396988 23.4172929,20.7401659 23.0517151,21.1119537 C22.5312128,21.6412976 22.0142372,22.0195644 21.6494854,22.2344033 L16.115961,25.5332736 L16.105874,25.5332736 L15.5027829,25.8917401 C15.2962426,26.0161313 14.9620217,26.1872307 14.5330882,26.3561485 C13.8229005,26.6358267 13.0932194,26.808258 12.365318,26.8160381 C12.0244505,26.8193501 11.6682291,26.7766575 11.2969617,26.6947438 C10.7672931,26.5778816 10.2198905,26.3846496 9.66614752,26.1365473 C9.1236193,25.8934698 8.68306526,25.6503954 8.42854799,25.4913143 L7.76888743,25.0992153 L7.76518532,25.0992153 L4.90109338,23.3926644 L4.89178561,23.3782548 L2.96462672,22.230634 C2.59582692,22.0133945 2.07958558,21.6356419 1.55982263,21.10698 C1.19366889,20.7345573 0.878837275,20.3333226 0.632264708,19.9011033 C0.365499847,19.4339035 0.172932387,18.8783527 0.0357831913,18.2493376 C-0.159825427,17.3522068 -0.220755591,16.456928 -0.21400309,15.7684863 C-0.213900759,15.759675 -0.213844165,15.754802 -0.213816664,15.7531213 L-0.213816664,11.8116535 L-0.213638001,10.0749592 C-0.213774,10.0674287 -0.213774,10.0674287 -0.214003024,10.047722 C-0.220759877,9.35930894 -0.15976832,8.46406776 0.0360371662,7.56695406 C0.17317696,6.93862648 0.365677093,6.38358868 0.63207545,5.91703084 C0.878837254,5.48448002 1.19366887,5.08324526 1.5598226,4.71082258 C2.07958555,4.18216073 2.59582689,3.80440805 2.96012588,3.58983567 L3.27666932,3.40114001 L3.26581406,3.40114001 L8.41948495,0.330274286 Z" id="Shape"></path>
                        </g>
                        <g id="code-(1)" transform="translate(5.389189, 8.648649)" fill="#A775D3">
                            <path d="M4.69334851,8.41374708 C4.48135527,8.41374708 4.26939653,8.34124011 4.10768396,8.19631897 L0.242594741,4.73182214 C-0.0808649136,4.44188706 -0.0808649136,3.97182908 0.242594741,3.68192494 L4.10768396,0.217428109 C4.43114362,-0.0724760363 4.95551889,-0.0724760363 5.27897855,0.217428109 C5.60236918,0.507332254 5.60236918,0.977390235 5.27897855,1.26732531 L1.99955387,4.20685807 L5.27897855,7.14639083 C5.60236918,7.43632591 5.60236918,7.90635296 5.27897855,8.19628804 C5.11723146,8.34124011 4.90534175,8.41374708 4.69334851,8.41374708 Z" id="Shape"></path>
                            <path d="M10.2147596,8.41374708 C10.4267528,8.41374708 10.6387116,8.34124011 10.8004241,8.19631897 L14.6655134,4.73182214 C14.988973,4.44188706 14.988973,3.97182908 14.6655134,3.68192494 L10.8004241,0.217428109 C10.4769645,-0.0724760363 9.95258922,-0.0724760363 9.62912956,0.217428109 C9.30573893,0.507332254 9.30573893,0.977390235 9.62912956,1.26732531 L12.9085542,4.20685807 L9.62912956,7.14639083 C9.30573893,7.43632591 9.30573893,7.90635296 9.62912956,8.19628804 C9.79087664,8.34124011 10.0027664,8.41374708 10.2147596,8.41374708 Z" id="Shape"></path>
                        </g>
                    </g>
                    <g id="code-cell-1" transform="translate(144.691892, 22.297297)" fill-rule="nonzero">
                        <g id="hexagon-copy-2" transform="translate(-0.000000, 0.000000)" stroke="#29B371" stroke-width="2">
                            <path d="M12.0179565,0.950353261 C12.1250176,0.884499382 12.3056552,0.779017536 12.5475672,0.646765198 C12.9576677,0.422564886 13.4049471,0.1987419 13.8766968,-0.0107243862 C14.6959258,-0.374478468 15.5029986,-0.657006625 16.2760148,-0.82649859 C16.8086187,-0.943277589 17.3156847,-1.00391202 17.795851,-0.99979752 C18.8400462,-0.989954975 19.9012185,-0.74122769 20.9375089,-0.335648656 C21.5651086,-0.0900212952 22.0521051,0.157795646 22.3403428,0.330393365 L24.7709038,1.76717495 L24.7619611,1.74886229 L27.6327911,3.44589844 L30.754135,5.29126081 C30.9162857,5.38271987 31.1861141,5.5459631 31.528574,5.77184649 C32.0966556,6.14654786 32.6649202,6.56480958 33.199175,7.0192987 C34.1108546,7.79486201 34.8322009,8.59675285 35.2943436,9.43261613 C35.4823824,9.77394333 35.6455358,10.1372777 35.7859551,10.5195138 C36.277031,11.8562743 36.4369811,13.1717847 36.4351329,14.101889 C36.4351287,14.1034034 36.4351298,14.1026497 36.4351319,14.1011421 L36.4351319,22.7606362 L36.4157637,22.7308897 L36.4157097,24.0259383 C36.4158931,24.0355888 36.4158931,24.0355888 36.4162492,24.064877 C36.4195329,24.3851631 36.4090632,24.8276886 36.3733231,25.3510831 C36.3178934,26.1628229 36.2133505,26.9691287 36.0461414,27.7313343 C35.8460736,28.6433227 35.5668793,29.4429886 35.1863212,30.1041907 C34.8312165,30.7203194 34.3754977,31.2960014 33.8436783,31.8325621 C33.0809496,32.6020908 32.3219154,33.1530622 31.7957977,33.4604933 L23.4173494,38.4157535 L23.4022288,38.4157535 L22.3443769,39.03954 C22.0508347,39.2149261 21.5630276,39.4626697 20.9344818,39.7082321 C19.8993992,40.1126217 18.8396661,40.3610602 17.7960642,40.3721263 C17.3165026,40.3767489 16.8091964,40.3164316 16.2763681,40.1998052 C15.5024204,40.0304023 14.6944235,39.7474447 13.8743194,39.3829166 C13.4029947,39.1734175 12.9561611,38.94956 12.5464987,38.725324 C12.2979811,38.5892934 12.1142008,38.4815746 12.0268928,38.4272594 L10.8847618,37.7537702 L10.8793823,37.7537702 L6.71232363,35.2905606 L6.69797622,35.2685252 L3.6253504,33.4533087 C3.09546182,33.143658 2.33756541,32.5934789 1.57597952,31.8250017 C1.04337578,31.2875786 0.587228506,30.7108589 0.232409958,30.0938306 C-0.147778405,29.4332704 -0.42713471,28.633733 -0.627546107,27.7218699 C-0.795418075,26.9580597 -0.900447136,26.1500225 -0.956240183,25.3367323 C-0.992140163,24.8134216 -1.00273653,24.3718216 -0.999590592,24.0536274 C-0.999361401,24.0340811 -0.99929418,24.0283482 -0.999278927,24.0301418 L-0.999278927,18.0139807 L-0.999097395,15.3555697 C-0.99926614,15.3463753 -0.99926614,15.3463753 -0.999590525,15.3187294 C-1.00273829,15.0005689 -0.992130868,14.5590081 -0.956195982,14.0357378 C-0.900347609,13.2224948 -0.795215892,12.414501 -0.627179435,11.6507257 C-0.426786061,10.7398786 -0.147532545,9.94109409 0.232218778,9.28129342 C0.587228472,8.66393286 1.04337574,8.08721319 1.57597948,7.54979008 C2.33756537,6.78131284 3.09546177,6.23113374 3.62085761,5.92412422 L5.75507867,4.6619843 L5.73909095,4.6619843 L12.0179565,0.950353261 Z" id="Shape"></path>
                        </g>
                        <g id="code-braces" transform="translate(7.583784, 10.713514)" fill="#A775D3">
                            <path d="M5.32432432,0 C4.14810707,-7.09342495e-16 3.19459459,0.953512475 3.19459459,2.12972972 L3.19459459,6.38918919 C3.19459459,7.56540644 2.24108212,8.51891891 1.06486487,8.51891891 L0,8.51891891 L0,10.6486487 L1.06486487,10.6486487 C1.62970431,10.6486487 2.1714094,10.8730303 2.5708112,11.2724321 C2.970213,11.6718338 3.19459459,12.2135389 3.19459459,12.7783784 L3.19459459,17.0378378 C3.19459459,18.2140551 4.14810707,19.1675676 5.32432432,19.1675676 L7.45405406,19.1675676 L7.45405406,17.0378378 L5.32432432,17.0378378 L5.32432432,11.7135135 C5.32432432,10.5372963 4.37081184,9.58378378 3.19459459,9.58378378 C4.37081184,9.58378378 5.32432432,8.63027131 5.32432432,7.45405406 L5.32432432,2.12972972 L7.45405406,2.12972972 L7.45405406,0 L5.32432432,0 Z M13.8432433,0 C15.0194605,-7.09342495e-16 15.972973,0.953512475 15.972973,2.12972972 L15.972973,6.38918919 C15.972973,6.95402863 16.1973546,7.49573372 16.5967564,7.89513552 C16.9961582,8.29453732 17.5378633,8.51891891 18.1027027,8.51891891 L19.1675676,8.51891891 L19.1675676,10.6486487 L18.1027027,10.6486487 C17.5378633,10.6486487 16.9961582,10.8730303 16.5967564,11.2724321 C16.1973546,11.6718338 15.972973,12.2135389 15.972973,12.7783784 L15.972973,17.0378378 C15.972973,18.2140551 15.0194605,19.1675676 13.8432433,19.1675676 L11.7135135,19.1675676 L11.7135135,17.0378378 L13.8432433,17.0378378 L13.8432433,11.7135135 C13.8432433,10.5372963 14.7967557,9.58378378 15.972973,9.58378378 C14.7967557,9.58378378 13.8432433,8.63027131 13.8432433,7.45405406 L13.8432433,2.12972972 L11.7135135,2.12972972 L11.7135135,0 L13.8432433,0 Z" id="Shape"></path>
                        </g>
                    </g>
                    <g id="hexagon-copy-3" transform="translate(103.222823, 3.000000)" fill-rule="nonzero" stroke="#A775D3" stroke-width="2">
                        <path d="M5.98662887,1.09277277 L4.48747497,1.97430467 L4.49551024,1.97430467 L3.78496182,2.39168783 L1.97243196,3.45794392 C1.97243196,3.45794392 1.03115617,4.00510166 0.524933445,4.88078786 C-0.0317967444,5.84299047 0.000344383817,7.52070705 0.000344383817,7.52070705 L0.000344383817,8.79273186 L0.000344383817,9.28377086 L0.000344383817,9.89055476 L0.000344383817,10.5055227 L0.000344383817,11.6536186 C0.000344383817,11.6536186 -0.0317967444,13.3325043 0.524933463,14.2947069 C1.03115618,15.1703931 1.97243197,15.7175508 1.97243197,15.7175508 L3.53816392,16.6376644 L3.54505129,16.6481867 L5.32658792,17.6957365 L5.3288837,17.6957365 L5.98662887,18.0815529 C5.98662887,18.0815529 7.39739466,18.9502242 8.4947845,18.939702 C9.49230727,18.9291797 10.4266957,18.373838 10.4266957,18.373838 L11.0465602,18.0102353 L11.0534476,18.0102353 L14.9425237,15.7222274 C14.9425237,15.7222274 15.8837995,15.1750697 16.3911701,14.2993835 C16.9479003,13.3371809 16.9146113,11.6582952 16.9146113,11.6582952 L16.9146113,9.43342083 L16.9237945,9.44745052 L16.9237945,6.93379852 C16.9237945,6.93379852 16.928386,5.83012993 16.4382339,4.94509059 C15.8975743,3.97236573 14.4535194,3.16215139 14.4535194,3.16215139 L12.9543656,2.28061948 L12.9601051,2.29231088 L12.5594889,2.05731365 L12.5640805,2.05731365 L10.4266957,0.800487649 C10.4266957,0.800487649 9.49230725,0.243976783 8.49478448,0.234623659 C7.39739466,0.225270552 5.98662887,1.09277277 5.98662887,1.09277277 Z" id="Shape"></path>
                    </g>
                    <g id="hexagon-copy-3" transform="translate(137.000000, 106.142568)" fill-rule="nonzero" stroke="#A775D3" stroke-width="2">
                        <path d="M6.42704066,1.30386152 L4.81760014,2.25024412 L4.82622654,2.25024412 L4.06340598,2.69833245 L2.11753571,3.84302864 C2.11753571,3.84302864 1.10701411,4.43043854 0.563550652,5.37054539 C-0.0341359008,6.40353331 0.000369718726,8.20467263 0.000369718726,8.20467263 L0.000369718726,9.57027511 L0.000369718726,10.0974378 L0.000369718726,10.7488604 L0.000369718726,11.4090689 L0.000369718726,12.6416256 C0.000369718726,12.6416256 -0.0341359008,14.44402 0.563550671,15.477008 C1.10701413,16.4171148 2.11753573,17.0045247 2.11753573,17.0045247 L3.79845216,17.9923272 L3.80584621,18.0036236 L5.7184432,19.1282374 L5.72090788,19.1282374 L6.42704066,19.5424367 C6.42704066,19.5424367 7.94159073,20.4750126 9.11971105,20.4637163 C10.1906175,20.4524199 11.193745,19.856224 11.193745,19.856224 L11.8592105,19.4658726 L11.8666045,19.4658726 L16.0417841,17.0095453 C16.0417841,17.0095453 17.0523057,16.4221354 17.5970015,15.4820285 C18.194688,14.4490406 18.1589501,12.6466462 18.1589501,12.6466462 L18.15895,10.2580969 L18.1688088,10.2731587 L18.1688088,7.57458764 C18.1688088,7.57458764 18.1737382,6.38972667 17.6475275,5.4395786 C17.0670938,4.39529435 15.5168058,3.52547586 15.5168058,3.52547586 L13.9073652,2.57909326 L13.913527,2.59164474 L13.4834391,2.33935973 L13.4883685,2.33935973 L11.193745,0.990074179 C11.193745,0.990074179 10.1906175,0.392623084 9.11971103,0.382581889 C7.94159073,0.372540712 6.42704066,1.30386152 6.42704066,1.30386152 Z" id="Shape"></path>
                    </g>
                    <g id="hexagon-copy-3" transform="translate(45.659459, 134.043243)" fill-rule="nonzero" stroke="#A775D3" stroke-width="2">
                        <path d="M8.44830044,0.430392655 C8.74566184,0.247897972 9.22292706,-0.0115008881 9.80917387,-0.27087654 C10.411135,-0.537204766 11.0055905,-0.744559764 11.5790978,-0.869858186 C11.9793789,-0.95731058 12.3625911,-1.00297105 12.7289041,-0.999843267 C13.5142144,-0.992467399 14.3051521,-0.807742284 15.0756252,-0.507274655 C15.5405301,-0.325971933 15.902411,-0.142479996 16.1197473,-0.0127985731 L17.0382205,0.528200985 L17.0318259,0.515152885 L19.9045076,2.20721893 L22.1316619,3.51929524 C22.2530534,3.58752003 22.4515666,3.70718945 22.7023432,3.87200861 C23.1176367,4.14495409 23.5331186,4.44967046 23.9247915,4.78167552 C24.600846,5.35473923 25.1384065,5.9501888 25.4886426,6.5813882 C25.6304665,6.83790684 25.7531218,7.1100785 25.8584225,7.39569453 C26.2237046,8.38647985 26.341892,9.35477041 26.3405389,10.0488955 C26.3405349,10.0503514 26.340536,10.0495878 26.3405382,10.0480605 L26.3405382,17.1767025 L26.3271293,17.1561821 C26.3340083,17.898994 26.2673497,18.8609922 26.0555835,19.8228588 C25.9066385,20.4993844 25.6975867,21.0960104 25.4086492,21.5962331 C25.1413213,22.058407 24.800257,22.487714 24.4035193,22.8865593 C23.8379893,23.4550935 23.276229,23.8614103 22.8816306,24.0911622 L16.8234201,27.6613692 L16.8124067,27.6613692 L16.1237781,28.0659804 C15.9012946,28.1984356 15.5388557,28.3818507 15.0733022,28.5630852 C14.3038283,28.8626322 13.5140765,29.0471164 12.7291166,29.0554101 C12.3634061,29.0589227 11.9799547,29.0134942 11.5794499,28.9261441 C11.0051942,28.800899 10.4100155,28.593214 9.80737219,28.3263017 C9.21581972,28.0643016 8.73540191,27.8022755 8.45737564,27.630521 L7.70706436,27.1896593 L7.70305553,27.1896593 L4.59898952,25.3613534 L4.58874997,25.3456832 L2.45019221,24.0867952 C2.05160736,23.8547063 1.49065596,23.4489496 0.925939761,22.8811586 C0.528585596,22.4816408 0.187169855,22.0515211 -0.0799255665,21.5887018 C-0.368491629,21.0891219 -0.577653208,20.4926247 -0.726846755,19.8162249 C-0.940429093,18.8479052 -1.00706515,17.8800266 -0.999692949,17.1370327 C-0.999573951,17.1269071 -0.999512128,17.1216466 -0.999484343,17.1201625 L-0.999484343,12.8362346 L-0.999301508,10.9474736 C-0.999445139,10.9396227 -0.999445139,10.9396227 -0.999692882,10.9185566 C-1.00706978,10.1755989 -0.940366946,9.20776633 -0.726571076,8.23947156 C-0.577388439,7.56381414 -0.368300889,6.9678703 -0.080117593,6.46895318 C0.187169832,6.00580137 0.528585571,5.57568162 0.925939735,5.17616388 C1.49065593,4.60837283 2.05160732,4.20261618 2.44570314,3.9731568 L3.0629655,3.60942267 L3.05114603,3.60942267 L8.44830044,0.430392655 Z" id="Shape"></path>
                    </g>
                    <g id="hexagon-copy-3" transform="translate(0.000000, 86.254054)" fill-rule="nonzero">
                        <g id="Shape">
                            <use fill="#E8D8F5" fill-rule="evenodd" xlink:href="#path-2"></use>
                            <path stroke="#A775D3" stroke-width="2" d="M8.89707962,0.513829521 C9.2077786,0.320906523 9.70756846,0.046084441 10.3216091,-0.228743067 C10.9515361,-0.510680839 11.5734304,-0.730126071 12.1729011,-0.862617879 C12.5906774,-0.95495255 12.990387,-1.00313179 13.3720431,-0.999835169 C14.1916635,-0.992047652 15.0179651,-0.796822118 15.8230535,-0.479209232 C16.3089292,-0.28752794 16.6868907,-0.0936567407 16.9133732,0.0430507223 L18.0294198,0.708059074 L18.0227018,0.694191965 L20.8894707,2.40238454 L23.2300563,3.79728771 C23.3566678,3.86927268 23.5642735,3.99587663 23.8267159,4.17036605 C24.2613959,4.45937072 24.6962471,4.78199622 25.1059485,5.13331634 C25.8113472,5.7381977 26.3716845,6.36608465 26.735316,7.02903573 C26.8826143,7.2985501 27.0100679,7.58465334 27.1195354,7.88501937 C27.4998297,8.92850217 27.6230336,9.94968105 27.6216199,10.6794324 C27.621616,10.6808832 27.621617,10.6801296 27.6216192,10.6786225 L27.6216192,18.076535 L27.6069898,18.0538868 L27.6069824,18.1899195 C27.6071398,18.1983103 27.6071398,18.1983103 27.6074208,18.2216302 C27.6154146,19.0075606 27.5461481,20.0300464 27.3239568,21.0509853 C27.1689039,21.7634326 26.9515499,22.3909562 26.6518996,22.9157499 C26.3739886,23.4018001 26.018868,23.8539912 25.6054467,24.2744352 C25.0151475,24.8747617 24.4283749,25.3040984 24.0170918,25.5463463 L17.6628557,29.3344927 L17.6513165,29.3344927 L16.9174141,29.7707133 C16.6857522,29.9102344 16.3071998,30.1040286 15.8206374,30.2956412 C15.0165784,30.6122868 14.1915001,30.8072614 13.3722581,30.8160179 C12.9912114,30.8197202 12.5912595,30.7717866 12.1732568,30.6795615 C11.5730117,30.5471278 10.9503671,30.3273356 10.3197324,30.0447823 C9.70039977,29.7672928 9.19747675,29.4898066 8.90619196,29.3077843 L8.10772744,28.8331808 L8.10354085,28.8331808 L4.86349125,26.902618 L4.85273021,26.8859585 L2.59515474,25.5415769 C2.17990123,25.2969742 1.59397932,24.8682337 1.0045358,24.2686982 C0.590478887,23.8475522 0.234999242,23.3945139 -0.0426728717,22.90778 C-0.341957438,22.3836266 -0.559428258,21.7562305 -0.714741751,21.0439074 C-0.93771433,20.0212757 -1.00737578,18.9977035 -0.999681038,18.2131968 C-0.999548497,18.2017913 -0.999484523,18.1962861 -0.999458274,18.1951351 L-0.999458274,13.6417673 L-0.999279612,11.6330585 C-0.999424695,11.6250475 -0.999424695,11.6250475 -0.999680972,11.6030091 C-1.00738057,10.8185459 -0.937649666,9.79502762 -0.714455474,8.77242825 C-0.559153888,8.06088955 -0.341760588,7.434077 -0.0428621343,6.91059997 C0.234999218,6.4235345 0.590478861,5.97049617 1.00453577,5.54935015 C1.59397929,4.94981472 2.17990119,4.52107422 2.5906539,4.27913855 L3.43942348,3.77317594 L3.42709159,3.77317594 L8.89707962,0.513829521 Z"></path>
                        </g>
                        <g id="code-brackets" transform="translate(7.454054, 8.518919)" fill="#A775D3">
                            <path d="M8.05304054,0 L8.05304054,1.46418918 L10.2493243,1.46418918 L10.2493243,10.2493243 L8.05304054,10.2493243 L8.05304054,11.7135135 L11.7135135,11.7135135 L11.7135135,0 L8.05304054,0 Z M0,0 L0,11.7135135 L3.66047297,11.7135135 L3.66047297,10.2493243 L1.46418918,10.2493243 L1.46418918,1.46418918 L3.66047297,1.46418918 L3.66047297,0 L0,0 Z" id="Shape"></path>
                        </g>
                    </g>
                    <g id="wifi" transform="translate(76.670270, 63.891892)" fill="#15B371" fill-rule="nonzero">
                        <path d="M10.9136202,22.7648991 C16.1574993,17.6787547 22.4804697,15.1356825 29.8825316,15.1356825 C37.2845935,15.1356825 43.5651582,17.6787547 48.7242257,22.7648991 L43.3946329,28.1445775 C39.671948,24.4745125 35.1462602,22.63948 29.8175696,22.63948 C24.488879,22.63948 19.9631913,24.4745125 16.2405063,28.1445775 L10.9136202,22.7648991 Z M21.6973164,33.5242559 C23.8970028,31.355662 26.6037539,30.271365 29.8175696,30.271365 C33.0313853,30.271365 35.7381364,31.355662 37.9378228,33.5242559 L29.8175696,41.5297297 L21.6973164,33.5242559 Z M0,12.1336298 C8.28987624,4.04454327 18.2498179,0 29.8798249,0 C41.5098319,0 51.4273677,4.04454327 59.6324324,12.1336298 L54.1756223,17.5133082 C47.4087447,10.9256928 39.2884915,7.63188501 29.8148628,7.63188501 C20.3412341,7.63188501 12.220981,10.9256928 5.45410335,17.5133082 L0,12.1336298 Z" id="Shape"></path>
                    </g>
                </g>
            </g>
        </g>
    </g>
</svg>