
<svg width="646px" height="233px" viewBox="0 0 646 233" version="1.1" xmlns="http://www.w3.org/2000/svg" xmlns:xlink="http://www.w3.org/1999/xlink">
    <!-- Generator: Sketch 48.2 (47327) - http://www.bohemiancoding.com/sketch -->
    <desc>Created with Sketch.</desc>
    <defs>
        <path d="M208,105.997356 C208,105.997356 215.459157,106.099006 220.395379,105.04165 C225.3316,103.984294 227.370304,103.279635 228.068059,102.47382 C228.487236,101.989936 229.099477,101.362315 229.520753,100.621231 C229.802215,100.127995 230,99.5840565 230,99" id="path-1"></path>
    </defs>
    <g id="Page-1" stroke="none" stroke-width="1" fill="none" fill-rule="evenodd">
        <g id="Artboard" transform="translate(-128.000000, -2065.000000)">
            <path d="M129.260638,2103 L226.852193,2103" id="Line-10" stroke="#129EE6" stroke-width="2" stroke-linecap="square"></path>
            <path d="M149.260638,2126 L246.852193,2126" id="Line-10" stroke="#D9822B" stroke-width="2" stroke-linecap="square"></path>
            <path d="M561.56383,2246 L772.680255,2246" id="Line-10" stroke="#D9822B" stroke-width="2" stroke-linecap="square"></path>
            <path d="M575.561798,2256 L674.444586,2256" id="Line-19" stroke="#6E68A4" stroke-width="2" stroke-linecap="square" stroke-dasharray="5"></path>
            <g id="Community" transform="translate(234.000000, 2066.000000)">
                <path d="M244.235353,128 L243,226.024121 C243,226.024121 245.678025,230.469849 248.970958,226.024121 C249.176515,220.942662 250,128 250,128" id="Stroke-1" stroke="#129EE6" stroke-width="2"></path>
                <path d="M122.235353,128 L121,226.024121 C121,226.024121 123.678025,230.469849 126.970958,226.024121 C127.176263,220.942662 128,128 128,128" id="Stroke-3" stroke="#129EE6" stroke-width="2"></path>
                <path d="M73,125.5 L298,125" id="Stroke-5" stroke="#129EE6" stroke-width="2"></path>
                <path d="M35.7954102,167 L28.8721769,167 C28.8721769,167 26.3266363,173.396754 29.9331213,177.725429 C30.9891395,177.785424 32.2831702,177.834219 33.7592104,177.872083 C47.4099246,178.229117 76.6056002,177.725429 76.6056002,177.725429 C76.6056002,177.725429 78.9395741,176.038115 80,172.500569" id="Stroke-7" stroke="#15B371" stroke-width="2"></path>
                <path d="M33.6687428,178 C33.6687428,178 31.5085218,180.736725 34.9531915,182.815305 C39.6902044,183.230869 62.7297554,182.815305 62.7297554,182.815305 C62.7297554,182.815305 68.5433262,180.079088 64.6678755,178.121926" id="Stroke-9" stroke="#15B371" stroke-width="2"></path>
                <path d="M46.8888552,183.039874 L46.8888552,200.867968 L27.88216,212.170544 C27.88216,212.170544 20.1016671,213.235153 18.0977062,216.541043 C17.8868444,220.807037 17.8868444,223.684478 19.4688238,224.857763 C21.1559764,225.177797 21.8945084,224.857763 21.8945084,224.857763 C21.8945084,224.857763 27.8004446,221.445281 29.2767353,218.460467 C29.4082017,218.204283 29.7830099,217.47326 30.1222449,216.8113 C30.4552932,216.162892 30.753026,215.581462 30.753026,215.581462 L47.7320448,204.706293 L50.1585027,204.493632 L65.2786892,212.810091 C65.2786892,212.810091 69.2463977,220.487002 72.8323381,220.807037 C76.4185361,221.127071 78,220.593594 78,220.273559 C78,219.953786 78,210.889886 72.8323381,210.783555 L67.6644183,210.677485 L51.4239316,199.588352 L51.3190162,183" id="Stroke-11" stroke="#15B371" stroke-width="2"></path>
                <path d="M30.7400123,217 C30.7400123,217 31.7802174,222.512611 29.6992985,224.597591 C26.2656041,226.682818 23.9766441,226.278494 22,224.462981" id="Stroke-13" stroke="#15B371" stroke-width="2"></path>
                <path d="M67.9793522,217 C67.9793522,217 63.1453751,220.782977 68.5860597,225.754209 C73.3740217,228.131514 74.1357973,226.511597 75.4420404,225.754209 C76.7480175,224.996822 78,220.642436 78,220.642436" id="Stroke-15" stroke="#15B371" stroke-width="2"></path>
                <path d="M47,199 L40.7235426,202.732139 C40.7235426,202.732139 33.9150762,199.87744 32,206.242973 C32.2126996,207.560073 32,208 32,208 L34.6597847,208" id="Stroke-17" stroke="#15B371" stroke-width="2"></path>
                <path d="M52,200 L56.1520337,201.939841 C56.1520337,201.939841 61.8114305,202.046422 62.3451143,201.939841 C62.8785371,201.834041 65.581665,203.11198 66,206.4181 C61.4990493,206.405331 62.3806062,207 62.3806062,207" id="Stroke-19" stroke="#15B371" stroke-width="2"></path>
                <path d="M16.2425777,132 C16.2425777,132 14.8181095,167.221205 18.8729011,168.39408 C22.9279607,169.567476 28,170 28,170" id="Stroke-21" stroke="#15B371" stroke-width="2"></path>
                <path d="M11.2260444,132 L9,133.580578 L10.1131517,163.404466 C10.1131517,163.404466 12.5586142,172.995353 16.3962287,174.048642 C20.2341023,175.10219 28,174.997093 28,174.997093" id="Stroke-23" stroke="#15B371" stroke-width="2"></path>
                <path d="M4.49801796,115 C4.49801796,115 0.994704894,115.725874 0.39410199,117.072298 C-0.206500914,118.418216 -0.506680044,124.32243 2.44593765,125.254647 C5.39904464,126.187118 7,125.980521 7,125.980521" id="Stroke-25" stroke="#15B371" stroke-width="2"></path>
                <path d="M6.1157766,118.069404 C6.1157766,118.069404 3.57989566,117.35807 4.06063139,120.489976 C4.38904096,122.627728 4.38904096,122.627728 5.65795967,122.780654 C7.48503492,123 6.91625748,123 6.91625748,123" id="Stroke-27" stroke="#15B371" stroke-width="2"></path>
                <path d="M5.82014943,105 L2.04425905,105 C2.04425905,105 1.94467619,107.131797 2.04425905,107.558939 C2.14359902,107.98634 6.61511207,116.407721 9,134" id="Stroke-29" stroke="#15B371" stroke-width="2"></path>
                <path d="M3.67716363,84.7411389 C3.67716363,84.7411389 6.75524251,82.401923 8.24234878,83.1462308 C9.72971472,83.8907984 17.6204403,107.38821 18.4025538,115.681369 C19.184148,123.974527 19.2140096,130.141055 18.4025538,131.097947 C17.5905787,132.05484 14.8279938,132.799928 14.0848302,132.905701 C13.3416666,133.011733 11.003895,133.330611 10.5790817,131.62993 C10.154528,129.928989 1.97427505,90.908706 2.08073804,89.4195707 C2.18720104,87.9306952 1.28642023,86.1273601 3.67716363,84.7411389 Z" id="Stroke-31" stroke="#15B371" stroke-width="2"></path>
                <path d="M9,139 L16,140" id="Stroke-33" stroke="#15B371"></path>
                <path d="M10,145 L17,146" id="Stroke-35" stroke="#15B371"></path>
                <path d="M10,149 L17,149" id="Stroke-37" stroke="#15B371"></path>
                <path d="M11,165 L18,164" id="Stroke-43" stroke="#15B371"></path>
                <path d="M12,169 L18,167" id="Stroke-45" stroke="#15B371"></path>
                <path d="M20,169 L15,174" id="Stroke-47" stroke="#15B371"></path>
                <path d="M253,102 L270,110" id="Stroke-51" stroke="#15B371"></path>
                <polyline id="Stroke-53" stroke="#129EE6" stroke-width="2" points="200 84 216.804869 84 226 89"></polyline>
                <g id="Group-60" transform="translate(158.000000, 84.000000)">
                    <path d="M0.227997647,0.16575 L21.9880682,0.16575" id="Fill-57" fill="#129EE6"></path>
                    <path d="M0.227997647,0.16575 L21.9880682,0.16575" id="Stroke-59" stroke="#129EE6" stroke-width="2"></path>
                </g>
                <path d="M29,144 C29.2556984,144.16539 29.5116571,144.313151 29.766314,144.442249 C35.4125091,147.304681 50.965324,151.440975 57.1440071,150.16815 C63.3229506,148.895583 75.1473081,146.137621 77.9172871,146.668268 C80.6875264,147.199174 120.422846,155.683814 119.996595,161.41127 C119.464107,167.880388 117.014402,171.061933 116.587891,173.28873 C116.16138,175.516046 107.851443,194.923397 107.318955,197.257257 C106.893225,199.273298 106.2545,204.25702 106.2545,204.25702 C106.2545,204.25702 104.124027,207.440381 104.017269,207.863705 C103.910511,208.287549 103.378023,210.196528 103.378023,210.196528 L101.24703,212 L94.003371,212 L91.3398896,210.938966 C91.3398896,210.938966 94.2161058,199.272002 95.1751049,196.939439 C96.1335833,194.606357 98.5840695,188.136203 98.4775719,186.75787 C98.3708139,185.379538 98.1578187,180.924907 98.1578187,180.924907 L101.992774,172.121671 L104.123246,171.274244 L105.934747,169.576538" id="Stroke-61" stroke="#15B371" stroke-width="2"></path>
                <path d="M29.1249516,145 C29.1249516,145 26.9980428,153.530556 28.5932894,158.450849 C30.1887959,163.371399 34.6560584,167.045371 47.1008537,169.970937 C55.5029364,171.22212 68.5862464,171.744853 80.2861947,171.954918 C91.985883,172.164472 103,171.57547 103,171.57547" id="Stroke-63" stroke="#15B371" stroke-width="2"></path>
                <path d="M85.0527695,173 C85.0527695,173 82.8418086,181.814988 81.6842253,185.929062 C80.526642,190.042878 79.7894835,191.835631 79.7894835,191.835631 L77.8430249,195.52788 L76.4211967,197.63829 L76,200.150154 C76,200.150154 79.5792711,204.282277 87.3687079,202.595238 L88.000117,199.430784 C88.000117,199.430784 94.1060535,188.487853 94.4215007,187.999765 C94.7377199,187.51116 98,181.289513 98,181.289513" id="Stroke-65" stroke="#15B371" stroke-width="2"></path>
                <path d="M105,189 C105,189 108.03954,188.963069 110,187" id="Stroke-67" stroke="#15B371"></path>
                <path d="M103,208 C103,208 101.116285,208.6135 100,208" id="Stroke-69" stroke="#15B371"></path>
                <path d="M93,204 C93,204 93.9467925,204.827231 95,205" id="Stroke-71" stroke="#15B371"></path>
                <path d="M80,191 L84,191" id="Stroke-73" stroke="#15B371"></path>
                <path d="M79,194 L84,194" id="Stroke-75" stroke="#15B371"></path>
                <path d="M78,195 L81,195" id="Stroke-77" stroke="#15B371"></path>
                <path d="M258,156 C258,156 251.732422,178.977539 250,183" id="Stroke-149" stroke="#15B371" stroke-width="2"></path>
                <path d="M91,212 C91,212 97.2682182,214.883769 101.818221,212.806 C105.526355,215.922513 110.684089,218 110.684089,218 L113,218" id="Stroke-79" stroke="#15B371"></path>
                <path d="M103,210 C103,210 108.45388,213.347352 120,217" id="Stroke-81" stroke="#15B371" stroke-width="2"></path>
                <path d="M90.7342335,212 C90.7342335,212 90,222.61193 90,222.927105 C90,223.242537 90.6291232,225.029558 92.202444,225.344476 C93.7755085,225.660165 97.9706888,225.975084 100.38361,225.029558 C102.796274,224.083775 103.635618,224.154927 104.684157,224.5392 C105.732695,224.923472 108.564263,226 108.564263,226 L120,225.449021" id="Stroke-83" stroke="#15B371" stroke-width="2"></path>
                <path d="M91,222.127477 C91,222.127477 91.8876368,222.756322 93.4471867,222.936494 C95.0067366,223.116667 97.1155183,222.846848 97.4315005,222.936494 C97.7482559,223.026141 99.7516242,222.563406 99.7516242,222.563406 C99.7516242,222.563406 101.660662,221.677486 103.394956,222.127477 C105.129249,222.577248 109.135728,222.999774 109.135728,222.999774 L120,222.999774" id="Stroke-85" stroke="#15B371"></path>
                <path d="M107,213 L105,215" id="Stroke-87" stroke="#15B371"></path>
                <path d="M110,214 L108,216" id="Stroke-89" stroke="#15B371"></path>
                <path d="M114,215 L111,217" id="Stroke-91" stroke="#15B371"></path>
                <path d="M75,201 C75,201 79.3004752,204.154993 83.0768836,204.355422 C83.6009504,207.445235 84.5452448,208.444122 85.8038767,209.33356 C87.0625085,210.222726 90,211 90,211" id="Stroke-93" stroke="#15B371"></path>
                <path d="M75,202 C75,202 72.9407724,206.495162 72.1336147,208.028461 C71.8329817,209.013695 72.1336147,210 72.1336147,210" id="Stroke-95" stroke="#15B371" stroke-width="2"></path>
                <path d="M77,213 C76.8559121,213.621199 76.8559121,213.948673 77,213.982422 C77.1440879,214.016171 78.5421999,214.016171 81.1943359,213.982422 L89.7133789,219.663086" id="Stroke-97" stroke="#15B371" stroke-width="2"></path>
                <path d="M73,209 C73,209 74.2847348,211.545275 78.1865027,211.437995 C82.0880092,211.330978 81.5862414,211.437995 81.5862414,211.437995 L90,217" id="Stroke-99" stroke="#15B371"></path>
                <path d="M87,203 C87,203 89.7011462,206.904143 92,207" id="Stroke-101" stroke="#15B371" stroke-width="2"></path>
                <path d="M84,207 L87,205" id="Stroke-103" stroke="#15B371"></path>
                <path d="M86,208 L89,207" id="Stroke-105" stroke="#15B371"></path>
                <path d="M89,210 L91,208" id="Stroke-107" stroke="#15B371"></path>
                <path d="M80.8037109,129.012207 C80.8037109,129.012207 80.8037109,139.369629 79,145.436676 C79,145.436676 106.173998,145.6462 111.481095,149.195601 C112.648631,153.371532 111.481095,155 111.481095,155" id="Stroke-109" stroke="#15B371" stroke-width="2"></path>
                <path d="M54,115.72905 C54,115.72905 64.6682067,122.768974 67.5484895,122.986075 C70.4290331,123.202913 77.2566019,120.820352 79.389826,120.495229 C81.5235717,120.170371 103.071978,112.91361 106.05943,112.046792 C109.046361,111.179708 108.513642,111.179708 108.513642,111.179708 C108.513642,111.179708 111.583232,112.263893 112.555321,112.37165 C113.527149,112.479671 115.844465,112.749195 129.764267,108.634057 C134.082866,108.09342 135.47529,110.565469 134.86278,109.122006 C133.935801,106.937486 131.452385,105.006868 125.10382,106.847468 C125.048802,106.847468 130.489423,105.763283 130.489423,105.763283 C130.489423,105.763283 131.32957,103.651305 128.730901,103 C125.048802,104.127341 124.301482,104.247806 124.301482,104.247806" id="Stroke-111" stroke="#15B371" stroke-width="2"></path>
                <path d="M269,165 C269,165 260.840825,181.671471 257.430664,186.981445 C254.020503,192.29142 250,200 250,200" id="Stroke-151" stroke="#15B371" stroke-width="2"></path>
                <path d="M102.333984,105.217773 L117.083134,103.960791 C117.083134,103.960791 119.673238,103.321552 122.460215,101.765346 C125.546577,100.042271 127.762385,101.621115 128,102.670644 L102.333984,105.217773 Z" id="Stroke-113" stroke="#15B371" stroke-width="2"></path>
                <path d="M74,113 C74,113 75.6698407,109.57034 79.8420201,107.804977 C85.7880706,106.766633 103,105 103,105" id="Stroke-115" stroke="#15B371" stroke-width="2"></path>
                <path d="M49,112.698963 C49,112.698963 50.8983983,116.387769 52.1637395,115.966478 C53.4293384,115.545187 52.9022203,114.34934 52.9022203,114.34934 L74.6256711,103 L76.3132222,103 L78,107.533964" id="Stroke-117" stroke="#15B371" stroke-width="2"></path>
                <path d="M49,112 C49,112 65.0006755,98.6918557 72.5550894,100.105085 C75.3638941,100.355665 76.7346589,100.105085 76.7346589,100.105085 L78,102.240315 L76.3132222,102.788022" id="Stroke-119" stroke="#15B371"></path>
                <path d="M76.941182,99.5761317 C77.3666827,97.0509259 75.3440578,96.4194959 75.3440578,96.4724794 C76.3025405,93.4735082 74.5992364,92 74.5992364,92 L65.2293719,93.3680556 C55.8600279,94.7363683 45,100.943673 45,100.943673 C45,100.943673 45.4252405,104.417438 45.6386415,104.837963 C45.8517822,105.258488 47.5550864,107.257459 47.5550864,107.257459 L48.0878081,109.99357 L48.5133088,112" id="Stroke-121" stroke="#15B371" stroke-width="2"></path>
                <path d="M49,106 C49,106 56.1109054,102.564577 60,102" id="Stroke-123" stroke="#15B371"></path>
                <path d="M46,105 C46,105 59.9875315,95.6796245 63,96.0085033" id="Stroke-125" stroke="#15B371"></path>
                <path d="M59,100 C59,100 65.2743945,97 75,97" id="Stroke-127" stroke="#15B371"></path>
                <path d="M72.8573987,67.83761 L75.2143555,91.1223145 C69.3130618,68.8256265 60.8278881,66.9638328 55.9803326,66.1179503 C51.1325194,65.2720678 45.2999982,69.1001058 43.1240073,73.6208635 C39.382735,81.3931677 46.1798734,100 46.1798734,100" id="Stroke-129" stroke="#15B371" stroke-width="2"></path>
                <path d="M52.0570658,45 C52.0570658,45 51.9286677,51.0162688 52.0570658,52.8050396 C52.1852548,54.5935455 53.2550996,58.1708222 53.6825356,61.0976127 C54.1101808,64.0244032 53.9819918,65 53.9819918,65" id="Stroke-131" stroke="#15B371"></path>
                <path d="M44,56 C44,56 47.023802,54.7346041 51,55.0506954" id="Stroke-133" stroke="#15B371"></path>
                <path d="M44,60.2050781 C44,60.2050781 48.7356946,59.8332428 51.3586426,59" id="Stroke-135" stroke="#15B371"></path>
                <path d="M44,65 L51.454834,63.0812988" id="Stroke-137" stroke="#15B371"></path>
                <path d="M50,36.1190897 C50,36.1190897 52.14682,44.5589307 54.5955692,48.2669436 C57.0448389,51.9752192 65.4582495,64.7735648 66.6823638,66.2744772 C67.9064781,67.7753896 70.7818322,71 70.7818322,71 L71.8836131,69.7402634 L76,65.0344446 L70.7818322,58.2631306 C70.7818322,58.2631306 61.8369222,51.9752192 59.2809362,47.6222317 C56.7252105,43.2689814 52.7876385,34 52.7876385,34" id="Stroke-139" stroke="#15B371" stroke-width="2"></path>
                <path d="M140,105 L145,114" id="Stroke-141" stroke="#15B371"></path>
                <polygon id="Stroke-143" stroke="#15B371" points="141 102.486321 144.709622 109 151 84 144.709622 84"></polygon>
                <polyline id="Stroke-145" stroke="#15B371" points="112 112.869944 112.20147 114 145.332673 114 153 82 143.894789 82 139.74148 102.956999 129.678113 102.956999"></polyline>
                <path d="M243,212 L237.537002,215.511928 C237.537002,215.511928 235.027239,216.430661 233.772229,216.671841 C232.517476,216.913276 232.207429,216.816447 230.635217,216.73418 C228.043149,216.59826 225.911167,213.863269 225.911167,213.863269 L216.047457,216.671841 C216.047457,216.671841 213.851318,217.278368 214.008002,217.957964 C214.164942,218.63756 215.576636,221.773667 218.8711,221.93028 C222.164797,222.08715 234.39999,221.93028 234.39999,221.93028 L242.817244,221.185535" id="Stroke-147" stroke="#15B371" stroke-width="2"></path>
                <path d="M242,199 L228,215" id="Stroke-153" stroke="#15B371" stroke-width="2"></path>
                <path d="M305,125.135022 C305,125.135022 305.629953,129.091822 307.418764,129.833431 C309.207575,130.575298 311.942858,131 311.942858,131 L323.513432,131 L327.406544,127.711477 L328.142689,122.093702 L328.878321,120.185524 C328.878321,120.185524 328.667736,115.415079 328.878321,112.128888 C329.08942,108.842956 328.983227,97.604815 328.878321,93.3650533 C328.773929,89.1247733 328.774957,82.4461509 328.353274,80.5377139 C327.931848,78.6295361 326.144066,70.7843444 326.144066,70.7843444 L324.77591,66.3318431 L323.935372,64 L312.679004,75.7672694" id="Stroke-155" stroke="#15B371" stroke-width="2"></path>
                <path d="M310,70 C310,70 319.722819,63.2309681 321.624711,59 C323.103501,59.8459351 322.998371,63.4424519 322.998371,63.4424519" id="Stroke-157" stroke="#15B371" stroke-width="2"></path>
                <path d="M310,70 L310,78" id="Stroke-159" stroke="#15B371" stroke-width="2"></path>
                <path d="M320,71 L317,77" id="Stroke-161" stroke="#15B371"></path>
                <path d="M319.95607,82.028079 C319.95607,82.028079 320.492117,79.0232975 317.819196,78.4862984 C315.146537,77.949037 311.941488,77.7354965 311.406486,78.4862984 C310.872006,79.2368379 307.987749,79.2376249 307.879861,84.2817963 C307.772233,89.3257053 307.879861,89.8081388 307.879861,89.8081388 C307.879861,89.8081388 300.397668,96.8389707 301.038992,98.7708034 C301.680315,100.702898 304.351929,106.28197 304.566139,106.551126 C304.780088,106.820281 306.383265,107.891918 307.345381,108" id="Stroke-163" stroke="#15B371" stroke-width="2"></path>
                <path d="M315,114 L318,117" id="Stroke-165" stroke="#15B371"></path>
                <path d="M310,101 L312,100" id="Stroke-167" stroke="#15B371"></path>
                <path d="M311,104 L312,103" id="Stroke-169" stroke="#15B371"></path>
                <path d="M314,115 C314,115 317.452641,122.333265 319,123" id="Stroke-171" stroke="#15B371"></path>
                <path d="M312,116 C312,116 313.179257,118.806741 312.976576,120" id="Stroke-173" stroke="#15B371"></path>
                <path d="M272,135.496333 C272,135.496333 280.65637,142.354112 281.182945,150.069146 C281.710037,157.784442 281.182945,159.606338 281.182945,159.606338 C290.366149,162.178104 296.065855,173 296.065855,173 L297.813795,171.92902 L299.126492,167.856469 C299.126492,167.856469 301.237695,164.213724 302.399205,163.249345 C303.560715,162.284966 309.682248,163.67758 314.853831,163.249345 C320.025414,162.821111 326.465059,153.711891 327.41501,152.64065 C328.365219,151.56967 328.892053,149.747512 328.998348,143.103719 C329.104644,136.459665 324.045806,130 324.045806,130" id="Stroke-175" stroke="#15B371" stroke-width="2"></path>
                <path d="M272,135 C272,135 280.378328,132.837741 289.605661,133.010154 C298.832736,133.182568 301.802053,133 301.802053,133 L314,133.442141" id="Stroke-177" stroke="#15B371" stroke-width="2"></path>
                <path d="M307,130 C307,130 304.884157,131.273549 305.004985,132" id="Stroke-179" stroke="#15B371"></path>
                <path d="M307,133 C307,133 316.239708,134.400391 317,136" id="Stroke-181" stroke="#15B371"></path>
                <path d="M282,159 C282,159 290.723023,173.516675 297,171.869764" id="Stroke-183" stroke="#15B371"></path>
                <path d="M283,157 C283,157 286.756344,158.882708 289,159" id="Stroke-185" stroke="#15B371"></path>
                <path d="M294,159.086591 C294,159.086591 303.642071,158.380665 309,161" id="Stroke-187" stroke="#15B371"></path>
                <path d="M297,160 C297,160 301.299576,161.882708 303,162" id="Stroke-189" stroke="#15B371"></path>
                <path d="M298,164 L301,162" id="Stroke-191" stroke="#15B371"></path>
                <path d="M289,162 C289,162 292.407363,161.058029 293,161" id="Stroke-193" stroke="#15B371"></path>
                <path d="M324.709869,157 L332.040461,157 C332.040461,157 333.098106,158.675209 332.9926,163.792525 C331.30011,165.565554 330.03197,166 330.03197,166 L301,166" id="Stroke-195" stroke="#15B371" stroke-width="2"></path>
                <path d="M299,168.351333 C299,168.351333 299.163794,170 301.264625,170 C302.045344,170 305.543305,169.900756 309.636112,169.776038 C316.571702,169.562425 325.212501,169.274512 325.212501,169.274512 C325.212501,169.274512 327.733343,169.708637 326.787803,166" id="Stroke-197" stroke="#15B371" stroke-width="2"></path>
                <path d="M315.045366,170 L316.515312,200.95202 L333.315068,215.253741 C333.315068,215.253741 338.943545,214.290363 341.386792,219.307078 C342.448621,221.548179 341.918226,223.790844 341.386792,225.498213 C340.855358,227.20532 340.112336,226.99141 340.112336,226.99141 C340.112336,226.99141 331.827728,223.36198 330.871562,218.666913 L316.108234,205.433438 C316.108234,205.433438 314.51523,203.724765 312.603417,204.898924 C310.691345,206.073343 304,209.489384 304,209.489384" id="Stroke-199" stroke="#15B371" stroke-width="2"></path>
                <path d="M317,201 L321.847134,202.901576 C321.847134,202.901576 328.346595,202.119266 329.11743,204.358347 C329.887727,206.59688 330,207.605013 330,207.605013 L324.557845,208" id="Stroke-201" stroke="#15B371"></path>
                <path d="M328.998328,207 C328.998328,207 329.085547,209.683147 328,210" id="Stroke-203" stroke="#15B371"></path>
                <path d="M303,206 C303,206 307.252243,200.906461 308.062937,200.798221 C308.873631,200.68972 311,199.842225 311,199.842225 L310.392289,170" id="Stroke-205" stroke="#15B371" stroke-width="2"></path>
                <path d="M311,200 L303,206" id="Stroke-207" stroke="#15B371"></path>
                <path d="M330.549194,220 C330.549194,220 328.503491,225.411809 332.308519,228.080365 C336.1138,230.74892 338.381654,226.7618 339,226.752784" id="Stroke-209" stroke="#15B371" stroke-width="2"></path>
                <path d="M271.760584,135 C271.760584,135 256.319461,140.424315 254.402335,143.083685 C252.48547,145.742796 252.752801,150.423152 253.896829,152.232211 C255.041377,154.041269 270.695948,163.508596 282.8367,184.466838 C294.976671,205.42482 296.892756,207.93207 297,210.242214 C297,210.242214 291.995431,209.999082 291.036999,210.850434 C290.078566,211.702047 287.521618,211.594913 287.415415,215.637665 C287.309212,219.680938 287.415415,220 287.415415,220 L288.161701,220 L289.971061,220" id="Stroke-211" stroke="#15B371" stroke-width="2"></path>
                <path d="M267,150 C267,150 279.755394,157.722832 280.810677,159.744987 C281.865702,161.76688 284.183459,166.045198 288.085299,175.886926 C291.986882,185.728654 300.062438,203.806204 300.062438,203.806204 C300.062438,203.806204 304.426078,210.544105 304.848706,211.935349 C305.271335,213.326855 304.849995,215.220893 303.057431,217.536409 C301.26461,219.851664 298.31291,225.565153 294.93884,224.954637 C291.564512,224.344121 288.296614,222.384978 288.296614,222.384978 L287.875274,220.386617" id="Stroke-213" stroke="#15B371" stroke-width="2"></path>
                <path d="M296.800184,210 C296.800184,210 298.971335,214.187052 289,221" id="Stroke-215" stroke="#15B371"></path>
                <path d="M304.995801,211.023554 C304.995801,211.023554 307.247633,210.595657 307.768581,213.387482 C308.289274,216.178782 307.768581,220.904803 307.768581,220.904803 C307.768581,220.904803 295.824259,231 290.946523,231 C286.068531,231 281.478936,230.14132 281.478936,230.14132 C281.478936,230.14132 279.496375,229.105707 280.122125,228.066155 C280.748129,227.026604 284.71274,222.663114 287.529634,221.837249" id="Stroke-217" stroke="#15B371" stroke-width="2"></path>
                <path d="M322.573797,92.393189 C322.573797,92.393189 322.375669,95.3823729 323.111134,96.4585843 C323.8466,97.5345327 323.951189,100.335314 323.531033,102.326173 C323.111134,104.31677 323.077727,106.684698 323.77773,108.838174 C324.477476,110.991912 325.423663,114.062141 324.792786,117.801515 C324.16191,121.540626 322.617997,125.524977 322.549127,126.49383 C322.480258,127.462421 322.060102,128 322.060102,128 L313.964582,127.569779 L305.553239,125.383412 C305.553239,125.383412 300.632403,125.209481 300.254391,124.882671 C299.876122,124.55586 293.778592,122.509743 292.517096,121.756395 C291.255344,121.00331 284.001164,120.141815 284.001164,120.141815 L280.742449,119.604235 L279.374822,119.604235 L278.850077,119.604235 C278.850077,119.604235 277.903634,118.098065 278.00848,117.343665 C278.113326,116.589264 278,114.65261 278,114.65261 C278,114.65261 279.794978,113.358262 285.367506,114.112662 C290.939777,114.867063 300.573299,115.997479 300.573299,115.997479 C300.573299,115.997479 311.279953,117.342086 313.147398,115.997479 C315.015101,114.65261 313.964582,114.65261 313.964582,114.65261 L313.964582,105.501392 C313.964582,105.501392 312.912008,103.994959 312.281389,102.8106 C311.650512,101.625715 312.492109,97.5358483 312.281389,96.5669949 C312.070925,95.5981415 308.181077,90 308.181077,90" id="Stroke-219" stroke="#15B371" stroke-width="2"></path>
                <path d="M324,81 C324,81 321.967132,85.2154325 321,86" id="Stroke-221" stroke="#15B371"></path>
                <path d="M145,128 L133.494329,151 L130.493677,151 L129,150.375724 C129,150.375724 129.319906,149.126919 130.273628,148.293534 C131.22735,147.460658 130.386781,147.149792 130.280146,146.186159 C130.17325,145.222526 131.453917,144.547118 131.453917,144.547118 C131.453917,144.547118 132.51975,144.651927 133.053709,143.385823 C133.587407,142.119973 140.573458,128 140.573458,128" id="Stroke-483" stroke="#15B371" stroke-width="2"></path>
                <path d="M149.554881,128.109632 L135,157.995481 L136.559188,159 L142.277059,157.995481 L143.188788,156.680948 C143.188788,156.680948 144.668441,154.88941 144.3564,154.150581 C144.044359,153.411753 152.673511,127.001517 156,128.029229" id="Stroke-485" stroke="#15B371" stroke-width="2"></path>
                <path d="M279,108.546343 C279,108.546343 283.483305,108.280146 287.751927,109.720115 C292.020289,111.160083 304.826938,115 304.826938,115 L304.826938,110.840177 L306,109.027637 L305.467074,107" id="Stroke-223" stroke="#15B371" stroke-width="2"></path>
                <path d="M332.59883,123 C332.59883,123 333.012161,131.822913 334.376334,134.450414 C335.74025,137.077914 337,144.225558 337,144.225558 C337,144.225558 336.474805,150.849295 335.74025,152.215462 C335.006209,153.581629 332,157 332,157" id="Stroke-225" stroke="#15B371" stroke-width="2"></path>
                <path d="M339.696327,124 L340.005609,131.20082 C340.005609,131.20082 345.471613,143.027397 343.615415,149.69491 C341.759217,156.362424 340.831118,158.407597 338.768228,161.309636 C336.705086,164.211675 333,163.996407 333,163.996407" id="Stroke-227" stroke="#15B371" stroke-width="2"></path>
                <path d="M341.395385,78.055958 C341.395385,78.055958 342.96016,78.4237913 344.265056,79.1803811 C345.173458,79.7068167 345.954929,80.4215603 345.998897,81.3318445 C346.045482,82.2852664 344.609992,89.650199 342.897349,97.8362988 C340.623858,108.71218 337.860704,121.03718 337.432805,121.700778 C336.683785,122.863689 335.864627,124.352329 334.239396,123.925085 C332.614689,123.49784 331.008563,122.229797 331.008563,122.229797 C331.008563,122.229797 330.871949,113.562982 331.690061,108.068213 C332.50791,102.573445 337.21951,80.5917865 339.146756,79.1121873 C341.073741,77.6331046 341.395385,78.055958 341.395385,78.055958 Z" id="Stroke-229" stroke="#15B371" stroke-width="2"></path>
                <path d="M344,80 C344,80 336.046279,119.999436 335.602267,121.04559 C335.157442,122.091486 333,124 333,124" id="Stroke-231" stroke="#15B371" stroke-width="2"></path>
                <path d="M343.512054,97 L346.181318,97.7290769 C346.181318,97.7290769 347.46103,97.9651273 346.820522,99.9877607 C346.335249,101.521961 344.190132,107.301752 343.18306,110.000383 C342.862936,110.859351 342.657869,111.406223 342.657869,111.406223 L341.875953,114.61804 L341.056728,117.983737 L339.455587,123 C339.455587,123 338.067079,122.931609 337,122.180331" id="Stroke-233" stroke="#15B371" stroke-width="2"></path>
                <path d="M343.356493,111 C343.356493,111 345.674522,111.308409 344.804754,113.703571 C344.323173,115.029295 344.920344,116.409572 342,115.886466" id="Stroke-235" stroke="#15B371"></path>
                <path d="M344.643756,108 C344.643756,108 347.878262,108.622757 347.990654,111.067267 C348.103045,113.511777 347.164699,115.434951 347.164699,115.434951 C347.164699,115.434951 345.067365,118.842319 341,117.802697" id="Stroke-237" stroke="#15B371"></path>
                <path d="M334,135 L341,134" id="Stroke-241" stroke="#15B371"></path>
                <path d="M336,152 C336,152 342.703035,152.249847 341.939374,152.5" id="Stroke-249" stroke="#15B371"></path>
                <path d="M335,155 L341,157" id="Stroke-251" stroke="#15B371"></path>
                <path d="M333,156 L337,161" id="Stroke-253" stroke="#15B371"></path>
                <path d="M321.701931,58.8668346 C321.701931,58.8668346 320.532476,54.1115177 320.957922,53.371486 C320.957922,53.371486 324.03616,50.4123925 325.741583,49.8841675 C327.447266,49.3559425 331.489518,47.3479124 332.553912,45.1285923 C332.553912,45.1285923 334.042711,44.5998506 334.469196,40.5845654 C334.895422,36.5690218 334.469196,30.7564799 334.469196,30.7564799 L338.751737,27.2668367 C338.751737,27.2668367 339.310329,23.9381149 338.751737,22.9870515 C338.193405,22.0357298 338.352817,16.4086478 338.352817,16.4086478 C338.352817,16.4086478 335.639952,11.4947343 331.65023,10.2264775 C329.974453,9.03777746 328.937105,8.79988247 328.937105,8.79988247 C328.937105,8.79988247 327.101916,8.00741575 326.383652,8.40364911 C325.665388,8.79988247 323.112195,10.2264775 323.112195,10.2264775 C323.112195,10.2264775 314.653995,6.50152234 309.626665,7.05635236 C304.833122,7.58561061 300.910494,13.1584494 298.757521,13.5378932 C298.65246,13.5564909 294.545715,13.0006277 293.747875,13.5551994 C292.949775,14.1102877 290.715666,16.2500512 290.555994,17.0427762 L290.396582,17.8352429 C290.396582,17.8352429 289.199561,17.9145412 288.720805,18.3107746 C288.242049,18.707008 288.082637,19.8959663 288.082637,19.8959663 L285.688596,20.371498 C285.688596,20.371498 283.534063,20.9263281 284.092395,24.5719849 C284.650987,28.2179001 285.289415,33.528047 286.246928,35.6680688 C287.2047,37.8078323 289.758153,40.8989174 289.997401,42.8013025 C290.236649,44.7034292 289.359233,51.2815746 289.518385,51.8364046 C289.678317,52.3912346 291.513506,54.5312564 291.912426,55.4030214 C292.311346,56.2750448 293.907287,58.0976149 293.348955,60 C293.907287,57.2258499 293.827451,55.4823198 293.827451,55.4823198 C293.827451,55.4823198 292.790362,53.659233 292.710526,52.3119363 C292.63043,50.9646396 292.471018,50.0928745 293.428791,48.4283844 C293.428791,46.2093226 293.348955,41.4537474 293.348955,41.4537474 C293.348955,41.4537474 293.428791,40.5819824 292.63043,39.630919 C291.83285,38.6798556 291.03475,37.0946639 290.795242,35.5094721 C290.555994,33.9245387 289.598481,24.6512833 291.194422,22.4322215" id="Stroke-255" stroke="#15B371" stroke-width="2"></path>
                <path d="M305,23 C305,23 302.43899,15.1539233 298,13" id="Stroke-257" stroke="#15B371" stroke-width="2"></path>
                <path d="M290,17 C290,17 298.666486,24.7501358 299,26" id="Stroke-259" stroke="#15B371" stroke-width="2"></path>
                <path d="M314,66 C314,66 313.52617,57.3946827 313.131312,56.6843053 C311.789567,58.5 309.264019,60.7893654 309.264019,60.7893654 C309.264019,60.7893654 308.632761,61.815952 307.448444,60.7106346 C306.264899,59.6053173 304.922896,57.7896226 304.922896,57.7896226 L302.160176,57.2367067 C302.160176,57.2367067 301.607632,56.2106346 302.555034,55.5 C302.842368,55.2841338 303.079025,55.0608062 303.268866,54.8549743 C303.704367,54.3838765 303.89678,54 303.89678,54" id="Stroke-261" stroke="#15B371" stroke-width="2"></path>
                <path d="M303,55 L300.159042,55 C300.159042,55 299.149601,53.1223893 299,53" id="Stroke-263" stroke="#15B371"></path>
                <path d="M300,50.125879 L299.392825,51.402535 L298.595629,51.9827415 C298.595629,51.9827415 295.254928,52.0215732 295.141361,51.9827415 C295.027299,51.9439097 294.685608,51.5185259 294.685608,51.5185259 L295.40734,43.0464019 C295.40734,43.0464019 291.755876,38.458459 291,37" id="Stroke-265" stroke="#15B371"></path>
                <path d="M295,36.990104 C295,36.990104 295.34773,37.1687132 297.304313,36.0083353 C299.260613,34.8479573 300,34 300,34" id="Stroke-267" stroke="#15B371"></path>
                <path d="M298,38 C298,38 300.360119,35.75 303,38" id="Stroke-269" stroke="#15B371"></path>
                <path d="M297,40 C297,40 301.074032,40 303,39" id="Stroke-271" stroke="#15B371"></path>
                <path d="M299,41 L299,41.2221097 C299,41.2221097 303.474894,47.617904 304,41" id="Stroke-273" stroke="#15B371"></path>
                <path d="M287,20 C287,20 291.640073,21.5687748 293.919828,25.309921 C296.199844,29.0513295 303.320167,36.8149684 304.359927,37.7402912 C305.399948,38.6656139 311.114718,43.5733119 311.477382,44.1365291 C311.839786,44.6997462 311.639812,47.0729671 311.079781,47.7166812 C310.52001,48.3603954 308.559901,50.9297459 309.919828,52.8029411 C311.279755,54.6761363 312.679833,55.1585942 313.799896,54.9577448 C314.919958,54.7566333 315,53.8313106 315,53.8313106 C315,53.8313106 313.560031,55.199236 312.160214,53.4694671 C310.759875,51.7394361 311.520141,50.2511584 313.679703,47.6361842 C314.479859,45.9064153 315.079781,43.6939264 305.720115,34.3612505" id="Stroke-275" stroke="#15B371" stroke-width="2"></path>
                <path d="M307,31 C307,31 314.821147,40.5278177 317,41 C311.707956,40.0553788 309.334576,38.5592794 309.334576,38.5592794" id="Stroke-277" stroke="#15B371"></path>
                <path d="M311,33.3323662 C311,33.3323662 311.976649,28.8189014 314.575048,30.2975201 C316.116359,31.1740393 317.329034,32.8454111 318.094265,35.0354408 C318.619237,36.5363784 318.933849,38.2815544 319,40.1806791 C318.918767,43.0600546 317.782033,43.883313 317.660316,43.9776606 C317.538599,44.0717545 315,43.8381683 315,43.8381683" id="Stroke-279" stroke="#15B371"></path>
                <path d="M320.98518,52.9544369 C321.140188,53.9657889 320.051897,37.8240411 319,36" id="Stroke-281" stroke="#15B371"></path>
                <path d="M300,42 L301,43" id="Stroke-283" stroke="#15B371"></path>
                <path d="M323,10 C323,10 334.31087,19.0218543 333.993442,31" id="Stroke-285" stroke="#15B371" stroke-width="2"></path>
                <path d="M278,120.196423 C278,120.196423 276.75363,121.435736 275.00135,121.529314 C273.248562,121.622593 266.666915,122.54008 265.38196,121.529314 C264.096752,120.518548 258.177128,120.702406 258.177128,120.702406 L257.553942,120.196423 C257.553942,120.196423 256.307572,119.321825 257.553942,119 C259.384406,119.183857 264.603169,119 264.603169,119" id="Stroke-287" stroke="#15B371"></path>
                <path d="M267,117.097173 C267,117.097173 264.918966,115.708765 264.086601,116.05564 C263.254237,116.402969 261.286404,117.375035 261.286404,117.375035 L260.53,117.687291 L260,118" id="Stroke-289" stroke="#15B371"></path>
                <path d="M258,118 C258,118 262.64825,113.886053 264.250032,114.002423 C265.851305,114.118793 266.749841,114.235417 268,115.360668" id="Stroke-291" stroke="#15B371"></path>
                <path d="M261,115 C261,115 264.408049,112.035086 264.929148,112.000301 C265.450508,111.965288 269.820525,115 271.143657,115 C272.466788,115 276.882016,113.818445 278,113.672257" id="Stroke-293" stroke="#15B371"></path>
                <path d="M283,114 L283,120" id="Stroke-295" stroke="#15B371"></path>
                <path d="M286,110 L284,114" id="Stroke-297" stroke="#15B371"></path>
                <path d="M280.5,109 L280,114" id="Stroke-299" stroke="#15B371"></path>
                <path d="M278,109 C278,109 275.910629,111.209382 273.511824,111.343328 C271.113019,111.477858 268.675377,111.343328 268.675377,111.343328 L265.967138,111.403735 L265.657704,112.015102 L265.232012,112.367622 L265,113" id="Stroke-301" stroke="#15B371"></path>
                <path d="M268,114 C268,114 269.615192,114.455388 271,114.5" id="Stroke-305" stroke="#15B371"></path>
                <path d="M313,34.1046898 C313,34.1046898 313.88321,32.4758955 315.075602,33.1738779 C316.268281,33.8718604 317.256279,34.772589 317.424688,36.0287552 C317.593096,37.2851743 317.504718,37.3625312 317.857944,38.4872412 C318.211459,39.6122039 317.852475,39.7921979 317.358763,40" id="Stroke-307" stroke="#15B371"></path>
                <path d="M314,44 C314,44 318.5,47.7701184 314,55" id="Stroke-309" stroke="#15B371"></path>
                <polyline id="Stroke-311" stroke="#15B371" points="280.464141 119.76918 282 123 251.408674 123 241 95.6462166 249.740231 95 256.573521 112.768983 263.645308 112.768983"></polyline>
                <polygon id="Stroke-313" stroke="#15B371" points="243 96.6374752 249.171119 96 256 112.094495 251.721458 119"></polygon>
                <path d="M257,114 L253,121" id="Stroke-315" stroke="#15B371"></path>
                <polyline id="Stroke-317" stroke="#15B371" points="194 82.716902 199.783695 80 200.811611 101 208 100.686659"></polyline>
                <polyline id="Stroke-319" stroke="#15B371" points="194 83 197.046542 109 225 109 222.648728 105.179476"></polyline>
                <polygon id="Stroke-321" stroke="#15B371" points="195 82.894418 198.943838 81 200 98.8946987 197.500136 103"></polygon>
                <path d="M201,102 L198,106" id="Stroke-323" stroke="#15B371"></path>
                <g id="Stroke-325">
                    <use stroke="#15B371" stroke-width="2" xlink:href="#path-1"></use>
                    <use stroke="#979797" stroke-width="1" xlink:href="#path-1"></use>
                </g>
                <path d="M229,100 C229,100 235.30389,102.931351 238.727497,102.978735 C242.151635,103.026581 244,102.978735 244,102.978735" id="Stroke-327" stroke="#15B371" stroke-width="2"></path>
                <path d="M215.565091,104.362441 C215.565091,104.362441 211.157752,104.909776 209.851697,105.394551 C208.545907,105.879325 207.185056,106 207.185056,106 C207.185056,106 204.518681,105.879325 207.185056,104.605569 C209.851697,103.331814 214.749006,101.721236 216,102.041157" id="Stroke-329" stroke="#15B371"></path>
                <path d="M207,104 C207,104 207.854374,102.268364 207.961073,100.955912 C208.066989,99.6437161 208.385781,98.0175173 209.614253,98.2796998 C210.842464,98.5416258 216.018012,99.8009744 216.018012,99.8009744 C216.018012,99.8009744 225.091069,95.2879454 226.371716,94.868248 C227.652625,94.4490638 234.589356,94.9205819 236.510197,94.868248 C238.431298,94.8161707 241.47313,92.717171 245.475512,93.0322005 C249.477893,93.3469735 252.199628,94.1850855 253,95.7078992" id="Stroke-331" stroke="#15B371" stroke-width="2"></path>
                <path d="M209,103 C209,103 210.082645,101.621836 210.23006,101 C210.770902,101.533188 212,101.999891 212,101.999891" id="Stroke-333" stroke="#15B371"></path>
                <path d="M212.214075,98 C212.214075,98 211.516514,95.4820285 212.639768,95.6830739 C213.763022,95.8841194 218.625059,94.9308698 218.625059,94.9308698 C218.625059,94.9308698 224.341877,91.2206008 226.317561,90.4176449 C228.293507,89.6146891 244,90.2165995 244,90.2165995" id="Stroke-335" stroke="#15B371" stroke-width="2"></path>
                <path d="M244,76 C244,76 241.826951,81.7137726 242.011073,84.2714953 C242.242244,85.9589964 242.981673,90.9118904 244,92" id="Stroke-337" stroke="#15B371" stroke-width="2"></path>
                <path d="M247.980563,81 C247.980563,81 243.259201,73.1586471 242,71.9406307 C242.210038,70.086801 243.678507,57.9548085 248.400126,56.5772561 C253.121488,55.1994446 258.890218,56.0471095 261.986159,61.7689118 C262.144906,67.4904551 260.885705,72.1530002 260.885705,72.1530002 L260.098897,73.5300346 L259.416723,73.6359604 C259.416723,73.6359604 252.228507,68.7625998 242.57677,71.834964" id="Stroke-339" stroke="#15B371" stroke-width="2"></path>
                <path d="M266,66 C266,66 263.16024,71.7587589 261,72" id="Stroke-341" stroke="#15B371" stroke-width="2"></path>
                <path d="M261,73 C261,73 264.010057,72.5003667 266,71" id="Stroke-343" stroke="#15B371" stroke-width="2"></path>
                <path d="M259,74 C259,74 258.505448,76.1992391 258.000838,78.6227104 C257.975133,78.7441485 257.949707,78.8660905 257.924001,78.9882845 C257.530316,80.8955179 257.145851,82.8795949 257,84" id="Stroke-345" stroke="#15B371" stroke-width="2"></path>
                <path d="M257.625636,80 C257.625636,80 259.475105,84.2080357 258.88313,88.6783344 C259.129324,90.9921626 258.778962,94.9397352 258.313339,96.5161415 C257.847475,98.092805 258.587263,100.830882 257.205828,101.565476 C255.824151,102.300069 254,101.880963 254,101.880963" id="Stroke-347" stroke="#15B371" stroke-width="2"></path>
                <path d="M242.639397,81 C242.639397,81 232.143238,66.2806674 246.80103,52.146917 C247.825566,51.9870943 254.508364,48.1463955 253.969093,41" id="Stroke-349" stroke="#15B371" stroke-width="2"></path>
                <path d="M265,107.264929 C265,107.264929 270.751172,105.524804 271.986279,104.00049 C271.986279,103.949817 275.176176,107.842142 276,110" id="Stroke-351" stroke="#15B371"></path>
                <path d="M281.487813,66 C281.487813,66 273.825521,84.084675 275.154949,93.4969263 L275.420835,97.356593 L277.614781,98 C277.614781,98 280.849115,85.931659 281.487813,82.6024347 C282.071356,79.5573022 284.524944,69.1684371 284.940163,67.4152887 C284.978927,67.251658 285,67.163251 285,67.163251 L281.487813,66 Z" id="Stroke-353" stroke="#15B371" stroke-width="2"></path>
                <path d="M285.419287,67.0003318 C285.419287,67.0003318 286,66.9459085 286,68.2311361 C286,68.9171839 284.916918,74.5772093 283.877079,79.880605 C282.968491,84.5136519 282.090172,88.8740588 281.992751,89.4075643 C281.78519,90.5507157 280.223141,97.6328121 279.80751,97.9452228 C279.391625,98.257372 278,97.1335827 278,97.1335827" id="Stroke-355" stroke="#15B371"></path>
                <path d="M283.774456,80 L285.401283,80 C285.401283,80 286.273374,80.4160564 285.912509,81.0531831 C285.551399,81.6900515 282.872782,88.0303271 282.536611,92.5733734 C282.250803,93.9470568 281,98.5425298 281,98.5425298 L281,103.507831 C281,103.507831 282.722911,106.890516 282.536611,108" id="Stroke-357" stroke="#15B371" stroke-width="2"></path>
                <path d="M276,98 L276,103.854712 C276,104.63013 278.067935,108.534533 277.998279,109" id="Stroke-359" stroke="#15B371" stroke-width="2"></path>
                <path d="M277,99 L281,99" id="Stroke-361" stroke="#15B371"></path>
                <path d="M276,103 L280,103" id="Stroke-363" stroke="#15B371"></path>
                <path d="M284.66915,87 C284.66915,87 288.775742,87.4447833 287.869347,90.7576613 C286.963229,94.0702735 285.886902,95.0996824 283,94.9925409" id="Stroke-367" stroke="#15B371" stroke-width="2"></path>
                <path d="M283.286777,89 C283.286777,89 285.291018,89.3344305 284.963912,90.3861973 C284.637127,91.4379641 284.631366,91.6379859 284.143268,91.8886864 C283.655171,92.139142 283,91.8886864 283,91.8886864" id="Stroke-369" stroke="#15B371"></path>
                <path d="M252,73 C252,73 250.381639,76.1972712 250,78" id="Stroke-371" stroke="#15B371"></path>
                <path d="M210.052679,36 C210.052679,36 208.963162,42.1699247 216.693836,45.3625605 L219.688544,46.1742117 C219.688544,46.1742117 221.376576,47.6348135 221.321488,48.5549317 C221.266933,49.47505 220.775665,53.1552585 223.661528,52.9928225 C224.914712,53.047056 225.731184,52.7761529 225.731184,52.7761529 C225.731184,52.7761529 226.438013,52.3981054 226.764549,51.207084 C227.091085,50.0160626 226.982772,49.2589095 226.982772,49.2589095" id="Stroke-373" stroke="#15B371" stroke-width="2"></path>
                <path d="M226,51.9804841 L227.431639,54.0035754 L229.499907,54.0035754 C229.499907,54.0035754 229.870065,55.1790319 230.559833,55.4995398 C231.249601,55.8200476 232.096972,55.4995398 232.096972,55.4995398 C232.096972,55.4995398 233.582009,57.0487915 234.059481,57.4231091 C234.536694,57.7976879 236.020434,57.8509753 236.551045,56.7285449 C237.081916,55.6066369 237.823527,53.7899035 237.823527,52.8814062 L237.823527,50.2635339 L237.823527,49.888955 C237.823527,49.888955 237.241851,50.31656 240.634961,50.7974524 C244.027554,51.2783447 245.248192,51.1182214 245.248192,51.1182214 L246.33067,51.1688966 C249.057083,50.901415 251.451701,40.0017982 251.451701,40.0017982 C251.451701,40.0017982 252.40509,39.897052 256.381951,41.2864416 C260.358812,42.6760925 269.426116,52.1871032 272.227182,57.2629858 C275.028508,62.3386071 274.999994,71.3668971 274.999994,71.3668971 C274.999994,71.3668971 273.933588,84.4606994 272.820005,86.6227558 C271.706681,88.7850734 272.501949,103 272.501949,103" id="Stroke-375" stroke="#15B371" stroke-width="2"></path>
                <path d="M230,54 C230,54 231.155242,50.9020035 232,51.0023879" id="Stroke-377" stroke="#15B371"></path>
                <path d="M233,53 C233,53 232.500489,54.6447583 232,55" id="Stroke-379" stroke="#15B371"></path>
                <path d="M231,41 C231,41 232.085599,41.8695219 231.994581,43.6546842 C231.903562,45.4395971 231.499941,46 231.499941,46" id="Stroke-381" stroke="#15B371"></path>
                <path d="M251,40.9026091 C251,40.9026091 248.893958,41.4411012 246.420742,40.9026091 C245.052651,40.038369 242.788881,37.325748 242.788881,37.325748 L242.157455,37 L237.89391,37.2711029 C237.89391,37.2711029 237.947172,38.9528961 236.052378,39.7128863 C235.051718,40.1471285 235,40.9026091 235,40.9026091 C235,40.9026091 236.316373,41.9917957 236.736809,42.1005552 C237.157503,42.2093147 239.472991,44.4338443 239.472991,45.8447998 C239.472991,47.2557553 237.420469,49.9139966 237.104498,50.4569983 L236.788785,51" id="Stroke-383" stroke="#15B371" stroke-width="2"></path>
                <path d="M210,34.5707197 C210,34.5707197 213.719975,33.0448042 216.289585,33.1397076 C218.859195,33.2348441 225.779071,32.9492013 228.191557,34.1414394 C228.401483,33.2348441 228.348681,31.1357777 229.030749,31.0882094 C229.712817,31.0406411 234.849474,30.18278 237,35" id="Stroke-385" stroke="#15B371" stroke-width="2"></path>
                <path d="M230.001548,35.2946926 C230.001548,35.2946926 229.95369,33.7313273 230.3901,33.5024217 C230.826272,33.273516 231.746238,32.4964993 232.958092,33.5024217 C234.170182,34.508344 234.799446,34.7339561 234.944916,35.856527 C235.090386,36.9790979 234.89611,37.8211633 234.944916,37.9896862 C234.993722,38.158209 234.461122,38.71922 234.461122,38.71922 L234.072571,39 C234.072571,39 233.490928,38.719769 233.394264,37.9336949 C233.297837,37.1473463 232.523341,37.0348147 231.98932,37.6526404" id="Stroke-387" stroke="#15B371"></path>
                <path d="M210.379981,35.7015056 C210.379981,35.7015056 207.413489,25.9073823 218.057807,17.7910651 C222.665073,15.4107125 228.596244,14.1659142 231.058958,15.6268196 C233.521413,17.087725 240.565245,22.9855716 241.782493,28.0176671 C243,33.0497627 241.622506,34.9444694 243,37" id="Stroke-389" stroke="#15B371" stroke-width="2"></path>
                <path d="M251,49 L251,56" id="Stroke-391" stroke="#15B371"></path>
                <path d="M260,128 L260,139" id="Stroke-393" stroke="#15B371" stroke-width="2"></path>
                <path d="M265,128 L265,137" id="Stroke-395" stroke="#15B371" stroke-width="2"></path>
                <path d="M256,162 L250,165" id="Stroke-397" stroke="#15B371"></path>
                <path d="M256,164 L250,167" id="Stroke-399" stroke="#15B371"></path>
                <path d="M241.437795,128 C241.437795,128 236.426093,129.542736 235.698469,130.43583 C234.970844,131.329188 234.728479,132.752315 235.374963,133.542736 C236.021711,134.333422 241.410133,142.128341 243,147" id="Stroke-401" stroke="#15B371" stroke-width="2"></path>
                <path d="M221.129788,128 C221.129788,128 218.007118,130.682574 222.144726,136.126145 C226.282333,141.569973 240.49146,164.804978 240.49146,164.804978 L240.101158,166.500967 L241.03773,168 L242,168" id="Stroke-403" stroke="#15B371" stroke-width="2"></path>
                <path d="M251,167 C251,167 251.959017,167.714648 252.691941,171.463259 C252.947863,174.381681 253,175 253,175" id="Stroke-407" stroke="#15B371"></path>
                <path d="M241.429471,166.446458 C241.429471,166.446458 239.861588,165.708493 238.940861,166.130114 C238.019868,166.552764 231.95894,171.921866 230.930001,171.817104 C230.365922,171.760476 228.706496,171.638211 227.128559,171.776435 C225.833455,171.888661 224.592854,172.177464 224.056292,172.817875 C222.866489,174.239493 222,176.504097 222,176.504097 C222,176.504097 223.136622,178.557632 224.598145,179.031505 C226.059139,179.505378 234.990727,181.191089 243,178.557632" id="Stroke-409" stroke="#15B371"></path>
                <path d="M227.18408,173 C227.18408,173 228.110357,173.585968 228.618725,174.922486 C229.127092,176.259004 229.127092,176.900355 228.618725,177.861989 C228.110357,178.824146 227.18408,180 227.18408,180 L227,180" id="Stroke-411" stroke="#15B371"></path>
                <path d="M230,172.63533 C230,172.63533 231.745105,175.215096 232.726994,174.985541 C233.708882,174.755425 241.808262,169.551045 242,169" id="Stroke-413" stroke="#15B371"></path>
                <path d="M233,172 L234,174" id="Stroke-415" stroke="#15B371"></path>
                <path d="M235,170 L236,172" id="Stroke-417" stroke="#15B371"></path>
                <path d="M236,169 L237,171" id="Stroke-419" stroke="#15B371"></path>
                <path d="M238,168 L240,170" id="Stroke-421" stroke="#15B371"></path>
                <path d="M242,172 L238.801965,172.445335 C238.801965,172.445335 238.041851,174.806698 236.34022,175.125765 C234.639084,175.444831 232.000153,176.554096 232.000153,177.165618 C232.000153,177.777682 231.897663,179.443888 236.99958,178.888305 C240.882785,177.611225 241.695508,176.99916 241.695508,176.99916" id="Stroke-423" stroke="#15B371"></path>
                <path d="M221.20549,177 C221.20549,177 220.624021,180.15669 221.417333,181.315009 L221.999061,181.946655 L223.427903,180.947084 L224.433317,181.946655 L226.814548,182.210377 L227.818927,182.526329 L228.626207,182.789022 L229.195519,182.315094 L229.671714,183 L230.941738,183 L231.840842,182.210377 L233.005333,182.26235 L233.322709,182.526329 L233.904437,182.526329 L235.279478,181.9994 L236.338693,182.26235 L237.926094,181.9994 L238.561106,181.156775 L238.983758,181.052316 L239.196118,181.894683 L240.942078,181.946655 L242,181.788422" id="Stroke-425" stroke="#15B371"></path>
                <path d="M232,130 C232,130 233.888644,131.205212 235,130.969421" id="Stroke-427" stroke="#15B371"></path>
                <path d="M229,131 C229,131 232.85763,132.955865 234,133" id="Stroke-429" stroke="#15B371"></path>
                <path d="M234,134 C234,134 232.088866,135.201293 231,134.97056" id="Stroke-431" stroke="#15B371"></path>
                <polyline id="Stroke-433" stroke="#15B371" points="167.830117 88.7919719 177.109959 88.7919719 190.165094 72.6337324 199 72 181.356844 95.6830047 158 96 159.808707 92.0662128"></polyline>
                <polygon id="Stroke-435" stroke="#15B371" points="190.874442 74 197 74 181.928027 94 179 89.3644086"></polygon>
                <path d="M178,90 L181,96" id="Stroke-437" stroke="#15B371"></path>
                <path d="M151,90.666546 C151,90.666546 151.466759,92.5556159 154.150684,92.9998189 C156.83461,93.4442634 160.024085,91.8644457 161.969208,92.3953166 C163.914078,92.925946 165.158683,93.7776571 165.158683,93.7776571 L167.531521,94 C167.531521,94 168.231532,93.6294285 167.920191,93.4442634 C167.609356,93.2590983 165.858694,92.7777174 165.858694,92.7777174 L164.76976,92.3953166 L163.875034,91.8516507 L163.797452,91.4072062 L165.508816,90.4811395 L166.286662,90 L166.325453,91.9998793 L166.403288,92.3953166" id="Stroke-439" stroke="#15B371"></path>
                <path d="M153,83 C153,83 155.296554,83.7219966 158.424958,85.0515995 C161.553104,86.3809547 161.513357,86.0771516 162.543167,86.3809547 C163.572461,86.6847578 164.916893,86.9647915 164.958446,87.4825196 L165,88" id="Stroke-441" stroke="#15B371"></path>
                <path d="M152,88 L162.541901,88.5651127 C162.541901,88.5651127 167.792473,88.3040952 168.313428,88.5651127 C168.834645,88.8261301 169.035033,93.1741533 168.99506,93.3481649 C168.954825,93.5218932 168.756528,94 168.756528,94" id="Stroke-443" stroke="#15B371"></path>
                <path d="M124.5,92 L124,101" id="Stroke-445" stroke="#15B371" stroke-width="2"></path>
                <path d="M127,102 C127,102 127.479851,101.942453 131.897658,99.9428252 C136.315465,97.9431977 141,96 141,96" id="Stroke-447" stroke="#15B371" stroke-width="2"></path>
                <polyline id="Stroke-449" stroke="#15B371" points="132 91.3886503 132 93 142 90"></polyline>
                <path d="M138,87 L142,86" id="Stroke-451" stroke="#15B371" stroke-width="2"></path>
                <path d="M124.192125,76.5655388 C124.192125,76.5655388 122.947807,89.58939 123.001701,90.3625132 C123.055331,91.1356364 123.216221,91.8850154 124.865536,91.9377224 C126.514587,91.9901685 130.945256,92.2041277 133.512354,91.3495956 L136.079981,90.4950635 C136.079981,90.4950635 139.700391,70.2667895 136.998293,67.064186 C135.052561,66.2099149 133.377619,65.6810183 131.702678,66.2143507 C130.027473,66.7479439 127.432899,69.3600723 126.406271,70.9073624 C125.379643,72.4549134 124.192125,76.5655388 124.192125,76.5655388 Z" id="Stroke-453" stroke="#15B371" stroke-width="2"></path>
                <path d="M134.788086,60.8662109 C126.236328,47.1064453 131.580078,48.7421875 117.606916,62.3676837 L111.841264,81.0036689 L111,104" id="Stroke-455" stroke="#15B371" stroke-width="2"></path>
                <path d="M136.997299,44.7775848 C136.997299,44.7775848 137.112358,46.1725338 135.840488,45.9821446 C134.568335,45.7917554 133.223811,44.5094147 132.660106,44.0817356 C132.096118,43.6545208 132,43 132,43" id="Stroke-457" stroke="#15B371"></path>
                <path d="M133,40.2543463 C133,40.2543463 134.349337,38.9052079 135.079771,39.0053068 C135.809929,39.1054058 137.108172,39.9042442 136.992797,40.6037161 C136.877422,41.303188 136.147263,41.6696477 136.147263,42.6100895 C136.147263,43.5505313 135.585497,43.8005345 135.417105,44" id="Stroke-459" stroke="#15B371"></path>
                <path d="M135,41.0078327 C135,41.0078327 132.841434,40.8621053 133.009308,41.8278011 C133.177181,42.7938327 133.772393,42.9315014 134.565279,43" id="Stroke-461" stroke="#15B371"></path>
                <path d="M141,15 C141,15 150.93271,15.1563995 154.980894,18.5102699 C159.029342,21.86362 162.052353,24.7384033 161.999313,26.6550122 C161.943634,28.5713609 160.648775,31.5517984 159.569241,31.9777983 C158.48918,32.4040583 157.788314,33.0952346 156.600326,32.98906 C155.412602,32.8831455 153.576788,29.1027547 152.497519,28.3579706" id="Stroke-463" stroke="#15B371" stroke-width="2"></path>
                <path d="M151.187546,24.9690007 C151.187546,24.9690007 151.815717,25.6017146 151.972568,27.7650132 C152.12993,29.9285696 151.555493,33.0936866 151.633534,34.2549088 C151.71132,35.4161309 143.546375,39.6898514 142.655933,40.639567 C141.766258,41.5892827 139.987421,40.5872063 138.992582,39.5314795 C137.997488,38.4762685 135.95638,36.9983025 134.542931,37.8956574 C133.129738,38.7927544 131.821965,39.7646524 132.240319,41.0200208 C132.658673,42.2751311 132.776375,43.7523233 132.776375,43.7523233 C132.776375,43.7523233 131.717056,45.3884033 130.513168,44.9135454 C129.309024,44.4384297 124.755232,30.6144181 126.325787,25.390724 C127.895831,20.1672879 130.827126,16.2100533 133.653768,15.7351955 C135.445399,15.4339278 138.286881,14.3916135 141.582029,15.4953162 C143.485221,16.1326729 145.539635,17.4868302 147.628848,20.1146692 C148.989075,23.7554179 149.983658,24.0724196 150.873332,24.4941429" id="Stroke-465" stroke="#15B371" stroke-width="2"></path>
                <polyline id="Stroke-467" stroke="#15B371" points="142 41 147.788651 44.7163378 152 45"></polyline>
                <path d="M141,42 C141,42 145.80075,45.0051368 146.011699,45.2650502 C146.222389,45.5252176 143.796226,49.2148183 144.639761,49.4747316 C145.483812,49.734899 146.697409,50.5138768 148.121439,49.4747316 C149.545727,48.4358404 150.864541,47.0844435 150.864541,47.0844435 L152,45.6464088" id="Stroke-469" stroke="#15B371"></path>
                <path d="M147.657548,46 C147.657548,46 145.203261,49.321801 146.267583,49.7798935 C147.332149,50.237986 148.080836,49.9278279 148.780457,49.3380514 C149.479833,48.748555 150.138199,47.1263192 150.378404,47.0288169 C151.177134,46.7066112 150.977939,46.2832609 150.977939,46.2832609 L147.657548,46 Z" id="Stroke-471" stroke="#15B371"></path>
                <path d="M138.854223,40.039937 C138.854223,40.039937 138.694608,46.3331356 138.00588,47.7647723 C137.316893,49.1961503 137.851965,49.6204923 137.319484,49.884671 C136.787002,50.1488498 135.439862,50.1488498 135.439862,50.1488498 L135.027869,50.1488498 C135.027869,50.1488498 134.965163,53.9071226 135.027869,54.8598221 C135.090834,55.8125216 135.439862,57.4532243 135.439862,57.4532243 L135.833199,57.5065258 L137.423389,59.1469698 L139.808544,62.1111538 C139.808544,62.1111538 140.974303,62.6402876 145.585776,64.3342918 C150.19673,66.0282961 154.596764,64.1221208 155.179255,62.6930716 C155.762005,61.2640223 150.568042,57.5590511 150.038151,57.1887868 C149.508002,56.8185226 149.772818,56.7124371 150.090752,56.6063516 C150.408945,56.5002661 150.780257,55.2300863 150.515182,54.3834723 C150.249849,53.5368583 149.772818,52.7427695 149.772818,52.7427695 C149.772818,52.7427695 150.515182,53.0072071 151.920882,53.0605085 C153.326582,53.11381 153.059175,52.6894681 153.059175,52.6894681 C153.059175,52.6894681 153.271131,51.9489395 153.271131,51.6312005 C153.271131,51.3137203 152.7415,48.3495363 152.581885,47.0793565 C152.423306,45.808918 154.172334,42.844734 154.172334,42.844734 C154.172334,42.844734 154.755602,42.3156003 154.808462,42.0506453 C154.861062,41.785949 155.709664,40.039937 155.815383,39.3514163 C155.920843,38.6628955 156.769445,37.4993188 156.92906,35.6994878 C157.088675,33.899398 156.92906,33 156.92906,33" id="Stroke-473" stroke="#15B371" stroke-width="2"></path>
                <path d="M141.243773,41 C141.243773,41 141.03445,48.8635244 141.243773,50.6282559 C141.390069,51.862078 141.28656,52.6253747 141.212003,52.9730406 C141.17844,53.1228246 141.150513,53.1954946 141.150513,53.1949718 C141.150513,53.1949718 139.35756,56.617521 140.248144,57.4730929 C141.138728,58.3284035 141.663444,59.291412 144.178908,58.9168216 C146.694372,58.5419697 148.045108,57.687182 148.339236,57.3125915 C148.633621,56.9377396 149,56.6708472 149,56.6708472" id="Stroke-475" stroke="#15B371"></path>
                <path d="M141.273488,53.0732963 L142.476245,53.0732963 C142.476245,53.0732963 142.694928,52.7029691 141.874733,53.628674 C141.054537,54.554379 141,55.1095305 141,55.1095305 C141,55.1095305 141.109342,56.2668879 142.914146,55.9427101 C144.718683,55.6183062 146.683624,54.368876 147.259739,53.7673488 C147.835854,53.1660478 148,53 148,53" id="Stroke-477" stroke="#15B371"></path>
                <path d="M148.595088,50 C148.595088,50 147.611753,50.8336621 148.173168,51.2824896 C148.734927,51.731098 149.578423,52 150,52" id="Stroke-479" stroke="#15B371" stroke-width="0.3"></path>
                <path d="M149,43 L153,44" id="Stroke-481" stroke="#15B371" stroke-width="0.3"></path>
                <path d="M131.713265,152 L131.713265,152.423857 C131.713265,152.423857 131.814234,153.909044 131.713265,154.545478 C131.612297,155.181653 130,157.409044 130,157.409044 L130.878673,159 L136,159" id="Stroke-487" stroke="#15B371"></path>
                <path d="M128,161 L131,162" id="Stroke-489" stroke="#15B371"></path>
                <polyline id="Stroke-49" stroke="#129EE6" stroke-width="2" points="296.949825 123.836643 303 128 68 128 81.2149103 121"></polyline>
                <path d="M132,159 C132,159 131.59912,163.284006 131.099242,164.184379 C130.599609,165.085029 129,166 129,166" id="Stroke-491" stroke="#15B371"></path>
                <path d="M142,159 L142,162.40807 C142,162.40807 139.479455,165.180623 136.95757,165.698308 C134.435685,166.215993 130.157674,166.109296 131.145361,165.050101" id="Stroke-493" stroke="#15B371"></path>
                <path d="M128.016315,171.082535 C128.016315,171.082535 130.384745,173.045427 134.280646,173.310286 C138.177062,173.575145 154.50072,173.471393 158.18606,171.997184 L159.766043,171 C159.766043,171 160.292446,171.762401 159.766043,172.525735 C159.239639,173.289069 158.291598,173.955413 156.606592,174.480701 C154.921328,175.006221 134.873461,175.317011 131.226476,174.493058 C127.57949,173.669338 128.016315,173.310286 128.016315,173.310286" id="Stroke-495" stroke="#15B371"></path>
                <path d="M141,162 C141,162 144.453134,165.780473 148.228723,166.358511 C152.004311,166.936818 157.613117,166.385359 158.907416,167.594326 C160.201979,168.803025 159.98657,171 159.98657,171" id="Stroke-497" stroke="#15B371"></path>
                <path d="M138,165 C138,165 140.080962,171.210604 153,170.994488" id="Stroke-499" stroke="#15B371"></path>
                <path d="M140,166 L143,164" id="Stroke-501" stroke="#15B371"></path>
                <path d="M142,168 L145,165" id="Stroke-503" stroke="#15B371"></path>
                <path d="M144,169 L147,166" id="Stroke-505" stroke="#15B371"></path>
                <path d="M146,170 L148,167" id="Stroke-507" stroke="#15B371"></path>
                <path d="M148,171 L150,167" id="Stroke-509" stroke="#15B371"></path>
                <path d="M151,170 L152,167" id="Stroke-511" stroke="#15B371"></path>
                <path d="M134.458333,167.003984 C134.458333,167.003984 137.276372,166.895587 136.977854,169.668396 C136.679336,172.440942 134.620703,171.956312 134.458333,171.982885 C134.295698,172.009458 131.749424,172.213887 132.02013,169.501854 C132.290305,166.789821 134.458333,167.003984 134.458333,167.003984 Z" id="Stroke-513" stroke="#15B371"></path>
                <path d="M143,158 C143,158 145.845946,162.565273 148.530675,162.64947 C151.215671,162.733667 153.296771,163.546288 154.118659,164.584898 C154.94028,165.623781 155.023031,166.464926 154.995447,166.661019 C154.967864,166.857112 155,167 155,167" id="Stroke-519" stroke="#15B371"></path>
                <path d="M142,161 L144,159" id="Stroke-521" stroke="#15B371"></path>
                <path d="M143,164 L145,161" id="Stroke-523" stroke="#15B371"></path>
                <path d="M144,164 L146,162" id="Stroke-525" stroke="#15B371"></path>
                <path d="M146,166 L148,163" id="Stroke-527" stroke="#15B371"></path>
                <path d="M93.0005692,75.9991462 C92.9379034,76.3884883 98.0691587,93.0320273 98.6323645,93.7020041 C99.1955702,94.3724949 100,93.7020041 100,93.7020041 L97.6669438,82.7019979 L95.5748495,75.1317999 C95.5748495,75.1317999 95.3399182,75.068066 95.0119059,75.0295173 C94.3050146,74.9457381 93.1652309,74.9765771 93.0005692,75.9991462 Z" id="Stroke-531" stroke="#15B371"></path>
                <path d="M95.3911721,73.804542 C95.3911721,73.804542 93.383725,60.5099434 94.1917027,60.1143215 C94.3936971,60.015287 94.6089538,59.9263108 94.8545607,60.0931735 C95.5918913,60.5932458 96.6044139,63.3976739 98.3649789,75.1497597 C100.712654,90.8183478 101.652234,91.1881795 101.652234,91.1881795 C101.652234,91.1881795 102.434707,91.3725795 101.652234,92.2429993 C100.869506,93.1134191 100.321672,92.9945262 100.321672,92.9945262" id="Stroke-533" stroke="#15B371" stroke-width="2"></path>
                <path d="M95,59.9812657 C95,59.9812657 96.9064024,58.3435331 98.1261421,59.2996345 C99.3463789,60.2557359 104.684355,79.0334427 104.913243,82.9505501 C105.142131,86.8679173 104.836947,90.7195881 104.913243,91.3833022 C104.98929,92.0467565 104.405764,93.0477807 103.515562,93.5034999 C102.62561,93.959219 101.741373,94.2552417 101.100438,93.6902019" id="Stroke-535" stroke="#15B371" stroke-width="2"></path>
                <path d="M104,94 L104,104" id="Stroke-537" stroke="#15B371"></path>
                <path d="M95.3133488,81 C95.3133488,81 90.7789975,82.5929199 92.3191658,85.8921714 C93.8590552,89.1919385 98,88.9978497 98,88.9978497" id="Stroke-539" stroke="#15B371"></path>
                <path d="M96.0639328,84 C96.0639328,84 93.3582718,85.3028484 94.1426771,86.3708041 C94.9276964,87.4393355 94.8334449,88.0285822 97,87.9989328" id="Stroke-541" stroke="#15B371"></path>
                <path d="M55,33 C55,33 61.1560506,44.5373866 62.9332726,45.3775984 C64.7110032,46.2180669 67,48.9352822 67,48.9352822 L67,55" id="Stroke-543" stroke="#15B371" stroke-width="2"></path>
                <path d="M75.4459198,65.5628131 C75.4459198,65.5628131 80.5901133,68.6115049 83.2536148,67.8893362 C85.9173715,67.167429 89.2076843,66.2120328 89.7563677,63.2802163 C90.3045404,60.3478769 89.7563677,59.3244995 89.7563677,59.3244995 L88.0327003,57.9813495 L87.3275056,55.6226661 L85.7606049,54.2444796 L85.2121768,52.4461175 L82.7230592,52.4461175 C82.7230592,52.4461175 80.5901133,54.478753 80.27658,54.2444796 C79.963302,54.0099448 77.6130785,53.7693962 77.6130785,53.7693962 L76.9862672,51.6575366 L75.9680498,51.1343434 L74.4792771,49.8918577 L74.1657437,48.3345671 L74.1657437,47.5114726 L75.0277051,46.7092954 L75.4459198,45.6129691 C75.4459198,45.6129691 76.4906905,44.8638695 75.4459198,44.7838609 C74.4011491,44.7035909 74.1657437,44.0616923 74.1657437,44.0616923 L73.7743377,42.777895 L73.304293,41.6548992 L72.520715,41.6548992 L73.069143,40.1302918 L74.4011491,35.3969756 L75.1060884,29.7809507 L74.8709384,28.0160563 L73.7743377,27 C73.7743377,27 73.069143,34.2739798 71.2673476,36.2794229 C69.4652969,38.2853888 66.4098787,39.9702747 66.4098787,39.9702747 L65,43.780878 L65,46.7092954" id="Stroke-547" stroke="#15B371" stroke-width="2" stroke-linecap="round" stroke-linejoin="round"></path>
                <polyline id="Stroke-549" stroke="#15B371" stroke-width="2" stroke-linecap="round" stroke-linejoin="round" points="81 48.4288749 87 48 86.0370162 51"></polyline>
                <path d="M81,49 C81,49 82.8507586,46.167749 83.8159955,46.0516151 C84.7817569,45.9354812 88,46.0516151 88,46.0516151 L87.9090092,46.4365565 L87.5172504,48.0961383" id="Stroke-551" stroke="#15B371" stroke-linecap="round" stroke-linejoin="round"></path>
                <path d="M68.4367676,38.1796875 C68.4367676,38.1796875 67.7093303,38.0722717 67.6549363,37.5091298 C67.6002744,36.9457256 67.6549363,34.5326352 67.6549363,34.5326352 L67.1069772,33.0674697 C67.1069772,33.0674697 66.6407431,29.4609487 67.6549363,28.5754494 C68.6691296,27.6902125 69.4092094,26 71.6289127,26 C73.8488839,26 74.8354783,26.6441902 74.8354783,26.6441902" id="Stroke-553" stroke="#15B371" stroke-width="2" stroke-linecap="round" stroke-linejoin="round"></path>
                <path d="M71,28 C71,28 69.3578303,28.6012853 69.4473607,29.3527082 C69.5365996,30.1041311 69.4438612,31.0059365 69.4438612,31.0059365 L69,32.4198754 C69,32.4198754 69.421114,34.6907988 71,33.7877688" id="Stroke-555" stroke="#15B371" stroke-linecap="round" stroke-linejoin="round"></path>
                <path d="M82,33 C82,33 88.4247673,35.2326057 90,36" id="Stroke-557" stroke="#15B371" stroke-linecap="round" stroke-linejoin="round"></path>
                <path d="M75.6129305,28.2162979 C75.6129305,28.2162979 77.5690697,28.4562226 78.0449851,28.2162979 C78.5211591,27.9766336 80.0280093,26.9643127 80.0280093,26.9643127 C80.0280093,26.9643127 81.2179272,25.5786886 81.535118,25.8983277 C81.8525674,26.2182274 83.2405033,27.4170697 83.2405033,27.4170697 C83.2405033,27.4170697 84.5493355,28.2162979 85.1837171,27.8166838 C85.8186157,27.4170697 87.6429153,24.8591748 87.6429153,24.8591748 L89.150024,22.4380448 L89.150024,20.8625128 L88.2772969,19.5836956 L87.9603646,18.3845929 L88.4360215,17.745054 L90.3484727,18.1446681 L90.3484727,19.7436455 L90.8949612,20.702563 L92.2433452,20.7825379 L93.2921171,21.661741 L93.2921171,23.8200218 L93.2921171,25.4984531 C93.2921171,25.4984531 94.861268,28.3762477 94.9406304,28.9358117 C95.0197342,29.4953756 95.5752705,30.6944784 95.813099,31.0141176 C96.0509274,31.3337567 98.7476956,32.4953468 100.255063,31.9545392 C101.761913,31.4137316 102,29.0157866 102,29.0157866 L102,27.4170697 L102,23.8200218 L101.523826,23.2604579 L101.603447,21.3421019 L99.937872,20.222974 L100.1757,17.745054 L98.0339516,16.1463371 L97.1612245,13.828367 L95.7337366,11.830036 L93.9091786,11.830036 L93.750454,9.75173011 L92.3227076,7.91308847 L88.8067237,7.11412079 L88.198193,5.59537883 L87.3257244,3.91668703 L83.9943162,3.11719834 L81.9316712,2.31797015 L79.2351616,1.03915295 L75.6129305,0.639538853 L73.523659,0 L71.461531,0 L69.175017,0.879203107 L67.7335696,2.55789491 L67.7335696,3.43709801 L66.202678,4.2363262 L65.036543,4.79589014 L63.1328811,5.03581489 L61.8633424,5.915018 L60.9409815,7.51373488 L60.7365007,8.55288783 L59.8808352,8.872527 L59.1668327,9.91167995 L58.2150018,11.350447 L57.5803617,12.4695749 L57.5803617,13.9083419 L56.7872554,17.1057757 L56.7872554,19.263796 L55.2007844,20.4628988 L53.7952698,22.0616156 L53.7952698,23.2604579 L54.6385268,26.137992 L55.3592505,28.3762477 L56.073253,29.4154007 L56.7872554,31.0141176 L51.0760114,35.0107795 L41.9925146,42.5245144 C41.9925146,42.5245144 34.1563248,48.4509946 32.6735159,52.1162947 C24.7623584,71.6721163 29.2893718,145 29.2893718,145" id="Stroke-559" stroke="#15B371" stroke-width="2"></path>
                <polyline id="Stroke-561" stroke="#15B371" stroke-width="2" points="56.8862305 30.9790039 59.6603124 30.4857143 60.4152011 30.1142857 61.7739515 30.5571429 63.0990038 30.5571429 64.2277703 29 65.3211167 29.7428571 66.5217285 29.7428571"></polyline>
                <path d="M97,32 C97,32 96.2740749,34.2483519 95.467725,35.1152967 C94.6616379,35.9822414 93.1288373,36.8903538 93.1288373,36.8903538 L90.9515875,38.6675636 L90.4766611,41.1010359 L89.7420627,44.114624 L89.3388877,45.5595318 L87.8066127,46 L87,46" id="Stroke-563" stroke="#15B371" stroke-width="2"></path>
                <path d="M84.4861111,37.2738963 C84.4861111,37.2738963 86.3633041,36.6576296 86.7331871,37.2738963 C87.1028265,37.8903922 88,38.2804577 88,38.2804577 L87.0282651,40 L85.9066764,40 L84.4861111,39.1561569 L84,38.2804577" id="Stroke-565" stroke="#15B371"></path>
                <polyline id="Stroke-567" stroke="#15B371" stroke-width="2" points="88.0833507 7 87 10.1601315 89 13.7305844 88.8508023 18"></polyline>
                <path d="M219,43 C219,43 219.335531,39.7633114 222,39" id="Stroke-569" stroke="#15B371" stroke-width="2"></path>
                <path d="M222.230313,42.34575 C222.230313,42.34575 223.395734,41.3261208 224,42.7888315 C223.877299,44.0743095 223.344332,43.9460434 223.344332,43.9460434 C223.344332,43.9460434 222.181754,44.2513254 222.036313,43.4095789 C221.890635,42.567399 222.230313,42.34575 222.230313,42.34575 Z" id="Stroke-571" stroke="#15B371"></path>
                <path d="M130,44 L129,51" id="Stroke-575" stroke="#15B371" stroke-width="2"></path>
                <path d="M138,59 L137,66" id="Stroke-577" stroke="#15B371" stroke-width="2"></path>
                <path d="M76.3546984,92 C76.3546984,92 87.7890514,90.597268 89.2484108,90.9384177 C90.7077703,91.2798234 91.051043,91.4244218 91.051043,91.4244218 L92,90.5079497 L90.8792779,88.2158738 C90.8792779,88.2158738 82.810439,74.8150613 80.2262371,72.5247769 C77.6420352,70.2347484 73,68 73,68" id="Stroke-579" stroke="#15B371" stroke-width="2"></path>
                <polyline id="Stroke-581" stroke="#15B371" points="93.5809336 90 93.2172345 93.5643608 94.090219 94.3705853 94.090219 96.2986934 95 97.399878 79.707306 103.398695 78 104"></polyline>
                <path d="M79,99 C79,99 90.3466302,95.657117 91.5824534,96.028855 C92.8182766,96.400593 93,96 93,96" id="Stroke-583" stroke="#15B371"></path>
                <path d="M78,95 C78,95 84.0867613,93.3518016 86.952487,93.7885832 C89.8179485,94.2251065 90.9237678,93.3249387 92,93" id="Stroke-585" stroke="#15B371"></path>
                <path d="M94,98 L97,103" id="Stroke-587" stroke="#15B371"></path>
                <path d="M79,103 L84,106" id="Stroke-589" stroke="#15B371"></path>
                <path d="M99,96 L104,96" id="Stroke-591" stroke="#15B371"></path>
                <path d="M99,99 L104,99" id="Stroke-593" stroke="#15B371"></path>
            </g>
        </g>
    </g>
</svg>