
<svg width="229px" height="172px" viewBox="0 0 229 172" version="1.1" xmlns="http://www.w3.org/2000/svg" xmlns:xlink="http://www.w3.org/1999/xlink">
    <!-- Generator: Sketch 48.2 (47327) - http://www.bohemiancoding.com/sketch -->
    <desc>Created with Sketch.</desc>
    <defs>
        <path d="M18.7847837,2.64399706 L14.0807537,5.35979994 L14.1059667,5.35979994 L11.876415,6.64566422 L6.18907709,9.93056105 C6.18907709,9.93056105 3.23555141,11.6162318 1.64713087,14.3140254 C-0.0997715038,17.2783567 0.00108060407,22.4470267 0.00108060407,22.4470267 L0.00108060407,26.365851 L0.00108060407,27.8786325 L0.00108060407,29.7479981 L0.00108060407,31.6425768 L0.00108060407,35.179604 C0.00108060407,35.179604 -0.0997715038,40.3518758 1.64713092,43.3162071 C3.23555147,46.0140007 6.18907715,47.6996714 6.18907715,47.6996714 L11.102015,50.5343358 L11.1236262,50.5667525 L16.7137138,53.7940196 L16.7209175,53.7940196 L18.7847837,54.9826336 C18.7847837,54.9826336 23.2114703,57.658816 26.6548491,57.6263993 C29.784866,57.5939825 32.7167805,55.8830987 32.7167805,55.8830987 L34.6617852,54.7629201 L34.6833964,54.7629201 L46.8865002,47.7140789 C46.8865002,47.7140789 49.8400258,46.0284081 51.4320482,43.3306145 C53.1789506,40.3662832 53.0744967,35.1940114 53.0744967,35.1940114 L53.0744966,28.3396706 L53.1033115,28.382893 L53.1033115,20.6388926 C53.1033115,20.6388926 53.117719,17.2387362 51.5797245,14.5121277 C49.8832482,11.5153797 45.3521075,9.01929032 45.3521075,9.01929032 L40.6480776,6.30348744 L40.6660869,6.33950602 L39.4090375,5.61553206 L39.423445,5.61553206 L32.7167805,1.74353189 C32.7167805,1.74353189 29.7848659,0.029046228 26.6548491,0.000231340039 C23.2114703,-0.0285834917 18.7847837,2.64399706 18.7847837,2.64399706 Z" id="path-1"></path>
    </defs>
    <g id="Page-1" stroke="none" stroke-width="1" fill="none" fill-rule="evenodd">
        <g id="New-Design" transform="translate(-156.000000, -1787.000000)">
            <g id="Code-is-up-to-date" transform="translate(121.000000, 1640.000000)">
                <g id="graphic" transform="translate(37.000000, 147.000000)">
                    <g id="code" transform="translate(91.000000, 66.000000)" fill-rule="nonzero">
                        <polygon id="Shape" fill="#EDF2F9" points="33 15 33 1 1 1 1 63 47 63 47 15"></polygon>
                        <path d="M47.994,14.989 C47.987283,14.7432174 47.8875745,14.5091348 47.715,14.334 L33.666,0.285 C33.4933703,0.114405767 33.2625859,0.0154471474 33.02,0.008 L33,0 L2,0 C0.8954305,-6.76353751e-17 0,0.8954305 0,2 L0,62 C0,63.1045695 0.8954305,64 2,64 L46,64 C47.1045695,64 48,63.1045695 48,62 L48,15 L47.994,14.989 Z M34,3.381 L44.619,14 L34,14 L34,3.381 Z M46,62 L2,62 L2,2 L32,2 L32,16 L46,16 L46,62 Z" id="Shape" fill="#4A90E2"></path>
                        <path d="M20.649103,37.7003273 L12.6956123,29.3079838 C12.5098292,29.1108449 12.2572239,29 11.9937455,29 C11.7302671,29 11.4776618,29.1108449 11.2918787,29.3079838 C11.1050486,29.504018 11,29.7705613 11,30.0485778 C11,30.3265943 11.1050486,30.5931376 11.2918787,30.7891718 L18.5984921,38.5 L11.2918787,46.2108282 C11.1050486,46.4068624 11,46.6734057 11,46.9514222 C11,47.2294387 11.1050486,47.495982 11.2918787,47.6920162 C11.4776618,47.8891551 11.7302671,48 11.9937455,48 C12.2572239,48 12.5098292,47.8891551 12.6956123,47.6920162 L20.649103,39.2996727 C20.670099,39.2806831 20.696094,39.2743533 20.7160902,39.2532537 C20.9048986,39.0535937 21.0094288,38.7820326 21.0060352,38.5 C21.0097709,38.2178994 20.9051887,37.9462033 20.7160902,37.7467463 C20.696094,37.7267017 20.670099,37.7193169 20.649103,37.7003273 Z M36.0001897,45.8848403 L24.0024666,45.8848403 C23.4502866,45.8848403 23.0026563,46.3571696 23.0026563,46.9398175 C23.0026563,47.5224653 23.4502866,47.9947946 24.0024666,47.9947946 L36.0001897,47.9947946 C36.5523697,47.9947946 37,47.5224653 37,46.9398175 C37,46.3571696 36.5523697,45.8848403 36.0001897,45.8848403 Z" id="Shape" fill="#4A90E2"></path>
                    </g>
                    <g id="user" transform="translate(135.000000, 84.000000)" fill="#EBC78C" fill-rule="nonzero" stroke="#4A90E2" stroke-width="3">
                        <path d="M54.9051349,48.6166837 C54.9051349,43.977109 58.5051344,45.476562 60.0968484,36.9561256 C60.7435625,33.4231677 63.9231336,36.8880853 64.5467049,28.818255 C64.5467049,25.616512 62.8071337,24.8025966 62.8071337,24.8025966 C62.8071337,24.8025966 63.6865622,20.0282251 64.033705,16.3668894 C64.4554192,11.7940712 61.3889911,0 45.0102791,0 C28.6187101,0 25.5419962,11.7940712 25.9791391,16.3668894 C26.3339962,20.0295088 27.2224246,24.8025966 27.2224246,24.8025966 C27.2224246,24.8025966 25.4622821,25.604958 25.4622821,28.818255 C26.0819962,36.8945042 29.2654243,33.4231678 29.9172814,36.9561256 C31.5038526,45.4804134 35.1051378,43.9758253 35.1051378,48.6166837 C35.1051378,56.3617181 31.340567,59.9883919 19.5235687,64.2916166 C7.6885703,68.5935577 0,72.9802282 0,75.9739991 L0,86.043956 L90,86.043956 L89.999987,75.9739992 C90.0115584,72.9917821 82.3165595,68.5935577 70.4854184,64.2916166 C58.6722773,59.9883919 54.9051349,56.3617181 54.9051349,48.6166837 Z" id="Shape"></path>
                    </g>
                    <g id="user" transform="translate(0.000000, 83.000000)" fill="#9ABFE9" fill-rule="nonzero" stroke="#4A90E2" stroke-width="3">
                        <path d="M70.4854184,65.0059679 C58.6722773,60.6549295 54.9051349,56.9879594 54.9051349,49.1568691 C54.9051349,44.4657436 58.5051344,45.9818572 60.0968484,37.3667492 C60.7435625,33.7945362 63.9231336,37.297953 64.5467049,29.1384578 C64.5467049,25.9011399 62.8071337,25.078181 62.8071337,25.078181 C62.8071337,25.078181 63.6865622,20.2507609 64.033705,16.5487437 C64.4554192,11.9251164 61.3889911,0 45.0102791,0 C28.6187101,0 25.5419962,11.9251164 25.9791391,16.5487437 C26.3339962,20.2520589 27.2224246,25.078181 27.2224246,25.078181 C27.2224246,25.078181 25.4622821,25.8894575 25.4622821,29.1384578 C26.0819962,37.3044432 29.2654243,33.7945363 29.9172814,37.3667492 C31.5038526,45.9857513 35.1051378,44.4644456 35.1051378,49.1568691 C35.1051378,56.9879594 31.340567,60.6549295 19.5235687,65.0059679 C7.6885703,69.3557083 0,73.7911196 0,76.8181546 L0,87 L90,87 L89.999987,76.8181547 C90.0115584,73.802802 82.3165595,69.3557083 70.4854184,65.0059679 Z" id="Shape"></path>
                    </g>
                    <g id="check" transform="translate(86.000000, 0.000000)">
                        <g id="hexagon" fill-rule="nonzero">
                            <g id="Shape">
                                <use fill="#FFFFFF" fill-rule="evenodd" xlink:href="#path-1"></use>
                                <path stroke="#4A90E2" stroke-width="2" d="M35.6913302,4.61553206 L38.9234541,6.48156274 L39.423445,5.61553206 L39.423445,4.61553206 L35.6913302,4.61553206 Z M43.0314683,8.83419633 L41.5425045,5.85627328 L40.6480776,6.30348744 L40.1480873,7.16951843 L43.0314683,8.83419633 Z M52.1033154,25.0801231 L52.1033115,28.382893 L53.1033115,28.382893 L53.9353618,27.8281928 L52.1033154,25.0801231 Z M34.4153365,53.7629201 L34.1832167,53.8969984 L34.6833964,54.7629201 L34.6833964,53.7629201 L34.4153365,53.7629201 Z M16.9816507,52.7940196 L16.7137138,52.7940196 L16.7137138,53.7940196 L17.2136939,52.9279827 L16.9816507,52.7940196 Z M11.8260262,49.8175766 L11.6236063,49.7007156 L11.1236262,50.5667525 L11.9556769,50.012053 L11.8260262,49.8175766 Z M17.8128879,4.35979994 L14.0807537,4.35979994 L14.0807537,5.35979994 L14.580744,6.22583093 L17.8128879,4.35979994 Z"></path>
                            </g>
                        </g>
                        <g transform="translate(12.000000, 19.000000)"></g>
                        <path d="M41.3220398,19.6780826 C40.418075,18.7739725 38.9524312,18.7739725 38.0484664,19.6780826 L23.3172076,34.4110906 L15.9515961,27.0445866 C15.0475956,26.1404765 13.5819518,26.1404765 12.677987,27.0445866 C11.7740222,27.9486966 11.7739865,29.4145179 12.677987,30.3185566 L21.6803852,39.3220456 C21.706421,39.3481202 21.7317781,39.3721231 21.7565996,39.3945187 C22.6649572,40.225227 24.0749224,40.2012241 24.9539943,39.3220456 L41.3219683,22.9520883 C42.2260046,22.0479782 42.2260046,20.5821569 41.3220041,19.6780826 L41.3220398,19.6780826 Z" id="Shape" fill="#4A90E2" fill-rule="nonzero"></path>
                    </g>
                    <path d="M45.5,78.5 C45.811381,67.6524209 48.8979695,58.4095823 54.7597656,50.7714844 C60.6215617,43.1333864 68.5349732,38.0428916 78.5,35.5" id="Line-30" stroke="#4A90E2" stroke-width="3" stroke-linecap="square"></path>
                    <path d="M144.5,78.5 C144.811381,67.6524209 147.89797,58.4095823 153.759766,50.7714844 C159.621562,43.1333864 167.534973,38.0428916 177.5,35.5" id="Line-30" stroke="#4A90E2" stroke-width="3" stroke-linecap="square" transform="translate(161.000000, 57.000000) scale(-1, 1) translate(-161.000000, -57.000000) "></path>
                    <path d="M96.5,159.5 L128.5,159.5" id="Line-31" stroke="#4A90E2" stroke-width="3" stroke-linecap="square"></path>
                </g>
            </g>
        </g>
    </g>
</svg>