
<svg width="160px" height="165px" viewBox="0 0 160 165" version="1.1" xmlns="http://www.w3.org/2000/svg" xmlns:xlink="http://www.w3.org/1999/xlink">
    <!-- Generator: Sketch 48.2 (47327) - http://www.bohemiancoding.com/sketch -->
    <desc>Created with Sketch.</desc>
    <defs>
        <path d="M18.7982172,2.643997 L14.0941872,5.35979989 L14.1194002,5.35979989 L11.8898485,6.64566416 L6.20251058,9.930561 C6.20251058,9.930561 3.2489849,11.6162318 1.66056436,14.3140253 C-0.0863380147,17.2783566 0.0145140933,22.4470267 0.0145140933,22.4470267 L0.0145140933,26.365851 L0.0145140933,27.8786324 L0.0145140933,29.7479981 L0.0145140933,31.6425768 L0.0145140933,35.1796039 C0.0145140933,35.1796039 -0.0863380147,40.3518757 1.66056441,43.316207 C3.24898496,46.0140007 6.20251064,47.6996714 6.20251064,47.6996714 L11.1154485,50.5343357 L11.1370597,50.5667525 L16.7271473,53.7940196 L16.734351,53.7940196 L18.7982172,54.9826336 C18.7982172,54.9826336 23.2249038,57.658816 26.6682826,57.6263992 C29.7982995,57.5939825 32.730214,55.8830987 32.730214,55.8830987 L34.6752187,54.76292 L34.6968299,54.76292 L46.8999336,47.7140788 C46.8999336,47.7140788 49.8534593,46.0284081 51.4454817,43.3306145 C53.1923841,40.3662832 53.0879302,35.1940114 53.0879302,35.1940114 L53.0879301,28.3396706 L53.116745,28.3828929 L53.116745,20.6388926 C53.116745,20.6388926 53.1311525,17.2387362 51.593158,14.5121277 C49.8966817,11.5153797 45.365541,9.01929027 45.365541,9.01929027 L40.6615111,6.30348738 L40.6795204,6.33950596 L39.422471,5.615532 L39.4368784,5.615532 L32.730214,1.74353184 C32.730214,1.74353184 29.7982994,0.0290461736 26.6682825,0.000231285619 C23.2249038,-0.0285835461 18.7982172,2.643997 18.7982172,2.643997 Z" id="path-1"></path>
    </defs>
    <g id="Page-1" stroke="none" stroke-width="1" fill="none" fill-rule="evenodd">
        <g id="New-Design" transform="translate(-1177.000000, -2040.000000)">
            <g id="Conflicts" transform="translate(1177.000000, 2042.000000)">
                <circle id="Oval-8" stroke="#F57BA1" stroke-width="3" fill="#F9C7D6" cx="80" cy="78" r="78"></circle>
                <path d="M3.5,77.5 L157.503247,77.5" id="Line-34" stroke="#FFFFFF" stroke-linecap="square"></path>
                <path d="M80.734375,77.5546875 L148.417969,40.359375 C152.605373,48.6485762 155.329332,56.1127689 156.589844,62.7519531 C157.850356,69.3911374 157.817804,76.1027259 156.492188,82.8867188 L80.734375,77.5546875 Z" id="Path" fill-opacity="0.590862772" fill="#EF97C2"></path>
                <circle id="Oval-7" stroke="#F5FDFB" cx="81" cy="78" r="18"></circle>
                <path d="M79.5,1.5 L79.5,155.551939" id="Line-33" stroke="#FFFFFF" stroke-linecap="square"></path>
                <path d="M80.5,77.5 L156.5,83.5" id="Line-32" stroke="#F34A7F" stroke-width="3" stroke-linecap="square"></path>
                <circle id="Oval-8" stroke="#F2FDFA" cx="80" cy="78" r="48"></circle>
                <g id="add-cell" transform="translate(0.000000, 1.000000)" fill-rule="nonzero">
                    <g id="hexagon">
                        <g id="Shape">
                            <use fill="#FFFFFF" fill-rule="evenodd" xlink:href="#path-1"></use>
                            <path stroke="#F387A8" stroke-width="2" d="M35.7047637,4.615532 L38.9368876,6.48156268 L39.4368784,5.615532 L39.4368784,4.615532 L35.7047637,4.615532 Z M43.0449018,8.83419627 L41.555938,5.85627323 L40.6615111,6.30348738 L40.1615207,7.16951837 L43.0449018,8.83419627 Z M52.1167488,25.080123 L52.116745,28.3828929 L53.116745,28.3828929 L53.9487953,27.8281927 L52.1167488,25.080123 Z M34.42877,53.76292 L34.1966502,53.8969984 L34.6968299,54.76292 L34.6968299,53.76292 L34.42877,53.76292 Z M16.9950842,52.7940196 L16.7271473,52.7940196 L16.7271473,53.7940196 L17.2271274,52.9279827 L16.9950842,52.7940196 Z M11.8394597,49.8175766 L11.6370397,49.7007156 L11.1370597,50.5667525 L11.9691104,50.0120529 L11.8394597,49.8175766 Z M17.8263214,4.35979989 L14.0941872,4.35979989 L14.0941872,5.35979989 L14.5941775,6.22583088 L17.8263214,4.35979989 Z"></path>
                        </g>
                    </g>
                    <g id="excl-round" transform="translate(12.000000, 14.000000)" fill="#DD5667">
                        <path d="M15,2.14285714 C22.0982143,2.14285714 27.8571429,7.90178571 27.8571429,15 C27.8571429,22.0982143 22.0982143,27.8571429 15,27.8571429 C7.90178571,27.8571429 2.14285714,22.0982143 2.14285714,15 C2.14285714,7.90178571 7.90178571,2.14285714 15,2.14285714 Z M15,0 C6.72321429,0 0,6.72321429 0,15 C0,23.2767857 6.72321429,30 15,30 C23.2767857,30 30,23.2767857 30,15 C30,6.72321429 23.2767857,0 15,0 Z" id="Shape"></path>
                        <path d="M13.9285714,21.4285714 L16.0714286,21.4285714 L16.0714286,23.5714286 L13.9285714,23.5714286 L13.9285714,21.4285714 Z M13.9285714,6.42857143 L16.0714286,6.42857143 L16.0714286,19.2857143 L13.9285714,19.2857143 L13.9285714,6.42857143 Z" id="Shape"></path>
                    </g>
                </g>
                <g id="notifications-on" transform="translate(3.000000, 119.000000)" fill="#EA5E8A" fill-rule="nonzero">
                    <path d="M12.5333333,3.52000001 L9.4,0.440000034 C4.02857143,4.40000003 0.44761903,10.56 0,17.6 L4.47619046,17.6 C4.92380949,11.66 7.83333332,6.60000005 12.5333333,3.52000001 Z M42.5238095,17.6 L47,17.6 C46.552381,10.56 43.1952381,4.40000003 37.8238095,0.440000034 L34.6904762,3.52000001 C39.1666666,6.59999999 42.0761905,11.66 42.5238095,17.6 Z M38.047619,18.7 C38.047619,11.88 33.347619,6.38000003 26.8571429,4.84000001 L26.8571429,3.3 C26.8571429,1.54000002 25.2904762,0 23.5,0 C21.7095238,0 20.1428571,1.54000002 20.1428571,3.3 L20.1428571,4.84000001 C13.652381,6.38000003 8.95238097,11.88 8.95238092,18.7 L8.95238092,30.8 L4.47619046,35.2 L4.47619046,37.4 L42.5238095,37.4 L42.5238095,35.2 L38.047619,30.8 L38.047619,18.7 Z M23.5,44 L24.3952381,44 C25.9619047,43.78 27.0809523,42.68 27.5285714,41.36 C27.752381,40.92 27.9761905,40.26 27.9761905,39.6 L19.0238095,39.6 C19.0238095,42.0199999 21.0380952,43.9999999 23.5,44 Z" id="Shape"></path>
                </g>
            </g>
        </g>
    </g>
</svg>