
<svg width="54px" height="58px" viewBox="0 0 54 58" version="1.1" xmlns="http://www.w3.org/2000/svg" xmlns:xlink="http://www.w3.org/1999/xlink">
    <!-- Generator: Sketch 48.2 (47327) - http://www.bohemiancoding.com/sketch -->
    <desc>Created with Sketch.</desc>
    <defs>
        <path d="M18.7847837,2.64399706 L14.0807537,5.35979994 L11.876415,6.64566422 L6.18907709,9.93056105 C6.18907709,9.93056105 3.23555141,11.6162318 1.64713087,14.3140254 C-0.0997715038,17.2783567 0.00108060407,22.4470267 0.00108060407,22.4470267 L0.00108060407,26.365851 L0.00108060407,27.8786325 L0.00108060407,29.7479981 L0.00108060407,31.6425768 L0.00108060407,35.179604 C0.00108060407,35.179604 -0.0997715038,40.3518758 1.64713092,43.3162071 C3.23555147,46.0140007 6.18907715,47.6996714 6.18907715,47.6996714 L11.102015,50.5343358 L16.7137138,53.7940196 L18.7847837,54.9826336 C18.7847837,54.9826336 23.2114703,57.658816 26.6548491,57.6263993 C29.784866,57.5939825 32.7167805,55.8830987 32.7167805,55.8830987 L34.6617852,54.7629201 L46.8865002,47.7140789 C46.8865002,47.7140789 49.8400258,46.0284081 51.4320482,43.3306145 C53.1789506,40.3662832 53.0744967,35.1940114 53.0744967,35.1940114 L53.0744966,28.3396706 L53.1033115,20.6388926 C53.1033115,20.6388926 53.117719,17.2387362 51.5797245,14.5121277 C49.8832482,11.5153797 45.3521075,9.01929032 45.3521075,9.01929032 L40.6480776,6.30348744 L39.4090375,5.61553206 L32.7167805,1.74353189 C32.7167805,1.74353189 29.7848659,0.029046228 26.6548491,0.000231340039 C23.2114703,-0.0285834917 18.7847837,2.64399706 18.7847837,2.64399706 Z" id="path-1"></path>
        <path d="M3.5,25.5 L28,0" id="path-2"></path>
        <filter x="-16.0%" y="-15.4%" width="132.0%" height="130.8%" filterUnits="objectBoundingBox" id="filter-3">
            <feMorphology radius="2" operator="dilate" in="SourceAlpha" result="shadowSpreadOuter1"></feMorphology>
            <feOffset dx="0" dy="0" in="shadowSpreadOuter1" result="shadowOffsetOuter1"></feOffset>
            <feMorphology radius="2" operator="erode" in="SourceAlpha" result="shadowInner"></feMorphology>
            <feOffset dx="0" dy="0" in="shadowInner" result="shadowInner"></feOffset>
            <feComposite in="shadowOffsetOuter1" in2="shadowInner" operator="out" result="shadowOffsetOuter1"></feComposite>
            <feColorMatrix values="0 0 0 0 1   0 0 0 0 1   0 0 0 0 1  0 0 0 1 0" type="matrix" in="shadowOffsetOuter1"></feColorMatrix>
        </filter>
    </defs>
    <g id="Page-1" stroke="none" stroke-width="1" fill="none" fill-rule="evenodd">
        <g id="Version-1" transform="translate(-147.000000, -2846.000000)">
            <g id="Section-IV" transform="translate(0.000000, 2622.000000)" fill-rule="nonzero">
                <g id="Features" transform="translate(147.000000, 115.000000)">
                    <g id="Icons" transform="translate(0.000000, 109.000000)">
                        <g id="Offline-First">
                            <g id="Shape">
                                <use fill="#FFFFFF" fill-rule="evenodd" xlink:href="#path-1"></use>
                                <path stroke="#14B18E" stroke-width="2" d="M52.1033174,20.6354907 C52.1033168,20.6356466 52.1033166,20.635732 52.1033162,20.6359029 C52.1033167,20.6356962 52.1033171,20.6354888 52.1033175,20.6352809 Z M52.1033175,20.6352809 C52.1034411,20.5678056 52.1004334,20.4389552 52.0909839,20.257808 C52.0751549,19.9543654 52.0462258,19.6161502 52.0009708,19.2524361 C51.8729996,18.2239335 51.6420542,17.1990289 51.2863905,16.2534689 C51.1185921,15.8073635 50.9263086,15.3891512 50.709493,15.0047708 C50.1887902,14.084973 49.2977736,13.1175825 48.1424068,12.1576527 C47.4260368,11.562461 46.6542401,11.0076501 45.8822256,10.5103201 C45.6121037,10.3363082 45.3617975,10.1822491 45.1381131,10.0500807 C45.0063783,9.97224249 44.9146173,9.91998104 44.8521172,9.88532131 L40.1626505,7.17776457 L38.90824,6.48109652 L32.2119866,2.60677181 C32.1376262,2.5632883 31.9819789,2.4786754 31.756443,2.36658574 C31.3728072,2.1759217 30.9413527,1.98448059 30.4738577,1.8057843 C29.1793182,1.31095674 27.8710541,1.01147008 26.6464812,1.00019633 C26.1278586,0.995856399 25.5491763,1.06343972 24.9216951,1.19781079 C23.9452975,1.40690004 22.8878476,1.76843759 21.8017192,2.23944554 C21.1613332,2.51715388 20.5513614,2.81526633 19.9937349,3.11300404 C19.6618841,3.29019167 19.4240898,3.42614099 19.3016335,3.50007314 L19.284774,3.51002805 L14.5846247,6.22357883 L12.3765647,7.51160319 L6.68475972,10.7990648 C6.53909643,10.8821994 6.26424905,11.055349 5.90405376,11.3107231 C5.29790939,11.7404721 4.69129243,12.2376509 4.12813352,12.7926441 C3.47414622,13.4371487 2.92364162,14.1169236 2.50866116,14.8217316 C2.08485643,15.5408889 1.74828832,16.4811501 1.49926253,17.5866303 C1.27719523,18.5724359 1.13534915,19.6371577 1.05966072,20.713583 C1.01071887,21.4096239 0.996393108,21.9920528 1.000489,22.3963836 C1.00083763,22.4251669 1.00083763,22.4251669 1.0010806,22.4470267 L1.0010806,31.6425768 L1.00089056,35.1990989 C1.00083778,35.2014583 1.00083778,35.2014583 1.00048907,35.230268 C0.996394865,35.6347096 1.01070741,36.2172599 1.05960697,36.9134294 C1.13522864,37.9900339 1.27695212,39.0549324 1.49883047,40.0409094 C1.74790056,41.1477201 2.08461824,42.0889393 2.50885804,42.8088351 C2.92364168,43.5133089 3.47414628,44.1930839 4.12813358,44.8375884 C4.69129249,45.3925816 5.29790945,45.8897604 5.90405381,46.3195094 C6.2642491,46.5748835 6.53909648,46.748033 6.68883625,46.833507 L11.6042978,49.6696323 L17.2114763,52.9267062 L19.3021437,54.1268658 C19.4244007,54.2007771 19.6618543,54.3367072 19.9932639,54.5138767 C20.5501626,54.8115913 21.1593878,55.1096819 21.7990484,55.3873693 C22.8859929,55.8592301 23.9442797,56.2211892 24.9213492,56.4300608 C25.5486113,56.5641528 26.1270596,56.6313237 26.6444929,56.6264529 C27.8693063,56.6137678 29.1767905,56.3144011 30.4707109,55.8206854 C30.9391735,55.641936 31.3715658,55.4504376 31.7560752,55.2597134 C31.9821431,55.1475792 32.1381881,55.0629226 32.2177065,55.0165394 L34.162269,53.8966155 L46.3908175,46.8455752 C46.5367773,46.7622713 46.8121372,46.5888039 47.172989,46.3329801 C47.7802239,45.9024843 48.3879306,45.4044598 48.9521052,44.8485391 C49.605402,44.2048001 50.1556587,43.5259161 50.570518,42.8229084 C50.994486,42.103474 51.3309073,41.1623862 51.5794874,40.0557038 C51.8004457,39.0719941 51.9414845,38.0095928 52.0166015,36.9352153 C52.0652813,36.2389621 52.079425,35.6551026 52.0751477,35.2476428 C52.0747614,35.216858 52.0747614,35.216858 52.0744967,35.1940114 L52.0745036,28.3359288 L52.1033205,20.6346554 C52.1033188,20.6351083 52.1033179,20.6353347 52.1033174,20.6354907 Z"></path>
                            </g>
                        </g>
                    </g>
                </g>
            </g>
            <g id="Section-III" transform="translate(1.000000, 945.000000)">
                <g id="Collaborate-offline" transform="translate(123.000000, 1282.000000)">
                    <g id="graphic" transform="translate(36.000000, 150.000000)">
                        <g id="wifi-copy" transform="translate(0.000000, 486.000000)">
                            <path d="M5.30743044,14.9631819 C7.8575946,12.5137827 10.9325345,11.2890831 14.53225,11.2890831 C18.1319656,11.2890831 21.186283,12.5137827 23.6952022,14.9631819 L21.1033544,17.553942 C19.292966,15.7865022 17.0920673,14.9027822 14.5006582,14.9027822 C11.9092491,14.9027822 9.70835035,15.7865022 7.89796197,17.553942 L5.30743044,14.9631819 Z M10.5516772,20.1447022 C11.6214123,19.1003448 12.9377393,18.5781662 14.5006582,18.5781662 C16.0635771,18.5781662 17.3799041,19.1003448 18.4496392,20.1447022 L14.5006582,24 L10.5516772,20.1447022 Z M0,9.84334639 C4.03147081,5.94778213 8.87511537,4 14.5309337,4 C20.186752,4 25.0097741,5.94778213 29,9.84334639 L26.3462848,12.4341065 C23.0554673,9.26162478 19.1064863,7.67538391 14.4993418,7.67538391 C9.89219735,7.67538391 5.94321637,9.26162478 2.65239888,12.4341065 L0,9.84334639 Z" id="Shape" fill="#17B290" fill-rule="nonzero"></path>
                            <g id="Line-24" stroke-linecap="square">
                                <use fill="black" fill-opacity="1" filter="url(#filter-3)" xlink:href="#path-2"></use>
                                <use stroke="#14B18E" stroke-width="2" xlink:href="#path-2"></use>
                            </g>
                        </g>
                    </g>
                </g>
            </g>
        </g>
    </g>
</svg>