
<svg width="54px" height="54px" viewBox="0 0 54 54" version="1.1" xmlns="http://www.w3.org/2000/svg" xmlns:xlink="http://www.w3.org/1999/xlink">
    <!-- Generator: Sketch 48.2 (47327) - http://www.bohemiancoding.com/sketch -->
    <desc>Created with Sketch.</desc>
    <defs></defs>
    <g id="Page-1" stroke="none" stroke-width="1" fill="none" fill-rule="evenodd">
        <g id="Version-1" transform="translate(-134.000000, -959.000000)">
            <g id="Section-II" transform="translate(-7.000000, 908.000000)">
                <g id="Icons" transform="translate(141.000000, 47.000000)">
                    <g id="History" transform="translate(0.000000, 4.000000)">
                        <rect id="Rectangle-3" fill="#F5A623" x="0" y="0" width="54" height="54" rx="6"></rect>
                        <g id="Brain" transform="translate(11.000000, 6.000000)">
                            <path d="M31,22.6175359 C31,20.7909935 30.0515979,19.0969978 28.497004,18.0989583 C27.671771,14.627055 24.488016,12.1521636 20.7593209,12.1521636 C19.8621838,12.1521636 18.9863515,12.2953279 18.14747,12.5789163 C17.1071904,11.5682044 15.7067244,11 14.2117177,11 C12.4846871,11 10.8465379,11.7928831 9.79860186,13.1046509 C9.56624501,13.0762235 9.33255659,13.0618386 9.09953395,13.0618386 C6.56824234,13.0618386 4.40279627,14.6832247 3.73302264,16.9957719 C1.50798935,17.7451578 0,19.7727466 0,22.1075562 C0,22.7997449 0.138482024,23.4902211 0.40379494,24.1306926 C0.138814913,24.7715065 1.47832626e-16,25.4619827 1.47832626e-16,26.1534864 C1.47832626e-16,28.1615528 1.1201731,29.9750803 2.93408788,30.9231151 C3.97536618,31.931772 5.40246338,32.5071688 6.87583222,32.5071688 C7.81691079,32.5071688 8.71937417,32.2848876 9.52896138,31.8571074 C10.5795606,33.0407809 12.1308256,33.7480395 13.761984,33.7480395 C14.7789614,33.7480395 15.7486684,33.4887684 16.605526,32.9928312 C17.554261,33.7079672 18.6870839,34.1686272 19.8811585,34.3193263 C21.8941411,36.3976049 23.4390812,39.0824476 23.4543941,39.1105324 L23.9620506,40 L26.5113182,38.1196854 L25.0922104,33.934701 C25.891478,33.5538431 26.5529294,32.930839 26.9717044,32.1499433 C28.7130493,31.1991686 29.8219041,29.3791336 29.8219041,27.4251819 C29.8219041,26.9871268 29.7683089,26.5548942 29.6624501,26.1343065 C30.5186418,25.1595569 31,23.9080688 31,22.6175359 Z M25.909787,30.5891794 L25.5922104,30.7385086 L25.451731,31.0676493 C25.1571238,31.757098 24.5193076,32.2609127 23.7466711,32.4164068 L22.7093875,32.6243032 L24.0622503,36.6140637 C23.3229028,35.5149872 22.2157124,34.013818 20.9280959,32.7366426 L20.689747,32.5006614 L20.3601864,32.475659 C19.5729028,32.4157218 18.8179095,32.1722057 18.1547936,31.7810728 L20.7906125,29.6377197 C21.4770306,29.0791053 22.4021305,28.8359316 22.713715,28.9218986 L23.921771,29.2524093 L24.3754993,27.493339 L23.1671105,27.1631708 C22.1051931,26.8720474 20.5845539,27.4861465 19.6937417,28.2101875 L16.7336884,30.6162368 L16.7266977,30.6093868 L16.1201731,31.0734717 C15.445739,31.5906439 14.6714381,31.8642999 13.8025965,31.8642999 C12.5619174,31.8642999 11.4151132,31.2700657 10.7493342,30.305591 L10.7493342,29.3041265 L10.7493342,28.8852513 L10.7493342,27.577251 C10.7493342,26.8470451 11.0795606,26.1497189 11.2743009,26.0288171 L12.2626498,25.4006755 L11.3039281,23.7892219 L10.2902796,24.4166785 C9.81591212,24.7115693 9.44906791,25.2335365 9.20439414,25.8185232 C8.99866844,25.6232993 8.77663116,25.4493103 8.54460719,25.3044336 L5.57956059,23.4552863 L4.6298269,25.0660549 L7.55259654,26.9152022 C8.2626498,27.3580522 8.75199734,28.3208144 8.75199734,28.8852513 L8.75199734,29.3041265 L8.75199734,30.0973521 C8.08621838,30.4405352 7.53761651,30.6230867 6.83388815,30.6230867 C5.7879494,30.6230867 4.80193076,30.204554 4.09354194,29.4760606 L3.99201065,29.3609812 L3.85419441,29.2914541 C2.60252996,28.6804375 1.82756325,27.4775841 1.82756325,26.1528014 C1.82756325,25.6017219 1.96105193,25.0729049 2.22170439,24.5803926 L2.46071904,24.1296651 L2.22237017,23.67928 C1.9620506,23.1877953 1.82989348,22.6589782 1.82989348,22.1072137 C1.82989348,20.4697303 3.00832224,19.0582955 4.69507324,18.6750402 L5.2942743,18.5387259 L5.39946738,17.9167493 C5.69074567,16.1946688 7.24633822,14.9448932 9.09886818,14.9448932 C9.40079893,14.9448932 9.70439414,14.979828 10.0009987,15.0490127 L10.6284953,15.1949169 L10.9747004,14.6369874 C11.6454727,13.5553784 12.8858189,12.8833971 14.2113848,12.8833971 C15.0702397,12.8833971 15.8778296,13.1563681 16.5316245,13.6464829 L15.8508655,14.2999693 L15.8392144,14.2869544 L15.3621838,14.7445318 C14.7200399,15.2500591 13.9334221,15.5154951 13.6334887,15.4689153 L12.3355526,15.267869 L12.0635819,17.1307162 L13.3605193,17.3314201 C13.4037949,17.33827 13.4500666,17.337585 13.4943409,17.3413525 C13.2849534,18.0143613 13.2097204,18.7318948 13.3155792,19.3665438 L13.6141811,21.156439 L15.418775,20.8372307 L15.1201731,19.0476781 C15.0076565,18.3732993 15.3388815,17.3427225 15.816245,16.8854875 L16.5665779,16.1648715 C16.6697736,16.0809595 16.7676431,15.9960199 16.8571904,15.9103954 L18.2939414,14.5311555 C19.0745672,14.2037273 19.9031292,14.0355608 20.7579893,14.0355608 C23.7569907,14.0355608 26.2916112,16.0706845 26.7852863,18.8747166 L26.8651798,19.329554 L27.2633156,19.5425879 C28.4374168,20.1707294 29.1674434,21.3489229 29.1674434,22.6175359 C29.1674434,23.2819822 28.9707057,23.9142337 28.6091877,24.4642857 L28.3249001,24.1717923 L28.325233,24.1717923 L27.1391478,22.9514716 C26.623502,22.4212845 26.0962051,21.247886 26.0096538,20.4409604 L25.8139148,18.607568 L24.0565912,18.8062169 L24.2523302,20.6396093 C24.3082557,21.1653439 24.4813582,21.7606056 24.7180426,22.3339475 C24.6005326,22.31922 24.4833555,22.3031226 24.370506,22.2976427 L20.3941411,22.1034462 L20.3099201,23.9207412 L24.2889481,24.1145951 C25.1031957,24.1543249 26.2949401,24.6536872 26.7899467,25.1622969 L27.7333555,26.133279 L27.7676431,26.220616 C27.9161119,26.6059264 27.9916778,27.0117867 27.9916778,27.4251819 C27.991012,28.7742819 27.1934088,29.9867252 25.909787,30.5891794 Z" id="Shape" fill="#FFFFFF" fill-rule="nonzero"></path>
                            <path d="M17.5,0.5 L17.5,6" id="Line-50" stroke="#FFFFFF" stroke-width="2" stroke-linecap="square"></path>
                            <path d="M0.671572875,5.67157288 L5,10" id="Line-50" stroke="#FFFFFF" stroke-width="2" stroke-linecap="square"></path>
                            <path d="M32.3284271,5.67157288 L28,9" id="Line-50" stroke="#FFFFFF" stroke-width="2" stroke-linecap="square"></path>
                        </g>
                    </g>
                </g>
            </g>
        </g>
    </g>
</svg>