<svg xmlns="http://www.w3.org/2000/svg" xmlns:xlink="http://www.w3.org/1999/xlink" viewBox="0 0 156.58 44.41"><defs><style>.cls-1,.cls-2,.cls-3,.cls-4{fill-rule:evenodd;}.cls-1{fill:url(#New_Gradient_Swatch_3);}.cls-2{fill:url(#New_Gradient_Swatch_4);}.cls-3{fill:url(#New_Gradient_Swatch_2);}.cls-4{fill:url(#New_Gradient_Swatch);}.cls-5{font-size:38.59px;fill:#1b2541;font-family:Aller-Bold, Aller;font-weight:700;}</style><linearGradient id="New_Gradient_Swatch_3" x1="13.27" y1="10.78" x2="28.62" y2="10.78" gradientUnits="userSpaceOnUse"><stop offset="0" stop-color="#6fffe9"/><stop offset="1" stop-color="#57e6d1"/></linearGradient><linearGradient id="New_Gradient_Swatch_4" x1="10.61" y1="17.89" x2="17.29" y2="29.47" gradientUnits="userSpaceOnUse"><stop offset="0" stop-color="#3a506b"/><stop offset="1" stop-color="#243952"/></linearGradient><linearGradient id="New_Gradient_Swatch_2" x1="24.88" y1="22.15" x2="20.11" y2="30.41" gradientUnits="userSpaceOnUse"><stop offset="0" stop-color="#20bdba"/><stop offset="1" stop-color="#33dedb"/></linearGradient><linearGradient id="New_Gradient_Swatch" x1="9.54" y1="32.33" x2="28.62" y2="32.33" gradientUnits="userSpaceOnUse"><stop offset="0" stop-color="#1c2541"/><stop offset="1" stop-color="#0f0f2d"/></linearGradient></defs><title>Asset 16</title><g id="Layer_2" data-name="Layer 2"><g id="Layer_1-2" data-name="Layer 1"><path class="cls-1" d="M20.63.41,37,9.87a2.33,2.33,0,0,1,1.16,2v9.67L21,11.67a3.94,3.94,0,0,0-3.93,0L9.54,16V5l8-4.62A3.12,3.12,0,0,1,20.63.41Z"/><path class="cls-2" d="M9.54,5,1.16,9.87a2.31,2.31,0,0,0-1.16,2v9.67l19.08,11,9.54-5.51L9.54,16Z"/><path class="cls-3" d="M9.54,16l8-4.61a3.12,3.12,0,0,1,3.1,0L38.16,21.55v9.68a2.33,2.33,0,0,1-1.16,2l-8.38,4.84v-11Z"/><path class="cls-4" d="M20.63,42.69l8-4.62v-11l-8,4.61a3.12,3.12,0,0,1-3.1,0L0,21.55v9.68a2.31,2.31,0,0,0,1.16,2l16.37,9.46A3.12,3.12,0,0,0,20.63,42.69Z"/><text class="cls-5" transform="translate(46.91 34.81)">lepsta</text></g></g></svg>