
<svg width="281px" height="55px" viewBox="0 0 281 55" version="1.1" xmlns="http://www.w3.org/2000/svg" xmlns:xlink="http://www.w3.org/1999/xlink">
    <!-- Generator: Sketch 48.2 (47327) - http://www.bohemiancoding.com/sketch -->
    <desc>Created with Sketch.</desc>
    <defs></defs>
    <g id="Page-1" stroke="none" stroke-width="1" fill="none" fill-rule="evenodd">
        <g id="Artboard" transform="translate(-123.000000, -43.000000)">
            <g id="logo-v1.svg" transform="translate(123.000000, 43.000000)">
                <path d="M52.3329513,29.8896941 L52.0859483,30.5887158 L50.114752,30.114013 L50.223369,29.3826072 C51.3022972,22.1238395 47.6390905,15.1051876 41.1083966,11.9165429 C34.627586,8.75080391 26.7516513,10.0817096 21.510683,15.2268253 C20.6795622,16.0419557 19.9305077,16.9423904 19.2780015,17.9075933 C20.032688,19.1476657 20.1211907,20.6689265 19.4863851,22.0037815 C19.2651284,22.469796 18.9666329,22.8876293 18.5997491,23.248593 C17.275427,24.5479046 15.2471063,24.89939 13.5510729,24.1213828 C11.3183915,23.0993104 10.3496893,20.4848903 11.3916073,18.2930426 C11.6096458,17.8301875 11.9081412,17.4123542 12.2758296,17.0513904 C13.0691356,16.2725934 14.1279495,15.8192166 15.2398651,15.7694557 C16.3509762,14.0483616 17.3719754,12.793282 17.3816302,12.7830138 C17.5964504,12.5547457 17.7718466,12.3754487 17.9512657,12.2001008 C19.1444429,11.0287458 20.4679604,9.99561544 21.8920491,9.12361548 C21.5879217,7.69318802 21.7810184,6.20826056 22.4560526,4.87656497 C22.7859262,4.22888384 23.2115437,3.64676069 23.7224456,3.14520274 C25.7145607,1.18952168 28.7156064,0.688753588 31.1904634,1.89644193 C32.8164992,2.69024624 34.0193312,4.14752878 34.506096,5.8702026 C37.9054038,5.98157216 44.824705,6.95309385 48.9264023,12.6795428 C52.905805,18.2393324 54.1802438,24.6727017 52.3329513,29.8896941 Z M9.5451194,6.00605767 C6.11362877,9.37399953 4.31621961,13.9891225 4.61310591,18.6682237 C5.13688091,26.953803 12.2050275,33.6952157 20.81473,34.2323171 C21.016677,33.8816215 21.2668983,33.5562012 21.5541297,33.2734331 C22.2935295,32.5467665 23.2759093,32.097339 24.320241,32.0065056 C25.5077862,31.9054042 26.6655623,32.2647882 27.5811629,33.0183099 C28.4951543,33.7710418 29.0551349,34.8278678 29.1589244,35.9952735 C29.2739779,37.2882662 28.8008908,38.5583531 27.8643715,39.4785342 C27.1241671,40.2052009 26.1401782,40.6546284 25.096651,40.7446719 C23.4118816,40.8892153 21.8333155,40.1104183 20.9450703,38.7337009 C18.8757165,38.6499763 17.2705996,38.4122299 17.2545082,38.4098604 C15.2994033,37.9667517 13.4657885,37.2953749 11.7576866,36.4020489 C10.6473802,37.3735706 9.23133713,37.954114 7.7300097,38.0465271 C5.97443818,38.1539473 4.2792094,37.5963097 2.95810562,36.4786648 C1.63056529,35.3562808 0.841282213,33.8050055 0.734274416,32.1107665 C0.6224392,30.3351724 1.29505964,28.5856435 2.58076234,27.3037088 C0.978863666,24.3591292 -1.62311539,17.9913179 1.37793034,11.6408835 C2.57754406,9.10465896 4.21403924,6.7801156 6.11201963,4.91684758 C8.69629815,2.37904336 11.7198718,0.72666663 14.8560853,0.139014486 L15.595485,0 L16.1651205,1.91144918 L15.4643402,2.18473902 C13.2300495,3.05831869 11.238739,4.34341282 9.5451194,6.00605767 Z M8.85640756,45.3432079 C14.7321815,49.8983018 22.7617891,50.2979685 28.837901,46.3407948 C29.8251083,45.6994325 30.6948484,45.0106789 31.421375,44.2966499 C36.5456807,39.2660632 37.7629949,31.3122231 34.4642583,24.7809118 C33.0047685,24.7967089 31.5887255,24.0961075 30.7399043,22.9042162 C29.4920164,21.1554772 29.6995954,18.7922309 31.2331056,17.2867672 C31.4262024,17.0979919 31.6273449,16.9305426 31.8309011,16.7915281 C32.8068444,16.1201514 33.9927804,15.8626586 35.1674524,16.0664412 C36.3437336,16.2702238 37.3671465,16.9100064 38.0502264,17.8688904 C39.0189286,19.2290208 39.1211089,20.960383 38.3519401,22.4034481 C39.2216802,24.0352886 39.7905111,25.4072668 39.9031509,25.6837161 C40.4961189,27.5841073 40.8219697,29.4789695 40.888749,31.3785709 C42.2999646,31.8343172 43.5140606,32.7426505 44.353227,33.9819331 C46.091098,36.5552808 45.7732929,39.9729835 43.5985404,42.1087515 C43.3008496,42.4009979 42.9701713,42.6655993 42.615356,42.8978167 C41.0721909,43.9025123 39.2337487,44.2018673 37.4757635,43.7540195 C36.5054522,45.3084542 35.4313514,46.6670049 34.2751844,47.8012367 C31.3618368,50.6620916 27.9906889,52.2789249 24.25668,52.6075046 C17.361516,53.2117437 11.0448377,51.074396 7.36071212,46.889744 L6.8747519,46.3384252 L8.25619841,44.8779832 L8.85640756,45.3432079 Z" id="Shape" fill="#FFFFFF"></path>
                <g id="Group" transform="translate(62.409836, 10.312500)" fill-rule="nonzero">
                    <g transform="translate(0.000000, 0.797991)" fill="#FFFFFF" id="Shape">
                        <path d="M22.7098031,30.0994252 L0.339983958,30.0994252 C0.339983958,20.2242857 0.339983958,10.3052567 0.339983958,0.429319196 L22.7106069,0.429319196 L22.7106069,5.85486049 L5.93243875,5.85486049 L5.93243875,12.6792801 L22.1126209,12.6792801 L22.1126209,17.8925558 L5.93243875,17.8925558 L5.93243875,24.5900949 L22.7106069,24.5900949 L22.7106069,30.0994252 L22.7098031,30.0994252 Z"></path>
                        <path d="M42.6065002,30.0994252 L42.6065002,19.1645536 C42.6065002,15.9853571 40.8559445,13.5690402 37.5260307,13.5690402 C34.3239123,13.5690402 32.1465683,16.2399163 32.1465683,19.4183147 L32.1465683,30.0994252 L26.9809018,30.0994252 L26.9809018,9.1609375 L31.634583,9.1609375 L31.9761744,12.0009877 C34.11092,9.92381696 36.2456656,8.86488281 38.8923965,8.86488281 C43.8442669,8.86488281 47.8147651,12.5523996 47.8147651,19.12226 L47.8147651,30.0994252 L42.6065002,30.0994252 Z"></path>
                        <path d="M69.2482219,7.08456473 L73.090121,9.96690848 L70.742383,12.9338393 C72.3651434,14.7564509 72.9623256,16.8328237 72.9623256,19.12226 C72.9623256,21.7069531 71.9801497,25.3521763 68.5224405,26.9202288 C72.0227482,28.6582533 72.8771287,31.1591574 72.8771287,33.8284375 C72.8771287,39.593923 68.4372436,43.1537612 62.3319997,43.1537612 C56.2267559,43.1537612 51.6590755,39.4662444 51.6590755,33.8284375 L56.8247419,33.8284375 C56.8247419,36.5416071 59.3436774,38.3219252 62.3319997,38.3219252 C65.3203221,38.3219252 67.6688638,36.7115792 67.6688638,33.8284375 C67.6688638,30.9468917 64.9369359,29.6326004 62.3319997,29.6326004 C55.7573691,29.6326004 51.6590755,25.649029 51.6590755,19.1214621 C51.6590755,12.5930971 56.440552,8.52414062 62.3319997,8.52414062 C63.9965548,8.52414062 65.704512,8.73640625 67.1560747,9.71075335 L69.2482219,7.08456473 Z M56.8247419,19.12226 C56.8247419,22.7666853 59.3010789,24.9284431 62.3319997,24.9284431 C65.3203221,24.9284431 67.7966592,22.7235937 67.7966592,19.12226 C67.7966592,15.5185324 65.3203221,13.229894 62.3319997,13.229894 C59.3010789,13.230692 56.8247419,15.4770368 56.8247419,19.12226 Z"></path>
                        <path d="M82.3974832,3.31166295 C82.3974832,7.33832589 76.2504447,7.33832589 76.2504447,3.31166295 C76.2504447,-0.715 82.3974832,-0.715 82.3974832,3.31166295 Z M76.7198315,9.11864397 L76.7198315,30.0994252 L81.9280964,30.0994252 L81.9280964,9.11864397 L76.7198315,9.11864397 Z"></path>
                        <path d="M102.548967,30.0994252 L102.548967,19.1645536 C102.548967,15.9853571 100.798412,13.5690402 97.4693016,13.5690402 C94.2671832,13.5690402 92.0898391,16.2399163 92.0898391,19.4183147 L92.0898391,30.0994252 L86.9241727,30.0994252 L86.9241727,9.1609375 L91.5778538,9.1609375 L91.9186415,12.0009877 C94.0533871,9.92381696 96.1881327,8.86488281 98.8348636,8.86488281 C103.787538,8.86488281 107.758036,12.5523996 107.758036,19.12226 L107.758036,30.0994252 L102.548967,30.0994252 Z"></path>
                        <path d="M117.109604,21.4954855 C117.450392,24.0809766 119.713737,25.9458817 123.386046,25.9458817 C125.306191,25.9458817 127.825127,25.2260937 129.020295,23.9963895 L132.351816,27.260173 C130.130266,29.5496094 126.502967,30.651635 123.300045,30.651635 C116.043035,30.651635 111.730142,26.2004408 111.730142,19.5036998 C111.730142,13.1461049 116.08483,8.56803013 122.915051,8.56803013 C129.960676,8.56803013 134.357159,12.8915458 133.546181,21.4954855 L117.109604,21.4954855 Z M128.550105,17.2150614 C128.209317,14.5018917 126.074571,13.1461049 123.085445,13.1461049 C120.267517,13.1461049 117.963181,14.5018917 117.193997,17.2150614 L128.550105,17.2150614 Z"></path>
                    </g>
                    <g transform="translate(136.636579, 0.000000)" fill="#FFFFFF" id="Shape">
                        <path d="M31.1073265,16.2327344 C31.0213258,23.9046205 26.2832515,31.5757087 15.7815248,31.5757087 C5.27979815,31.5757087 0.411517225,24.0745926 0.411517225,16.2750279 C0.411517225,8.47626116 5.44938826,0.634402902 15.7815248,0.634402902 C26.0694555,0.634402902 31.1917197,8.47626116 31.1073265,16.2327344 Z M5.96137356,16.359615 C6.0883652,21.2345424 8.73509611,26.4478181 15.7807211,26.4478181 C22.8247386,26.4478181 25.4714695,21.1914509 25.5558627,16.3173214 C25.6418634,11.3155134 22.8247386,5.72079799 15.7807211,5.72079799 C8.73589985,5.72079799 5.83277442,11.3578069 5.96137356,16.359615 Z"></path>
                        <path d="M50.7894238,30.8974163 L50.7894238,19.9625446 C50.7894238,16.7833482 49.0388681,14.3670313 45.7097581,14.3670313 C42.5076397,14.3670313 40.3302956,17.0379074 40.3302956,20.2163058 L40.3302956,30.8974163 L35.1638254,30.8974163 L35.1638254,9.95892857 L39.8183103,9.95892857 L40.159098,12.7989788 C42.2938436,10.721808 44.4285892,9.66287388 47.0753201,9.66287388 C52.0279942,9.66287388 55.9984924,13.3503906 55.9984924,19.9202511 L55.9984924,30.8974163 L50.7894238,30.8974163 Z"></path>
                        <path d="M65.3492569,22.2934766 C65.6900446,24.8789676 67.9533893,26.7438728 71.6256983,26.7438728 C73.5458441,26.7438728 76.0647797,26.0240848 77.2599479,24.7943806 L80.5914691,28.0581641 C78.3699191,30.3476004 74.7426198,31.4496261 71.5396977,31.4496261 C64.2826878,31.4496261 59.9697944,26.9984319 59.9697944,20.3016908 C59.9697944,13.944096 64.3244826,9.36602121 71.154704,9.36602121 C78.200329,9.36602121 82.5968119,13.6895368 81.7858336,22.2934766 L65.3492569,22.2934766 Z M76.790561,18.0130525 C76.4497733,15.2998828 74.3150277,13.944096 71.3259016,13.944096 C68.5079731,13.944096 66.2036374,15.2998828 65.4344538,18.0130525 L76.790561,18.0130525 Z"></path>
                    </g>
                </g>
            </g>
        </g>
    </g>
</svg>