
<svg width="54px" height="54px" viewBox="0 0 54 54" version="1.1" xmlns="http://www.w3.org/2000/svg" xmlns:xlink="http://www.w3.org/1999/xlink">
    <!-- Generator: Sketch 48.2 (47327) - http://www.bohemiancoding.com/sketch -->
    <desc>Created with Sketch.</desc>
    <defs>
        <linearGradient x1="13.4033203%" y1="10.4817708%" x2="88.1184896%" y2="83.7565104%" id="linearGradient-1">
            <stop stop-color="#CA5653" offset="0%"></stop>
            <stop stop-color="#E34848" offset="100%"></stop>
        </linearGradient>
    </defs>
    <g id="Page-1" stroke="none" stroke-width="1" fill="none" fill-rule="evenodd">
        <g id="Artboard" transform="translate(-195.000000, -1770.000000)">
            <rect id="Rectangle-3" fill="url(#linearGradient-1)" x="195" y="1770" width="54" height="54" rx="6"></rect>
            <g id="prompt_fill" transform="translate(206.000000, 1781.000000)" fill="#FFFFFF" fill-rule="nonzero">
                <path d="M17.875,19.25 C17.875,20.0093915 17.2593915,20.625 16.5,20.625 C15.7406085,20.625 15.125,20.0093915 15.125,19.25 L15.125,8.25 C15.125,7.49060847 15.7406085,6.875 16.5,6.875 C17.2593915,6.875 17.875,7.49060847 17.875,8.25 L17.875,19.25 Z M16.5,26.125 C15.7406085,26.125 15.125,25.5093915 15.125,24.75 C15.125,23.9906085 15.7406085,23.375 16.5,23.375 C17.2593915,23.375 17.875,23.9906085 17.875,24.75 C17.875,25.5093915 17.2593915,26.125 16.5,26.125 Z M16.5,0 C7.401625,0 0,7.401625 0,16.5 C0,25.598375 7.401625,33 16.5,33 C25.598375,33 33,25.598375 33,16.5 C33,7.401625 25.598375,0 16.5,0 Z" id="Shape"></path>
            </g>
        </g>
    </g>
</svg>