<?xml version="1.0" standalone="no"?>
<!DOCTYPE svg PUBLIC "-//W3C//DTD SVG 20010904//EN"
 "http://www.w3.org/TR/2001/REC-SVG-20010904/DTD/svg10.dtd">
<svg version="1.0" xmlns="http://www.w3.org/2000/svg"
 width="700.000000pt" height="700.000000pt" viewBox="0 0 700.000000 700.000000"
 preserveAspectRatio="xMidYMid meet">
<metadata>
Created by potrace 1.11, written by Peter Selinger 2001-2013
</metadata>
<g transform="translate(0.000000,700.000000) scale(0.100000,-0.100000)"
fill="#000000" stroke="none">
<path d="M2220 6438 c-105 -23 -237 -64 -310 -95 -67 -29 -225 -110 -260 -133
-14 -9 -54 -36 -90 -60 -222 -148 -458 -390 -630 -645 -207 -307 -325 -593
-366 -885 -10 -72 -11 -398 -1 -475 31 -244 113 -507 241 -778 l37 -77 -45
-53 c-163 -192 -209 -487 -112 -727 113 -279 385 -462 686 -464 175 0 333 50
460 145 62 48 39 51 215 -29 186 -84 417 -155 545 -167 36 -4 72 -8 80 -10 20
-5 209 -19 236 -17 13 1 38 -19 72 -58 98 -111 217 -169 360 -176 95 -4 159 9
250 53 226 110 337 380 253 617 -135 386 -646 463 -888 133 l-35 -48 -62 6
c-105 11 -140 15 -176 25 -19 5 -52 11 -72 14 -20 3 -56 12 -80 21 -24 8 -49
15 -56 15 -8 0 -62 18 -120 41 -320 123 -584 305 -804 554 -67 76 -218 283
-218 298 0 3 -16 34 -36 68 -101 179 -183 440 -211 669 -17 142 -8 413 17 539
5 25 12 58 14 72 2 14 14 62 26 105 125 446 412 837 810 1102 77 51 238 138
300 162 19 7 58 24 87 37 l52 23 -14 48 c-8 26 -22 73 -31 104 -9 31 -21 59
-28 61 -6 2 -49 -5 -96 -15z"/>
<path d="M3675 6304 c-414 -61 -702 -449 -640 -862 6 -40 5 -41 -42 -73 -135
-91 -202 -143 -318 -249 -129 -118 -213 -219 -340 -413 -48 -72 -52 -76 -95
-82 -252 -36 -450 -267 -439 -513 14 -293 235 -504 521 -496 257 7 474 215
491 470 5 76 -14 188 -42 241 -11 23 -21 48 -21 54 0 24 141 199 237 296 107
107 212 196 313 263 61 40 89 57 193 113 117 65 346 147 492 178 33 7 62 13
65 14 3 1 37 5 75 9 39 5 79 10 90 12 33 7 265 7 345 0 436 -39 853 -236 1166
-550 181 -182 281 -333 415 -621 19 -42 84 -241 95 -290 41 -196 52 -305 49
-495 -2 -96 -5 -184 -8 -195 -2 -11 -8 -50 -12 -87 -6 -58 -4 -68 9 -69 20 -2
16 -1 106 -24 41 -11 81 -19 89 -20 21 0 91 223 107 343 3 26 8 49 9 52 7 12
18 191 17 265 -1 83 -11 236 -17 266 -2 9 -7 39 -10 66 -51 360 -261 835 -509
1152 -259 331 -642 556 -1121 659 -77 17 -165 33 -195 36 -107 12 -146 16
-204 20 -32 3 -62 8 -65 13 -4 4 -18 35 -31 68 -122 310 -446 498 -775 449z"/>
<path d="M4458 4605 c-2 -2 -25 -5 -53 -9 -122 -15 -217 -63 -306 -157 -95
-99 -141 -217 -138 -354 3 -138 44 -237 141 -340 82 -88 199 -145 326 -159 24
-2 45 -6 47 -8 6 -6 56 -123 80 -184 27 -73 80 -261 91 -324 4 -25 8 -47 9
-50 1 -5 15 -122 21 -175 12 -112 2 -345 -21 -483 -81 -487 -345 -927 -725
-1208 -286 -210 -565 -324 -910 -371 -113 -15 -531 -6 -561 13 -4 2 -24 6 -45
9 -48 8 -214 51 -268 72 -220 81 -378 166 -558 300 l-101 75 -73 -78 c-40 -44
-73 -84 -74 -91 0 -6 24 -38 53 -70 257 -286 597 -485 1007 -588 86 -22 151
-35 310 -60 114 -18 377 -23 545 -11 129 9 150 11 270 37 388 83 761 317 1046
654 19 22 37 42 40 45 12 11 126 169 164 228 l40 62 45 -7 c80 -14 251 -8 320
10 127 34 261 114 352 210 70 75 157 235 174 322 59 298 -29 571 -243 755 -68
58 -180 125 -225 136 -16 3 -29 9 -29 12 -3 16 -7 51 -13 127 -5 70 -20 172
-41 295 -25 142 -86 309 -195 532 l-43 87 21 53 c29 75 34 102 33 188 -1 122
-52 250 -138 345 -51 56 -145 114 -218 134 -44 11 -153 29 -157 26z"/>
</g>
</svg>
