
<svg width="90px" height="183px" viewBox="0 0 90 183" version="1.1" xmlns="http://www.w3.org/2000/svg" xmlns:xlink="http://www.w3.org/1999/xlink">
    <!-- Generator: Sketch 50.2 (55047) - http://www.bohemiancoding.com/sketch -->
    <desc>Created with Sketch.</desc>
    <defs>
        <linearGradient x1="13.0857648%" y1="50.0588938%" x2="66.6666667%" y2="50.0588938%" id="linearGradient-1">
            <stop stop-color="#6FFFE9" offset="0%"></stop>
            <stop stop-color="#57E6D1" offset="100%"></stop>
        </linearGradient>
        <linearGradient x1="37.079646%" y1="46.6820276%" x2="60.4424779%" y2="88.8018433%" id="linearGradient-2">
            <stop stop-color="#3A506B" offset="0%"></stop>
            <stop stop-color="#243952" offset="100%"></stop>
        </linearGradient>
        <linearGradient x1="53.6045963%" y1="41.215019%" x2="36.9747875%" y2="71.7290036%" id="linearGradient-3">
            <stop stop-color="#20BDBA" offset="0%"></stop>
            <stop stop-color="#33DEDB" offset="100%"></stop>
        </linearGradient>
        <linearGradient x1="33.3185883%" y1="50.0809563%" x2="100%" y2="50.0809563%" id="linearGradient-4">
            <stop stop-color="#1C2541" offset="0%"></stop>
            <stop stop-color="#0F0F2D" offset="100%"></stop>
        </linearGradient>
    </defs>
    <g id="Page-1" stroke="none" stroke-width="1" fill="none" fill-rule="evenodd">
        <g id="seal" transform="translate(1.000000, 0.000000)">
            <g id="Heart" transform="translate(0.000000, 87.000000)">
                <path d="M30.9315502,4.35368 L23.1857629,8.825597 L23.2272793,8.825597 L19.5560372,10.942937 L10.1911075,16.35194 C10.1911075,16.35194 5.3277495,19.127612 2.71221176,23.569875 C-0.16428655,28.451025 0.00177935,36.961902 0.00177935,36.961902 L0.00177935,43.414748 L0.00177935,45.905736 L0.00177935,48.983886 L0.00177935,52.103552 L0.00177935,57.92772 C0.00177935,57.92772 -0.16428655,66.444527 2.71221186,71.325678 C5.3277496,75.767941 10.1911076,78.543613 10.1911076,78.543613 L18.2808885,83.211251 L18.316474,83.264629 L27.5212687,88.578738 L27.5331305,88.578738 L30.9315502,90.535943 C30.9315502,90.535943 38.2206564,94.942619 43.8906202,94.889241 C49.0445935,94.835863 53.872366,92.018674 53.872366,92.018674 L57.0750652,90.174156 L57.1106507,90.174156 L77.2046227,78.567337 C77.2046227,78.567337 82.0679807,75.791664 84.6894494,71.349402 C87.5659477,66.468251 87.3939509,57.951444 87.3939509,57.951444 L87.3939508,46.664894 L87.4413982,46.736066 L87.4413982,33.984578 C87.4413982,33.984578 87.4651219,28.385785 84.9326172,23.896075 C82.1391518,18.961546 74.6780489,14.851416 74.6780489,14.851416 L66.9322616,10.379499 L66.9619162,10.438808 L64.8920236,9.246692 L64.9157473,9.246692 L53.8723659,2.870948 C53.8723659,2.870948 49.0445934,0.047828 43.8906201,0.000381 C38.2206564,-0.047066 30.9315502,4.35368 30.9315502,4.35368 Z" id="Shape" stroke="#435977" stroke-width="2" fill="#FFFFFF" fill-rule="nonzero"></path>
                <g id="Layer_2" transform="translate(13.000000, 13.000000)">
                    <g id="Layer_1-2">
                        <path d="M33.1054839,0.669428571 L59.3825806,15.8025714 C60.5373515,16.4680661 61.2497299,17.6970083 61.2522581,19.028 L61.2522581,34.4857143 L33.776129,18.7034286 C31.8303323,17.5673775 29.4219258,17.5673775 27.476129,18.7034286 L15.2825806,25.702 L15.2825806,8.11428571 L28.1467742,0.669428571 C29.6787239,-0.223207565 31.5735342,-0.223207565 33.1054839,0.669428571 Z" id="Shape" fill="url(#linearGradient-1)"></path>
                        <path d="M15.3029032,8.11428571 L1.86967742,15.8025714 C0.714906549,16.4680661 0.00252815994,17.6970083 2.04281037e-16,19.028 L2.04281037e-16,34.4857143 L30.626129,52.1342857 L45.9290323,43.31 L15.3029032,25.702 L15.3029032,8.11428571 Z" id="Shape" fill="url(#linearGradient-2)"></path>
                        <path d="M15.3029032,25.702 L28.1467742,18.2571429 C29.6787239,17.3645067 31.5735342,17.3645067 33.1054839,18.2571429 L61.2522581,34.4857143 L61.2522581,49.984 C61.2539328,51.3161186 60.5404248,52.5470095 59.3825806,53.2094286 L45.9290323,60.9991429 L45.9290323,43.3505714 L15.3029032,25.702 Z" id="Shape" fill="url(#linearGradient-3)"></path>
                        <path d="M33.1054839,68.4034286 L45.9290323,60.9991429 L45.9290323,43.3505714 L33.1054839,50.7142857 C31.567958,51.5861031 29.6843,51.5861031 28.1467742,50.7142857 L-2.94155394e-06,34.4857143 L5.92923063e-21,49.984 C-0.0016746889,51.3161186 0.711833217,52.5470095 1.86967742,53.2094286 L28.1467742,68.3628571 C29.6771318,69.2472879 31.5608076,69.2626999 33.1054839,68.4034286 Z" id="Shape" fill="url(#linearGradient-4)"></path>
                    </g>
                </g>
            </g>
            <g id="Icons" transform="translate(34.000000, 0.000000)">
                <g id="History">
                    <rect id="Rectangle-2" fill="#3A506B" fill-rule="nonzero" x="0" y="0" width="21" height="86"></rect>
                    <path d="M9.5,3.9349696 L9.5,52.0219281" id="Line-22" stroke="#FFFFFF" stroke-width="4" stroke-linecap="square" stroke-dasharray="7"></path>
                    <circle id="Oval-6" fill="#FFFFFF" fill-rule="nonzero" cx="9" cy="60" r="8"></circle>
                </g>
            </g>
        </g>
    </g>
</svg>